<svg xmlns="http://www.w3.org/2000/svg" xmlns:xlink="http://www.w3.org/1999/xlink" viewBox="0 0 342 515.7"><defs><style>.cls-1{fill:none;}.cls-2{isolation:isolate;}.cls-3{mix-blend-mode:multiply;}.cls-4{clip-path:url(#clip-path);}.cls-5{fill:#e0dad4;}.cls-6{clip-path:url(#clip-path-2);}.cls-7{fill:#e79d6e;}.cls-8{fill:#eb498f;}.cls-9{fill:#efeeee;}.cls-10{fill:#e1dfdf;}.cls-11{fill:#bb805a;}.cls-12{fill:#f9a320;}.cls-13{fill:#423136;}.cls-14{fill:#d48c28;}.cls-15{fill:#4c5d80;}.cls-16{fill:#fbc5a6;}.cls-17{fill:#f2f2f2;}.cls-18{fill:#4d4e4e;}.cls-19{clip-path:url(#clip-path-3);}.cls-20{fill:#b3b2b3;}.cls-21{fill:#676767;}.cls-22{clip-path:url(#clip-path-4);}.cls-23{fill:#ea116e;}.cls-24{clip-path:url(#clip-path-5);}.cls-25{fill:#36b24a;}.cls-26{clip-path:url(#clip-path-6);}.cls-27{fill:#f9aa57;}.cls-28{fill:#56b95c;}.cls-29{fill:#43b252;}.cls-30{clip-path:url(#clip-path-7);}.cls-31{clip-path:url(#clip-path-8);}.cls-32{clip-path:url(#clip-path-9);}.cls-33{clip-path:url(#clip-path-10);}.cls-34{clip-path:url(#clip-path-11);}.cls-35{fill:#563425;}.cls-36{fill:#774631;}.cls-37{fill:#9a6b37;}.cls-38{fill:#ae7c3e;}.cls-39{fill:#b58a4d;}.cls-40{fill:#d1af73;}.cls-41{fill:#b6803a;}.cls-42{fill:#cea665;}.cls-43{fill:#9d7a43;}.cls-44{fill:#c49349;}.cls-45{fill:#613c1d;}.cls-46{fill:#3f2210;}.cls-47{opacity:0.5;}.cls-48{clip-path:url(#clip-path-12);}.cls-49{fill:#9c6c36;}.cls-50{fill:#75963d;}.cls-51{fill:#678037;}</style><clipPath id="clip-path"><rect class="cls-1" x="0.3" y="438.69" width="163.03" height="69.93"/></clipPath><clipPath id="clip-path-2"><rect class="cls-1" x="193.39" y="440.97" width="148.61" height="68.75"/></clipPath><clipPath id="clip-path-3"><rect class="cls-1" x="227.05" y="437.65" width="46.34" height="38.15"/></clipPath><clipPath id="clip-path-4"><rect class="cls-1" x="209.78" y="447.8" width="41.25" height="43.32"/></clipPath><clipPath id="clip-path-5"><rect class="cls-1" x="191.01" y="110.76" width="20.22" height="33.21"/></clipPath><clipPath id="clip-path-6"><rect class="cls-1" x="235.47" y="193.98" width="45.57" height="200.59"/></clipPath><clipPath id="clip-path-7"><rect class="cls-1" x="188.39" y="205.88" width="30.63" height="248.89"/></clipPath><clipPath id="clip-path-8"><rect class="cls-1" x="202.27" y="109" width="34.58" height="44.79"/></clipPath><clipPath id="clip-path-9"><rect class="cls-1" x="176.69" y="191.65" width="11.53" height="72.92"/></clipPath><clipPath id="clip-path-10"><rect class="cls-1" x="223.12" y="470.38" width="27.91" height="13.47"/></clipPath><clipPath id="clip-path-11"><rect class="cls-1" x="248.45" y="455.68" width="27.18" height="14.71"/></clipPath><clipPath id="clip-path-12"><rect class="cls-1" x="188.73" y="73.47" width="45.4" height="44.08"/></clipPath></defs><title>Asset 5@2</title><g class="cls-2"><g id="Layer_2" data-name="Layer 2"><g id="Layer_1-2" data-name="Layer 1"><g class="cls-3"><g class="cls-4"><path class="cls-5" d="M163.33,473.66c0,19.3-36.49,35-81.51,35S.31,493,.31,473.66s36.5-35,81.51-35,81.51,15.65,81.51,35"/></g></g><g class="cls-3"><g class="cls-6"><path class="cls-5" d="M342,475.32c0,19-33.27,34.37-74.3,34.37s-74.31-15.39-74.31-34.37S226.66,441,267.7,441,342,456.34,342,475.32"/></g></g><path class="cls-7" d="M264.64,170c9.48-.18,12.72-13.21,13.57-21.16,1-9.22-.72-37.5-2.46-43.69S267.06,63.24,264,52.95c-2.13-7.13-16.46-2.79-14.68,3s5.79,48.46,7.6,55.3c1,3.65-4.22,40.43-4.31,43.23s2.34,15.72,12.07,15.54"/><path class="cls-7" d="M267.59,61.8,260,45.9a3.68,3.68,0,0,0-3.87-2L241.2,46.08a3.68,3.68,0,0,0-.27,7.24c3.69.75,7.87,2.45,10.09,6.18"/><path class="cls-8" d="M272.42,187.68l5.65-34.7s-12.62-14.67-24.21-3.46c0,0-.9,16.63-10.06,21.08s28.62,17.07,28.62,17.07"/><path class="cls-7" d="M143,451.83c-4.25-3.87-14.37-8.43-19.56-12A14.13,14.13,0,0,1,117.51,429c-2-28.55,3.35-86.93,4.23-154.81,0,0-1.43-14.5-5.46-19.16-6.72-7.76-19.37,10.93-28.68,8.77-12.44-2.88-41.68,2.92-43.21,16.77-2.61,23.73-.88,42.64-.5,85.38-4.64,23.83-4.08,31-3.61,53.06.39,18.76,2.79,29.37.85,48.39-.54,4.45-1.15,7.22,2.31,11.56.86,1.08,6.4,7.9,12.38,15.44,12.51,15.77,29.13,6.7,29.13.87,0-6.95-17.69-20.45-19.61-24.85a28.78,28.78,0,0,1-1.54-4.78c0-18,10.58-97.86,22.31-149.74,1.28,5.93,2.21,28.53,2.47,32.16-5.27,20.81,2.83,36.48,6.66,76.26.23,2.38-.14,5.22.06,7.78-1.41,7.14-.75,10.42,1.81,12.95,1.64,1.62,3.13,2,5.87,3.31,10,5.2,19.16,14.67,27.33,17.48,6.22,2.14,21.31-6.19,12.7-14"/><path class="cls-9" d="M67,261.41s12,63.74,12,82.07c0,35.31,10.3,56.08,12.63,64.48,1.76,6.34,3.5,8.25,13.57,9.28,4.18.43,16.69-.51,16-7.24-.37-3.43,3.67-8.35,4.28-18,.44-6.85.8-16.81-2.71-57.43,0,0-1.18-19.83,1.68-58.69,2.73-37-40.17-6.24-57.48-14.51"/><path class="cls-10" d="M93.46,373.35c-3.42-34.06,8.71-112.69,8.71-112.69s-18.82,76.22-8.71,112.69"/><path class="cls-10" d="M105.65,279c.38,84.81,11.69,111.13,11.69,111.13S108.63,343.44,105.65,279"/><path class="cls-10" d="M122.31,372c-10.67-29.9-7.4-78.82-7.4-78.82s1,48.09,7.4,78.82"/><path class="cls-10" d="M88.4,383.43s2,12.67,5.31,18.55S104.6,413.1,104.6,413.1s-13.13-4.27-14.72-14.84-1.48-14.83-1.48-14.83"/><path class="cls-9" d="M40,271.07s3.53,58.32,0,79c-6.8,39.79-1.67,64.32-1,74.29.54,7.53,1.89,10.06,11.73,13.44,4.08,1.4,16.73,3.09,17.32-4.64.3-4,5.27-8.61,7.73-19.3,1.75-7.62,4-18.76,8.35-65.29,0,0-11.23-28.57,13-65.75,13.93-21.38-51.66-35.63-57.15-11.72"/><path class="cls-10" d="M47.48,385.74c3.16-39.12,32.13-122.62,32.13-122.62S44.43,342.43,47.48,385.74"/><path class="cls-10" d="M77.78,282.18C61.82,377.8,68,409.94,68,409.94s.33-54.55,9.76-127.76"/><path class="cls-10" d="M76.48,390.5c-4.87-36,7.81-90.42,7.81-90.42s-8.23,54.41-7.81,90.42"/><path class="cls-10" d="M40.49,396s-.44,14.72,1.72,22.06S50.92,433,50.92,433,38.66,425.28,39.11,413s1.39-17,1.39-17"/><path class="cls-9" d="M123.79,245.56s-31,26.78-82.07,5.7v15.41s68.17,17.49,82.22-9Z"/><path class="cls-7" d="M118.54,225.28a79.52,79.52,0,0,0,2,11.51c0,.07,0,.17.07.24,1.2,4.23,3.14,8.23,4.82,12.3,1.55,3.67,2.93,7.39,4.28,11.11,2.41,6.55,4.84,13.21,6,20.16.19,1.14.37,2.31.49,3.53a34.74,34.74,0,0,1,.11,6.81c-.3,3.08,1.17,4.77,1.94,7.71,1,4-.91,8.09-1.42,12.21a17.27,17.27,0,0,0,.44,6.83,5,5,0,0,0,.92,2.13s0,.07.07.11a2.62,2.62,0,0,0,2.11,1.08,1,1,0,0,0,.44-.1c.26,0,.52-.07.8-.07.61,0,1.15.38,1.73.4,1.31.07,2.2-1.24,2.85-2.34a62.53,62.53,0,0,1,3.7-5.16,19.35,19.35,0,0,0,2.66-3.93c1.64-3.51,1-7.62-.33-11.27-1.24-3.35-2.62-6.67-3.7-10.08a24.94,24.94,0,0,1-.93-4.63c-.16-1.43-.28-2.9-.46-4.32,0-.4-.09-.77-.14-1.17q-1.79-11.89-3.58-23.86c-.84-5.52-1.73-11.06-2.6-16.58-.81-5.17-1.63-10.33-2.33-15.52-.33-2.39-.84-6.78-3-8.3-1.48-1.08-3.53-.74-5.33-.35-2.48.56-5,1.1-7.49,1.63-1.61.35-3.7,0-4.35,1.83-.73,2,0,6,.28,8.11"/><path class="cls-11" d="M142.61,290.19a2.85,2.85,0,0,0-1.36.75,3.32,3.32,0,0,0-.76,1.66,7.77,7.77,0,0,0,.41,4.46c1,2.49,3.25,4.32,4.28,6.8a25.21,25.21,0,0,1,1,3.84,7.54,7.54,0,0,0,1.69,3.54c.76.79,3.25,2,3.9.51s-.22-2.9-.89-4a15.33,15.33,0,0,1-2.13-6.32c-.21-2.2.17-4.42-.31-6.61a7,7,0,0,0-1.56-3.3,4.4,4.4,0,0,0-2-1.24,4.32,4.32,0,0,0-2.33-.07"/><path class="cls-7" d="M113.91,143.59c.37.07,1.24,1.94,1.45,2.29a16.36,16.36,0,0,1,1.31,2.53,12.51,12.51,0,0,1,.56,5.23c-.12,4.47.3,8.91.54,13.36s.36,8.68.33,13c0,6.43-.28,12.84-.68,19.24a86.12,86.12,0,0,0-.11,14.5,46.37,46.37,0,0,0,1.57,7.11c.49,2,.42,4.11,1,6.2.14.51.28,1.17.4,1.84.45,2.18.91,4.89,2,6.2,1.52,1.87,5.45,1.92,7.53,1.48a8.36,8.36,0,0,0,1.68-.52,15.06,15.06,0,0,0,5.64-3.86c1.75-1.83,2.55-3.37,2.66-5.27a11.16,11.16,0,0,0-.21-3.08c-.61-3.37-1.19-6.76-1.83-10.15a124,124,0,0,0-2.52-12.51A127.37,127.37,0,0,1,131.17,183c-.84-6.06-1.1-12.16-2.06-18.17-1.47-8.84-5-19.74-15.2-21.28"/><path class="cls-11" d="M117.3,213.75a46.45,46.45,0,0,0,1.57,7.11c.49,2,.42,4.11,1,6.2.14.51.28,1.17.4,1.84-.33-.19-.63-.42-.93-.63.19.14.33,1.36.42,1.63.21.64.47,1.27.7,1.9a13.66,13.66,0,0,1,.82,3.62c.23,2.43.63,4.91,1.07,7.29A102.38,102.38,0,0,0,127,258.44c2.67,7.32,5.71,14.5,7.88,22,.37,1.3.56,2.52,1.74,3.32a7.48,7.48,0,0,0,3.76,1.2h.12c-.61-4.45-1.59-8.84-2.53-13.21q-3.79-17.72-6.43-35.66c-.21-1.49-.42-3-.63-4.51-.42-3-.79-6-1.17-9-1-8.26-1.82-16.51-2.45-24.81-.16-2.13-.28-4.63-.68-7.11-.66-3.93-2.06-7.77-5.55-9.66a7,7,0,0,0-2.92-1c0,6.43-.28,12.84-.68,19.24a86.05,86.05,0,0,0-.11,14.5"/><path class="cls-12" d="M25.12,170.86c1.05,1.61.7,2.6.7,4.51s.09,3.55.26,5.36c.35,3.62.91,7.23,1.5,10.8.49,3.16,1.45,8.4,2.67,14.71,4,20.77,10.92,53.55,14.49,65.27.24.73.45,1.38.64,1.92a12.83,12.83,0,0,0,.82,2c1.73,3,5.31,4.33,8.42,5.36,1.92.61,3.84,1.2,5.8,1.71,9.94,2.64,20.32,3.83,30.43,2.13a43.33,43.33,0,0,0,7.06-1.83l.19-.07c.75-.23,1.5-.51,2.27-.8,1-.37,2-.74,3-1.14,1.17-.45,2.36-.93,3.55-1.4,4.61-1.82,9-4.42,12.09-8.39,2-2.69,4.21-6.46,4.63-9.8.14-1.12.26-2.29.33-3.46,0-.18,0-.39,0-.61.15-2.31.15-4.72.21-7q.81-37.7,1.61-75.44a114.41,114.41,0,0,0-.54-15.24c-.58-4.49-1.14-9.57-4.82-12.68a18.41,18.41,0,0,0-3.64-2.22c-.61-.28-1.22-.56-1.85-.82a50.59,50.59,0,0,0-5.57-2,4.34,4.34,0,0,0-.49-.17h0c-1.24-.37-2.5-.73-3.77-1-.42-.12-.84-.21-1.26-.33-1.31-.3-2.64-.61-4-.86l-.33-.07c-6-1.22-12.09-2.06-18.12-3.11-2.9-.54-6.31-1.62-9.31-1.2a35.54,35.54,0,0,0-7.95,2.48c-1.48.58-2.9,1.24-4.31,1.94l-1.12.56c-4.14,2.11-8,4.58-12,7-1.1.66-2.2,1.33-3.32,2a118.43,118.43,0,0,0-14,9.58,15.55,15.55,0,0,0-4.18,4.37,8,8,0,0,0-.07,8"/><path class="cls-13" d="M83.19,168.17c16.69,1.53,26-14,16.31-29.44-.81-1.29,0,2.11-1,.79.63-1.62,13.74-.83,14.46.65,9.57,19.21-.55,41.54-6.37,47l-.33.3C95.15,197.6,77.15,198,64,189.39c-10.59-7-16.08-14.94-22-24.28a21.83,21.83,0,0,0-9.73-9c-1.81-.86,13-15.69,23.29-17.34,1.71-.28,5.53-1.93,6.06.18-2.36.8-2.63,6.68-2.14,8.39.64,2.26,8,19.38,23.72,20.83"/><path class="cls-13" d="M105.16,183.95c.74,8.17-5.53,17.27-14,20.32S75.22,203.18,74.49,195s5.53-17.27,14-20.32,15.93,1.09,16.67,9.27"/><path class="cls-14" d="M30.24,206.24c4,20.77,10.92,53.55,14.5,65.27.23.73.44,1.38.63,1.92a12.83,12.83,0,0,0,.82,2c1.73,3,5.31,4.33,8.42,5.36,1.92.61,3.83,1.2,5.8,1.71A362.94,362.94,0,0,0,49.86,185c-1.47-5.75-5.89-22.22-13.24-11.34-1.73,2.55-2.45,5.64-3.06,8.67a190.58,190.58,0,0,0-3.32,23.94"/><path class="cls-11" d="M62,136.74a44.86,44.86,0,0,0,1.52,9.1,19.59,19.59,0,0,0,4,7.84,25.12,25.12,0,0,0,9.4,6.82,22.48,22.48,0,0,0,11.55,1.91l.25,0a14.59,14.59,0,0,0,9.8-5.59,7.62,7.62,0,0,0,1.38-3c.61-3.13-1.11-6.36-1.71-9.36a34.07,34.07,0,0,1-.67-8c0,1.16-5.26.36-5.9.14a28.16,28.16,0,0,1-5.14-2.55c-3.7-2.2-6.9-6.48-9.52-9.82-5.07-6.51-9.08-13.77-13-21-.1,2.09-.19,4.15-.29,6.24-.22,4.84-.44,9.72-.66,14.56-.21,4.29-1.09,8.38-1,12.71"/><path class="cls-7" d="M62,136.74a44.86,44.86,0,0,0,1.52,9.1,19.59,19.59,0,0,0,4,7.84,25.12,25.12,0,0,0,9.4,6.82,22.48,22.48,0,0,0,11.55,1.91l.25,0c-4.07-3.78-8.23-7.44-11.66-11.79a35.75,35.75,0,0,1-3.76-5.82,27,27,0,0,1-3-10.43c-.28-3.74.62-7.72.93-11.5.29-3.62-.35-8.27-3-11a8.27,8.27,0,0,0-4.65-2.35c-.22,4.84-.44,9.72-.66,14.56-.21,4.29-1.09,8.38-1,12.71"/><path class="cls-7" d="M63.84,117.26a5.85,5.85,0,0,0,2.74,1.55c.56,0,2-.45,2.06-1.17a27.74,27.74,0,0,0,.56,8.12A7.09,7.09,0,0,0,70,128a8.27,8.27,0,0,0,2,2.18,72.83,72.83,0,0,0,7.58,5.68,58.79,58.79,0,0,0,5.36,3,38.4,38.4,0,0,0,6.2,2.55.82.82,0,0,1,.23.07c.68.17,1.36.26,2,.4l1.71.21,1,.07a11.16,11.16,0,0,0,1.77.07c4.68-.26,6.71-3.49,7.86-7.6.37-1.33.73-2.64,1.07-4,.33-1.1.64-2.2.92-3.32.17-.49.28-1,.42-1.54,1.26-4.49,2.52-9.12,2.57-13.75a22.41,22.41,0,0,0-.17-3.08c-.09-.77-.2-1.57-.25-2.34a6,6,0,0,1,.32-2.5,2.35,2.35,0,0,1,.45-.71,2.07,2.07,0,0,0,.51-1.35c0-1.08.09-2.18.09-3.27l0-.36c.07-2.42.12-4.89.21-7.32,0-.91,0-1.8.09-2.71v-.23a6,6,0,0,0-1.61-4.68,25.66,25.66,0,0,0-4.3-3.62,42.26,42.26,0,0,0-5.26-2.78,38.8,38.8,0,0,0-8.37-2.76A25.12,25.12,0,0,0,76.3,77a33,33,0,0,0-4.14,2.76c-.86.67-1.71,1.35-2.55,2.05a10.93,10.93,0,0,0-3,3.34,11.49,11.49,0,0,0-1,4.37c-.17,1.83.51,3.49-1.48,4.56a12.61,12.61,0,0,1-3.6.93,4.43,4.43,0,0,0-3.13,1.78A5.33,5.33,0,0,0,57,98.37l-.07.56a20.13,20.13,0,0,0,6.95,18.33"/><path class="cls-15" d="M53.94,106.15a7.79,7.79,0,0,0,3.54,6.11c2,1.13,3.54.23,3.54-2a7.81,7.81,0,0,0-3.54-6.11c-2-1.13-3.54-.23-3.54,2"/><path class="cls-7" d="M31.16,158.73s-10.21,9.44-11.23,19.53S.42,232.44,0,242.53s28.23,48.11,28.23,48.11l5.84-11.14s-7.62-18.71-9.83-23.23-3.89-6-4.13-9.1c-.38-4.92,9.06-17.8,11.2-26.72S49.94,204.12,48.41,186s-9.9-29.23-17.25-27.29"/><path class="cls-13" d="M101.08,97.19c3.51-1.5,4-2.87,3.92-6.06-.27-8-2-16-9.44-18.86-14.2-5.42-38,1.5-32.19,24.62A13.63,13.63,0,0,0,68.7,99.4a49.55,49.55,0,0,0,32.38-2.21"/><path class="cls-10" d="M98.71,72.64S44,55.47,57.49,106.29Z"/><path class="cls-9" d="M110.63,81.33c-1.72-2.86-6.4-7.06-9.94-8.11A16.92,16.92,0,0,0,87.2,75.08c-3.52,2.12-10.06,5.2-13.52,10.75-1.51,2.43-6.75,7.37-9.49,8.24C50.92,98.28,61,117,61,117.26,61,119,77,103.93,78.7,104c7.09.38,18.8-3.69,20.13-4.33,6.18-3,10.1,1.76,11.14,6.52,3.22-2.81,3.88-8.36,3.82-13.09a23.45,23.45,0,0,0-3.15-11.79"/><path class="cls-10" d="M111.64,98.41s-5.36-17.54-47.74,4.82L81,92.62s27.57-13,30.65,5.79"/><path class="cls-16" d="M284.1,299a3.78,3.78,0,0,0-3-.79,3.32,3.32,0,0,0-1.13.56,3.4,3.4,0,0,0-1.6,3.38c.34,1.35,1.77,2.13,2.37,3.38.49,1,.35,2.24.6,3.35s.86,2,.83,3.06a10.43,10.43,0,0,0,.36,2.87c.45,1.87,2.37,1.37,2.9-.12a9.81,9.81,0,0,0,.09-3.78q-.19-3.46-.15-6.91c0-1.95.59-3.71-1.25-5"/><path class="cls-17" d="M251.68,179.37c.39,4.84,1.82,9.35,3,14,1.15,4.44.8,9.55,1.25,14.15.65,6.54,1.6,13.08,2.84,19.55q.95,5.06,2.14,10.06a5.1,5.1,0,0,0,.41,1.23c.75,1.4,2.57,1.8,4.16,1.82a19,19,0,0,0,8.59-1.86,1.74,1.74,0,0,0,1-.84,1.61,1.61,0,0,0,0-.95c-.6-4.16-1.28-8.29-1.95-12.45-.32-2.08-.67-4.16-1-6.23-.87-5.39-1.77-10.78-2.32-16.24-.8-7.79-1.47-17-6.21-23.55-.17-.23-.35-.47-.54-.71-2.25-2.81-5.85-4.85-9.39-4.26a3.32,3.32,0,0,0-1.88.82c-1,1-.21,4.09-.11,5.44"/><path class="cls-18" d="M258.8,227.1q.95,5.07,2.14,10.06a5.15,5.15,0,0,0,.41,1.24c.75,1.4,2.57,1.8,4.16,1.82a19,19,0,0,0,8.59-1.86,1.75,1.75,0,0,0,1-.84,1.61,1.61,0,0,0,0-.95c-.6-4.16-1.28-8.29-1.95-12.45-.83.39-1.58.78-2.17,1a31.11,31.11,0,0,1-9.63,2c-.28,0-1.28,0-2.53,0"/><path class="cls-7" d="M227.65,458.43a8.4,8.4,0,0,0,4.76,4.22,25.57,25.57,0,0,0,6.39,1.3c.41,0,1,0,1.11-.37s0-.54.09-.8.76-.32,1.17-.19a20.76,20.76,0,0,1,7,3.87c1.3,1.11,2.47,2.34,3.77,3.4a26.91,26.91,0,0,0,4.48,2.81,28.86,28.86,0,0,0,7.92,2.81,13.47,13.47,0,0,0,4.11.26,14.1,14.1,0,0,0,3.7-1.25,5.66,5.66,0,0,0,1.3-.82c2.85-2.25,3.68-6.64,2.18-10-1.23-2.77-4-5-6.47-6.62a40.64,40.64,0,0,0-7.47-3.63,57,57,0,0,1-5.24-2.41,20.79,20.79,0,0,1-2.18-1.34,11.57,11.57,0,0,1-1.86-1.56,18.6,18.6,0,0,1-3.25-4.52,9.21,9.21,0,0,1-.91-3c-.18-1-.39-2.1-1.3-2.62a3.05,3.05,0,0,0-1.65-.28,78.81,78.81,0,0,0-10.63.78,1.86,1.86,0,0,0-.72.21c-.49.37-.45,1.11-.47,1.71-.09,2.6-2.3,4.55-3.79,6.68a14,14,0,0,0-2.6,7.56,8.39,8.39,0,0,0,.59,3.81"/><g class="cls-3"><g class="cls-19"><path class="cls-20" d="M227.65,458.43a8.4,8.4,0,0,0,4.76,4.22,25.57,25.57,0,0,0,6.39,1.3c.41,0,1,0,1.11-.37s0-.54.09-.8.76-.32,1.17-.19a20.76,20.76,0,0,1,7,3.87c1.3,1.11,2.47,2.34,3.77,3.4a26.91,26.91,0,0,0,4.48,2.81,28.86,28.86,0,0,0,7.92,2.81,13.47,13.47,0,0,0,4.11.26,14.1,14.1,0,0,0,3.7-1.25,5.66,5.66,0,0,0,1.3-.82,19.38,19.38,0,0,1-7.89.28c-11.12-2.08-17.51-15.28-28.64-17.45.58.1,2-.72,2.6-.91.91-.35,1.82-.67,2.73-1A33.08,33.08,0,0,0,251,449.7a4.48,4.48,0,0,0,1.41-1.65,18.6,18.6,0,0,1-3.25-4.52,9.21,9.21,0,0,1-.91-3c-.18-1-.39-2.1-1.3-2.62a3.05,3.05,0,0,0-1.65-.28,78.81,78.81,0,0,0-10.63.78,1.86,1.86,0,0,0-.72.21c-.49.37-.45,1.11-.47,1.71-.09,2.6-2.3,4.55-3.79,6.68a14,14,0,0,0-2.6,7.56,8.39,8.39,0,0,0,.59,3.81"/></g></g><path class="cls-21" d="M258.55,398.77c-.38,2.08-.75,4.17-1.1,6.26-.88,5.35-5.32,35.74-5.95,38.88a5.56,5.56,0,0,1-.77,2.17,4.31,4.31,0,0,1-1.72,1.3c-3.35,1.62-7.27,1.43-10.95.84a29.24,29.24,0,0,1-9.21-2.83,3,3,0,0,1-1.23-1,3.27,3.27,0,0,1-.31-1.86c.24-7.8,1.27-15.62,1.27-23.41,1.26-36.27,8.13-72.07,15-107.7.92-4.75,1.83-9.51,2.9-14.23.8-3.54,1.69-7.07,2.72-10.56a20.38,20.38,0,0,1,1.69-4.79,11.64,11.64,0,0,1,3-3.54,22.8,22.8,0,0,1,2.13-1.2c2.86-1.58,5.73-5.34,9-5.84,8.09,13.62,7.91,31.44,7,46.77a198.17,198.17,0,0,1-2.78,25.86c-3.52,18.29-7.37,36.54-10.69,54.87"/><path class="cls-7" d="M210.16,465.38a13.28,13.28,0,0,0,2.12,3.53,34.13,34.13,0,0,0,3.62,3.88c.26.24.65.5.93.26s.19-.52.33-.75c.3-.71,1.34.56,1.51.84,1.12,1.77,2,3.51,3.25,5.18,3.92,5.1,8.46,10.28,14.64,12.08a24.15,24.15,0,0,0,9.87.43,16,16,0,0,0,4.61-1.15,10.71,10.71,0,0,0,1.13-.58,6,6,0,0,0,3-4.93c0-2-1.29-3.7-2.59-5.19-1.86-2.19-3.86-4.27-5.87-6.32a148.93,148.93,0,0,1-10.61-11.47,44.48,44.48,0,0,1-2.92-4.11c-.48-.74-.93-1.49-1.35-2.25a15.88,15.88,0,0,0-2.66-4.18c-.43-.41-.91-.8-1.31-1.26-.83-.88-1.11-.69-2.32-.56a33.68,33.68,0,0,1-12.1-.93.69.69,0,0,0-.62,0,.66.66,0,0,0-.16.39c-.63,3.16-1.23,6.32-1.86,9.48-.5,2.6-1.58,5-.63,7.62"/><g class="cls-3"><g class="cls-22"><path class="cls-20" d="M210.16,465.38a13.28,13.28,0,0,0,2.12,3.53,34.13,34.13,0,0,0,3.62,3.88c.26.24.65.5.93.26s.19-.52.33-.75c.3-.71,1.34.56,1.51.84,1.12,1.77,2,3.51,3.25,5.18,3.92,5.1,8.46,10.28,14.64,12.08a24.15,24.15,0,0,0,9.87.43,16,16,0,0,0,4.61-1.15,5.88,5.88,0,0,1-1.84-.06l-2,0a25,25,0,0,1-7.7-1.42,29,29,0,0,1-6.94-3.33,24.53,24.53,0,0,1-3.83-3.49,60,60,0,0,1-9.49-13.59,21.86,21.86,0,0,1-2-5.52c-.41-2.05-.3-4.07-.58-6.13a21,21,0,0,0,13,2.28c.27,0,3.82-.85,3.53-1.3-.48-.74-.93-1.49-1.35-2.25a15.88,15.88,0,0,0-2.66-4.18c-.43-.41-.91-.8-1.31-1.26-.83-.88-1.11-.69-2.32-.56a33.68,33.68,0,0,1-12.1-.93.69.69,0,0,0-.62,0,.66.66,0,0,0-.16.39c-.63,3.16-1.23,6.32-1.86,9.48-.5,2.6-1.58,5-.63,7.62"/></g></g><path class="cls-18" d="M204.38,268.44a22.38,22.38,0,0,0,6.74,4.46,66.31,66.31,0,0,0,10.35,3.2,83.83,83.83,0,0,0,15.21,2.65,67,67,0,0,0,9.1-.2c2.79-.22,5.62-.34,8.36-.82a8.9,8.9,0,0,0,3.59-1.2,57.11,57.11,0,0,1,.16,13.88c-1,9.27-3.69,18.21-6.67,27-1.69,5-2.34,10.57-3.31,15.77-1.88,10.14-3.62,20.32-5.32,30.49q-3.59,21.38-6.87,42.8c-1.57,10.24-3.51,20.48-3.74,30.86-.06,2.57,0,5.15.19,7.71.1,1.22.23,2.43.39,3.64.1.76.91,3,.55,3.66-.7,1.26-4.71.76-5.94.71a32.69,32.69,0,0,1-7.45-1.18,32.24,32.24,0,0,1-4.82-1.78,14.44,14.44,0,0,1-5.07-3.56c-1.57-1.86-1.64-4.21-2.07-6.52q-1.54-8.21-2.91-16.46-2.74-16.49-4.79-33.08-.51-4.14-1-8.3l-.22-2c-1-9.45-1.9-18.93-2.43-28.42s-.73-19-.45-28.49a241.24,241.24,0,0,1,2.41-28.21c.69-4.65,1.54-9.29,2.55-13.89q.78-3.45,1.67-6.87c.3-1.14.61-2.28.93-3.42a25.62,25.62,0,0,0,.84-2.49"/><path class="cls-23" d="M185.84,204.83c.75,2,1.65,4,2.55,6,2.14,4.67,4.46,9.28,5.89,14.22s1.91,9.89,2.84,14.83c.46,2.31,1,4.61,1.58,6.91.78,3,1.67,6,2.53,9,.76,2.64,1.23,5.39,1.84,8.08a16.9,16.9,0,0,0,1.93,5.5,11.77,11.77,0,0,0,2.88,3c.59.46,1.19.89,1.79,1.3a44,44,0,0,0,6.22,3.5,1,1,0,0,0,.22.11,56.11,56.11,0,0,0,13.14,3.51l.76.13c6.62,1.14,13.4,2,20,1,3.53-.52,9-1.69,11.56-4.44s2.41-6.86,2.14-10.19a139.74,139.74,0,0,1-.65-17c.09-1.91.26-3.81.47-5.69.35-3.14.85-6.28,1.34-9.4.09-.52.17-1,.26-1.56a101.41,101.41,0,0,1,2.14-10.6c1.28-4.59,3.25-9,3.7-13.83a.34.34,0,0,0,0-.13,11.19,11.19,0,0,0,0-1.73,15.44,15.44,0,0,0-.69-3.79c-.24-.8-.52-1.58-.82-2.36a49.12,49.12,0,0,1-1.67-4.76c-1.12-4-1-8.22-1.82-12.34a18,18,0,0,0-.5-2.19c-.07-.26-.15-.5-.24-.75a9.7,9.7,0,0,0-.54-1.32c-1.69-3.48-5.26-5.74-8.94-6.92a34.4,34.4,0,0,0-3.9-1c-1.26-.21-2.53-.41-3.81-.6s-2.49-.38-3.72-.61l-.58-.11c-3.14-.61-6.26-1.43-9.44-1.76a19.07,19.07,0,0,0-7.58.58c-1.28.39-2.51.48-3.81.8-1.49.37-3,.78-4.5,1.21a55.29,55.29,0,0,0-6.39,2.16c-.63.28-1.25.56-1.86.87v0a73.85,73.85,0,0,0-7,4c-4.61,2.88-9.24,5.83-13.12,9.65-4.46,4.42-6.56,10.61-4.3,16.65"/><path class="cls-18" d="M191,126.45a21.18,21.18,0,0,0,4.25,11.93,14.58,14.58,0,0,0,3.94,3.9,12,12,0,0,0,6.34,1.71,15.15,15.15,0,0,0,4.09-.52,19.28,19.28,0,0,0,10.65-7.73c3.31-4.84,4.55-10.89,4.4-16.75-.07-2.05-.33-4.29-1.67-5.93a25.82,25.82,0,0,0-3.59-3.42c-3.1-2.55-7.84-3.44-11.75-3.26a19.22,19.22,0,0,0-7.1,1.75,14.72,14.72,0,0,0-3.91,2.64l-.26.26a17.86,17.86,0,0,0-3.7,6.76,25.34,25.34,0,0,0-1.67,8.68"/><g class="cls-3"><g class="cls-24"><path class="cls-20" d="M191,126.45a21.18,21.18,0,0,0,4.25,11.93,14.58,14.58,0,0,0,3.94,3.9,12,12,0,0,0,6.34,1.71,15.15,15.15,0,0,0,4.09-.52c.28-2.92.54-5.85.82-8.79.39-4.19.78-8.39.78-12.6a9.89,9.89,0,0,0-.67-4.28,4.13,4.13,0,0,0-2.05-2c-1-.41-1.65.07-2.64.18a9.25,9.25,0,0,1-6.54-1.86,9.08,9.08,0,0,1-2.68-3.32l-.26.26a17.86,17.86,0,0,0-3.7,6.76,25.34,25.34,0,0,0-1.67,8.68"/></g></g><path class="cls-25" d="M209.53,178a8.6,8.6,0,0,0,3.79,7.17c5,3.52,10.28,6.88,15.56,10l.74.44c1.65.95,3.34,1.95,4.89,3.06a61.08,61.08,0,0,1,5.3,4.39l.91.8.7-1A56.8,56.8,0,0,0,247.57,192a19.84,19.84,0,0,0,1.47-4.67,17.3,17.3,0,0,0-.69-7l-.09-.26a32.68,32.68,0,0,0-2.79-6.77c-.32-.63-.73-1.21-1.12-1.82-.2-.28-.37-.56-.54-.82-3.14-.6-6.26-1.43-9.44-1.76a19.14,19.14,0,0,0-7.57.58c-1.28.39-2.51.48-3.81.8-1.49.37-3,.78-4.5,1.21a56.3,56.3,0,0,0-6.39,2.16c-.63.28-1.26.56-1.86.87v0a10.43,10.43,0,0,0-.69,3.5"/><path class="cls-7" d="M210.62,178.05a7.42,7.42,0,0,0,3.33,6.23c5,3.53,10.2,6.85,15.48,9.94,1.92,1.13,3.87,2.23,5.71,3.52a64.24,64.24,0,0,1,5.39,4.48,2.43,2.43,0,0,0,.15-.24,55,55,0,0,0,5.89-10.43,17.64,17.64,0,0,0,1.39-4.39,16.32,16.32,0,0,0-.65-6.6,1.49,1.49,0,0,0-.09-.24,31.61,31.61,0,0,0-2.7-6.56c-1-1.93-2.62-3.51-2.9-5.7a24.2,24.2,0,0,0-.11-2.51c-.37-1.6-2.32-2.27-3.7-2.73a44,44,0,0,1-11-5.11,28.2,28.2,0,0,1-2.73-2.06,23.06,23.06,0,0,1-2.4-2.36,12.53,12.53,0,0,1-2-2.64c-.19-.44-.55-1.17-.8-1.89a4.35,4.35,0,0,1-.33-1.36c0,.56,0,1.12,0,1.69,0,3,.09,6.06-.13,9.07a21.62,21.62,0,0,1-3,10.22c-2.14,3.29-4.57,5.47-4.7,9.65"/><path class="cls-11" d="M210.62,178.05a7.42,7.42,0,0,0,3.33,6.23c5,3.53,10.2,6.85,15.48,9.94,1.92,1.13,3.87,2.23,5.71,3.52a64.24,64.24,0,0,1,5.39,4.48,2.43,2.43,0,0,0,.15-.24c-3.4-3.6-7.12-6.91-10.06-10.86a35.68,35.68,0,0,1-7-20.57c0-3.59-.35-7.29.15-10.86a20.84,20.84,0,0,0,.21-4,14.38,14.38,0,0,0-1.82-6.84,2.42,2.42,0,0,0-.67-.83c-.84-.54-1.95.07-2.69.71l-.06.07-.37.33c0,3,.09,6.06-.13,9.07a21.62,21.62,0,0,1-3,10.22c-2.14,3.29-4.57,5.47-4.7,9.65"/><path class="cls-25" d="M195,370.29q.68,10.95,2.3,21.82c.41,2.77.54,5.63.93,8.42.86,6,1.88,12,2.9,18,.95,5.54,1.92,11.11,2.94,16.62.52,2.9.84,6.37,1.9,9.37.18.48.37,1,.59,1.41a9.37,9.37,0,0,0,2.95,3.79c.52.41,1.08.78,1.64,1.14s1.13.76,1.69,1.11a22.91,22.91,0,0,0,6.17,2.77,33.1,33.1,0,0,0,6.06,1.12,35.46,35.46,0,0,0,25.13-7.25,5.39,5.39,0,0,0,1-1,6.17,6.17,0,0,0,.84-1.86c.26-.83.5-1.65.72-2.49,2.36-8.77,3.14-17.88,4.55-26.84,1.51-9.72,3.91-19.22,5.88-28.86,2.9-14.29,5.72-28.61,7.64-43.07,1.85-13.88,3.66-28.35,2.28-42.3a125.66,125.66,0,0,0-3-17c-1.39-5.86-2.86-11.71-4.18-17.57a73.79,73.79,0,0,1-2-16.87c0-1.95-.28-4.09-.48-6.23-.26-2.88-.34-5.78.72-8.25a6.52,6.52,0,0,1,.63-1.15,18.44,18.44,0,0,1,1.32-1.88c1.82-2.36,4.61-4.87,5.93-7.47,1.6-3.14.46-7.92-.13-11.17-.33-1.82-.67-3.65-1-5.47-.28-1.63-.59-3.27-.92-4.89-.17-1-.37-2.08-.56-3.12-.83-4.41-1.65-8.83-2.51-13.25a40.49,40.49,0,0,0-1.48-6c-.06-.26-.15-.5-.24-.75s-.26-.58-.39-.89a1,1,0,0,0-.39-.54,1.17,1.17,0,0,0-.93,0c-5,1.26-7.88,4.74-11,8.63a286.79,286.79,0,0,0-39.2,68.86c-2,5-3.81,10-5.5,15.15a264.63,264.63,0,0,0-7.1,25.7,260.5,260.5,0,0,0-5.89,43.09v0a261.33,261.33,0,0,0,.13,29.11"/><g class="cls-3"><g class="cls-26"><path class="cls-20" d="M250.15,229.52c1.1-6.09,3.88-11.15,5.52-16.92,1-3.35,2-6.69,3.05-10,.6-1.82,3.45-6.87,3-8.63q6.25,26.17,10.57,52.75a642.89,642.89,0,0,1,8,92.06c.19,10.57,1.27,21.15.2,31.72-.63,6.21-2.67,9.89-7.35,14.1a40,40,0,0,1-37.74,8.32C248,348,249.07,300.73,248.85,254.09c-.07-8.19-.17-16.48,1.3-24.56"/></g></g><path class="cls-27" d="M206.57,446a9.48,9.48,0,0,0,2.95,3.79c.52.41,1.08.78,1.65,1.14s1.12.76,1.68,1.1a27,27,0,0,0,12.23,3.9,35.48,35.48,0,0,0,25.13-7.25,5.23,5.23,0,0,0,1-.95,6.24,6.24,0,0,0,.84-1.86c.26-.83.5-1.65.71-2.49-.24.89-2,2.12-2.63,2.71a17.2,17.2,0,0,1-2.5,2.1,29.75,29.75,0,0,1-7.18,3,52.12,52.12,0,0,1-15.52,1.51,31.31,31.31,0,0,1-7.25-.91,37.53,37.53,0,0,1-8.55-4,13.43,13.43,0,0,1-2.58-1.77"/><path class="cls-28" d="M256.46,225.55c1.1-6.08,3.88-11.15,5.52-16.92,1-3.35,2-6.69,3.05-10,.6-1.82,3.45-6.87,3-8.63q6.25,26.17,10.57,52.75a643,643,0,0,1,8,92.06c.19,10.56,1.27,21.15.2,31.72-.63,6.21-2.67,9.89-7.35,14.1A40,40,0,0,1,241.78,389c12.54-44.93,13.6-92.19,13.39-138.84-.08-8.19-.17-16.47,1.29-24.56"/><path class="cls-27" d="M276.82,380.63c4.68-4.21,6.72-7.89,7.35-14.1,1.06-10.57,0-21.16-.2-31.71a643.82,643.82,0,0,0-8-92.06q-3.89-23.94-9.39-47.59c.89-2,1.77-4.14,1.52-5.16q6.25,26.17,10.57,52.75a643.15,643.15,0,0,1,8,92.06c.19,10.56,1.27,21.15.2,31.71-.63,6.22-2.67,9.89-7.35,14.1a40,40,0,0,1-27.9,10,39.93,39.93,0,0,0,25.19-10"/><path class="cls-27" d="M269.35,195.59c-.75,1.76-1.66,3.55-2,4.48-1.1,3.32-2.09,6.65-3.05,10-1.64,5.77-4.42,10.84-5.52,16.92-1.46,8.08-1.37,16.37-1.29,24.56.21,46.39-.84,93.37-13.18,138.08-.86-.2-1.71-.42-2.56-.68,12.54-44.93,13.6-92.19,13.39-138.84-.08-8.18-.16-16.47,1.29-24.56,1.1-6.08,3.88-11.14,5.52-16.92,1-3.35,2-6.69,3.05-10,.6-1.82,3.45-6.88,3-8.63.44,1.86.85,3.72,1.28,5.58"/><path class="cls-29" d="M194.28,332.14c.1,2.49.26,5,.46,7.49.06.63.1,1.11.15,1.49v0c.18,1.65.28,1.54.48,4.26a93.28,93.28,0,0,1,8.76-26.71c1.41-2.9,6.43-10.24,11.39-17.26,4.37-6.19,8.68-12.14,10.43-14.61,1.41-2,2.75-4,4-6,6.1-9.22,11.5-18.87,16.91-28.51,8.68-15.54,17.45-31.28,23.18-48.07a4.33,4.33,0,0,0,.26-.76c1-3.06,2-6.17,2.77-9.31a9.13,9.13,0,0,0,.44-3.88,8.87,8.87,0,0,0-1.48-3.26c-3.09-5-7-9.75-12.09-12.71a23.77,23.77,0,0,0-4.4-2.1,7.42,7.42,0,0,0-3.18-.46l-.47.09c-2.14.65-2.4,3.23-3.18,5.11a65.87,65.87,0,0,1-4.44,8.68,100.43,100.43,0,0,1-12,15.51,83.29,83.29,0,0,1-14.5,12c-5.39,3.68-11.08,6.86-16.73,10.11l-2.14,1.25a2.07,2.07,0,0,0-.56.41c-.78.91-.78,2.62-.74,3.94,0,.33,0,.61,0,.87,0,2.12.11,4.24.22,6.36.17,3.53.41,7.1.83,10.65.15,1.58.37,3.18.6,4.74.41,2.55,1.23,5.13,1.86,7.64s1.3,5,2.06,7.38a7,7,0,0,1,.41,2.12,9,9,0,0,1-.72,3.07,105.15,105.15,0,0,0-5.57,23.4c-.56,5.07-.78,10.17-1.36,15.24s-1.54,10.09-1.6,15.19c0,2.21-.21,4.35-.1,6.58"/><path class="cls-27" d="M197.63,228.9c11.47-8.44,25.3-13.88,35.3-24a90.85,90.85,0,0,0,7-8.33A134.32,134.32,0,0,0,251.6,179a47.14,47.14,0,0,0,3.3-6.91,4.15,4.15,0,0,0-2.51-.28c-2.58.36-2.84,3.18-3.66,5.19a64.82,64.82,0,0,1-4.44,8.68,100.47,100.47,0,0,1-12,15.52,83.46,83.46,0,0,1-14.5,11.95c-6.08,4.14-12.53,7.67-18.88,11.37a2,2,0,0,0-.56.41c-.78.91-.78,2.62-.74,3.94"/><path class="cls-27" d="M203,315.58c2.66-5.47,18.09-26.6,21.82-31.86,7.79-11,14.37-22.75,21-34.48,10.39-18.62,20.91-37.5,26.21-58.14a10.34,10.34,0,0,0,.47-3.42,7.68,7.68,0,0,1,1.11,2.69,9.13,9.13,0,0,1-.44,3.88c-5.3,20.65-15.82,39.53-26.21,58.14-6.59,11.73-13.17,23.5-21,34.48-3.72,5.26-19.15,26.39-21.82,31.86a93.29,93.29,0,0,0-8.76,26.71c-.24-3.4-.35-2.41-.63-5.8,0-.08,0-.16,0-.24A96.43,96.43,0,0,1,203,315.58"/><g class="cls-3"><g class="cls-30"><path class="cls-20" d="M194.38,325.57c0,2.21-.22,4.35-.1,6.58.1,2.49.26,5,.45,7.49.07.63.11,1.1.15,1.49v0a262.59,262.59,0,0,0,.13,29.11q.68,10.95,2.3,21.81c.41,2.77.54,5.63.93,8.43.86,6,1.88,12,2.9,18,.95,5.54,1.92,11.1,2.94,16.62.52,2.9.84,6.36,1.9,9.37a14.71,14.71,0,0,0,.58,1.41,9.48,9.48,0,0,0,2.95,3.79c.52.41,1.08.78,1.65,1.14s1.12.76,1.69,1.1a22.6,22.6,0,0,0,6.16,2.77c.07-48.72-4.41-129-4.09-139.67.15-4.52.37-9.07.59-13.62.37-8.11.67-16.28.37-24.33a108.54,108.54,0,0,0-2.51-20c-.17-.89-.39-1.75-.63-2.64-2.7-10.32-7.36-19.94-11.17-29.87-.17-.45-.35-.93-.5-1.39-1.62-4.48-2.72-9.07-4.18-13.57-1.15-3.57-4.33-5.72-7.32-1.49a8.3,8.3,0,0,0-1.19,2.6c2.14,4.68,4.46,9.28,5.89,14.22s1.9,9.89,2.83,14.83c.46,2.31,1,4.61,1.58,6.91.15,1.58.37,3.18.6,4.74.41,2.55,1.24,5.13,1.86,7.64s1.3,5,2.05,7.38a7,7,0,0,1,.41,2.12,9.11,9.11,0,0,1-.71,3.07,104.9,104.9,0,0,0-5.57,23.4c-.56,5.06-.78,10.17-1.36,15.24s-1.54,10.09-1.6,15.19"/></g></g><path class="cls-7" d="M208.65,143.44a8.55,8.55,0,0,0,1.53,5.52,10.84,10.84,0,0,0,8.75,4.67,17.14,17.14,0,0,0,1.84,5.61c1.47,2.42,4,4,6.58,5.18a44.44,44.44,0,0,0,18.34,4.24,6.22,6.22,0,0,0,1.84-.19,1.58,1.58,0,0,0,.31-.1c1.45-.63,2.1-2.29,2.58-3.81a81.62,81.62,0,0,0,3.46-15,45.22,45.22,0,0,0,.24-7.47,33.06,33.06,0,0,1,0-7.6c.35-2.05-.61-4.33-1.42-6.23,0-.1-.09-.21-.13-.32a50.44,50.44,0,0,0-5.85-9.61c-1.86-2.53-3.66-5.5-6.93-6.25a16.68,16.68,0,0,0-6.87.17,37.39,37.39,0,0,0-3.7.84A13.17,13.17,0,0,0,219,125a53.57,53.57,0,0,0-.19,10.06,2.71,2.71,0,0,1-.28,1.63,2.16,2.16,0,0,1-1.19.8c-1.79.65-3.85.46-5.56,1.28a6,6,0,0,0-3.09,4.67"/><path class="cls-11" d="M208.65,143.44a8.55,8.55,0,0,0,1.53,5.52,10.84,10.84,0,0,0,8.75,4.67,17.14,17.14,0,0,0,1.84,5.61c1.47,2.42,4,4,6.58,5.18a44.44,44.44,0,0,0,18.34,4.24,6.22,6.22,0,0,0,1.84-.19c-.95-.3-1.9-.58-2.83-.93a22.7,22.7,0,0,1-11.28-9.09,23,23,0,0,1-3.51-14c.41-5,2.47-9.76,4.64-14.3s4.81-11.84-.37-15.37a10.7,10.7,0,0,0-5-1.67A13.17,13.17,0,0,0,219,125a53.57,53.57,0,0,0-.19,10.06,2.71,2.71,0,0,1-.28,1.63,2.16,2.16,0,0,1-1.19.8c-1.79.65-3.85.46-5.56,1.28a6,6,0,0,0-3.09,4.67"/><path class="cls-18" d="M202.52,136.49c.82,7.53,6.45,13.34,12.57,17.3-1.19-1.86-2.79-3.44-3.92-5.35-1.54-2.58-2.7-8.55,2.08-7.73a5,5,0,0,1,.63.15,5.51,5.51,0,0,1,2.92,1.79c.1.11.19.24.3.35a10.42,10.42,0,0,1,1.67,5.09,1.73,1.73,0,0,1,0,.35c.06.56.09,1.12.11,1.68.35-.93.67-1.88,1-2.81a1.26,1.26,0,0,1,.09-.26,46.93,46.93,0,0,1,3.38-7.92,51.23,51.23,0,0,1,4.46-6.09c1.19-1.42,2.36-2.87,3.55-4.33a38.63,38.63,0,0,0,3.29-4.46,15.37,15.37,0,0,0,1.17-2.36c.24-.61.28-2,.65-2.49a.86.86,0,0,1,.3-.22c.48-.19,1,.28,1.65.52a23.85,23.85,0,0,0,2.7.69,48.83,48.83,0,0,1,5.29,1.11,9,9,0,0,1,4.13,2.53,20.66,20.66,0,0,0-4-7.95,27.49,27.49,0,0,0-7.49-6.37,28.31,28.31,0,0,0-14.7-3.91,21.9,21.9,0,0,0-10.28,2.67,6,6,0,0,0-.82.52,23,23,0,0,0-9.13,11.67,35.28,35.28,0,0,0-1.62,15.82"/><g class="cls-3"><g class="cls-31"><path class="cls-20" d="M202.52,136.49c.82,7.53,6.45,13.34,12.57,17.3-1.19-1.86-2.79-3.44-3.92-5.35-1.54-2.58-2.7-8.55,2.08-7.73a5,5,0,0,1,.63.15,6.63,6.63,0,0,1,2.92,1.79c.1.11.19.24.3.35a6.89,6.89,0,0,1,1.67,5.09c0,.16,0,.3-.07.43s.07-.07.11-.08a9.9,9.9,0,0,0,1.15-1.13,1.26,1.26,0,0,1,.09-.26,46.93,46.93,0,0,1,3.38-7.92,51.23,51.23,0,0,1,4.46-6.09c1.19-1.42,2.36-2.87,3.55-4.33a38.63,38.63,0,0,0,3.29-4.46,15.37,15.37,0,0,0,1.17-2.36c.24-.61.28-2,.65-2.49a.86.86,0,0,1,.3-.22c-1.86-.28-3.7-.54-5.57-.88-1-.2-1.95-.39-2.9-.63-.8-.19-1.53-.52-2.29-.78a34.76,34.76,0,0,1-9.83-5.28,29.31,29.31,0,0,1-3-2.62,23,23,0,0,0-9.13,11.67,35.28,35.28,0,0,0-1.62,15.82"/></g></g><path class="cls-7" d="M178.58,255.93c0,.43.07.89.09,1.32.24,3.42.21,6.87.26,10.3,0,2.77.11,5.56.19,8.33.13,3.77.28,7.51.48,11.28a75.12,75.12,0,0,0,1.62,10.48c1.12,5.82,2.38,11.62,3.36,17.47.43,2.6.43,5.13.73,7.74a102.5,102.5,0,0,1,.52,13.17c-.07,3.14-.09,6.49.89,9.48a12.43,12.43,0,0,0,4,5.86,4.48,4.48,0,0,1,.93.87,3.6,3.6,0,0,1,.39.78,12.56,12.56,0,0,0,1.48,2.49,3,3,0,0,0,1.42,1.17,1.26,1.26,0,0,0,1.56-.69c.91.56,1.79,1.12,2.7,1.71a16.31,16.31,0,0,0,3.34,1.76l.67.19a5,5,0,0,0,3-.15,1.15,1.15,0,0,0,.72-.63,1,1,0,0,0-.41-.93,3.93,3.93,0,0,0-1-.39,7.87,7.87,0,0,1-4.76-4.63,11.65,11.65,0,0,1-.75-5c.06-1.32-.18-2.68.41-3.92a.65.65,0,0,1,.19-.28.26.26,0,0,1,.32,0,.33.33,0,0,1,.07.26,25.77,25.77,0,0,0,1.17,8.31,7.07,7.07,0,0,0,1.12,2.45,2.79,2.79,0,0,0,2.33,1.15,1.64,1.64,0,0,0,1.17-.63,2.57,2.57,0,0,0,.21-1.73c-.65-5.59-1.32-11.28-3.51-16.5a17.63,17.63,0,0,0-1.4-2.68c-.67-1-1.54-1.95-2.21-3-.69-1.41-1.56-2.73-2.19-4.18a47.57,47.57,0,0,1-1.3-5.67,81.45,81.45,0,0,1-.78-10.52c.09-3.85.41-7.7.32-11.56-.1-4.5-.41-9-.3-13.53.06-2.58.26-5.13.47-7.7.31-4.07.83-8.12,1.19-12.18.11-1,.19-2,.26-3,.11-1.27.18-2.55.22-3.81a22.88,22.88,0,0,1,.39-2.73c0-.07,0-.13,0-.19.3-2.44.45-5,.65-7.46.26-3.44.46-6.88.5-10.33,0-1.49,0-3,0-4.5,0-2.64-.17-5.3-.19-8,0-7.16.71-19-9.13-20a10.47,10.47,0,0,0-1.39,0c-6,.39-7.41,8.66-8.31,13.25-.11.58-.22,1.17-.3,1.73a140.63,140.63,0,0,0-1.52,18.84,137.76,137.76,0,0,0,0,16.14"/><path class="cls-11" d="M178.67,257.25c.24,3.42.22,6.86.26,10.31,0,2.77.11,5.56.19,8.33.13,3.77.28,7.51.47,11.28a76,76,0,0,0,1.62,10.48c1.12,5.82,2.38,11.62,3.36,17.46.43,2.6.43,5.13.73,7.75a103.4,103.4,0,0,1,.53,13.17c-.07,3.14-.09,6.49.88,9.48a12.52,12.52,0,0,0,4,5.86,4.29,4.29,0,0,1,.93.87,3.73,3.73,0,0,1,.39.78,12.5,12.5,0,0,0,1.47,2.49,3,3,0,0,0,1.43,1.17,1.25,1.25,0,0,0,1.56-.69c.91.56,1.8,1.12,2.7,1.71a16.37,16.37,0,0,0,3.34,1.76l.67.19c-5.26-3.05-10.61-6.59-12.94-12.14-2.41-5.76-1-12.3-.63-18.53.46-7.53-.69-15.07-2.14-22.47-1.3-6.58-2.86-13.12-3.83-19.76-.89-6.15-1.77-13.34-.24-19.44.6,1.28,3.16,1.06,4.35,1.08a20.45,20.45,0,0,0,6.62-.72,9.31,9.31,0,0,0,3-1.62c.11-1,.19-2,.26-3,.11-1.28.18-2.55.22-3.81a23.85,23.85,0,0,1,.39-2.73c0-.07,0-.13,0-.19-.28-.75-.58-1.49-.89-2.21a6.94,6.94,0,0,0-2.19-3,7.84,7.84,0,0,0-4.46-.89c-2.79,0-5.78,0-8.08,1.64a11.77,11.77,0,0,0-3.24,4.08c-.24.46-.47.91-.69,1.36"/><path class="cls-8" d="M176.87,244.37q.1,3.28.26,6.56c0,1.17.09,2.32.13,3.48.1,2.21-.52,6.41.95,8.25a3.57,3.57,0,0,0,1.56,1,25.12,25.12,0,0,0,2.71.93,26.48,26.48,0,0,0,9.29,1,13.55,13.55,0,0,0,4.89-1.15,3.44,3.44,0,0,0,1-.65,3.94,3.94,0,0,0,.78-2.47c.26-3.17.52-6.3.74-9.46.52-6.82.87-13.64.84-20.48a114,114,0,0,0-.8-13.57c-.28-2.25-.67-4.48-1.15-6.69-.28-1.23-.58-2.49-.93-3.7a78.49,78.49,0,0,0-3.15-8.05c-.82-2-3.12-7.3-5.75-7.66-.86-.16-1.76.23-2.64,1.38a32.19,32.19,0,0,0-4.2,8.53A82.46,82.46,0,0,0,177,224a200.57,200.57,0,0,0-.15,20.34"/><path class="cls-25" d="M178.21,262.67a3.65,3.65,0,0,0,1.56,1,26.75,26.75,0,0,0,12,1.9,13.46,13.46,0,0,0,4.89-1.15,3.25,3.25,0,0,0,1-.65,3.92,3.92,0,0,0,.78-2.46c.26-3.16.52-6.3.74-9.46a19.66,19.66,0,0,1-2.08,1,19.35,19.35,0,0,1-4.13.65,34,34,0,0,1-15.81-2.51c0,1.17.09,2.32.14,3.49.1,2.21-.53,6.4.95,8.25"/><g class="cls-3"><g class="cls-32"><path class="cls-20" d="M176.87,244.37q.1,3.28.26,6.56c0,1.17.09,2.32.13,3.48.1,2.21-.52,6.41.95,8.25a3.57,3.57,0,0,0,1.56,1,25.12,25.12,0,0,0,2.71.93q.81-19.09.72-38.25c0-6.78-.11-13.62.89-20.35a48.6,48.6,0,0,1,2.42-9.72,39.94,39.94,0,0,0,1.71-4.58c-.86-.16-1.76.23-2.64,1.38a32.19,32.19,0,0,0-4.2,8.53A82.46,82.46,0,0,0,177,224a200.57,200.57,0,0,0-.15,20.34"/></g></g><path class="cls-23" d="M180.94,326.34c.43,1.76,1.92,3.07,4.22,3.72a5.94,5.94,0,0,0,.65.15,11.31,11.31,0,0,0,2.71.3,16.31,16.31,0,0,0,9.35-3,13.33,13.33,0,0,0,1-.87c1.73-1.69,2.45-3.57,2-5.32s-1.93-3.05-4.22-3.7c-.23-.07-.45-.13-.69-.18,0,.69.13,1.37.19,2.06,1.58.45,2.58,1.25,2.84,2.29s-.26,2.27-1.48,3.44a1.22,1.22,0,0,1-.28.23,13.57,13.57,0,0,1-11.53,2.73h0c-1.58-.46-2.6-1.28-2.86-2.32s.26-2.27,1.48-3.44a7.69,7.69,0,0,1,.91-.75c-.09-.76-.13-1.49-.17-2.23A11.75,11.75,0,0,0,183,321c-1.73,1.67-2.45,3.55-2,5.3"/><g class="cls-3"><g class="cls-33"><path class="cls-20" d="M251,477.2s-19.68-1.14-21.35,6.65L224,479s-7.49-10.94,21-8.14c0,0,6.22,3.84,6.06,6.33"/></g></g><g class="cls-3"><g class="cls-34"><path class="cls-20" d="M257.58,470.4l-9.13-6.31s2-7.86,18.4-8.43c0,0,9.41,3.66,8.75,7.95,0,0-14-.58-18,6.78"/></g></g><path class="cls-35" d="M50.36,515.7l-7.12-.24L53.62,200c1.86-3.8,5.49-3.57,7.11.24Z"/><path class="cls-36" d="M43.24,515.46,53.63,200c1.49-3,3.64-2.74,3.64-2.74Z"/><path class="cls-7" d="M32.59,279.13s5.93,2.53,8.4,2.23a36.06,36.06,0,0,1,11.58.08c5.19.93,14.09,5.56,14.16,7.1s-4.37,1.84-4.37,1.84-5.57-2.83-6.46-2.48-.91,2-.47,2.92,7.67-.52,7.67-.52,2.58,7.6,2.44,8.49c-.16,1.05-3,10-5.84,9.85a11.66,11.66,0,0,1-4.83-1.23,5.46,5.46,0,0,1-3.68.45c-2-.5-5.31-2.67-9.34-5.57s-15.24-12.52-15.24-12.52Z"/><path class="cls-37" d="M190.71,110c-2.7-2.23-2.77-5-2.37-8.12s.26-6.32.53-9.48c.14-1.63-.13-2.95,0-4.47.31-3.27.17-6.35.18-9.7,0-1.31.65-3.1.24-4.3-.34-1-2-2-2.57-3.16-1.58-2.95-.77-6.93-.78-10.26,0-2.53.69-5,.82-7.54a11,11,0,0,1,2-5.88c1.49-2.16,2-3.74,4.63-4.81a80.5,80.5,0,0,1,8.75-2.85c3-.84,5.93-2.27,9.07-2.62,3.75-.42,7.79-.07,11.57-.18,7.92-.21,15.91-.39,23.75.92,5.94,1,13.38,3.38,18.09,6.95a28.67,28.67,0,0,1,4.79,4.48c.93,1.23,1.06,2.91,1.21,4.43.3,3-.24,5.9-.4,9-.13,2.51.9,6.08-.49,8.37s-5,2.19-6.14,4.78S263.1,81.37,263,84c-.21,4.8-.93,9.57-.89,14.38,0,4.54.87,7.35-3,10.82-1.1,1-2.35,2-3.54,2.9-3.75,2.75-8.55,3.5-13.12,4.38-2.3.45-4.61.91-6.9,1.26-4.6.71-8.84,0-13.54,0-3.89,0-7.51.06-11.32-.95s-7.56-1.48-11.28-2.6a26.43,26.43,0,0,1-8.66-4.22"/><path class="cls-38" d="M203.63,98.56c-.52-.56-1-1.13-1.47-1.71-1.44-1.87-2.29-2.86-2-5.07a14.18,14.18,0,0,0,.3-3.43c-.31-1.88-2.36-4.51-.47-6.41.89-.88,2.4-.49,3.53-.58a17.47,17.47,0,0,0,2.64-.6c1.72-.37,3.27.32,5,.6,3.12.53,6.28.46,9.43.74,2.9.26,5.88.7,8.78.78,3.66.1,7.25-1,10.92-1.1a47.06,47.06,0,0,0,9.92-.9,59.38,59.38,0,0,0,6.45-2.32,6.52,6.52,0,0,0,3.67-2.65,3.54,3.54,0,0,0,.57-2.38c-.57-1.33-1.48-.48-2.63-.4a19.47,19.47,0,0,0-6,1c-3.51,1.19-7,2.23-10.78,2.1-7.72-.26-15.36,1.16-23.09.83-3.92-.17-8.67.53-12.4-1a24.38,24.38,0,0,1-4.37-2.49c-1.44-1-1.17-.69-1-1.93A16.69,16.69,0,0,1,201.8,66c.69-1.62.83-3.82,2-5.18.95-1.06,2.39-1.23,3.8-1.3,4.32-.22,8.61.78,12.94.72,9.14-.14,18.3,1.2,27.44.8a24.54,24.54,0,0,0,12.68-4c1.78-1.15,3.8-1.93,5.3-3.46a8,8,0,0,0,2-4.09c.14-1.1-.65-1.49-.83-2.5,2.51.39,3.11,4.46,3.3,6.27.3,3-.25,5.9-.4,9-.13,2.5.91,6.08-.49,8.37s-5,2.19-6.14,4.78-.44,5.89-.56,8.49c-.22,4.79-.93,9.57-.89,14.38,0,4.53.87,7.35-3,10.81-1.1,1-2.35,2-3.53,2.9-3.66,2.68-8.21,3.47-12.64,3.83a36.12,36.12,0,0,1-5.81-.44,23.23,23.23,0,0,1-4.1-.55c-2.41-.62-3.44-2-5-3.75-2.74-3.15-7.9-2.64-11.7-4.09a35.24,35.24,0,0,1-12.54-8.38"/><path class="cls-39" d="M220.33,93.61a1.66,1.66,0,0,1-.06-.21c-.19-.92.56-1.85.71-2.82.22-1.48-1-3.38-.3-4.76,1-2.08,5.6-1.85,7.49-1.95,4.8-.25,9.52-1.33,14.28-1.94a60.68,60.68,0,0,0,7.74-1.24c2.18-.57,4.41-.83,6.59-1.44a9.24,9.24,0,0,1,1.32-.53,4.37,4.37,0,0,1,2.15.36c2.8,1.23,1.56,5.67,1.38,8-.28,3.49-.74,7-.71,10.47,0,4.53.87,7.35-3,10.82a14.54,14.54,0,0,1-7,3.9,58.4,58.4,0,0,1-5.86.76c-4.21.36-5.38-2.89-8.15-5.21-1.3-1.09-2.29-1-3.79-1.53s-2.6-1.83-3.9-2.7c-3.17-2.14-5.59-3.11-7.19-6.79a35.41,35.41,0,0,1-1.7-3.15"/><path class="cls-40" d="M256.09,106c-.64.46-1.22.62-1.49,1.33a2.36,2.36,0,0,0,.42,2.37,10.21,10.21,0,0,0,4.29-2.58,4,4,0,0,0,.87-2.58c-.31-1.15-1.38-.21-2.07.13a13.6,13.6,0,0,0-2,1.32"/><path class="cls-40" d="M256.67,101.9a4.8,4.8,0,0,1-2.36,1.25,3.47,3.47,0,0,0,.67,2.42,12.59,12.59,0,0,0,4.39-2.42c1.39-1.13,2.08-1.7,1-3.51a20,20,0,0,0-1.71,1.23c-.52.29-1.12.43-1.61.75l-.39.28"/><path class="cls-40" d="M256.62,98.44a4.8,4.8,0,0,1-2.36,1.25,3.49,3.49,0,0,0,.67,2.42,12.52,12.52,0,0,0,4.39-2.42c1.39-1.13,2.08-1.7,1-3.51a20,20,0,0,0-1.71,1.23c-.52.29-1.12.43-1.61.75l-.39.28"/><path class="cls-40" d="M256.46,95.08a4.78,4.78,0,0,1-2.36,1.25,3.47,3.47,0,0,0,.67,2.42,12.59,12.59,0,0,0,4.39-2.42c1.39-1.13,2.08-1.7,1-3.51-.62.26-1.11.9-1.71,1.23s-1.12.43-1.61.75l-.39.28"/><path class="cls-40" d="M257,91.2a4.78,4.78,0,0,1-2.36,1.25,3.47,3.47,0,0,0,.67,2.42,12.59,12.59,0,0,0,4.39-2.42c1.39-1.13,2.08-1.7,1-3.51A20,20,0,0,0,259,90.17c-.52.29-1.12.43-1.61.75l-.39.28"/><path class="cls-40" d="M257.22,86.54a4.76,4.76,0,0,1-2.36,1.25,3.5,3.5,0,0,0,.67,2.42,12.52,12.52,0,0,0,4.39-2.42c1.39-1.13,2.08-1.7,1-3.51-.62.26-1.1.9-1.71,1.23s-1.12.43-1.61.75l-.39.28"/><path class="cls-40" d="M257.47,82.34a4.76,4.76,0,0,1-2.36,1.25,3.49,3.49,0,0,0,.67,2.42,12.49,12.49,0,0,0,4.39-2.42c1.39-1.13,2.08-1.7,1-3.51a20,20,0,0,0-1.71,1.23c-.53.29-1.12.43-1.62.75l-.39.28"/><path class="cls-40" d="M248.52,110.07a3.72,3.72,0,0,0-1.95,1.3,2.69,2.69,0,0,0-.11,2.75c1.7-.13,10-3,6.31-5.41-1.07.65-2.83.86-4.26,1.36"/><path class="cls-40" d="M248,106.15a3.72,3.72,0,0,0-1.95,1.3,2.69,2.69,0,0,0-.11,2.75c1.7-.13,10-3,6.31-5.41-1.07.65-2.83.86-4.26,1.36"/><path class="cls-40" d="M248.26,102.1a3.09,3.09,0,0,0-1.62,1.09,2.23,2.23,0,0,0-.09,2.28c1.41-.11,8.32-2.47,5.25-4.5a21.54,21.54,0,0,1-3.54,1.13"/><path class="cls-40" d="M248.26,98.56a3.06,3.06,0,0,0-1.62,1.08,2.24,2.24,0,0,0-.09,2.29c1.41-.11,8.32-2.47,5.25-4.5a22.05,22.05,0,0,1-3.54,1.13"/><path class="cls-40" d="M248.16,95a3.07,3.07,0,0,0-1.62,1.09,2.23,2.23,0,0,0-.09,2.28c1.4-.11,8.32-2.47,5.25-4.5A22,22,0,0,1,248.16,95"/><path class="cls-40" d="M248.06,91.28a3.09,3.09,0,0,0-1.62,1.08,2.24,2.24,0,0,0-.09,2.29c1.4-.11,8.32-2.47,5.25-4.5a22,22,0,0,1-3.54,1.13"/><path class="cls-40" d="M248,87.46a3.06,3.06,0,0,0-1.62,1.09,2.23,2.23,0,0,0-.09,2.28c1.41-.11,8.32-2.47,5.25-4.5A22.05,22.05,0,0,1,248,87.46"/><path class="cls-40" d="M248,83.45a3.06,3.06,0,0,0-1.62,1.08,2.24,2.24,0,0,0-.09,2.29c1.41-.11,8.32-2.47,5.25-4.5A22.05,22.05,0,0,1,248,83.45"/><path class="cls-41" d="M248.16,80.19a3.06,3.06,0,0,0-1.62,1.08,2.23,2.23,0,0,0-.09,2.28c1.4-.1,8.32-2.47,5.25-4.5a22.4,22.4,0,0,1-3.54,1.14"/><path class="cls-40" d="M239.63,112.37a3.81,3.81,0,0,0-2.24.74,2.73,2.73,0,0,0-.88,2.62c1.66.32,10.46-.23,7.61-3.55-1.21.35-3,.09-4.48.2"/><path class="cls-40" d="M239.34,108.64a3.82,3.82,0,0,0-2.25.74,2.72,2.72,0,0,0-.88,2.61c1.66.32,10.46-.23,7.61-3.55-1.21.35-3,.09-4.48.2"/><path class="cls-40" d="M238.47,97.36a3.79,3.79,0,0,0-2.24.74,1.86,1.86,0,0,0-.57,2.17c1.2.23,5.35-.55,7.38-.94.6-.54.7-1.25-.09-2.16-1.22.34-3,.09-4.48.19"/><path class="cls-40" d="M239.34,94a3.82,3.82,0,0,0-2.25.74,1.87,1.87,0,0,0-.56,2.17c1.2.23,5.35-.56,7.38-.94.6-.53.71-1.24-.09-2.16-1.21.35-3,.09-4.48.2"/><path class="cls-40" d="M239.63,90.56a3.82,3.82,0,0,0-2.24.74,1.87,1.87,0,0,0-.56,2.17c1.2.23,5.35-.55,7.38-.94.6-.54.71-1.25-.08-2.16-1.22.34-3,.09-4.49.19"/><path class="cls-40" d="M239.63,87.2a3.81,3.81,0,0,0-2.24.74,1.87,1.87,0,0,0-.56,2.17c1.2.23,5.35-.56,7.38-.94.6-.53.71-1.24-.08-2.16-1.22.35-3,.09-4.49.2"/><path class="cls-40" d="M239.34,83.66a3.89,3.89,0,0,0-2.25.74,1.87,1.87,0,0,0-.56,2.17c1.2.23,5.35-.55,7.38-.94.6-.54.71-1.25-.09-2.17-1.21.35-3,.09-4.48.2"/><path class="cls-41" d="M239.53,81a3.83,3.83,0,0,0-2.24.74,1.87,1.87,0,0,0-.57,2.17c1.2.23,5.35-.56,7.38-.94.6-.54.71-1.24-.08-2.16-1.22.35-3,.09-4.49.19"/><path class="cls-40" d="M238.76,100.81a3.79,3.79,0,0,0-2.24.74,1.87,1.87,0,0,0-.57,2.17c1.2.23,5.35-.56,7.38-.94.6-.53.71-1.24-.08-2.16-1.22.35-3,.09-4.48.2"/><path class="cls-40" d="M238.76,104.91a3.83,3.83,0,0,0-2.24.74,1.86,1.86,0,0,0-.57,2.17c1.2.23,5.35-.55,7.38-.94.6-.54.71-1.25-.08-2.17-1.22.35-3,.09-4.48.2"/><path class="cls-40" d="M230,113.71l-.2,0a14.58,14.58,0,0,0-1.85-.34,11.7,11.7,0,0,0-.39,2.49c1.4.13,6.21,1.24,7.19-.45.32-.56-.11-1.46-.3-2-1.49,0-2.93.55-4.45.33"/><path class="cls-40" d="M230,110l-.2,0a14.58,14.58,0,0,0-1.85-.34,11.7,11.7,0,0,0-.39,2.49c1.4.13,6.21,1.24,7.19-.45.32-.56-.11-1.46-.3-2-1.49,0-2.93.55-4.45.33"/><path class="cls-40" d="M230.13,106.25l-.19,0a14.81,14.81,0,0,0-1.86-.34,12,12,0,0,0-.39,2.49c1.4.13,6.21,1.24,7.19-.45.32-.56-.11-1.46-.3-2-1.49,0-2.93.55-4.45.33"/><path class="cls-40" d="M229.94,102.62l-.19,0a14.81,14.81,0,0,0-1.86-.34,11.7,11.7,0,0,0-.39,2.49c1.41.13,6.21,1.24,7.19-.45.32-.56-.11-1.46-.3-2-1.49,0-2.93.55-4.45.33"/><path class="cls-40" d="M229.74,98.7l-.2,0a14.58,14.58,0,0,0-1.85-.34,12,12,0,0,0-.39,2.49c1.41.13,6.21,1.24,7.19-.45.32-.56-.11-1.46-.3-2-1.49,0-2.93.55-4.45.33"/><path class="cls-40" d="M230,95.34l-.2,0A15.42,15.42,0,0,0,228,95a11.61,11.61,0,0,0-.39,2.49c1.4.13,6.21,1.24,7.19-.45.32-.56-.11-1.46-.3-2-1.49,0-2.93.54-4.45.33"/><path class="cls-40" d="M230.42,91.71l-.19,0a14.72,14.72,0,0,0-1.86-.34,11.94,11.94,0,0,0-.39,2.49c1.4.13,6.21,1.24,7.19-.45.32-.56-.11-1.46-.3-2-1.49,0-2.93.55-4.45.33"/><path class="cls-40" d="M230.23,88.07l-.2,0a14.58,14.58,0,0,0-1.85-.34,11.7,11.7,0,0,0-.39,2.49c1.4.13,6.21,1.24,7.19-.45.32-.56-.11-1.46-.3-2-1.49,0-2.93.55-4.45.33"/><path class="cls-40" d="M230.13,84.53l-.19,0a14.81,14.81,0,0,0-1.86-.34,12,12,0,0,0-.39,2.49c1.4.13,6.21,1.24,7.19-.45.32-.56-.11-1.46-.3-2-1.49,0-2.93.55-4.45.33"/><path class="cls-41" d="M230.33,81.55l-.2,0a14.5,14.5,0,0,0-1.86-.34,12.31,12.31,0,0,0-.39,2.49c1.4.13,6.21,1.24,7.19-.45.32-.56-.11-1.46-.3-2-1.49,0-2.93.55-4.45.33"/><path class="cls-42" d="M221.32,113.86l-.19,0a14.63,14.63,0,0,0-1.84-.39,11.36,11.36,0,0,0-.47,2.48c1.4.17,6.16,1.43,7.19-.22.35-.55-.06-1.47-.23-2-1.48-.09-2.94.46-4.45.19"/><path class="cls-42" d="M221.22,109.95l-.19,0a14.66,14.66,0,0,0-1.84-.4,11.45,11.45,0,0,0-.47,2.48c1.4.17,6.16,1.43,7.19-.23.35-.54-.06-1.46-.23-2-1.48-.08-2.94.46-4.45.19"/><path class="cls-42" d="M221.51,106.12l-.19,0a14.66,14.66,0,0,0-1.84-.4,11.75,11.75,0,0,0-.47,2.48c1.4.17,6.16,1.43,7.19-.22.35-.55-.06-1.46-.23-2-1.48-.08-2.94.46-4.45.19"/><path class="cls-42" d="M221.32,102.21l-.19,0a14.66,14.66,0,0,0-1.84-.4,11.46,11.46,0,0,0-.47,2.48c1.4.17,6.16,1.43,7.19-.22.35-.55-.06-1.46-.23-2-1.48-.08-2.94.46-4.45.19"/><path class="cls-42" d="M221.22,98.48l-.19,0a14.66,14.66,0,0,0-1.84-.4,11.46,11.46,0,0,0-.47,2.48c1.4.17,6.16,1.43,7.19-.22.35-.55-.06-1.46-.23-2-1.48-.08-2.94.46-4.45.19"/><path class="cls-42" d="M222,95.31l-.19,0a14.63,14.63,0,0,0-1.84-.39,11.69,11.69,0,0,0-.47,2.48c1.4.17,6.16,1.43,7.19-.22.35-.55-.06-1.47-.23-2-1.48-.08-2.94.46-4.45.19"/><path class="cls-42" d="M222.29,91.49l-.19,0a14.63,14.63,0,0,0-1.84-.39,11.69,11.69,0,0,0-.47,2.48c1.4.17,6.16,1.43,7.19-.22.35-.55-.06-1.47-.23-2-1.48-.09-2.94.46-4.45.19"/><path class="cls-42" d="M222.09,87.57l-.19,0a15.53,15.53,0,0,0-1.84-.4,11.45,11.45,0,0,0-.47,2.48c1.4.17,6.16,1.43,7.19-.22.35-.55-.06-1.47-.23-2-1.48-.09-2.94.46-4.45.19"/><path class="cls-42" d="M222.19,84.31l-.19,0a15.53,15.53,0,0,0-1.84-.4,11.46,11.46,0,0,0-.47,2.48c1.4.17,6.16,1.43,7.19-.22.34-.54-.06-1.46-.23-2-1.48-.09-2.94.45-4.45.19"/><path class="cls-41" d="M222.09,81.32l-.19,0a14.66,14.66,0,0,0-1.84-.4,11.45,11.45,0,0,0-.47,2.48c1.4.17,6.16,1.43,7.19-.23.35-.54-.06-1.46-.23-2-1.48-.09-2.94.45-4.45.19"/><path class="cls-42" d="M212.63,113.06l-.19-.05a14,14,0,0,0-1.81-.49,11.82,11.82,0,0,0-.63,2.44c1.39.25,6.06,1.78,7.2.19.37-.53,0-1.46-.11-2-1.48-.17-3,.28-4.45-.06"/><path class="cls-42" d="M212.34,109.33l-.19-.05a14,14,0,0,0-1.81-.49,11.82,11.82,0,0,0-.63,2.44c1.39.25,6.07,1.78,7.2.19.37-.53,0-1.46-.11-2-1.48-.17-3,.28-4.45-.06"/><path class="cls-42" d="M212.82,105.69l-.19,0a13.24,13.24,0,0,0-1.81-.5,11.5,11.5,0,0,0-.63,2.44c1.39.25,6.06,1.78,7.2.19.37-.52,0-1.46-.11-2-1.48-.17-3,.28-4.45-.06"/><path class="cls-42" d="M213.12,102.05l-.19,0a13.24,13.24,0,0,0-1.81-.5,11.78,11.78,0,0,0-.63,2.44c1.39.25,6.06,1.77,7.2.18.37-.52,0-1.46-.11-2-1.48-.16-3,.28-4.45-.06"/><path class="cls-42" d="M213.21,98.14l-.19,0a13.24,13.24,0,0,0-1.81-.5,11.82,11.82,0,0,0-.63,2.44c1.39.25,6.07,1.78,7.2.19.37-.52,0-1.46-.11-2-1.48-.17-3,.28-4.45-.06"/><path class="cls-42" d="M213.6,94.6l-.19-.05a14.82,14.82,0,0,0-1.81-.5,11.78,11.78,0,0,0-.63,2.44c1.39.25,6.06,1.77,7.2.18.37-.52,0-1.46-.11-2-1.48-.16-3,.28-4.45-.06"/><path class="cls-42" d="M213.89,91l-.19-.05a14.82,14.82,0,0,0-1.81-.5,11.78,11.78,0,0,0-.63,2.44c1.39.25,6.06,1.78,7.2.19.37-.53,0-1.46-.11-2-1.48-.17-3,.28-4.45-.06"/><path class="cls-42" d="M214,87,213.8,87a14.82,14.82,0,0,0-1.81-.5,11.78,11.78,0,0,0-.63,2.44c1.39.25,6.06,1.77,7.2.18.37-.52,0-1.46-.11-2-1.48-.16-3,.28-4.45-.06"/><path class="cls-42" d="M214.28,83.69l-.19-.05a14,14,0,0,0-1.81-.49,11.82,11.82,0,0,0-.63,2.44c1.39.25,6.06,1.78,7.2.19.37-.53,0-1.46-.11-2-1.48-.17-3,.28-4.45-.06"/><path class="cls-43" d="M214.19,80.7l-.19-.05a14,14,0,0,0-1.81-.49,11.82,11.82,0,0,0-.63,2.44c1.39.25,6.06,1.78,7.2.19.37-.53,0-1.46-.11-2-1.48-.17-3,.28-4.45-.06"/><path class="cls-41" d="M257.14,78.67l-.19.05a14.38,14.38,0,0,0-1.82.46,12.09,12.09,0,0,0,.76,2.41c1.33-.47,6.16-1.44,6.29-3.37,0-.63-.76-1.27-1.18-1.68-1.36.58-2.39,1.7-3.86,2.13"/><path class="cls-44" d="M204,111.54l-.19-.07a14.46,14.46,0,0,0-1.74-.71,11.76,11.76,0,0,0-.93,2.35c1.35.41,5.79,2.48,7.12,1,.44-.48.21-1.45.15-2-1.45-.34-3-.07-4.42-.58"/><path class="cls-44" d="M195.53,108.6l-.17-.1a13.24,13.24,0,0,0-1.56-1,11.79,11.79,0,0,0-1.4,2.13c1.24.66,5.18,3.51,6.77,2.34.53-.38.5-1.38.56-1.95-1.35-.6-2.91-.62-4.21-1.4"/><path class="cls-44" d="M195.92,104.68l-.17-.1a12.45,12.45,0,0,0-1.55-1,11.63,11.63,0,0,0-1.4,2.13c1.24.66,5.17,3.51,6.77,2.34.53-.38.5-1.38.56-1.95-1.35-.6-2.91-.62-4.21-1.4"/><path class="cls-44" d="M196.21,100.77l-.17-.1a12.52,12.52,0,0,0-1.56-1,12.11,12.11,0,0,0-1.39,2.13c1.24.66,5.18,3.51,6.77,2.34.53-.39.5-1.38.56-1.95-1.35-.6-2.91-.62-4.21-1.4"/><path class="cls-44" d="M196.79,97.5l-.17-.1a13.07,13.07,0,0,0-1.56-1,11.86,11.86,0,0,0-1.39,2.13c1.24.66,5.18,3.51,6.78,2.34.53-.39.5-1.39.56-1.95-1.35-.6-2.91-.62-4.22-1.4"/><path class="cls-44" d="M197.13,94.29l-.17-.1a12.5,12.5,0,0,0-1.56-1,12.06,12.06,0,0,0-1.4,2.13c1.24.66,5.18,3.51,6.78,2.34.52-.38.5-1.38.55-1.95-1.35-.6-2.91-.62-4.21-1.4"/><path class="cls-44" d="M197.08,90.56l-.17-.1a13.74,13.74,0,0,0-1.56-1A12.29,12.29,0,0,0,194,91.56c1.24.66,5.18,3.51,6.77,2.34.53-.38.5-1.38.56-1.95-1.35-.6-2.91-.62-4.21-1.4"/><path class="cls-44" d="M197.42,87.11l-.17-.1a12.54,12.54,0,0,0-1.56-1,12.11,12.11,0,0,0-1.39,2.13c1.24.66,5.18,3.51,6.78,2.34.52-.39.5-1.38.55-1.95-1.35-.6-2.91-.62-4.21-1.4"/><path class="cls-44" d="M197.42,83.66l-.17-.1a13.16,13.16,0,0,0-1.56-1,12.11,12.11,0,0,0-1.39,2.13c1.24.66,5.18,3.51,6.78,2.34.52-.38.5-1.38.55-1.95-1.35-.6-2.91-.62-4.21-1.4"/><path class="cls-44" d="M197.86,80.49l-.17-.1a12.52,12.52,0,0,0-1.56-1,11.84,11.84,0,0,0-1.39,2.13c1.24.66,5.17,3.51,6.77,2.34.52-.38.5-1.38.56-1.95-1.35-.6-2.92-.62-4.21-1.4"/><path class="cls-43" d="M198,77.13l-.17-.1a12.71,12.71,0,0,0-1.56-1,12.15,12.15,0,0,0-1.4,2.13c1.24.66,5.18,3.51,6.78,2.34.53-.39.5-1.39.56-1.95-1.35-.6-2.91-.62-4.21-1.4"/><path class="cls-44" d="M203.83,107.63l-.19-.07a14,14,0,0,0-1.73-.71,11.62,11.62,0,0,0-.94,2.35c1.35.41,5.79,2.48,7.12,1,.44-.48.22-1.45.16-2-1.45-.34-3-.07-4.42-.58"/><path class="cls-44" d="M204.41,104.08l-.19-.07a14.46,14.46,0,0,0-1.74-.71,11.49,11.49,0,0,0-.93,2.35c1.35.41,5.79,2.48,7.12,1,.44-.48.21-1.45.16-2-1.45-.34-3-.07-4.42-.58"/><path class="cls-44" d="M205,101l-.19-.07a13.73,13.73,0,0,0-1.74-.71,11.79,11.79,0,0,0-.94,2.35c1.35.41,5.79,2.48,7.12,1,.44-.48.21-1.45.16-2-1.45-.34-3-.07-4.42-.58"/><path class="cls-44" d="M205.29,97.18l-.19-.07a13.73,13.73,0,0,0-1.74-.71,11.87,11.87,0,0,0-.94,2.35c1.35.41,5.79,2.48,7.12,1,.44-.48.21-1.45.16-2-1.45-.34-3-.07-4.42-.58"/><path class="cls-44" d="M205.33,93.17l-.19-.08a15.3,15.3,0,0,0-1.73-.71,11.92,11.92,0,0,0-.94,2.35c1.35.41,5.79,2.48,7.12,1,.44-.48.21-1.45.15-2-1.45-.34-3-.07-4.42-.58"/><path class="cls-44" d="M205.77,89.63l-.19-.07a14,14,0,0,0-1.74-.71,11.87,11.87,0,0,0-.94,2.35c1.35.41,5.79,2.48,7.12,1,.44-.48.21-1.45.16-2-1.45-.34-3-.07-4.42-.58"/><path class="cls-44" d="M205.87,85.95l-.19-.07a13.73,13.73,0,0,0-1.74-.71,11.79,11.79,0,0,0-.94,2.35c1.35.41,5.79,2.48,7.12,1,.44-.48.21-1.45.16-2-1.45-.34-3-.07-4.42-.58"/><path class="cls-44" d="M206.25,82.64l-.18-.08a14.83,14.83,0,0,0-1.74-.7,11.77,11.77,0,0,0-.94,2.35c1.35.41,5.79,2.48,7.12,1,.44-.48.21-1.45.16-2-1.45-.34-3-.07-4.42-.58"/><path class="cls-43" d="M206.35,79.19l-.18-.07a14.46,14.46,0,0,0-1.74-.71,11.81,11.81,0,0,0-.94,2.35c1.35.41,5.79,2.48,7.12,1,.44-.48.21-1.45.15-2-1.45-.34-3-.07-4.42-.58"/><path class="cls-43" d="M190.4,105.27l-.23-.18c-.88-.65-.81,1-.65,1.47s1.5,1.9,2.16,1.64c.32-.13.45-1.34.35-1.57s-.74-.57-1-.77-.44-.39-.65-.58"/><path class="cls-43" d="M190.4,101.82l-.23-.18c-.88-.65-.81,1-.65,1.47s1.5,1.9,2.16,1.64c.32-.13.45-1.35.35-1.57s-.74-.57-1-.77-.44-.39-.65-.59"/><path class="cls-43" d="M190.55,98.42a2.12,2.12,0,0,0-.22-.18c-.88-.65-.81,1-.65,1.47s1.5,1.9,2.16,1.64c.32-.13.45-1.34.35-1.57s-.74-.57-1-.77-.43-.39-.65-.58"/><path class="cls-43" d="M190.74,95.25l-.22-.18c-.88-.65-.81,1-.65,1.47s1.5,1.9,2.16,1.64c.33-.13.45-1.35.35-1.57s-.74-.57-1-.77-.43-.39-.65-.58"/><path class="cls-43" d="M190.94,92l-.22-.18c-.88-.65-.81,1-.65,1.47s1.5,1.9,2.16,1.64c.32-.13.45-1.35.35-1.57s-.74-.57-1-.77-.43-.39-.65-.59"/><path class="cls-43" d="M191.13,89l-.23-.18c-.88-.65-.8,1-.65,1.47s1.5,1.9,2.16,1.64c.32-.13.45-1.35.35-1.57s-.74-.57-1-.77-.43-.39-.65-.59"/><path class="cls-43" d="M191.18,85.78,191,85.6c-.88-.65-.81,1-.65,1.47s1.5,1.9,2.15,1.64c.33-.13.45-1.35.35-1.57s-.74-.57-1-.77-.43-.39-.65-.58"/><path class="cls-43" d="M191.47,82.57l-.23-.18c-.88-.65-.81,1-.65,1.47s1.5,1.9,2.16,1.64c.32-.13.45-1.35.35-1.57s-.74-.57-1-.77-.44-.39-.65-.58"/><path class="cls-43" d="M192.15,78.79l-.23-.18c-.88-.65-.81,1-.65,1.47s1.5,1.9,2.16,1.64c.32-.13.45-1.34.35-1.57s-.74-.57-1-.77-.43-.39-.65-.58"/><path class="cls-43" d="M192.05,75.43l-.22-.18c-.88-.65-.81,1-.65,1.47s1.5,1.9,2.16,1.64c.33-.13.45-1.35.36-1.57s-.74-.57-1-.77-.43-.39-.65-.59"/><path class="cls-42" d="M233.76,78.44c-1.38.13-4.36.66-5.31-.6a1.88,1.88,0,0,1-.15-2.06c.58-.64,3.24-.2,4.17-.28,2.13-.18,4.24-.37,6.36-.52.87-.06,2.22-.44,3-.08,1.1.48.46,1.89-.42,2.47a7.66,7.66,0,0,1-4.28.94,31.36,31.36,0,0,0-3.4.13"/><path class="cls-40" d="M249.84,75.87c-1.34.33-4.2,1.29-5.35.17a1.9,1.9,0,0,1-.47-2c.48-.72,3.18-.67,4.08-.88,2.07-.48,4.14-1,6.2-1.43.86-.18,2.13-.75,3-.52,1.17.32.74,1.81,0,2.5a7.63,7.63,0,0,1-4.09,1.54,30.66,30.66,0,0,0-3.34.63"/><path class="cls-44" d="M264.86,72c-1.31.42-4.09,1.59-5.32.56-.47-.39-1-1.38-.63-2,.42-.75,3.11-.91,4-1.18.38-.12,5.57-1.66,5.55-1.35,0,1.11.24,2.13-.78,2.93a8.87,8.87,0,0,1-2.81,1"/><path class="cls-44" d="M264.85,67.35c-1.31.43-4.09,1.59-5.32.56-.47-.39-1-1.38-.63-2,.42-.75,3.12-.9,4-1.18.38-.12,5.57-1.66,5.56-1.35,0,1.11.24,2.14-.78,2.93a8.94,8.94,0,0,1-2.82,1"/><path class="cls-44" d="M264.74,62.79c-1.31.42-4.08,1.59-5.31.56-.47-.39-1-1.38-.63-2,.42-.75,3.11-.91,4-1.18.38-.12,5.57-1.66,5.56-1.35,0,1.11.24,2.14-.79,2.93a8.86,8.86,0,0,1-2.82,1"/><path class="cls-44" d="M265.12,58.3c-1.31.43-4.09,1.59-5.31.56-.47-.39-1-1.38-.63-2,.42-.75,3.11-.9,4-1.18.39-.11,5.57-1.66,5.56-1.35,0,1.11.24,2.14-.78,2.94a9,9,0,0,1-2.82,1"/><path class="cls-40" d="M250,70.94c-1.34.33-4.2,1.29-5.34.17-.44-.43-.85-1.45-.47-2,.48-.72,3.18-.67,4.08-.88,2.07-.48,4.13-1,6.2-1.43.85-.18,2.13-.75,3-.52,1.17.32.75,1.81,0,2.5a7.57,7.57,0,0,1-4.09,1.54,31.1,31.1,0,0,0-3.34.63"/><path class="cls-40" d="M249.73,66.45c-1.34.32-4.2,1.29-5.35.17-.44-.43-.85-1.45-.47-2,.47-.72,3.17-.67,4.08-.88,2.07-.48,4.13-1,6.2-1.43.85-.18,2.13-.75,3-.52,1.17.32.74,1.8,0,2.5a7.61,7.61,0,0,1-4.09,1.54,28.58,28.58,0,0,0-3.34.63"/><path class="cls-40" d="M249.14,61.69c-1.35.33-4.2,1.29-5.35.17a1.88,1.88,0,0,1-.47-2c.48-.72,3.18-.67,4.08-.88,2.07-.48,4.13-1,6.2-1.43.85-.18,2.13-.75,3-.51,1.17.31.74,1.8,0,2.5a7.57,7.57,0,0,1-4.08,1.54,30.79,30.79,0,0,0-3.34.63"/><path class="cls-42" d="M233.64,73.82c-1.38.14-4.35.68-5.31-.58a1.87,1.87,0,0,1-.16-2.06c.58-.64,3.24-.22,4.17-.3,2.12-.18,4.24-.39,6.35-.54.88-.07,2.22-.46,3-.09,1.1.48.47,1.89-.41,2.47a7.72,7.72,0,0,1-4.28.95,31.23,31.23,0,0,0-3.4.15"/><path class="cls-42" d="M233.83,69c-1.38.14-4.36.68-5.32-.58a1.88,1.88,0,0,1-.16-2.06c.58-.64,3.24-.22,4.17-.3,2.12-.18,4.24-.39,6.35-.54.88-.07,2.22-.46,3-.09,1.11.48.47,1.89-.41,2.47a7.69,7.69,0,0,1-4.27.95,31.27,31.27,0,0,0-3.4.15"/><path class="cls-40" d="M233.54,63.66c-1.38.13-4.35.68-5.31-.58a1.87,1.87,0,0,1-.16-2.06c.58-.64,3.24-.22,4.17-.3,2.12-.18,4.24-.39,6.35-.54.87-.06,2.22-.45,3-.09,1.1.48.46,1.89-.41,2.47a7.7,7.7,0,0,1-4.28.95,31.38,31.38,0,0,0-3.4.15"/><path class="cls-44" d="M219.26,74.28a36.2,36.2,0,0,0-5.82-.41c-1.1.11-1.71.23-1.75,1.39a1.26,1.26,0,0,0,1.18,1.5,22.21,22.21,0,0,0,3.12.41c2.1.13,4.26.28,6.4.35.57,0,1.45.21,1.9-.23a3.84,3.84,0,0,0,.41-1.9c-.34-1.24-4.25-1-5.44-1.12"/><path class="cls-44" d="M204.75,72.2a36.76,36.76,0,0,0-5.73-1c-1.11,0-1.73,0-1.89,1.2a1.25,1.25,0,0,0,1,1.62,22.45,22.45,0,0,0,3.06.74c2.07.35,4.19.73,6.31,1,.57.08,1.41.37,1.91,0a3.77,3.77,0,0,0,.63-1.84c-.19-1.27-4.11-1.48-5.28-1.69"/><path class="cls-44" d="M205,67.92a35.7,35.7,0,0,0-5.73-1c-1.11,0-1.74,0-1.9,1.19a1.25,1.25,0,0,0,1,1.62,22.39,22.39,0,0,0,3.06.74c2.07.35,4.19.73,6.31,1,.57.08,1.42.37,1.91,0a3.81,3.81,0,0,0,.64-1.85c-.19-1.27-4.11-1.48-5.28-1.68"/><path class="cls-43" d="M191.17,68.87h0a13,13,0,0,1-3-1.07c-1.37.58-.55,2.8.4,3.35a14.32,14.32,0,0,0,3.83,1.1c.86.22,2.52,1.11,3.36.45a3.85,3.85,0,0,0,.63-1.84c-.2-1.35-4.13-1.73-5.21-2"/><path class="cls-43" d="M191.25,64.67h0a12.83,12.83,0,0,1-3-1.07c-1.37.57-.55,2.8.41,3.35a14.21,14.21,0,0,0,3.82,1.1c.86.22,2.52,1.12,3.36.45a3.86,3.86,0,0,0,.63-1.85c-.2-1.34-4.12-1.73-5.2-2"/><path class="cls-43" d="M191.64,59.74h0a13.26,13.26,0,0,1-3-1.07c-1.37.57-.55,2.8.4,3.35a14.49,14.49,0,0,0,3.83,1.1c.87.22,2.52,1.11,3.36.45a3.88,3.88,0,0,0,.63-1.84c-.2-1.35-4.13-1.73-5.21-2"/><path class="cls-43" d="M192.4,55.18h0a13,13,0,0,1-3-1.07c-1.37.58-.55,2.8.4,3.35a14.27,14.27,0,0,0,3.83,1.1c.86.22,2.52,1.11,3.36.45a3.85,3.85,0,0,0,.63-1.84c-.2-1.35-4.13-1.73-5.21-2"/><path class="cls-44" d="M205.8,63.17a36.22,36.22,0,0,0-5.73-1c-1.1,0-1.73,0-1.89,1.19a1.24,1.24,0,0,0,1,1.62,21.89,21.89,0,0,0,3.06.74c2.07.35,4.2.73,6.31,1,.57.08,1.41.37,1.91,0a3.79,3.79,0,0,0,.63-1.84c-.19-1.27-4.11-1.48-5.28-1.69"/><path class="cls-44" d="M206.47,58.62a36.21,36.21,0,0,0-5.73-1c-1.11,0-1.74,0-1.89,1.19a1.24,1.24,0,0,0,1,1.62,22.55,22.55,0,0,0,3.06.74c2.07.35,4.19.73,6.31,1,.57.08,1.42.37,1.91,0a3.77,3.77,0,0,0,.64-1.84c-.19-1.27-4.11-1.48-5.28-1.69"/><path class="cls-44" d="M219.32,70a36.25,36.25,0,0,0-5.82-.39c-1.1.11-1.72.24-1.74,1.39a1.25,1.25,0,0,0,1.19,1.5,22,22,0,0,0,3.13.4c2.1.12,4.26.26,6.39.32.58,0,1.46.21,1.89-.24a3.78,3.78,0,0,0,.41-1.9c-.35-1.24-4.26-1-5.45-1.1"/><path class="cls-44" d="M220,65.11a36.61,36.61,0,0,0-5.8-.61c-1.1.07-1.72.17-1.8,1.32a1.26,1.26,0,0,0,1.13,1.55,23.18,23.18,0,0,0,3.11.52c2.09.2,4.24.42,6.37.56.58,0,1.44.27,1.9-.16a3.87,3.87,0,0,0,.49-1.88c-.29-1.25-4.22-1.19-5.4-1.3"/><path class="cls-42" d="M220.14,60.17a36.61,36.61,0,0,0-5.79-.61c-1.1.07-1.73.17-1.8,1.32a1.26,1.26,0,0,0,1.13,1.55,23,23,0,0,0,3.1.52c2.09.2,4.24.42,6.38.56.57,0,1.44.27,1.9-.16a3.92,3.92,0,0,0,.48-1.88c-.29-1.25-4.22-1.19-5.4-1.3"/><path class="cls-45" d="M255.4,76.55c-4.78,1.51-9.72,1.46-14.57,2.47a31.61,31.61,0,0,1-13.24.28c-3.67-.78-7.52-.27-11.29-.89a191,191,0,0,1-25.48-5.83,13.13,13.13,0,0,1-2.94-1c5.48,5.89,15.77,8.41,23.74,9.64a80.07,80.07,0,0,0,15,.35c4.78-.22,9.46-.17,14.18-.54a68.12,68.12,0,0,0,15-2.43c3-.93,7.43-2.29,9.14-5-3.27.83-6.3,2-9.51,3"/><path class="cls-46" d="M191.2,77.11c.15-3.91,12.06,0,14.23.51,2.45.57,5.21.74,7.7,1.08,1.57.22,3.17.21,4.71.49,2.35.43,4.93,1.32,7.33,1.33a13.45,13.45,0,0,1,2.47-.15,23.13,23.13,0,0,0,2.4.6,33.11,33.11,0,0,0,5.62-.45c3.94-.44,7.83-1.21,11.77-1.72,6.08-.79,12.62-2,18-5-3,0-6.77,2.13-9.65,3-4.78,1.51-9.72,1.46-14.57,2.47a31.47,31.47,0,0,1-13.25.28c-3.67-.78-7.52-.26-11.29-.89a190.77,190.77,0,0,1-25.47-5.83,24.94,24.94,0,0,1-4.73-1.55c1.95,2.42,4.92,2.3,4.78,5.77"/><g class="cls-47"><g class="cls-48"><path class="cls-45" d="M193.39,110.21c-1.67-1.39-4-2-4.51-4.17-.5-2,.37-4.28.57-6.27.3-2.94.72-6,1-8.91.21-2.47.19-5,.19-7.46,0-2.69,1-7.66-.32-9.91,3.48,1.51,6.41,3.2,10.26,4,3.59.79,7.26,1.18,10.91,1.62,3.88.47,7.74.58,11.6,1.09,3.25.42,7.85,1.4,11.05.55-3.1,0-6.81,1.29-9.85,1.91a28.3,28.3,0,0,1-11.91-.46,57.91,57.91,0,0,0-10.81-1.64c-2.93-.1-5.37-1.19-6.22,2a28.16,28.16,0,0,0-1.21,7.55c0,1.63-.18,1.87.58,3.56.59,1.33,1.09,2.74,1.74,4,1.64,3.27,3.49,4.15,6.58,6,2.84,1.7,4.49,4.1,7.78,5.27,6.3,2.23,12.46,7.81,19.48,7.82-1.05,1-2.32.26-3.53.22-1.53,0-3.09.4-4.62.49a26.73,26.73,0,0,1-5.25-.57c-3.32-.43-6.69-.44-9.93-1.49-2.93-.94-6.08-1.64-9.09-2.65a13.6,13.6,0,0,1-4.47-2.61"/></g></g><path class="cls-49" d="M191.55,49.84c1.16,2,8.88,6.46,11.11,3.59-2.72-1.29-5.51-2.47-7.33-4.9-2-2.74-1.13-3.41,1.45-5.18-3.37.31-7.16,3.12-5.24,6.49"/><path class="cls-50" d="M191.42,50.78l-.1,2.55a118.84,118.84,0,0,0,14.58.7c12.48-.12,47.17-4.45,53.66-15.68,3.88-7.5-5.57-13.54-15-14.75A76.8,76.8,0,0,0,234,23c-2.89,0-5.29,0-7.22-.17-3.83-.22-5.83-.84-6-.6s1.67,1.22,5.76,1.9c8.71,1.5,20.12.18,26.1,5.75,13.56,13-32.11,20.47-47.75,21.05a119.46,119.46,0,0,1-13.5-.19"/><path class="cls-51" d="M198.5,53.36c27.27-5.47,49.76-18.32,53-23.49,4.18-6.68-14.11-8.09-21.52-8.61-15-.93-31.28-3.85-31.28-3.85-.44.25,5.29,2.68,18,4.68,11.94,1.86,23.63,1.59,28,5,5.55,4.48-22.25,18.09-46.34,24.17a5.83,5.83,0,0,1,.09,2.07"/><path class="cls-50" d="M194,52.18c23.46-1.11,52.58-8.7,58.64-18.68,4.42-7.3-6-15.64-16-18.54-10.37-2.75-21.76-1.71-30.42-3.13-3.75-.59-5.71-1.24-5.9-1s1.53,1.2,5.38,2.23c8,2.2,20.06,1.75,29,4.48C242.5,20.08,250.32,27,247,32c-5.7,9.48-36.58,15.75-52.9,17.64a6.44,6.44,0,0,1-.14,2.53"/><path class="cls-51" d="M237.84,38.07c7.65-5.71,9.14-14.19.55-19.36a27.14,27.14,0,0,0-8-3s-10.21-1.45-13.1-2.24c-3.11-.74-4.52-1.59-4.83-1.39s.81,1.39,4,2.62,8.56,1.83,14,3.74c4.24,1.48,5.66,2.78,6.89,4.16,6.65,9.06-10.35,17-14.12,19.09-9.71,5.48-20.17,7.62-29.28,8.87a1.74,1.74,0,0,1-1.53,2.05c-.71,0-1.4.22-2.11.31a1.78,1.78,0,0,1-.23,0c.26,1.11.81,2,1.68,2,17-1.31,35.14-8.5,46.05-16.85"/><path class="cls-50" d="M194.23,51.42c-.06.9-3.34.45-4.27,1.07a8.39,8.39,0,0,0,.29,1c26.19,5.24,58.57,6.48,64-2,4-7.15-6-15.55-15.25-18.8a83.53,83.53,0,0,0-10.66-2.92c-2.93-.66-5.35-1.22-7.31-1.78-3.88-1.09-5.9-2.18-6.09-2s1.69,1.64,5.85,3.27c2.07.83,4.67,1.65,7.61,2.5A95.85,95.85,0,0,1,238.18,35c10.58,4.29,28.49,20.37-12.06,19.42-11.81-.28-22.61-1-31.9-3"/><path class="cls-50" d="M190.11,53c23.54-1.5,46.56-15.24,55.48-30.66,2.61-4.65.9-8.14-4.06-11C232.37,6.1,217,5.95,207.29,2.15c-3.23-1.22-4.71-2.24-5-2.06s.72,1.5,3.84,3.21c6.64,3.76,18.46,5.27,26.58,8.08,3.65,1.29,7.42,3.27,8.14,5.62,1.37,4-13.85,21.33-34.22,28.73a76.45,76.45,0,0,1-16.46,3.93,6,6,0,0,0,0,3.35"/><path class="cls-51" d="M207.86,46.15c10.65-4.46,16.44-9.81,20.67-13.43a31.55,31.55,0,0,0,6.41-7.23,7.2,7.2,0,0,0,.7-1.77A7.75,7.75,0,0,0,232.22,15c-6.59-4-19.62-5.48-28.5-7.7-12-3-18.47-6-18.88-5.57s5.47,4,17.55,7.78c5,1.55,10.16,2.58,15.25,3.89a47.79,47.79,0,0,1,6.18,1.93,16.51,16.51,0,0,1,5.84,3.34,3.82,3.82,0,0,1,.76,3.55c-.62,2.71-3.49,5.48-6.55,8.15-7.29,6.33-15.3,12.6-28.55,16.7a34.26,34.26,0,0,1-3.83,1.09c-.63.11-1.07.78-1.3,1.61,2.46,0,13-1.67,17.68-3.65"/><path class="cls-50" d="M202,50.72l-.1,2.54a118.68,118.68,0,0,0,14.58.7c12.48-.13,47.17-4.45,53.66-15.69,3.88-7.49-5.57-13.54-15-14.74a76,76,0,0,0-10.5-.56c-2.89,0-5.29,0-7.22-.17-3.83-.23-5.83-.84-6-.6s1.67,1.22,5.77,1.9c8.7,1.5,20.12.18,26.1,5.75,13.56,13-32.11,20.47-47.75,21.05a119.46,119.46,0,0,1-13.5-.19"/><path class="cls-51" d="M209.1,53.29c27.27-5.47,49.76-18.32,53-23.48,4.17-6.68-14.11-8.1-21.52-8.61-15-.93-31.28-3.85-31.28-3.85-.44.25,5.29,2.68,18,4.68,11.94,1.87,23.63,1.59,28,5C260.9,31.53,233.1,45.13,209,51.21a6,6,0,0,1,.09,2.07"/><path class="cls-50" d="M204.54,52.12C228,51,257.13,43.42,263.18,33.44c4.42-7.3-6-15.64-16-18.53-10.37-2.75-21.76-1.71-30.42-3.13-3.75-.59-5.71-1.24-5.9-1s1.53,1.2,5.38,2.23c8,2.2,20.06,1.75,29,4.48C253.09,20,260.91,26.9,257.58,32c-5.7,9.47-36.58,15.75-52.9,17.64a6.45,6.45,0,0,1-.14,2.53"/><path class="cls-51" d="M248.43,38c7.65-5.71,9.14-14.19.55-19.36a27,27,0,0,0-8-3s-10.21-1.44-13.1-2.24c-3.11-.73-4.52-1.59-4.82-1.39s.8,1.39,4,2.62,8.57,1.83,14,3.74c4.24,1.49,5.66,2.78,6.89,4.16,6.65,9.06-10.35,17-14.12,19.08-9.71,5.48-20.17,7.63-29.28,8.87A1.74,1.74,0,0,1,203,52.52c-.71.05-1.4.22-2.11.31a1,1,0,0,1-.23,0c.26,1.11.81,2,1.68,2,17-1.31,35.14-8.5,46.05-16.85"/><path class="cls-50" d="M204.82,51.35c-.06.9-3.34.45-4.27,1.07a8.08,8.08,0,0,0,.28,1c26.19,5.24,58.57,6.47,64-2,4-7.15-6-15.55-15.25-18.8a83.81,83.81,0,0,0-10.65-2.92c-2.93-.65-5.35-1.22-7.32-1.78-3.88-1.09-5.9-2.17-6.09-2s1.69,1.64,5.85,3.26c2.07.83,4.67,1.65,7.62,2.51a94.91,94.91,0,0,1,9.79,3.23c10.58,4.29,28.49,20.37-12.06,19.42-11.81-.28-22.61-1-31.9-3"/><path class="cls-50" d="M200.7,53c23.54-1.51,46.56-15.24,55.48-30.66,2.61-4.65.9-8.14-4.06-11C243,6,227.57,5.88,217.88,2.08c-3.23-1.22-4.71-2.24-5-2.06s.72,1.5,3.84,3.22c6.64,3.76,18.46,5.26,26.58,8.08,3.65,1.28,7.42,3.27,8.14,5.62,1.37,4-13.85,21.34-34.22,28.73a76.44,76.44,0,0,1-16.46,3.94,6,6,0,0,0,0,3.35"/><path class="cls-51" d="M218.45,46.08c10.65-4.45,16.44-9.81,20.67-13.43a31.76,31.76,0,0,0,6.41-7.23,7.25,7.25,0,0,0,.7-1.77A7.76,7.76,0,0,0,242.82,15c-6.59-4-19.62-5.48-28.5-7.7-12-3-18.47-6-18.88-5.57s5.47,4,17.55,7.78c5,1.55,10.16,2.58,15.25,3.89a48.48,48.48,0,0,1,6.17,1.94,16.51,16.51,0,0,1,5.84,3.34,3.8,3.8,0,0,1,.76,3.54c-.63,2.71-3.5,5.48-6.56,8.16-7.29,6.33-15.3,12.6-28.55,16.7a35.15,35.15,0,0,1-3.83,1.09c-.63.11-1.07.77-1.3,1.6,2.46,0,13-1.67,17.68-3.65"/></g></g></g></svg>