<svg xmlns="http://www.w3.org/2000/svg" xmlns:xlink="http://www.w3.org/1999/xlink" viewBox="0 0 511.24 334.44"><defs><style>.cls-1,.cls-142,.cls-157{fill:none;}.cls-2{isolation:isolate;}.cls-3{mix-blend-mode:multiply;}.cls-4{clip-path:url(#clip-path);}.cls-5{clip-path:url(#clip-path-2);}.cls-6{fill:url(#linear-gradient);}.cls-7{fill:#fff;}.cls-8{fill:#cee1e5;}.cls-9{fill:#717272;}.cls-10{fill:#3a3a3a;}.cls-11{fill:#999;}.cls-12{fill:#868686;}.cls-13{fill:#979797;}.cls-14{fill:#7f807c;}.cls-15{fill:#a9a9a9;}.cls-16{fill:#aebccc;}.cls-17{fill:#44688d;}.cls-18{fill:#3b597a;}.cls-19{fill:#35506d;}.cls-20{fill:#334860;}.cls-21{fill:#374b5d;}.cls-22{fill:#2d3e4d;}.cls-23{fill:#4d6b84;}.cls-24{fill:#597b97;}.cls-25{fill:#936546;}.cls-26{fill:#333;}.cls-27{fill:#1f1e1b;}.cls-27,.cls-28,.cls-30,.cls-31,.cls-32,.cls-33,.cls-34,.cls-36,.cls-49,.cls-52,.cls-54{fill-rule:evenodd;}.cls-28{fill:#2d2c2c;}.cls-29,.cls-30{fill:#353434;}.cls-31{fill:#bb7d52;}.cls-32{fill:#b2764e;}.cls-33{fill:#48ad53;}.cls-34{fill:#f2f9fc;}.cls-35{clip-path:url(#clip-path-3);}.cls-36{fill:#28b3bf;}.cls-37{clip-path:url(#clip-path-4);}.cls-38{clip-path:url(#clip-path-5);}.cls-39{clip-path:url(#clip-path-6);}.cls-40{clip-path:url(#clip-path-7);}.cls-41{clip-path:url(#clip-path-8);}.cls-42{clip-path:url(#clip-path-9);}.cls-43{clip-path:url(#clip-path-10);}.cls-44{clip-path:url(#clip-path-11);}.cls-45{clip-path:url(#clip-path-12);}.cls-46{clip-path:url(#clip-path-13);}.cls-47{clip-path:url(#clip-path-14);}.cls-48{clip-path:url(#clip-path-15);}.cls-49{fill:#05808d;}.cls-50{opacity:0.3;}.cls-51{clip-path:url(#clip-path-16);}.cls-52{fill:#002930;}.cls-53{clip-path:url(#clip-path-17);}.cls-54{fill:#22160d;}.cls-55{opacity:0.39;}.cls-56{clip-path:url(#clip-path-18);}.cls-57{clip-path:url(#clip-path-19);}.cls-58{clip-path:url(#clip-path-20);}.cls-59{clip-path:url(#clip-path-21);}.cls-60{clip-path:url(#clip-path-22);}.cls-61{clip-path:url(#clip-path-23);}.cls-62{clip-path:url(#clip-path-24);}.cls-63{clip-path:url(#clip-path-25);}.cls-64{clip-path:url(#clip-path-26);}.cls-65{clip-path:url(#clip-path-27);}.cls-66{clip-path:url(#clip-path-28);}.cls-67{fill:#79b943;}.cls-68{fill:#6fa943;}.cls-69{fill:#d99368;}.cls-70{fill:#951a48;}.cls-71{fill:#659840;}.cls-72{fill:#b81e59;}.cls-73{fill:#4d4e4e;}.cls-74{fill:#6d6e71;}.cls-75{fill:#bb805a;}.cls-76{fill:#547b38;}.cls-77{fill:#78b843;}.cls-78{fill:#ec1775;}.cls-79{fill:#fcd519;}.cls-80{fill:#bc774a;}.cls-81{opacity:0.15;}.cls-82{clip-path:url(#clip-path-29);}.cls-83{fill:#901a1d;}.cls-84{opacity:0.2;}.cls-85{clip-path:url(#clip-path-30);}.cls-86{fill:#db1373;}.cls-87{opacity:0.07;}.cls-88{clip-path:url(#clip-path-31);}.cls-89{fill:#472b14;}.cls-90{fill:#1a2b2d;}.cls-91{fill:#2c3f4e;}.cls-92{fill:#384d5f;}.cls-93{fill:#a87049;}.cls-94{opacity:0.1;}.cls-95{clip-path:url(#clip-path-32);}.cls-96{fill:#a8a8a8;}.cls-97{fill:#5ab8e8;}.cls-98{fill:#bce3f8;}.cls-99{fill:#6895b4;}.cls-100{fill:#313637;}.cls-101{fill:#f0a978;}.cls-102{fill:#b17b53;}.cls-103{fill:#b3b2b3;}.cls-104{fill:#80d3f3;}.cls-105{fill:#947c68;}.cls-106{opacity:0.83;}.cls-107{clip-path:url(#clip-path-33);}.cls-108{fill:#5c463b;}.cls-109{fill:#f27d7a;}.cls-110{fill:#f5907b;}.cls-111{fill:#bbbdbf;}.cls-112{fill:#a6a8ab;}.cls-113{fill:#6491b0;}.cls-114{fill:#4d6f84;}.cls-115{fill:#365a80;}.cls-116{fill:#6490b0;}.cls-117{fill:#6793b4;}.cls-118{fill:#888788;}.cls-119{fill:#262626;}.cls-120{fill:#311b0f;}.cls-121{fill:#304445;}.cls-122{fill:#3c2417;}.cls-123{fill:#fff6dd;}.cls-124{fill:#2b4848;}.cls-125{fill:#5c3216;}.cls-126{fill:#512a0f;}.cls-127{fill:#eb2027;}.cls-128{fill:#f05a2b;}.cls-129{fill:#c1b59a;}.cls-130{fill:#5a4a42;}.cls-131{opacity:0.25;}.cls-132{clip-path:url(#clip-path-34);}.cls-133{fill:#221f1f;}.cls-134{clip-path:url(#clip-path-35);}.cls-135{clip-path:url(#clip-path-36);}.cls-136{clip-path:url(#clip-path-37);}.cls-137{clip-path:url(#clip-path-38);}.cls-138{clip-path:url(#clip-path-39);}.cls-139{fill:#d1d2d3;}.cls-140{fill:#e9f5f8;}.cls-141{fill:#929497;}.cls-142{stroke:#979797;stroke-width:0.23px;}.cls-142,.cls-157{stroke-miterlimit:10;}.cls-143{fill:#d0ebec;}.cls-144{fill:#a2dadb;}.cls-145{fill:#1f1f1e;}.cls-146{fill:#545453;}.cls-147{fill:#292928;}.cls-148{fill:#373735;}.cls-149{fill:#383735;}.cls-150{fill:#ddf1f6;}.cls-151{fill:#4a4947;}.cls-152{fill:#e4f4fc;}.cls-153{fill:#b1e1f5;}.cls-154{fill:#bce5f4;}.cls-155{fill:#e2f3fc;}.cls-156{clip-path:url(#clip-path-40);}.cls-157{stroke:#a9b9bf;stroke-width:0.12px;}.cls-158{clip-path:url(#clip-path-41);}.cls-159{fill:#be1f5c;}.cls-160{fill:#e77a26;}.cls-161{fill:#f9a320;}.cls-162{fill:#2b8742;}.cls-163{fill:#27a8e0;}.cls-164{fill:#154a8e;}.cls-165{fill:#ad6e47;}.cls-166{fill:#f9a74a;}.cls-167{fill:#fcb747;}.cls-168{fill:#1b1c1c;}.cls-169{clip-path:url(#clip-path-42);}</style><clipPath id="clip-path"><rect class="cls-1" x="1.95" y="48.87" width="507.34" height="284.49"/></clipPath><clipPath id="clip-path-2"><path class="cls-1" d="M503.46,183.29,268.77,52.12c-7.74-4.33-20.24-4.33-27.93,0L7.69,183.29C0,187.61,0,194.62,7.78,198.95L242.46,330.12c7.74,4.33,20.24,4.33,27.93,0L503.55,198.95c7.69-4.33,7.65-11.33-.09-15.66"/></clipPath><linearGradient id="linear-gradient" x1="-703.51" y1="1427.62" x2="-702.47" y2="1427.62" gradientTransform="matrix(490.04, 0, 0, -490.04, 344747.23, 699780.09)" gradientUnits="userSpaceOnUse"><stop offset="0" stop-color="#fff"/><stop offset="1" stop-color="#a9c3d7"/></linearGradient><clipPath id="clip-path-3"><rect class="cls-1" x="177.19" y="63.71" width="14.99" height="10.3"/></clipPath><clipPath id="clip-path-4"><rect class="cls-1" x="176.71" y="61" width="28.53" height="18.21"/></clipPath><clipPath id="clip-path-5"><rect class="cls-1" x="177.65" y="64.53" width="29.3" height="18.81"/></clipPath><clipPath id="clip-path-6"><rect class="cls-1" x="179.3" y="68.91" width="28.61" height="18.68"/></clipPath><clipPath id="clip-path-7"><rect class="cls-1" x="180.72" y="73.79" width="27.43" height="18.35"/></clipPath><clipPath id="clip-path-8"><rect class="cls-1" x="181.72" y="78.71" width="26.43" height="17.92"/></clipPath><clipPath id="clip-path-9"><rect class="cls-1" x="182.06" y="83.46" width="26.16" height="18.14"/></clipPath><clipPath id="clip-path-10"><rect class="cls-1" x="181.37" y="88.5" width="26.96" height="19.9"/></clipPath><clipPath id="clip-path-11"><rect class="cls-1" x="180.48" y="93.47" width="27.92" height="23.22"/></clipPath><clipPath id="clip-path-12"><rect class="cls-1" x="182.64" y="97.98" width="25.73" height="22.38"/></clipPath><clipPath id="clip-path-13"><rect class="cls-1" x="186.73" y="102.12" width="21.27" height="19.31"/></clipPath><clipPath id="clip-path-14"><rect class="cls-1" x="192.88" y="105.59" width="15.25" height="15.5"/></clipPath><clipPath id="clip-path-15"><rect class="cls-1" x="207.9" y="110.29" width="0.03" height="0.06"/></clipPath><clipPath id="clip-path-16"><rect class="cls-1" x="200.68" y="60.32" width="5.96" height="11.78"/></clipPath><clipPath id="clip-path-17"><rect class="cls-1" x="187.64" y="63" width="9.82" height="17.31"/></clipPath><clipPath id="clip-path-18"><rect class="cls-1" x="176.78" y="63.03" width="15.49" height="58.38"/></clipPath><clipPath id="clip-path-19"><rect class="cls-1" x="173.1" y="69.13" width="9" height="31.31"/></clipPath><clipPath id="clip-path-20"><rect class="cls-1" x="173.26" y="75.22" width="2.4" height="25.22"/></clipPath><clipPath id="clip-path-21"><rect class="cls-1" x="178.73" y="69.04" width="2.77" height="30.61"/></clipPath><clipPath id="clip-path-22"><rect class="cls-1" x="184.72" y="72.01" width="1.45" height="13.67"/></clipPath><clipPath id="clip-path-23"><rect class="cls-1" x="176.59" y="69.13" width="6.03" height="3.89"/></clipPath><clipPath id="clip-path-24"><rect class="cls-1" x="174.51" y="71.05" width="10.87" height="8.48"/></clipPath><clipPath id="clip-path-25"><rect class="cls-1" x="173.51" y="75.33" width="12.73" height="10.27"/></clipPath><clipPath id="clip-path-26"><rect class="cls-1" x="173.07" y="80.53" width="12.97" height="11.21"/></clipPath><clipPath id="clip-path-27"><rect class="cls-1" x="173.03" y="86.26" width="11.51" height="11.08"/></clipPath><clipPath id="clip-path-28"><rect class="cls-1" x="173.78" y="92.17" width="9.11" height="8.26"/></clipPath><clipPath id="clip-path-29"><rect class="cls-1" x="246.48" y="30.61" width="12.75" height="45.22"/></clipPath><clipPath id="clip-path-30"><rect class="cls-1" x="250.06" y="29.54" width="5.81" height="18.62"/></clipPath><clipPath id="clip-path-31"><rect class="cls-1" x="289.92" y="105.86" width="62.71" height="38.27"/></clipPath><clipPath id="clip-path-32"><rect class="cls-1" x="188.23" y="107.05" width="7.88" height="7.29"/></clipPath><clipPath id="clip-path-33"><rect class="cls-1" x="326.84" y="145.44" width="37.08" height="20.27"/></clipPath><clipPath id="clip-path-34"><rect class="cls-1" x="233.25" y="102.98" width="23.74" height="15.06"/></clipPath><clipPath id="clip-path-35"><rect class="cls-1" x="233.25" y="101.77" width="23.74" height="15.06"/></clipPath><clipPath id="clip-path-36"><rect class="cls-1" x="233.25" y="100.57" width="23.74" height="15.06"/></clipPath><clipPath id="clip-path-37"><rect class="cls-1" x="233.25" y="99.36" width="23.74" height="15.06"/></clipPath><clipPath id="clip-path-38"><rect class="cls-1" x="233.25" y="98.16" width="23.74" height="15.06"/></clipPath><clipPath id="clip-path-39"><rect class="cls-1" x="233.37" y="96.9" width="23.74" height="15.06"/></clipPath><clipPath id="clip-path-40"><rect class="cls-1" x="258.37" y="154.45" width="8.56" height="2.24"/></clipPath><clipPath id="clip-path-41"><path class="cls-1" d="M345.43,45.68s-6.13,23.2-11.57,24.41l5.07,4.3s5.87-3.94,12.51-26l-3.64-5.91Z"/></clipPath><clipPath id="clip-path-42"><path class="cls-1" d="M363.24,20.12,363,45.07s-2.17,7.37,11.89,22.44c0,0,5,3.14,4.47,7.78s5.28-1.33,5.28-1.33l2-1.7-9.17-12.37a17.62,17.62,0,0,1-3.8-6.72c-1.79-5.89-4.83-16.87-4-21.07,0,0,2.63-12.53-3.74-12.53a7.48,7.48,0,0,0-2.61.55"/></clipPath></defs><title>Asset 11@2</title><g class="cls-2"><g id="Layer_2" data-name="Layer 2"><g id="Layer_1-2" data-name="Layer 1"><g class="cls-3"><g class="cls-4"><g class="cls-5"><rect class="cls-6" y="47.79" width="511.24" height="286.65"/></g></g></g><path class="cls-7" d="M503.45,139.7,268.77,8.53c-7.74-4.33-20.24-4.33-27.93,0L7.69,139.7C0,144,0,151,7.78,155.36L242.46,286.53c7.74,4.33,20.24,4.33,27.93,0L503.55,155.36c7.69-4.33,7.65-11.33-.09-15.66"/><path class="cls-8" d="M503.55,155.36,270.39,286.53c-7.69,4.33-20.19,4.33-27.93,0L7.78,155.36c-3.89-2.18-5.84-5-5.83-7.88L1.9,165.29c0,2.85,1.94,5.71,5.83,7.88L242.41,304.34c7.74,4.33,20.24,4.33,27.93,0L503.49,173.17c3.82-2.15,5.73-5,5.74-7.78l.05-17.81c0,2.82-1.92,5.63-5.74,7.78"/><path class="cls-9" d="M206.2,136.45l1.25-.89a2.44,2.44,0,0,1,2.54-.19,4,4,0,0,1,2.22,3.14,2.33,2.33,0,0,1-.94,2.17l-1.19.89a3.09,3.09,0,0,0,.63-1.16,3.43,3.43,0,0,0-.55-2.82,3.34,3.34,0,0,0-4-1.13"/><path class="cls-10" d="M207.67,136.08A2.54,2.54,0,0,0,205,139a3.57,3.57,0,0,0,3.16,3.26,2.54,2.54,0,0,0,2.64-2.92,3.57,3.57,0,0,0-3.16-3.26"/><path class="cls-9" d="M207.76,137.18a1.64,1.64,0,0,0-1.71,1.89,2.3,2.3,0,0,0,2,2.1,1.64,1.64,0,0,0,1.71-1.89,2.31,2.31,0,0,0-2-2.11"/><path class="cls-9" d="M207.22,120a2.24,2.24,0,0,0-1.4-.24,3.26,3.26,0,0,0-2.63,3.21,2.46,2.46,0,0,0,1.22,2.23l1.42.77a2.46,2.46,0,0,1-1.22-2.23,3.26,3.26,0,0,1,2.63-3.2,2.25,2.25,0,0,1,1.4.24Z"/><path class="cls-10" d="M207.23,120.49a2.32,2.32,0,0,1,2.62,2.47,3.26,3.26,0,0,1-2.63,3.21,2.32,2.32,0,0,1-2.62-2.47,3.26,3.26,0,0,1,2.63-3.21"/><path class="cls-9" d="M207.29,121.4a1.62,1.62,0,0,1,1.84,1.73,2.28,2.28,0,0,1-1.84,2.24,1.62,1.62,0,0,1-1.84-1.73,2.28,2.28,0,0,1,1.84-2.24"/><path class="cls-9" d="M175.76,128.36a2.25,2.25,0,0,1,.83-1.16,3.26,3.26,0,0,1,4.12.44,2.46,2.46,0,0,1,.69,2.44l-.47,1.55a2.46,2.46,0,0,0-.69-2.44,3.26,3.26,0,0,0-4.12-.44,2.25,2.25,0,0,0-.83,1.16Z"/><path class="cls-10" d="M176.12,128.75a2.32,2.32,0,0,0-.14,3.6,3.26,3.26,0,0,0,4.13.44,2.32,2.32,0,0,0,.14-3.6,3.26,3.26,0,0,0-4.12-.44"/><path class="cls-9" d="M176.72,129.44a1.62,1.62,0,0,0-.1,2.52,2.29,2.29,0,0,0,2.89.31,1.62,1.62,0,0,0,.1-2.52,2.28,2.28,0,0,0-2.89-.31"/><path class="cls-11" d="M188.76,140.14,186.5,139a.5.5,0,0,0-.37,0l2.26,1.17a.49.49,0,0,1,.37,0"/><path class="cls-12" d="M183.44,144.9l2.26,1.17c-.42-.22-.4-1.23.12-2.57.64-1.65,1.8-3.16,2.57-3.38L186.13,139c-.78.22-1.93,1.73-2.57,3.38-.52,1.34-.55,2.35-.12,2.57"/><path class="cls-10" d="M188.39,140.12c-.78.22-1.93,1.73-2.57,3.38s-.53,2.8.24,2.59,1.93-1.73,2.57-3.38.53-2.8-.25-2.59"/><path class="cls-9" d="M188,141.41a3.56,3.56,0,0,0-1.49,2c-.37,1-.31,1.62.14,1.49a3.56,3.56,0,0,0,1.49-2c.37-1,.31-1.62-.14-1.49"/><polygon class="cls-13" points="209.64 119.36 209.64 121.11 194.31 129.22 194.1 126.91 209.64 119.36"/><polygon class="cls-14" points="193.68 124.68 212.47 135.53 208.59 137.77 192.42 128.09 193.68 124.68"/><polygon class="cls-14" points="193.68 124.68 176.34 124.68 174.89 128.09 192.42 128.09 193.68 124.68"/><rect class="cls-15" x="174.89" y="128.09" width="17.53" height="1.13"/><polygon class="cls-14" points="194.83 127.78 186.69 142.22 183.23 140.38 191.45 126.73 194.83 127.78"/><polygon class="cls-14" points="193.68 124.68 206.47 117.28 209.64 119.36 196.63 126.38 193.68 124.68"/><polygon class="cls-13" points="212.47 135.53 212.47 137.03 208.61 139.4 208.59 137.76 212.47 135.53"/><polygon class="cls-13" points="208.59 137.76 193.7 128.86 193.7 130.56 208.61 139.4 208.59 137.76"/><polygon class="cls-13" points="193.7 130.56 186.69 143.8 186.69 142.22 193.7 128.86 193.7 130.56"/><polygon class="cls-15" points="186.69 143.8 186.69 142.22 183.23 140.38 183.23 141.78 186.69 143.8"/><path class="cls-16" d="M196.24,92.75a1.19,1.19,0,0,0,.47.4l4.46,2.08a1.19,1.19,0,0,0,.81.07l10.3-2.74a1.19,1.19,0,0,0-.61-2.31l-9.88,2.63L197.72,91a1.19,1.19,0,0,0-1.48,1.77"/><path class="cls-17" d="M187.24,60.57l3,1.73c-1.37-.8-3.31-.68-5.33.48l-3-1.73c2-1.17,4-1.28,5.33-.48"/><polygon class="cls-18" points="172.3 70.02 169.33 68.3 181.91 61.05 184.88 62.78 172.3 70.02"/><path class="cls-18" d="M166.58,79.93l-3-1.73c-.24-3.56,2.27-7.92,5.72-9.91l3,1.73c-3.45,2-6,6.34-5.72,9.91"/><path class="cls-19" d="M172.3,70l12.57-7.25c3.35-1.93,6.46-1,7.17,2.2l6.35,28.41-30,17.77-1.86-31.23c-.24-3.56,2.27-7.91,5.72-9.91"/><path class="cls-17" d="M168.44,111.16l20.86,11.55a10.19,10.19,0,0,0,10.15,0l19-11a2.86,2.86,0,0,0,0-4.94L198.39,93.4Z"/><path class="cls-20" d="M192,124.16l-23.31-13-2.1-31.23-3-1.73,2.1,31.09s0,.05.16,2.75c.23,3.24.2,3.94,1.89,4.91l24.1,14.32c1.68,1,3.06.18,3.07-1.75a6.78,6.78,0,0,0-2.94-5.36"/><polygon class="cls-21" points="209.02 86.78 209.02 86.78 222.03 92.85 209.02 86.78"/><polygon class="cls-22" points="203.54 87.2 203.54 87.2 204.33 86.74 203.54 87.2"/><path class="cls-23" d="M206.5,86.24a6,6,0,0,1,2.51.54l13,6.07c1.79.83,2.14,2.28.74,3.09l-3.25,1.89a4.38,4.38,0,0,1-2.17.5,5.66,5.66,0,0,1-3.17-.92l-10.55-7.5c-1.22-.87-1.25-2-.08-2.72l.78-.46a4.42,4.42,0,0,1,2.18-.5"/><path class="cls-24" d="M223.63,96.59V94.77c-.14.86-2.88,2.27-3.44,2.51l-.77.33a5.07,5.07,0,0,1-4.26-.57L204,90c-.89-.56-1.31-1.26-1.24-1.85l-.18,1.47c-.07.6.35,1.29,1.24,1.85l11.12,7a5.06,5.06,0,0,0,4.26.57l.77-.32c.56-.24,3.57-1.72,3.62-2.16"/><path class="cls-16" d="M168.75,111.14a1.19,1.19,0,0,0,.47.4l4.46,2.08a1.2,1.2,0,0,0,.81.07l10.3-2.74a1.19,1.19,0,0,0-.61-2.31l-9.88,2.63-4.06-1.9a1.19,1.19,0,0,0-1.48,1.77"/><polygon class="cls-21" points="180.77 103.68 180.77 103.68 193.78 109.76 180.77 103.68"/><polygon class="cls-22" points="175.3 104.1 175.3 104.1 176.09 103.65 175.3 104.1"/><path class="cls-23" d="M178.26,103.14a6,6,0,0,1,2.51.54l13,6.08c1.79.83,2.14,2.28.75,3.09l-3.25,1.89a4.41,4.41,0,0,1-2.18.5,5.67,5.67,0,0,1-3.17-.91l-10.55-7.51c-1.22-.87-1.25-2-.08-2.72l.79-.46a4.42,4.42,0,0,1,2.18-.5"/><path class="cls-25" d="M235.11,153.67a10,10,0,0,0,.84,2.87c.7,1.56,3.68,4.8,4.11,6.67s-.52,2.79-2.34,3.19-4.38-1.09-5.59-2.61a22.14,22.14,0,0,0-4.53-4c-1.34-.89-1.55-.31-1.38-2s2-4,2.91-5.61a26.71,26.71,0,0,1,6,1.53"/><path class="cls-26" d="M228.71,152.57s.08-.42.12.1-2,3-2,3.62c-.12,1.63,0,1.29,1.45,2.15a20.29,20.29,0,0,1,4.55,4.11,6.79,6.79,0,0,0,5.65,2.63,3.33,3.33,0,0,0,1.73-.84,2.83,2.83,0,0,1-2.42,2.09c-2,.31-4.35-1.08-5.62-2.62a22.15,22.15,0,0,0-4.54-4c-1.37-.87-1.52-.37-1.39-2s1.66-3.77,2.51-5.21"/><path class="cls-26" d="M238.07,162.3a10.46,10.46,0,0,1-7.15-1.79,15.78,15.78,0,0,0-1.76-1.11c2.65.66,5.17,2.21,8,1.9-.31-1.24-.43-2.55-.67-3.81.83,1.35,2,3.19,1.57,4.81"/><path class="cls-25" d="M220.9,161.61a42.35,42.35,0,0,0,.91,6c.55,2.28,1.79,6.11,1.09,8.43s-3.85,3.35-5.66,2.83a4.24,4.24,0,0,1-3.32-3.21,22.56,22.56,0,0,1-.84-7.55c.16-2.42,1.7-5.29,2.42-7.67a16.86,16.86,0,0,1,5.4,1.13"/><path class="cls-26" d="M215.5,160.47c-.3,2.24-1.63,4.38-1.74,6.65a26.08,26.08,0,0,0,.85,7.59,4.61,4.61,0,0,0,3.27,3.25c1.62.61,3.66-.57,4.93-1.45-1,1.66-3.78,3-5.59,2.43a4.57,4.57,0,0,1-3.32-3.21c-.69-1.82-.85-5.54-.88-7.43a38.2,38.2,0,0,1,.39-4.48,35.62,35.62,0,0,1,2.09-3.35"/><path class="cls-26" d="M220,175.15a20.74,20.74,0,0,1-6.51-4.66c0-.7,0-1.4,0-2.1a14.42,14.42,0,0,0,6.48,5.17,18.32,18.32,0,0,0,1.8-6c.21.84.43,1.68.65,2.51-.41,1.66-.83,4.15-2.42,5.08"/><path class="cls-25" d="M215.42,165.33c0-4.85.13-9.86-1-14.61,2-1.12,3.86-2.35,5.81-3.5,1.13,5.11.78,10.39.83,15.59a44.39,44.39,0,0,1-5.63,2.52"/><path class="cls-27" d="M202,118.72c5.89,2.47,12.23,3.79,18,6.66,3.92,4.66,5.17,10.08,6.8,15.88a45,45,0,0,1-.15,13.06c2.2,3.17,5.71.68,8.1-.93,2.43-10,4.85-24.32-4.44-31.7s-24.87-6.78-24.18-21.21c-11.48,3.76-16,10.58-4.08,18.24"/><path class="cls-28" d="M201.5,106.33c.8,1.73,4-10,5.31-5,2.47,9,3.17,10.27,18.66,16.77,4.29,1.8,19.16,24.05,8.86,35-.56,2-3.24,2.4-4.91,2.82,1.86-9.14,5.11-22.64-1.73-30.51s-27.12-5.84-26.18-19"/><path class="cls-27" d="M184.63,105c-3.46,7.47,0,13.49,6.8,19.51,2.14,1.9,15.84,5.64,18.34,9.73,2.07,5.17,2.3,7.66,3.5,13.67a52.2,52.2,0,0,1-.21,15.18c2.62,2.52,5.64,1.39,8.27-.29,1.82-10,2.13-21.73-.79-30.76s-13.43-10.75-18.77-15.29-1.79-6.63,0-11.41c-5.64.42-11.26-.78-17.11-.33"/><path class="cls-28" d="M216.14,164.56c1.44-11.3,1.49-20.82-1.08-32-6-8.59-30-9-25.45-23.53,4.63,1.6,8.34-.23,12.06-3,2.39-.66,1.59,1.15.89,2.75-.81,2.32-.87,5-2.44,6.87,6.29,6,16.63,6,20.06,15.5s2.76,21.18,1.18,31.58c-1.25,1.83-3.25,2.07-5.22,1.8"/><path class="cls-29" d="M201.66,109a11.73,11.73,0,0,0,.44,1.49,14.72,14.72,0,0,0-.25,6.26c6.18,5.83,14.19,5.56,18.28,14.53s3,21.25,1.59,31.46a5.91,5.91,0,0,1-3.39,1.89c1.45-11.1,2.72-21-2-31.53s-23-8.33-25.45-21.08c4.44-.85,8.38-1.77,11.62-5.19a13.79,13.79,0,0,0-.84,2.18"/><path class="cls-30" d="M201.5,108c2.17,9.51,16.23,8.65,24.75,14.21s8.66,23.57,3.88,33.48a5.16,5.16,0,0,0,2.17-.44,4.93,4.93,0,0,0,2.16-1.09c4.13-10.56,4-27.34-5.3-33.9s-21.85-6.45-22.32-18.53c-1.76,2.08-3.61,4.2-5.34,6.27"/><path class="cls-31" d="M222.53,102c-.44.73-2.57,1.49-2.88,1.25a18.8,18.8,0,0,1-5.79-6.62c-3.28-3.13-8.06-4.58-9.37-9.57-.63-2.41,1.07-6.76,3.27-8.44,2.6,3.78,5,8.24,7.44,12,.7,1.09.89,1.64,1.81,2.23s2.11.84,3,1.36a8.46,8.46,0,0,1,2.54,1.88,3.77,3.77,0,0,1,.31,2.12c.07,1.12.12,3-.33,3.77"/><path class="cls-32" d="M218.53,102.31c-1.87-1.73-3.7-3.3-4.66-5.71-3.37-2.83-8-5-9.41-9.38-.45-1.38.43-2.73,1.1-3.86,2.9,4.33,6.16,9.7,10.42,12.56,1.16.78,1.39-.16,2.12-.56.57.94,1.06,1.84,2.22,2.17.07.41.13.81.21,1.22-.92.64-2.68.46-3,1.63-.16.67.68,1.32,1,1.93"/><path class="cls-32" d="M222.87,98.33a16.85,16.85,0,0,1-.06,2.19,6.2,6.2,0,0,1-.34,1.79,4,4,0,0,1-2,1.85,2.72,2.72,0,0,1-2.5-.36c-.32-.69-.92-2.2-.62-2.83s.18-.56.86-.66,1.87.08,2.66-.08c.45-.36,1.23-1,1.58-1.29s.22-.35.47-.6"/><path class="cls-31" d="M216.51,97.43a7.46,7.46,0,0,0,.84,1.51c.89.93,2.16.57,1.86-.77-.14-.6-.89-1.26-1-1.65a5.05,5.05,0,0,0-.7-2c-.82-.8-1.76-1.11-2.43,0s.21,2.61,1.43,3"/><path class="cls-33" d="M208.17,78.18c.71,1.22,1.44,2.43,2.17,3.65-1.68,1.18-2.38,3-3.14,4.86a12.78,12.78,0,0,1-1.57-.81c-3.33-3.21.36-5.2,2.54-7.69"/><path class="cls-34" d="M183,66.7c1.47-1,3.52-2,6-3.36,4-2.2,12.5-5.54,16.22-.72,2.4,3.11,2.88,8.78,2.89,11.92,0,7.92-1.88,16.36-2.26,23.17-.25,4.5-1,5.63.23,9.3-4.42,7.39-13,12.36-22,9.44-.78-5.86-1.12-13.31-2-18.85-1.27-8.4-4.83-15.88-4.66-23.92.08-4,2.46-4.86,5.6-7"/><path class="cls-33" d="M202.36,60.41a5.12,5.12,0,0,1,3,2.2c1.94,3.35,2.78,8.44,2.8,12,0,6.84.22,14.16.25,20.29,0,5-1.69,8.74.29,13a17,17,0,0,1-.77,2.5c-5.77-4.89-.72-28.31-2.79-38.11-.25-1.16-1.22-1.81-1.9-2.67,0-2.16.06-4.34.12-6.51-.33-.89-.68-1.76-1-2.66m-19.47,6.32c1.46-.84,4.21-2.37,5.86-3.34.2-.11.74-.6,1-.51s0,.22.11.27c.7.51,1.39.94,2.1,1.43,1.73,3,4.34,5.82,5.36,9.09.45,1.44.2,2,0,3.52s-.74,5.64-1,6.76c-1.32,5.1-2.56,11.13-2.5,15.48.12,8.28-.62,13.84,3.45,20.67-3.81,1.14-9.72,2.22-13,.12-2.33-1.5-2.13-2.75-3.8-4.41.45-.63.73-1.28,1.13-1.91-.56-5.1.66-9.77.76-14.9a31.44,31.44,0,0,0-1.07-6.64c-1.16-5-3.26-9.21-4.56-14,.29-1.59.19-3.12.58-4.73.82-3.34,2.5-5.06,5.61-6.86h0"/><path class="cls-33" d="M208.65,107.85c0-.44-.27-.42-.35-.67-1.38-4.05.1-7.63.08-12.25,0-6.15-.26-13.59-.24-20.26a32.72,32.72,0,0,0-.87-7c0,6.61-1.66,39.69.83,42.19a11.42,11.42,0,0,0,.54-2h0M176.82,78.78c0-.53,0-1.17,0-1.72,0,.32-.11,1-.12,1.23a1.72,1.72,0,0,0,.11.49h0m11.59,42.62c-3.81-5.57-6.05-10.67-6.45-17.5a48.57,48.57,0,0,0-.65,7.48,28.16,28.16,0,0,0,4.68,9.71,15.49,15.49,0,0,0,2.42.31h0M181.81,95c.28-9.4,1-18.66.82-28.08a17.35,17.35,0,0,0-2,1.31c.12,6.67-.14,13.29-.47,19.94.43,1.42.77,2.74,1.11,4.21.19.8.39,1.78.55,2.62h0m12.91,25.8c-14.44-11.59-6.24-40.47-6.64-57l-2,1.13c.37,16.41-7.55,44.29,6.44,56.24.74-.13,1.45-.27,2.21-.39h0m-.5-7.51c-4.49-13.7-.22-31.52-.56-45.91a32.05,32.05,0,0,0-1.75-2.74,1.28,1.28,0,0,0-.25-.17c.14,12.95-4.48,45.35,4.17,53.49a14,14,0,0,1-1.61-4.67h0m3.16-39.32q0,1.26.07,2.51a7.17,7.17,0,0,0-.07-2.51m7.46-2.4c0-3.2,0-6.39.06-9.59a5.51,5.51,0,0,0-1.94-1.33c0,.44-.07.9,0,1.34s.3.74.4,1.12c-.06,2.17-.1,4.34-.13,6.51a9.09,9.09,0,0,1,1.61,1.95"/><g class="cls-3"><g class="cls-35"><path class="cls-36" d="M177.19,74c5-3,10-6,15-8.93-.17-.22-.05-.26-.31-.51a7.49,7.49,0,0,0-1.27-.86c-4.23,2.46-8.41,5-12.59,7.5a8,8,0,0,0-.76,2.39c0,.13,0,.27-.05.41"/></g></g><g class="cls-3"><g class="cls-37"><path class="cls-36" d="M176.91,79.14c5.64-3.78,11.76-7.09,17.65-10.53-.39-.54-.78-1.08-1.16-1.63-5.54,3.25-11.09,6.47-16.55,9.87,0,.39-.14,1.12-.14,1.45a4.08,4.08,0,0,0,.19.84h0m26.42-15.62,1.91-1.1a5.23,5.23,0,0,0-1.5-1.42l-1,.56c.17.51.4,1,.56,1.51,0,.14,0,.3,0,.45"/></g></g><g class="cls-3"><g class="cls-38"><path class="cls-36" d="M178.38,83.33c6-4,12.3-7.37,18.46-11a15.53,15.53,0,0,0-.94-1.76c-6.09,3.58-12.37,7-18.26,10.89.24.62.49,1.24.74,1.86h0m24.84-14.72,3.72-2.19c-.2-.64-.41-1.27-.64-1.89l-3,1.77q0,1.16,0,2.31"/></g></g><g class="cls-3"><g class="cls-39"><path class="cls-36" d="M180,87.59c5.5-3.85,11.56-6.87,17.34-10.28l0-.18a11.42,11.42,0,0,0,.19-2.27c-6.08,3.58-12.34,6.9-18.23,10.8.23.64.46,1.28.68,1.93h0m25.32-15c.87-.54,1.75-1.05,2.62-1.58q-.14-1.05-.35-2.09l-3.19,1.92a7,7,0,0,1,.77,1.34c.13.31.06.18.15.41"/></g></g><g class="cls-3"><g class="cls-40"><path class="cls-36" d="M181.22,92.14c4.82-3.43,10.1-6.05,15.23-9,.14-.86.27-1.72.4-2.59-5.4,3.12-11,5.94-16.12,9.52.18.68.33,1.36.49,2h0M206,77.37l2.1-1.29c0-.41,0-1,0-1.34s0-.61,0-1l-2.29,1.39c.09.73.15,1.46.19,2.19"/></g></g><g class="cls-3"><g class="cls-41"><path class="cls-36" d="M182.11,96.63a100.4,100.4,0,0,1,13-7.84c.24-.87.4-1.76.63-2.63-4.77,2.62-9.69,5.06-14.06,8.34.14.71.27,1.42.39,2.13h0m24-14.36L208.16,81c0-.76,0-1.52,0-2.27l-2,1.24c0,.77,0,1.55,0,2.32"/></g></g><g class="cls-3"><g class="cls-42"><path class="cls-36" d="M182.24,101.61A56.85,56.85,0,0,1,194,94.06c.08-.79.38-1.7.39-2.39a99.92,99.92,0,0,0-11.6,7c-1.45,1.07-.33.24-.33.25a15.89,15.89,0,0,0-.24,2.66h0m23.68-14.44,2.31-1.45q0-1.13,0-2.25L206,84.82l-.1,2.35"/></g></g><g class="cls-3"><g class="cls-43"><path class="cls-36" d="M181.37,108.4a40.83,40.83,0,0,1,12.39-9.31c0-.72,0-1.45,0-2.17a48.62,48.62,0,0,0-12,8.31c-.12,1.06-.28,2.11-.38,3.17h0m24.29-16c.89-.57,1.78-1.14,2.67-1.7q0-1.09-.06-2.19l-2.51,1.58c0,.77-.07,1.54-.1,2.31"/></g></g><g class="cls-3"><g class="cls-44"><path class="cls-36" d="M181,116.64a34.6,34.6,0,0,1,12.82-12.38c0-.79,0-1.58,0-2.37a41.21,41.21,0,0,0-12.54,10.54,7.22,7.22,0,0,0,.25,1.47c-.36.64-.73,1.27-1.08,1.92l.55.82h0M205.5,97.53c.94-.67,1.92-1.3,2.9-1.9,0-.28,0-.19,0-.55s0-1.16,0-1.6c-.95.58-1.89,1.19-2.82,1.81,0,.75,0,1.49-.07,2.24"/></g></g><g class="cls-3"><g class="cls-45"><path class="cls-36" d="M184.25,120.35c2.61-5.27,4.23-8,9.67-10.73,0-.84-.06-1.68-.06-2.52-5.4,3-8.46,6-11.21,11.63.46.49.92,1,1.38,1.47a1.43,1.43,0,0,0,.23.14h0m20.9-18.15c1-.78,2-1.56,3.1-2.25.06-.66.11-1.31.12-2-1,.66-2,1.35-3,2.05a15.34,15.34,0,0,1-.23,2.16"/></g></g><g class="cls-3"><g class="cls-46"><path class="cls-36" d="M189,121.43c1.1-3.19,2.37-5.23,5.43-6.81a20,20,0,0,1-.37-2.17c-4.95,2.26-5.11,4.21-7.38,8.78a21.93,21.93,0,0,0,2.32.19h0m15.57-14.87c1-1,2.09-1.91,3.2-2.77,0-.56.12-1.11.19-1.67-1.1.87-2.19,1.73-3.27,2.62a13.29,13.29,0,0,0-.11,1.83"/></g></g><g class="cls-3"><g class="cls-47"><path class="cls-36" d="M196.39,120.34c.67-.29,0-.46.57-.71a23,23,0,0,1-1.45-2.26,8.67,8.67,0,0,0-2.63,3.71,35.66,35.66,0,0,0,3.51-.75h0M206,109.5a30.41,30.41,0,0,1,2.16-2.64,3.24,3.24,0,0,1-.34-1.27c-1,.92-1.9,1.84-2.78,2.83a6.65,6.65,0,0,0,1,1.08"/></g></g><g class="cls-3"><g class="cls-48"><path class="cls-36" d="M207.93,110.29l0,.05h0l0-.06"/></g></g><path class="cls-49" d="M200.93,65c.9,1.41,1,3.26,1.25,4.87,1.63.24,2,.92,3,2.22a25.86,25.86,0,0,0-1.27-3.69c-1-1.14-2-2.27-2.93-3.41"/><g class="cls-50"><g class="cls-51"><path class="cls-52" d="M200.93,65c.9,1.41,1,3.26,1.25,4.87,1.63.24,2,.92,3,2.22a25.86,25.86,0,0,0-1.27-3.69,10.41,10.41,0,0,1,2.77-1.8c-1-2.91-2.37-5.22-5.36-6.29a6.89,6.89,0,0,0-.35,4.68"/></g></g><path class="cls-33" d="M200.12,63.44a18.66,18.66,0,0,1,2.05,6.45A7,7,0,0,1,206,66.4c-1-2.37-2.37-4.76-4.85-5.8a16,16,0,0,0-1,2.85"/><path class="cls-32" d="M200.65,62.49a14.1,14.1,0,0,1,1.12-2.74c-2.35-2-4.69-4-7-6l-1.83-.3c0,3.87-1.45,6.64-3.27,10.08,2.57,4.14,4,13.05,9.78,14.57s3.77-8.68,1.93-12.25c-.09-.18-1.09-2.47-.7-3.4"/><path class="cls-32" d="M190,64.35c3.44-1.37,7-1.28,10.62-1.91a9.71,9.71,0,0,1,1.17-2.73q-3.19-3-6.38-6.09l-2.58-.32c.08,3.87-1.45,6.85-3.18,10.21a6.19,6.19,0,0,0,.35.84"/><path class="cls-49" d="M197,71.26c1,1.38.73,4.26.17,5.9.11-1.12-1.18-1.47-1.69-1.85a35.65,35.65,0,0,1-3.56-3.41c.93-.7,1.81-1.36,2.73-2.09.71.71,1.69.54,2.34,1.45"/><g class="cls-50"><g class="cls-53"><path class="cls-52" d="M195.6,71.61c1.13.72,1.83,3.61,1.86,4.4.06,1.66-.6,1.68-1.19,2-1.58.73-1.17,1-1.68,2.34-3.88-3.85-7.07-9.85-6.94-15.34a1.63,1.63,0,0,1,.6-1.26c.28-.3,1.75-1,1.77-.57.17,4.08,2.28,6.26,5.58,8.48"/></g></g><path class="cls-31" d="M200.49,60.28a34.83,34.83,0,0,1-4.26-1.43c-2.26-1.31-2.3-3.65-3.09-5.88a5.18,5.18,0,0,1-2.85-2.91,8.35,8.35,0,0,1,2.06-7.52,6.53,6.53,0,0,1,5.84-2.22c4.42.38,6.57,3,7.74,7a2.17,2.17,0,0,1,0,1c-.05.49-.39,1.07-.49,1.73a3.42,3.42,0,0,0,.27,1.71,11.57,11.57,0,0,1-.19,3.6c-.16,1.12-.44,3.79-1.21,4.44s-.74.37-1.51.64a2.94,2.94,0,0,1-2.32-.2"/><path class="cls-32" d="M200.46,60.27a39.53,39.53,0,0,1-4.24-1.43c-2.24-1.32-2.31-3.65-3.08-5.88a5.18,5.18,0,0,1-2.85-2.91,8.37,8.37,0,0,1,2.06-7.53,6.63,6.63,0,0,1,5.84-2.22c3.8.24,5.89,2.27,7.37,5.58-1.88,1.65-5,2-7.34,2.07-.23,1.37.21,2.21.29,3.66,0,.35-.46,1.19,0,1.74.13.15.46.38.44.76-.14,2.57,1.26,4.74,3.1,6.53a5.12,5.12,0,0,1-1.6-.37"/><path class="cls-54" d="M190.2,42.56c-1.74,5.52-.69,8.78,3.28,12.85a9.51,9.51,0,0,0,.85-3.59c.22.55.48,1,.69,1.62.36-.39.27.26.67-.47a28,28,0,0,0,1.42-3.58c.39-1.16,1-3.26,2.08-4.1-3-.43-6.69-.67-9-2.74"/><path class="cls-32" d="M193.43,50.6c-1.85-.47-1.66,1.73-1.42,2.67s.89.83,1.18,1.45.88,1.19,1.47,1c1.2-.32.32-1.37.26-2.31s-.31-2.55-1.49-2.85"/><path class="cls-54" d="M190.23,42.76a4.14,4.14,0,0,1,3.27-4,1.28,1.28,0,0,0-.62.4,11.5,11.5,0,0,1,9.88.69c1.91,1.17,3,2.48,2.42,4.39s-2.69,2.14-4.92,2.25c-3,.15-8.18-.64-10-3.75"/><path class="cls-54" d="M192.14,39.72a9.13,9.13,0,0,1,5.27-1.6,23.53,23.53,0,0,1,4.28.72,6,6,0,0,1-.86.08,8.28,8.28,0,0,1,2.11.88,19.62,19.62,0,0,0-5.13-.59c.22.14.45.27.66.4a12.61,12.61,0,0,0-6.34.11"/><path class="cls-54" d="M196.74,45.9c1.42,2.78,3.5,3.58,6.51,3.94a11.67,11.67,0,0,1-3-3.33c1.8,1.41,3.44,2,4.8,4a16.68,16.68,0,0,0-1.83-3.94c1.66,1.6,2.56,2.33,2.75,4.74.93-3.21,1.72-6.38-.8-9a10.73,10.73,0,0,0-1.69-1.68c-2.24,1.78-4.47,3.56-6.72,5.31"/><g class="cls-55"><g class="cls-56"><path class="cls-52" d="M182.92,66.72c1.49-.89,4.11-2.31,5.82-3.31a3.1,3.1,0,0,1,.72-.37c.13,0,.17,0,.17.06-.23,2.62-4.8,4.29-6.68,5.68a14.26,14.26,0,0,1,3.86,6.56,75,75,0,0,1,2.86,19.39c-.18,10.18-2.95,17.82,2.6,26.5-2.64.22-6,.59-8.16-1-1.68-1.25-2.38-2.81-3.66-4.34.4-.66.73-1.3,1.11-1.94-.56-5.1.66-9.76.76-14.9a31.54,31.54,0,0,0-1.07-6.64c-1.13-4.88-3.15-9-4.47-13.7.28-1.46.26-3.67.48-5,.62-3.68,2.48-5.06,5.66-7"/></g></g><path class="cls-33" d="M190.68,61.47c.09.65-.56.28-.33,1.08,1.59,5.58,8,6.48,7,13.77-1.11-1.68-2.49,2.34-3.2,3.32-2.62-4.54-6.07-10.73-5.36-16,.17-1.28,1.24-1.3,1.85-2.14"/><path class="cls-32" d="M199.18,125.77c-1.36.34-3.9-.29-5.42-.23-.36-.81-1-3-.18-3.29a12.35,12.35,0,0,1,5.05.07c1.43.5,1.92,3.11.55,3.45"/><path class="cls-31" d="M189.53,126.07a20,20,0,0,0,10.34-.34c1-.28.45-2.65-.2-3.17-.36.54-1.36.45-1.83.55s0,1-.4,1.21a22.55,22.55,0,0,1-3.49-2.08c-.86-.63.52-.25,1.15-.06s2,1,3.1.88,1.12-.61-.63-1.34a70.83,70.83,0,0,0-7.19-3,4.36,4.36,0,0,1-2.83-1.64c-4-5.55-4.94-12.95-6.56-19.71,1-4.11,2.21-10,3.36-13.73S187.19,71,182,70.78c-7.53-.33-7.25,22.56-6.76,28,1.45,6.85,5.75,14.32,9.5,19.28,2.48,3.27,3.77,4.55,4.74,8"/><path class="cls-31" d="M199.89,125.83a2.29,2.29,0,0,0-.3-3.28,1.16,1.16,0,0,0-1.87.82c0,.22-.21.71-.24,1,.79.52,1.57,1,2.41,1.5"/><path class="cls-32" d="M178.27,71.42c-4.56,8.31-4.5,18.81-4.59,28a45.5,45.5,0,0,0,9.57,19.41c1.37,1.67,3.72,5.67,5.75,7.08s4.42.51,6.53.53c-4.25-2.15-7.18-5.17-10.09-8.7-4.72-5.73-6.75-12.21-8.41-19.26,1.2-9.79,2.73-19.55,6-28.87-2.14-1.07-3.7-.21-4.79,1.78"/><path class="cls-33" d="M181.58,97.14c1.29-4.5,2.39-9.29,3.83-13.71s1.14-11-2.35-13.61c-2.49-1.86-4.37-.21-5.42,1.69-4.46,8.07-5.37,18.09-4,27.4.42,3,7.23.87,8-1.77"/><g class="cls-50"><g class="cls-57"><path class="cls-52" d="M182.1,69.17a4.33,4.33,0,0,0-4.52,2.28c-4.53,8.23-4.92,18.16-4.19,27.43.11,1.4,2.32,1.82,3.53,1.39,0-.54-.31-1.09-.31-1.66,0-10,.77-20.49,5.49-29.44"/></g></g><g class="cls-3"><g class="cls-58"><path class="cls-36" d="M175.46,100.44c-.51-8.43.2-16.75.2-25.22a49.35,49.35,0,0,0-2.22,11.19,95.22,95.22,0,0,0,.08,13,2.46,2.46,0,0,0,1.93,1"/></g></g><g class="cls-3"><g class="cls-59"><path class="cls-36" d="M180.64,98.47c-.11-9.82,1-19.59.84-29.42a3.66,3.66,0,0,0-2,.51c0,10-1,20.08-.66,30.1a7.67,7.67,0,0,0,1.84-1.19"/></g></g><g class="cls-3"><g class="cls-60"><path class="cls-36" d="M185,72a111.63,111.63,0,0,1-.31,13.67c.23-.84.47-1.39.71-2.28A17.85,17.85,0,0,0,185,72"/></g></g><g class="cls-3"><g class="cls-61"><path class="cls-36" d="M176.59,73c2-1.23,4-2.44,6-3.63-2.2-.78-3.8.35-5.05,2a12.91,12.91,0,0,0-1,1.62"/></g></g><g class="cls-3"><g class="cls-62"><path class="cls-36" d="M174.51,79.52c3.54-2.37,7.2-4.53,10.87-6.7a9.9,9.9,0,0,0-.89-1.78c-3.11,1.85-6.24,3.68-9.28,5.64-.26.94-.49,1.89-.7,2.84"/></g></g><g class="cls-3"><g class="cls-63"><path class="cls-36" d="M173.51,85.6c4.1-2.94,8.4-5.49,12.73-8.08a19,19,0,0,0-.2-2.19c-4.12,2.46-8.2,4.92-12.15,7.65q-.21,1.31-.38,2.62"/></g></g><g class="cls-3"><g class="cls-64"><path class="cls-36" d="M173.07,91.75A103.37,103.37,0,0,1,185.54,83a22.72,22.72,0,0,0,.51-2.51,105,105,0,0,0-12.87,8.53q-.07,1.34-.1,2.68"/></g></g><g class="cls-3"><g class="cls-65"><path class="cls-36" d="M173.17,97.34a70.61,70.61,0,0,1,10.55-8.27c.26-.94.54-1.87.82-2.8A110.91,110.91,0,0,0,173,94.73c0,.87.06,1.74.14,2.61"/></g></g><g class="cls-3"><g class="cls-66"><path class="cls-36" d="M175.95,100.43a60.84,60.84,0,0,1,6.22-5.36c.23-1,.47-1.93.72-2.9a75.87,75.87,0,0,0-9.11,7.59,3.05,3.05,0,0,0,2.17.67"/></g></g><path class="cls-33" d="M173,97.49a9.28,9.28,0,0,0,9.09-2.13c0,.92-.24,1.54-.19,2.52a33.42,33.42,0,0,0,.56,3.31c-2.43,1.62-4.53,4-8,3.11-.71-.18-1.75-5.66-1.48-6.82"/><path class="cls-27" d="M195.28,114.48c1.93-.62,8.54-3.82,9.2-7.77.27.61.22,1.37.63,1.95-2.62,4.9-4.37,6.72-10.15,7.5,0-.33-.42-.8-.34-1.08s-.49-.1,0-.43c.19-.12-1.3.46.63-.17"/><path class="cls-27" d="M190.72,61.44c2.15,4.77,5.77,6,10.5,4.09l.34.68c-5.12,2.59-8.61.67-11.1-4.21,0-.08-.06-.61.26-.56"/><path class="cls-9" d="M273.83,99.55l1.25-.89a2.44,2.44,0,0,1,2.54-.19,4,4,0,0,1,2.22,3.14,2.34,2.34,0,0,1-.94,2.17l-1.19.88a3.07,3.07,0,0,0,.63-1.16,3.35,3.35,0,0,0-4.51-4"/><path class="cls-10" d="M275.29,99.19a2.54,2.54,0,0,0-2.64,2.92,3.57,3.57,0,0,0,3.16,3.26,2.53,2.53,0,0,0,2.64-2.92,3.57,3.57,0,0,0-3.16-3.26"/><path class="cls-9" d="M275.39,100.28a1.64,1.64,0,0,0-1.71,1.89,2.3,2.3,0,0,0,2,2.11,1.64,1.64,0,0,0,1.71-1.89,2.31,2.31,0,0,0-2-2.11"/><path class="cls-9" d="M274.85,83.07a2.25,2.25,0,0,0-1.4-.24,3.26,3.26,0,0,0-2.63,3.2A2.46,2.46,0,0,0,272,88.26l1.42.77a2.46,2.46,0,0,1-1.22-2.23,3.26,3.26,0,0,1,2.63-3.21,2.24,2.24,0,0,1,1.4.24Z"/><path class="cls-10" d="M274.86,83.6a2.32,2.32,0,0,1,2.62,2.47,3.26,3.26,0,0,1-2.63,3.21,2.32,2.32,0,0,1-2.62-2.47,3.26,3.26,0,0,1,2.63-3.21"/><path class="cls-9" d="M274.92,84.51a1.62,1.62,0,0,1,1.84,1.73,2.29,2.29,0,0,1-1.84,2.25,1.62,1.62,0,0,1-1.84-1.73,2.28,2.28,0,0,1,1.84-2.24"/><path class="cls-9" d="M243.39,91.46a2.25,2.25,0,0,1,.83-1.16,3.26,3.26,0,0,1,4.12.44,2.46,2.46,0,0,1,.69,2.44l-.47,1.54a2.46,2.46,0,0,0-.69-2.44,3.26,3.26,0,0,0-4.12-.44,2.25,2.25,0,0,0-.83,1.16Z"/><path class="cls-10" d="M243.75,91.85a2.32,2.32,0,0,0-.14,3.6,3.26,3.26,0,0,0,4.13.44,2.32,2.32,0,0,0,.14-3.6,3.26,3.26,0,0,0-4.12-.44"/><path class="cls-9" d="M244.35,92.54a1.62,1.62,0,0,0-.1,2.52,2.28,2.28,0,0,0,2.89.31,1.62,1.62,0,0,0,.1-2.52,2.29,2.29,0,0,0-2.89-.31"/><path class="cls-11" d="M256.39,103.24l-2.26-1.17a.49.49,0,0,0-.37,0l2.26,1.17a.5.5,0,0,1,.37,0"/><path class="cls-12" d="M251.06,108l2.26,1.17c-.42-.22-.4-1.23.12-2.57.64-1.65,1.8-3.16,2.57-3.38l-2.26-1.17c-.78.22-1.93,1.73-2.57,3.38-.52,1.34-.55,2.35-.12,2.57"/><path class="cls-10" d="M256,103.22c-.78.22-1.93,1.73-2.57,3.38s-.53,2.8.24,2.59,1.93-1.73,2.57-3.38.53-2.8-.25-2.59"/><path class="cls-9" d="M255.61,104.52a3.56,3.56,0,0,0-1.48,2c-.37,1-.31,1.62.14,1.49a3.56,3.56,0,0,0,1.49-2c.37-1,.31-1.62-.14-1.49"/><polygon class="cls-13" points="277.26 82.46 277.26 84.21 261.94 92.33 261.73 90.02 277.26 82.46"/><polygon class="cls-14" points="261.31 87.78 280.1 98.63 276.22 100.87 260.05 91.19 261.31 87.78"/><rect class="cls-15" x="242.51" y="91.19" width="17.53" height="1.13"/><polygon class="cls-14" points="262.45 90.88 254.31 105.32 250.85 103.49 259.08 89.83 262.45 90.88"/><polygon class="cls-14" points="261.31 87.78 274.1 80.39 277.26 82.46 264.26 89.49 261.31 87.78"/><polygon class="cls-13" points="280.1 98.63 280.1 100.13 276.24 102.5 276.22 100.87 280.1 98.63"/><polygon class="cls-13" points="276.22 100.87 261.33 91.96 261.33 93.67 276.24 102.5 276.22 100.87"/><polygon class="cls-13" points="261.33 93.67 254.31 106.91 254.31 105.32 261.33 91.96 261.33 93.67"/><polygon class="cls-15" points="254.31 106.91 254.31 105.32 250.85 103.49 250.85 104.89 254.31 106.91"/><path class="cls-16" d="M263.87,55.86a1.19,1.19,0,0,0,.47.4l4.46,2.08a1.2,1.2,0,0,0,.81.07l10.3-2.74a1.19,1.19,0,0,0-.61-2.31L269.41,56l-4.06-1.9a1.19,1.19,0,0,0-1.48,1.77"/><path class="cls-19" d="M254.87,23.67l3,1.73c-1.37-.8-3.31-.69-5.33.48l-3-1.73c2-1.17,4-1.28,5.33-.48"/><polygon class="cls-18" points="239.93 33.13 236.96 31.4 249.53 24.16 252.5 25.88 239.93 33.13"/><path class="cls-18" d="M234.21,43l-3-1.73c-.24-3.56,2.27-7.91,5.72-9.91l3,1.73c-3.45,2-6,6.34-5.72,9.91"/><path class="cls-19" d="M239.93,33.13l12.57-7.25c3.35-1.93,6.46-1,7.17,2.2L266,56.5l-30,17.76L234.21,43c-.24-3.56,2.27-7.91,5.72-9.91"/><path class="cls-24" d="M261.78,94.51l25-15.15s3.36-2.78.68-7.56c0,0-22.8,15.7-30.81,14.2,0,0,7.46,2.42,5.15,8.51"/><path class="cls-17" d="M236.06,74.27l20.86,11.55a10.19,10.19,0,0,0,10.15,0l19-11a2.86,2.86,0,0,0,0-4.94L266,56.5Z"/><path class="cls-20" d="M259.62,87.27l-23.31-13L234.21,43l-3-1.73,2.1,31.09s0,.05.16,2.75c.23,3.24.2,3.94,1.89,4.91l24.1,14.32c1.68,1,3.07.18,3.07-1.75a6.78,6.78,0,0,0-2.94-5.36"/><path class="cls-16" d="M236.37,74.24a1.19,1.19,0,0,0,.47.4l4.46,2.08a1.2,1.2,0,0,0,.81.07L252.42,74a1.19,1.19,0,0,0-.61-2.31l-9.88,2.63-4.06-1.9a1.19,1.19,0,0,0-1.48,1.77"/><polygon class="cls-21" points="248.4 66.79 248.4 66.79 261.4 72.86 248.4 66.79"/><polygon class="cls-22" points="242.93 67.21 242.93 67.21 243.71 66.75 242.93 67.21"/><path class="cls-23" d="M245.89,66.25a6.05,6.05,0,0,1,2.51.54l13,6.07c1.79.83,2.14,2.28.75,3.09l-3.25,1.89a4.41,4.41,0,0,1-2.17.5,5.66,5.66,0,0,1-3.18-.92L243,69.93c-1.22-.87-1.25-2-.08-2.72l.79-.46a4.41,4.41,0,0,1,2.18-.5"/><path class="cls-24" d="M263,76.6V74.78c-.14.86-2.88,2.27-3.44,2.51l-.77.33a5.07,5.07,0,0,1-4.26-.57l-11.12-7c-.89-.56-1.31-1.26-1.24-1.85L242,69.64c-.07.6.35,1.29,1.24,1.85l11.12,7a5.06,5.06,0,0,0,4.26.57l.77-.32c.56-.24,3.57-1.72,3.62-2.16"/><polygon class="cls-21" points="276.64 49.88 276.64 49.88 289.65 55.96 276.64 49.88"/><polygon class="cls-22" points="271.17 50.3 271.17 50.3 271.96 49.84 271.17 50.3"/><path class="cls-23" d="M274.13,49.34a6,6,0,0,1,2.51.54l13,6.08c1.79.83,2.14,2.28.75,3.09l-3.25,1.89a4.41,4.41,0,0,1-2.18.5,5.67,5.67,0,0,1-3.17-.91L271.25,53c-1.22-.87-1.25-2-.08-2.71l.79-.46a4.42,4.42,0,0,1,2.18-.5"/><path class="cls-24" d="M291.25,59.69V57.87c-.14.86-2.88,2.27-3.44,2.51l-.77.33a5.07,5.07,0,0,1-4.26-.57l-11.12-7c-.89-.56-1.31-1.26-1.24-1.85l-.18,1.47c-.07.6.35,1.29,1.24,1.85l11.12,7a5.06,5.06,0,0,0,4.26.57l.77-.32c.56-.24,3.57-1.73,3.62-2.16"/><path class="cls-67" d="M248,32.84a68.85,68.85,0,0,0-2.45,24.61c.48,5.77.82,20.23.67,23.19-.28,5.48.06,6,1,8.09s.93-.27,1.73.87.76,1.27,2.29,1.51,2.95,1.64,4.71,1.35,1.76-1.67,2.88-2.91,2.34-1.69.55-3.13-.17-2.3-2.49-4.63-2.69-3.17-3.06-7.93-.7-14.9-.57-19.63-.59-6.24-.57-10.32c-1.69-3.54-3.13-7.42-4.64-11.06"/><path class="cls-68" d="M249,76.47c.56,4.2-.66,8.68-.75,12.88a2.06,2.06,0,0,1,.56.26c-.43-4.35.73-8.66.19-13.15"/><path class="cls-68" d="M254.42,86.05c-.35,2.42,1.3,3.94,3.31,5l.35-.69c-1.79-1.21-3.35-2.06-3.67-4.35"/><path class="cls-68" d="M251.15,91c.1-1.35-1.61-1.78-.86-4.08-.46,1.61,1.66,4.1,1.39,4.21,0,0-.55.17-.53-.13"/><path class="cls-68" d="M247.84,66.25c-.55,4.33-1.11,8.51-1.6,12.91-.07.67,0,1.85-.1,2.6a84.79,84.79,0,0,0,1.7-15.5"/><path class="cls-69" d="M276.69,51.39c-1.39,0-2.19.77-1.63,2.17s2.62,3.51,3,4.57-.08,1.58.53,1.81.49-.17.85-.26a1,1,0,0,0,1.34.06c.3.51,1,.13,1.41,0,.49.28.81.53,1.45-.12s1.12-2.73.18-3.72-2.32-2-3.32-3a5.3,5.3,0,0,0-3.8-1.48"/><path class="cls-69" d="M278.24,59.53c.28.34,1,0,1.22-.18a1,1,0,0,0,1.36,0c.35.53,1,.18,1.46,0,.91.09,1.1-.62,1.17-1.75a3.82,3.82,0,0,0-1.89-2.71c.23.58.93,1.36,1,2s-.4,1.09-1.12.41-1.45-2.54-2.94-2.6a3.63,3.63,0,0,0-2.28.9,15.12,15.12,0,0,1,1.86,2.57c.27.64-.15,1,.13,1.33"/><path class="cls-70" d="M270.21,26.43c.47,4.31.42,11.34,1.78,15.21s5.94,7.33,7.56,9.41c2.76,3.54-2.29,6.52-5.2,4.12a36.52,36.52,0,0,1-8.15-10.75c-1.73-3.82-4-13.76-4.42-16.69-.56-4.25,1-5,3-5.79,3-1.24,5.11,1.85,5.4,4.48"/><path class="cls-71" d="M267.71,5.84c4.27,2.76,4.88,4.5,4.79,10.63-.07,4.46.76,14.35-1.11,19.57-2.89-1.47-6.67-4.58-7.44-8.12s.21-7.84-.16-11.51a102.32,102.32,0,0,0,3.94-10.58"/><path class="cls-67" d="M267.71,5.83c4.28,2.89,4.87,4.32,4.79,10.74,0,4,.87,14.45-1.12,19.58.06-3.46-1.23-.79-.76-6s1.85-18.06-3-24c.08-.4,0,0,.08-.35"/><path class="cls-72" d="M250.37,86.3c2.32.09,3.65-.43,6.16-1.12a78.43,78.43,0,0,0,9.2-3.09,75.6,75.6,0,0,0-9.62-3.34c-1,.25-2,.47-3,.64a63.06,63.06,0,0,1-2.77,6.91"/><path class="cls-73" d="M278.34,114.73c.22-.29.42-.6.63-.89a8.67,8.67,0,0,1-.66-1.39c0,.75,0,1.52,0,2.27"/><path class="cls-73" d="M282.59,111.9a11.83,11.83,0,0,0,2.46,2.85c1.12,1,2.31,2.42.8,3.21s-3.7-.31-5.14-1.25.78.4,1.18.72a17.53,17.53,0,0,1-3.48-2.65c-.68-.89-.49-1.3-1-2.12a24,24,0,0,1,.45-3.53c.15-1.14.43-2.48,1.36-2.93,2-1,2.71,4.55,3.32,5.7"/><path class="cls-69" d="M281.31,107.31a17.12,17.12,0,0,0,1.91,5.73c.61,1.33-1.87,2.34-3.19.93s-1.87-4.44-1.9-5.76,0-.87.3-1.61.95-1.83,1.9-1.6.9.72,1,2.32"/><path class="cls-74" d="M273.28,118.36l1.67-.78c-.37-.49-.79-.94-1.19-1.4-.15.73-.27,1.47-.48,2.18"/><path class="cls-73" d="M277.88,115.83a8.41,8.41,0,0,0,1.52,2.71c.83,1.09,1.76,2.16.7,3.11s-3.13-.46-4-1.14-.92-.67,0,0c-1.12-.88-1.84-1.36-2.77-2.15s-1.29-1.48-2.14-2.24c.14-1.77,1.3-1.7,1.57-2.91s.44-2.07,1.6-2.43c2.53-.81,3.14,3.81,3.51,5"/><path class="cls-69" d="M276.75,111.85c.33,1.3.94,3.17,1.54,5,.34,1.06-1,2.58-1.9.89s-2.93-4.1-3.32-5.31,0-.75.19-1.41a1.88,1.88,0,0,1,2-1.25c.84.2,1.21.78,1.54,2.08"/><path class="cls-69" d="M273.68,54.59C277,62.8,286,66.89,287.59,71.38c3.53,9.76-5,29.25-6.3,34.8s-3.05,3.73-2.84-.1,5.33-25,1.87-29.65c-9.26-5-12.5-3.83-16.6-14.5-2.66-6.9,9-9.74,10-7.34"/><path class="cls-75" d="M268.42,61c2.89,4.1,14.41,15.28,13.5,18.72-2,7.48-6,25.72-5.46,30.89s-3.09,4.11-3.39.06c-.47-6.47-3.73-21,1.77-29-18.11-6.92-18.94,4.87-21.17-18.23-1.08-11.18,13.89-3.63,14.74-2.43"/><path class="cls-76" d="M278.28,101.22c.31,1.21-.45,3,0,4.13s3.12.29,4.14-.47a15.72,15.72,0,0,0,1.5-4.41c-1.83.13-3.75.48-5.66.75"/><path class="cls-71" d="M271.74,106.23c.52,1.12.31,3.11.89,4s3.38.83,4.1-.29c.17-.26.08-3.3.17-4-1.72,0-3.41.17-5.16.22"/><path class="cls-71" d="M273.15,56.28c2.61,5.27,13.39,10.41,14.89,12.79,7.52,12-.7,20.9-2.61,30.49-.92,4.6-3,2.58-5.24,3.24-1.05.31-3.14,1.69-3-1.91s7.09-22.28.42-23.87c-10.69-1.56-15.74-5.7-18.28-15.37s10.52-11.95,13.78-5.37"/><path class="cls-77" d="M270.14,62.43c1.36,6.41,11,9.94,12.56,14.48,3,8.75-3,20.78-4.43,27.37-1,5-.63,2.91-3.69,4.22-1.27.54-4.62,0-4.75-3-.07-1.56-.2-2.76-1.57-6.84-1-2.91-1.42-12.18-7.62-17-2.23-1.73-8.49-6.45-7.25-15.21,1.18-8.33,9.39-10.63,16.76-4"/><path class="cls-68" d="M280,90.49c5.75-21.34-13.34-11.24-19.72-32.17C268,77.49,287.26,69.1,280,90.49"/><path class="cls-68" d="M261,66.89c8.12,28.21,18.9-6.32,10,31.55,2.6-31.89-8.09-11.06-10-31.55"/><path class="cls-68" d="M267.85,92.53c7.81-25.4-9-2.44-10.36-20.88-.66,16.23,12.9-1.54,10.36,20.88"/><path class="cls-68" d="M280.89,94.46a58.58,58.58,0,0,1-2.85,7.92,18.88,18.88,0,0,1-3.16,4.68c2.28-1.16,3.73-4,4.44-6.21a61.73,61.73,0,0,0,1.57-6.4"/><path class="cls-76" d="M290.37,86.29a50.73,50.73,0,0,1-3.71,8.79,26.53,26.53,0,0,1-4.74,5.53,13.6,13.6,0,0,0,6-6.72,52.89,52.89,0,0,0,2.42-7.6"/><path class="cls-76" d="M285.32,87.95c8.1-22.11,1.9-12.23-8-22.89,8.51,11.48,14.59.62,8,22.89"/><path class="cls-78" d="M256.25,26.07a23.67,23.67,0,0,1,5.12-2.53c2.67-.61,5.66,2.43,7,4.59s2.58,2.56,2.79,5.51c.38,5.37-2.76,5.09-.89,12.81,1.53,6.35,11,17.06,18.39,22.3.45.32-1.85,9.52-12.67,11.1-1.66.24-19.82-8.75-19.94-9.25-.82-3.22,3.56,13.47,2.3,13.18s-5.79,3.16-7.92,2.44c2.78-7.49,1.48-18.35,1.29-26.6.44-2.36,1.77-9.56,1.49-11.12-1-5.63-2.3-9.19-2.8-14s1.71-5.91,5.83-8.4"/><path class="cls-79" d="M257.6,67.18c-.11.17-1.91.27-.94.51-2.92,12.9,18.65,11,20,11,9.58-.2,12-7.89,12.13-10.23s-1.77-.44-2-1.86c-1.2,4.72-5.66,8.13-9.48,10.49-9.81-1.25-14.48-1.5-19.77-9.92"/><path class="cls-80" d="M260.85,19.73h0c4.1.73,3.46,3.92,4.37,7,.28,1,.26,1.69-.56,2.09a6.63,6.63,0,0,1-6.35.1,4.61,4.61,0,0,1-2.24-2.78c-.1-.38,1-2.07,1.3-3.32s1.52-3.49,3.48-3.14"/><g class="cls-81"><g class="cls-82"><path d="M249.83,33c1.86-4.81,6.15-1.45,6,3.08-.1,2.38-2.85,10.19-2.45,14.5s1.21,11.48,2.75,15.93c.07.2,0,.4.05.51A15.63,15.63,0,0,1,257.94,70a26.23,26.23,0,0,1,1.29,4c.21,1.25-2.68,1.43-3.27,1.68a.85.85,0,0,1-1.18-.28,1.41,1.41,0,0,1-1.22,0c-.43-.19-.52-.07-1-.26s-.78.19-1.09-.85a50.08,50.08,0,0,1-.65-5.2c-.42-.57-.7.23-.94-.85-1.19-5.31-3.22-12.92-3.39-18.29s1.86-13.15,3.34-17"/></g></g><path class="cls-69" d="M268.55,7.5a5.51,5.51,0,0,1,2.61,4.83,28.17,28.17,0,0,1-1.49,7.57c-1.15,3.33-1.25,5.57-5.46,5.65s-8-2.3-8.64-7.41c-.08-.68-.26-2.78-.37-3.51a7.62,7.62,0,0,1,7.91-9.27c3.41.15,4.14,1.28,5.44,2.14"/><path d="M254,11.65c1.28-6.24,9.08-8.44,14.28-4.66,3.49,2.54,3,5.08,2.43,8.51-.09-2.83-1-4.6-3.57-5.9-5.28,3.75-7.41,8.19-9.37,14.37-.39-5.31-5.06-6.08-3.78-12.32"/><path class="cls-71" d="M248,34.37c-.82-2.45,2.85-6.16,4-7,2.37-1.76,2.25-1.83,2.59-4.25.12-.89-.46-1.88-.79-2.91-1.41-4.41-2.57-7.69,1-12.26,4-5.06,13.4-5.47,16.09,2-3.32-2.78-7.24-2.06-9.35,2.29a39.32,39.32,0,0,0-2.29,7.59c-1.13,5.43-1.46,10,1.26,15,2,3.61,4.65,2.62,7.63,4.7-.49,1.94-.24,2.63-2.41,4.44s-7.54-1.56-8.53-4c-2.81-6.94-3.89-12.68-9.23-5.53"/><path class="cls-67" d="M260.34,10.15c.47-1.26.76-2.59,2.07-3.43s3.65-1.79,5.39-1.22,3.6,2.62,3.16,4.38c-3.4-2.68-7.31-2.07-9.39,2.34a30.87,30.87,0,0,0-2.28,7.63c-.83,5.77-2.66,17,6.46,17.34,5.56.24,1.86-9-.89-11.49.63-.16.95-.23,1.51-.36,2,1,4.53,3.92,5,5.83,1,4.08,1,12.62-4.32,12.51-16-.32-10.34-23.79-6.74-33.55"/><path class="cls-83" d="M266.39,13.47c0,.17.23.24.36.27s.4,0,.42-.14-.23-.24-.36-.27-.4,0-.42.14"/><path class="cls-69" d="M252.84,65.85c.46.74.61,1.44,1.43,2a34.45,34.45,0,0,1,2.94,2c.77.66,2.51,2.93,2,3.67s-1.28-.06-1.84-.06c-.15-.45-.52-1.43-.89-1.58a.65.65,0,0,0-.85.57c0,.4,1.53,1,2,1.09a12.89,12.89,0,0,1-2,2.42c-.71.63-2.54,1.62-3.23,1.29s-.34-.74-.7-1.13-.45.06-.75-.68a11.06,11.06,0,0,1-.62-3c-.14-1.3-.49-3.91-.64-5.44,1.06-.45,2.15-.79,3.22-1.17"/><g class="cls-84"><g class="cls-85"><path d="M250.42,34.5a122.91,122.91,0,0,0,2.85,13.58s0,.11,0,.08c.44-3.73,1.92-8.92,2.44-12.24s-.4-5.07-2.88-6.28a2.54,2.54,0,0,0-2.53.83c-.53,1.39-.15,2.37.09,4"/></g></g><path class="cls-86" d="M252.55,29.9c-3-.42-4.65,3.35-5.29,7.09s-2,10.49-1.34,15.32,2.36,13,3.35,17.37c.69,3,7.53,3.07,6.88-.74s-3.68-13.25-3.67-18,2.49-11.24,3-14.75.06-5.84-2.91-6.26"/><path class="cls-72" d="M255.57,42.78c1.58,2.27,4.41,2.1,6.88,1.63-1,1.31-2.51,1.39-4.36,1.21-.8-.08-2.74-1.42-2.52-2.84"/><path class="cls-86" d="M258.28,52.1a5.17,5.17,0,0,0,.72,3.11,2.19,2.19,0,0,0,3.07.62,1.89,1.89,0,0,0-.29-3,7.81,7.81,0,0,0-3.55-1"/><path class="cls-86" d="M271.51,64.28A18,18,0,0,1,269,59.72c-.27-.8-.52-1.55.14-2.33a2.46,2.46,0,0,1,3.11-.37,3.33,3.33,0,0,1,1.35,2.62,8,8,0,0,1-.63,4.25,1.61,1.61,0,0,1-.92.9c-.41.09-1.18-.08-.89-.59"/><path class="cls-71" d="M276.51,90.16a31.06,31.06,0,0,0-3.41,6.25c-.44,1.37-.86,2.64,0,3.81s2.4.3,3.1-.93a12.68,12.68,0,0,0,1.17-4.58c.16-1.48.41-3.32-1.17-4"/><path class="cls-9" d="M341.89,99l-1.25-.89a2.44,2.44,0,0,0-2.54-.19,4,4,0,0,0-2.22,3.14,2.33,2.33,0,0,0,.94,2.17l1.19.88a3.06,3.06,0,0,1-.63-1.16,3.43,3.43,0,0,1,.55-2.82,3.34,3.34,0,0,1,4-1.13"/><path class="cls-10" d="M340.43,98.64a2.54,2.54,0,0,1,2.64,2.92,3.57,3.57,0,0,1-3.16,3.26,2.54,2.54,0,0,1-2.64-2.92,3.57,3.57,0,0,1,3.16-3.26"/><path class="cls-9" d="M340.33,99.73a1.64,1.64,0,0,1,1.71,1.89,2.3,2.3,0,0,1-2,2.1,1.64,1.64,0,0,1-1.71-1.89,2.31,2.31,0,0,1,2-2.11"/><path class="cls-9" d="M340.87,82.52a2.24,2.24,0,0,1,1.4-.24,3.26,3.26,0,0,1,2.63,3.21,2.46,2.46,0,0,1-1.22,2.23l-1.42.77a2.46,2.46,0,0,0,1.22-2.23A3.26,3.26,0,0,0,340.86,83a2.25,2.25,0,0,0-1.4.24Z"/><path class="cls-10" d="M340.86,83a2.32,2.32,0,0,0-2.62,2.47,3.26,3.26,0,0,0,2.63,3.21,2.32,2.32,0,0,0,2.62-2.47A3.26,3.26,0,0,0,340.86,83"/><path class="cls-9" d="M340.8,84A1.62,1.62,0,0,0,339,85.69a2.28,2.28,0,0,0,1.84,2.24,1.62,1.62,0,0,0,1.84-1.73A2.28,2.28,0,0,0,340.8,84"/><path class="cls-9" d="M372.33,90.91a2.25,2.25,0,0,0-.83-1.16,3.26,3.26,0,0,0-4.12.44,2.46,2.46,0,0,0-.69,2.44l.47,1.54a2.46,2.46,0,0,1,.69-2.44A3.26,3.26,0,0,1,372,91.3a2.25,2.25,0,0,1,.83,1.16Z"/><path class="cls-10" d="M372,91.3a2.32,2.32,0,0,1,.14,3.6,3.26,3.26,0,0,1-4.13.44,2.32,2.32,0,0,1-.14-3.6A3.26,3.26,0,0,1,372,91.3"/><path class="cls-9" d="M371.37,92a1.62,1.62,0,0,1,.1,2.52,2.28,2.28,0,0,1-2.89.31,1.62,1.62,0,0,1-.1-2.52,2.28,2.28,0,0,1,2.89-.31"/><path class="cls-11" d="M359.33,102.69l2.26-1.17a.49.49,0,0,1,.37,0l-2.26,1.17a.5.5,0,0,0-.37,0"/><path class="cls-12" d="M364.65,107.45l-2.26,1.17c.42-.22.4-1.23-.12-2.57-.64-1.65-1.8-3.16-2.57-3.38l2.26-1.17c.78.22,1.93,1.73,2.57,3.38.52,1.34.55,2.35.12,2.57"/><path class="cls-10" d="M359.7,102.67c.78.22,1.93,1.73,2.57,3.38s.53,2.8-.24,2.59-1.93-1.73-2.57-3.38-.53-2.8.25-2.59"/><path class="cls-9" d="M360.11,104a3.56,3.56,0,0,1,1.48,2c.37,1,.31,1.62-.14,1.49a3.56,3.56,0,0,1-1.49-2c-.37-1-.31-1.62.14-1.49"/><polygon class="cls-13" points="338.46 81.92 338.46 83.66 353.78 91.78 353.99 89.47 338.46 81.92"/><polygon class="cls-14" points="354.41 87.23 335.62 98.08 339.5 100.32 355.67 90.64 354.41 87.23"/><polygon class="cls-14" points="354.41 87.23 371.75 87.23 373.21 90.64 355.67 90.64 354.41 87.23"/><rect class="cls-15" x="355.67" y="90.64" width="17.53" height="1.13"/><polygon class="cls-14" points="353.27 90.33 361.41 104.77 364.87 102.94 356.64 89.28 353.27 90.33"/><polygon class="cls-14" points="354.41 87.23 341.62 79.84 338.46 81.92 351.46 88.94 354.41 87.23"/><polygon class="cls-13" points="335.62 98.08 335.62 99.58 339.48 101.95 339.5 100.32 335.62 98.08"/><polygon class="cls-13" points="339.5 100.32 354.39 91.41 354.39 93.12 339.48 101.95 339.5 100.32"/><polygon class="cls-13" points="354.39 93.12 361.41 106.36 361.41 104.77 354.39 91.41 354.39 93.12"/><polygon class="cls-15" points="361.41 106.36 361.41 104.77 364.87 102.94 364.87 104.34 361.41 106.36"/><path class="cls-16" d="M351.85,55.31a1.19,1.19,0,0,1-.47.4l-4.46,2.08a1.2,1.2,0,0,1-.81.07l-10.3-2.74a1.19,1.19,0,0,1,.61-2.31l9.88,2.63,4.06-1.9a1.19,1.19,0,0,1,1.48,1.77"/><path class="cls-17" d="M360.85,23.12l-3,1.73c1.37-.8,3.31-.69,5.33.48l3-1.73c-2-1.17-4-1.28-5.33-.48"/><polygon class="cls-18" points="375.79 32.58 378.76 30.85 366.19 23.61 363.22 25.33 375.79 32.58"/><path class="cls-18" d="M381.51,42.48l3-1.73c.24-3.56-2.27-7.91-5.72-9.91l-3,1.73c3.45,2,6,6.34,5.72,9.91"/><path class="cls-19" d="M375.79,32.58l-12.57-7.25c-3.35-1.93-6.46-1-7.17,2.21L349.7,56l30,17.77,1.86-31.23c.24-3.56-2.27-7.91-5.72-9.91"/><path class="cls-24" d="M353.94,94,329,78.81s-3.36-2.78-.68-7.56c0,0,22.8,15.7,30.81,14.2,0,0-7.46,2.43-5.15,8.51"/><path class="cls-17" d="M379.66,73.72,358.79,85.27a10.19,10.19,0,0,1-10.15,0l-19-11a2.86,2.86,0,0,1,0-4.94L349.7,56Z"/><g class="cls-87"><g class="cls-88"><path d="M290,119.91c-.52,2.59,1.73,5,4.23,5.89s5.21.63,7.85.82,5.49,1,6.94,3.19c2.75,4.19-1.17,10.82,5.32,13.73a4.85,4.85,0,0,0,.72.26c3.37.93,6.6-.18,9.68-1.36a159.73,159.73,0,0,0,19.8-9.21c4.6-2.53,9.72-6.32,7.62-12.34a6.09,6.09,0,0,0-.85-1.6c-2.86-3.86-7.23-5-11.48-6-9.35-2.35-21.83-8.06-31.53-7.3-6.16.49-17,7.6-18.29,14"/></g></g><path class="cls-89" d="M309.5,113a51.79,51.79,0,0,1-6.92,3.6c-3.48,1.59-4.41,1.81-7.63,3.37a1.45,1.45,0,0,0-.68,2.23,5.82,5.82,0,0,0,3.91,1.17l9.77-.63a4.83,4.83,0,0,0,2.2-.78l4.74-3.14,1.18,2.42a7.85,7.85,0,0,0,2.36.55,8,8,0,0,0,3.51-.55c.17-.57.33-1.2.47-1.88a16.06,16.06,0,0,0,.35-4Z"/><path class="cls-89" d="M337.24,121.68c-.62-1.75-2.77-2.66-6.11-2.12l-2.4,1.37c-.47.35-3.68,4.85-4,5.33l-7.73,9a2.07,2.07,0,0,0,.87,3.14c1.56.65,4,.39,6.41-.93a31.86,31.86,0,0,0,4.45-3.1c1.95-1.6,2.67-2,4.31-3.47,1.68.83,3.09.5,4.69-.83a21.46,21.46,0,0,0-.48-8.38"/><path class="cls-90" d="M313.26,86.49l-3.77,27.35s3,6,13.26,2.39l4.69-21.74Z"/><path class="cls-90" d="M376.29,66.8,348,62.44s-1.73-.36-9.39,2.86l-.63.36a97.28,97.28,0,0,0-11.46,7.44,20.54,20.54,0,0,0-5.45,6.26c-2.53,4.47-7.43,12.62-7.73,13.47l13.83,6.78s-.45-15.71,17.15-24.6c0,0-10.22,3.86-13.45,11.9l-4.71,37.85c0,.8.33,2,2.26,2.68,1.41.47,5.14.07,8.44-1.16a7.38,7.38,0,0,0,2.94-2l3.38-29.61A3.42,3.42,0,0,1,345,92l18.63-10s12.62-6.3,12.62-15.21"/><path class="cls-20" d="M356.1,86.72l23.31-13,2.1-31.23,3-1.73-2.1,31.09s0,.05-.16,2.75c-.23,3.24-.2,3.94-1.88,4.91l-24.1,14.32c-1.68,1-3.06.18-3.07-1.75a6.78,6.78,0,0,1,2.94-5.36"/><polygon class="cls-91" points="326.07 55.41 326.07 55.41 339.07 49.33 326.07 55.41"/><polygon class="cls-92" points="343.77 49.3 343.77 49.3 344.55 49.75 343.77 49.3"/><path class="cls-23" d="M341.58,48.79a4.44,4.44,0,0,1,2.18.5l.78.46c1.18.68,1.14,1.85-.08,2.72L333.91,60a5.67,5.67,0,0,1-3.17.91,4.39,4.39,0,0,1-2.17-.5l-3.25-1.89c-1.39-.81-1-2.26.74-3.09l13-6.08a6,6,0,0,1,2.51-.54"/><path class="cls-24" d="M324.47,59.14V57.32c.14.86,2.88,2.27,3.44,2.51l.77.33a5.07,5.07,0,0,0,4.26-.57l11.12-7c.89-.56,1.31-1.26,1.24-1.85l.18,1.47c.07.6-.35,1.29-1.24,1.85l-11.12,7a5.06,5.06,0,0,1-4.26.57l-.77-.32c-.56-.24-3.57-1.72-3.62-2.16"/><path class="cls-16" d="M379.35,73.69a1.18,1.18,0,0,1-.47.4l-4.46,2.08a1.2,1.2,0,0,1-.81.07L363.3,73.5a1.19,1.19,0,0,1,.61-2.31l9.88,2.63,4.06-1.9a1.19,1.19,0,0,1,1.48,1.77"/><polygon class="cls-91" points="354.31 72.31 354.31 72.31 367.32 66.24 354.31 72.31"/><polygon class="cls-92" points="372.01 66.2 372.01 66.2 372.79 66.66 372.01 66.2"/><path class="cls-23" d="M369.83,65.7a4.4,4.4,0,0,1,2.17.5l.79.46c1.17.68,1.14,1.84-.08,2.72l-10.55,7.5a5.66,5.66,0,0,1-3.18.92,4.4,4.4,0,0,1-2.17-.5l-3.25-1.89c-1.39-.81-1-2.26.75-3.09l13-6.07a6,6,0,0,1,2.51-.54"/><path class="cls-24" d="M352.71,76.05V74.23c.14.86,2.88,2.27,3.44,2.51l.77.33a5.07,5.07,0,0,0,4.26-.57l11.12-7c.89-.56,1.31-1.26,1.24-1.85l.18,1.47c.07.6-.35,1.29-1.24,1.85l-11.11,7a5.06,5.06,0,0,1-4.26.57l-.77-.32c-.56-.24-3.57-1.72-3.62-2.16"/><path class="cls-24" d="M194.16,131.4l25-15.15s3.36-2.78.68-7.57c0,0-22.8,15.7-30.81,14.2,0,0,7.46,2.42,5.15,8.51"/><path class="cls-90" d="M232.88,155.1l8.51,7a1.35,1.35,0,0,1-.28,2.43c-2.33.63-7.19.85-10-.37l-7.78-5,.09,1.65c-1.38.44-3.73-.42-3.73-.42a.9.9,0,0,1-.69-.77,39.45,39.45,0,0,1-.39-5.53,1.52,1.52,0,0,1,1.7-1.31Z"/><path class="cls-93" d="M189.48,111.51l2.46,1.86c.74,1.84,2.95,2.45,3.28,3.17s.76,1.93.82,2.09a2.63,2.63,0,0,0,2,1.68h.62a3.15,3.15,0,0,0,2.56-2.24h0a.33.33,0,0,0,0-.09c-.23-1.77-.74-5.35-1.45-6.09-1-1.06-3.12-1.72-4-2.27l-2.08-1.36Z"/><path class="cls-7" d="M188.37,113l2.49,1.25s3.36.24,5.17-5.54l-3.44-1.56s.22,3-4.21,5.85"/><g class="cls-94"><g class="cls-95"><path d="M190.9,114.34h-.07l-2.6-1.31.1-.07c4.34-2.82,4.18-5.76,4.18-5.79v-.12l3.61,1.63,0,.06c-1.69,5.4-4.78,5.59-5.19,5.59m0-.14h0c.38,0,3.37-.17,5-5.43l-3.29-1.49c0,.57-.31,3.2-4.14,5.73Z"/></g></g><path class="cls-96" d="M252.77,185.33a8.92,8.92,0,0,1-4.53-1.25l-24.46-14.37A15.77,15.77,0,0,1,216,156.39l-.5-38.89,5.68-.07.5,38.89a10.06,10.06,0,0,0,4.93,8.49l24.46,14.37a3.26,3.26,0,0,0,4.91-2.81v-34.9h5.68v34.9a9,9,0,0,1-8.94,9"/><path class="cls-96" d="M320.23,151.38a8.92,8.92,0,0,1-4.53-1.25l-24.46-14.37a15.77,15.77,0,0,1-7.74-13.32L283,83.55l5.68-.07.5,38.89a10.06,10.06,0,0,0,4.93,8.49l24.46,14.37a3.26,3.26,0,0,0,4.91-2.81v-34.9h5.68v34.9a9,9,0,0,1-8.94,9"/><path class="cls-97" d="M337,100.35l0,5.79c0,10.9-9.28,23.35-26.62,33.43-28.66,16.65-68.58,20.52-89.18,8.63-8.13-4.69-12-11.14-12-18.25l0-5.79c0,7.11,3.88,13.56,12,18.25,20.59,11.89,60.52,8,89.17-8.63C327.77,123.7,337,111.25,337,100.35"/><path class="cls-98" d="M325,82.1c20.59,11.89,14.05,35-14.61,51.68s-68.58,20.52-89.18,8.63-14.06-35,14.6-51.68S304.44,70.21,325,82.1"/><path class="cls-9" d="M337.43,188l-1.4-1a2.73,2.73,0,0,0-2.84-.22,4.52,4.52,0,0,0-2.49,3.51,2.61,2.61,0,0,0,1.05,2.42l1.33,1a3.44,3.44,0,0,1-.71-1.3,3.75,3.75,0,0,1,5.05-4.42"/><path class="cls-10" d="M335.79,187.63a2.84,2.84,0,0,1,3,3.27,4,4,0,0,1-3.53,3.65,2.84,2.84,0,0,1-3-3.27,4,4,0,0,1,3.53-3.65"/><path class="cls-9" d="M335.69,188.85A1.83,1.83,0,0,1,337.6,191a2.58,2.58,0,0,1-2.28,2.36,1.83,1.83,0,0,1-1.91-2.11,2.58,2.58,0,0,1,2.28-2.36"/><path class="cls-9" d="M336.29,169.59a2.52,2.52,0,0,1,1.57-.27,3.65,3.65,0,0,1,2.95,3.59,2.75,2.75,0,0,1-1.36,2.49l-1.59.86a2.75,2.75,0,0,0,1.36-2.49,3.65,3.65,0,0,0-2.95-3.59,2.52,2.52,0,0,0-1.57.27Z"/><path class="cls-10" d="M336.27,170.18a2.59,2.59,0,0,0-2.93,2.76,3.65,3.65,0,0,0,2.95,3.59,2.59,2.59,0,0,0,2.93-2.76,3.65,3.65,0,0,0-2.95-3.59"/><path class="cls-9" d="M336.21,171.2a1.82,1.82,0,0,0-2.06,1.93,2.56,2.56,0,0,0,2.06,2.51,1.82,1.82,0,0,0,2.06-1.93,2.56,2.56,0,0,0-2.06-2.51"/><path class="cls-9" d="M371.49,179a2.52,2.52,0,0,0-.93-1.29,3.65,3.65,0,0,0-4.61.49,2.75,2.75,0,0,0-.77,2.73l.53,1.73a2.75,2.75,0,0,1,.77-2.73,3.65,3.65,0,0,1,4.62-.49,2.51,2.51,0,0,1,.93,1.29Z"/><path class="cls-10" d="M371.08,179.42a2.59,2.59,0,0,1,.16,4,3.65,3.65,0,0,1-4.61.49,2.59,2.59,0,0,1-.16-4,3.65,3.65,0,0,1,4.62-.49"/><path class="cls-9" d="M370.41,180.19a1.82,1.82,0,0,1,.11,2.82,2.56,2.56,0,0,1-3.23.35,1.82,1.82,0,0,1-.11-2.82,2.56,2.56,0,0,1,3.23-.35"/><path class="cls-11" d="M356.94,192.16l2.52-1.3a.56.56,0,0,1,.41,0l-2.52,1.3a.56.56,0,0,0-.41,0"/><path class="cls-12" d="M362.9,197.49l-2.52,1.3c.47-.25.45-1.38-.14-2.87-.72-1.84-2-3.53-2.88-3.78l2.52-1.31c.87.25,2.16,1.93,2.88,3.78.58,1.49.61,2.63.14,2.87"/><path class="cls-10" d="M357.36,192.14c.87.24,2.16,1.93,2.88,3.78s.6,3.14-.27,2.89-2.16-1.94-2.88-3.78-.6-3.14.28-2.89"/><path class="cls-9" d="M357.81,193.59a4,4,0,0,1,1.66,2.18c.42,1.07.34,1.81-.16,1.67a4,4,0,0,1-1.66-2.18c-.42-1.06-.34-1.81.16-1.67"/><polygon class="cls-13" points="333.59 168.91 333.59 170.87 350.73 179.95 350.97 177.37 333.59 168.91"/><polygon class="cls-14" points="351.44 174.86 330.41 187 334.76 189.51 352.85 178.68 351.44 174.86"/><polygon class="cls-14" points="351.44 174.86 370.83 174.86 372.46 178.68 352.85 178.68 351.44 174.86"/><rect class="cls-15" x="352.85" y="178.68" width="19.62" height="1.27"/><polygon class="cls-14" points="350.16 178.33 359.26 194.49 363.13 192.44 353.93 177.16 350.16 178.33"/><polygon class="cls-14" points="351.44 174.86 337.12 166.6 333.59 168.91 348.13 176.77 351.44 174.86"/><polygon class="cls-13" points="330.41 187 330.41 188.68 334.74 191.33 334.76 189.51 330.41 187"/><polygon class="cls-13" points="334.76 189.51 351.41 179.54 351.41 181.45 334.74 191.33 334.76 189.51"/><polygon class="cls-13" points="351.41 181.45 359.26 196.26 359.26 194.49 351.41 179.54 351.41 181.45"/><polygon class="cls-15" points="359.26 196.26 359.26 194.49 363.13 192.44 363.13 194 359.26 196.26"/><path class="cls-99" d="M383.29,112.56l3.19,1.85c-1.12-.65-2.72-.5-4.58.57l-3.19-1.85c1.86-1.08,3.46-1.22,4.58-.57"/><path class="cls-93" d="M320.81,178.91c.6,1.15,1.42,1.83,4.33,1.58a8.4,8.4,0,0,0,4.16-2.14c.51-.59,2.37-1.94,3.06-1.15a5.47,5.47,0,0,1-1.12-3.25,54.26,54.26,0,0,1,2.7-15.72c.49-1.52-.42-6.07-1.36-7.55-1.42-2.22-1.64-5-1.8-7.57-.29-4.36-.4-7.9-6.09-6.23,0,0-5.39,2.89.63,25.08,0,0,2.68,12.5.41,14.6a11.16,11.16,0,0,1-4.92,2.35"/><path class="cls-100" d="M332,176.52a.55.55,0,0,1,.16.16c.27.42,1,2.22-.5,7.81a.71.71,0,0,1-.71.31,1.27,1.27,0,0,1-.83-.3,34.58,34.58,0,0,0,0-3.54l-3.08,2a2.57,2.57,0,0,1-1.8.39,19.35,19.35,0,0,1-5-1.93,11.11,11.11,0,0,1-3-1.87s-.84-1.28,3.85-1.13c0,0,.26,3.82,8.37-.81,1.49-.85,1.8-1.53,2.46-1.1"/><path class="cls-93" d="M316,181.06c.57,1.25,1.36,2,4.29,1.81a8.21,8.21,0,0,0,4.22-2.16c.53-.62,2.19-1.95,3.06-1a8.49,8.49,0,0,1-1-2.93,46.66,46.66,0,0,1,2.34-17.54c.54-1.6.55-6.35-.35-8-1.36-2.41-1.07-5.88-1.16-8.59-.16-4.66-1.71-6.47-4.87-5.43,0,0-6.25.78-1.77,22.2,0,0,2.56,17.06.23,19.23a10.84,10.84,0,0,1-5,2.37"/><path class="cls-100" d="M327.36,179.12a.54.54,0,0,1,.16.17c.26.44,1,2.34-.73,8.11a.71.71,0,0,1-.72.31,1.24,1.24,0,0,1-.83-.34s.2-2.18.15-3.68l-3.14,2a2.49,2.49,0,0,1-1.82.36,18.81,18.81,0,0,1-4.92-2.14,11,11,0,0,1-2.92-2s-.8-1.36,3.88-1.08c0,0,1.78,4.5,8.4-.63,1.37-1.07,1.84-1.55,2.49-1.09"/><path class="cls-101" d="M340.75,144.91c-1.86,2.64-6.58,2.53-10.56-.27s-5.69-7.19-3.84-9.84,6.58-2.53,10.56.27,5.69,7.19,3.84,9.84"/><path class="cls-102" d="M325.4,137c2.61.33,6.73,1.93,12.88,6.91,0,0,11.24,6.84,13.16,13.3a2.25,2.25,0,0,1,.18,1.39c-.51,2.73-7.26,5.17-12.16,3.52-6.54-2.2-12-14.13-12.62-15.4-1-2.15-6.27-2.42-6.63-5.54a2.57,2.57,0,0,1,.16-1.07,4.67,4.67,0,0,1,5-3.1"/><path class="cls-17" d="M319,154.95l25.84-14.74a12.77,12.77,0,0,1,12.71,0L381.37,154a3.59,3.59,0,0,1,0,6.19L354.76,176Z"/><path class="cls-103" d="M332.49,112.48l9.5,17.4a2.4,2.4,0,0,1-1.31,3.41l-14.78,5.17a2.4,2.4,0,0,1-2.89-1.1l-9.93-17.84a2.4,2.4,0,0,1,1.38-3.46l15.22-4.73a2.4,2.4,0,0,1,2.82,1.14"/><path class="cls-104" d="M325.11,137.46a1.23,1.23,0,0,0,.41-.07l14.78-5.17a1.26,1.26,0,0,0,.69-1.79l-9.5-17.4a1.26,1.26,0,0,0-1.1-.65,1.28,1.28,0,0,0-.37.06l-15.21,4.73a1.26,1.26,0,0,0-.72,1.81L324,136.82a1.26,1.26,0,0,0,1.1.64"/><path class="cls-105" d="M326.84,146.76c0,3.58,13,21.85,26,18.35a65.44,65.44,0,0,0,6.71-2.15c6.61-2.46,3.87-17.51,3.87-17.51l-20.23-6.84c-17.06-.13-16.3,8.16-16.3,8.16"/><g class="cls-106"><g class="cls-107"><path class="cls-108" d="M326.84,146.76c.81,1.72,3.34,7.05,5.24,8.82,3.48,3.22,9.3,9.28,15.3,10,8.08.94,12.13-2.6,12.13-2.6,6.55-1.94,3.87-17.51,3.87-17.51A21.28,21.28,0,0,1,348.2,152s-11.28,5.74-21.36-5.2"/></g></g><path class="cls-109" d="M362.64,110.45a6.87,6.87,0,0,0-1.81-2.15,5,5,0,0,0-4.54-.74c-4.31,1.37-11.83,4.34-14.88,9.12a15,15,0,0,0-2.21,5.55c-.09,1.19,1.1,10,1.74,21.19l1.94,3.43c.81,1.63,4.59,5.76,12.13,4.36,4.8-.89,7.88-3.48,8.37-5.77.73-1.28-.66-2.54-1.39-11.45-.55-6.65,3.27-18.84.65-23.55"/><path class="cls-110" d="M349.43,123.83s.23-6.92-4.37-7.77c-2.68-.49-5.34,2.27-5.77,5-.48,3-.86,7.37-.63,15.54,0,0-5-4.59-8-7.24,0,0-3.83,2.2-4.59,3.85,0,0,8.58,10.62,11.89,12.27,0,0,5.09,4.16,6.52-.53,0,0,4-11.37,5-21.09"/><path class="cls-102" d="M340.4,88.72a9.67,9.67,0,0,0-2.34,5.91c-.29,3.14-.15,8,2,11.49.6,1,1.73,2.72,3.91,2.26,1.46-.31,2.45-1,2.71-.67l.17.24a5.1,5.1,0,0,1,1,2.12,7.49,7.49,0,0,0,8-2.14,4.48,4.48,0,0,1,.49-5.65c5-5,2-13.53-3.19-16.24-4-2.08-9.41-1-12.77,2.71"/><path class="cls-111" d="M358.42,90.33s3.88,8.42-2.71,13.08c0,0-5.52,4.28-9.76-.73,0,0,2.37-4.23-.55-5.23a2.23,2.23,0,0,0-2.6,1.9A6.77,6.77,0,0,1,340.61,94s-.23-1.86-2.32-1c0,0-2.49-7,4.82-8.8,0,0,11.89-2.4,15.32,6.09"/><path class="cls-111" d="M350.45,88.8a5.62,5.62,0,0,0,7.35,1.83,4,4,0,0,0,1.78-1.55c.95-1.53,2-4.49-1.93-6.72,0,0-.61-5.23-6.82-3.54,0,0-4.25-1.83-6.81,1.54a4.63,4.63,0,0,0-.8,3.56c.36,2.16,1.79,5.52,7.23,4.87"/><path class="cls-112" d="M343.85,80.62a4.82,4.82,0,0,0-.29,2.67c.36,2.16,1.79,5.52,7.23,4.87A5.62,5.62,0,0,0,358.15,90a4,4,0,0,0,1.78-1.55l0-.07a7,7,0,0,1-.39.72,4,4,0,0,1-1.78,1.55,5.62,5.62,0,0,1-7.36-1.83c-5.45.65-6.87-2.71-7.23-4.87a4.67,4.67,0,0,1,.64-3.31"/><path class="cls-7" d="M355.88,107.91l1.38.8a.58.58,0,0,1,.24.72c-.61,1.49-3.05,5.86-10,3.08a.64.64,0,0,1-.36-.85l.69-1.6s4.76,1.45,8-2.14"/><path class="cls-110" d="M357.67,109l1.51.27a.94.94,0,0,1,.77,1.06,6.46,6.46,0,0,1-3,4.32c-3.08,2-8.48,3-11.91.28a.62.62,0,0,1,0-.95,18.81,18.81,0,0,1,1.87-1.68c.71.23,4.6,1.74,8.12-.38a9,9,0,0,0,2.66-2.91"/><path class="cls-7" d="M330.31,129.53,329,128.31a12.06,12.06,0,0,0-4.21,3.61l1.31,1.25a16.14,16.14,0,0,1,4.25-3.65"/><path class="cls-93" d="M328.32,128.67l-3.36-5a1.12,1.12,0,0,0-.48-.4l-2.36-1s-3.26-4.53-4.15-4.31c0,0-1.54-.27,1.88,4.42a.6.6,0,0,1-.12.83,13.26,13.26,0,0,0-2.14,2.07,1.78,1.78,0,0,0,0,2.25l1.39,1.38a3,3,0,0,0,.75.54l5,2.52a10.28,10.28,0,0,1,3.57-3.26"/><polygon class="cls-113" points="367.81 123.13 364.62 121.27 378.71 113.14 381.9 114.99 367.81 123.13"/><path class="cls-114" d="M358.94,136l-3.19-1.85c1.2-5.1,5-10.61,8.87-12.84l3.19,1.85c-3.86,2.23-7.67,7.74-8.87,12.84"/><path class="cls-17" d="M381.9,115c3.79-2.19,6.48-.54,6.31,3.87l-4,35.93A12.51,12.51,0,0,1,378.12,165l-26.6,16a1.83,1.83,0,0,1-2.71-2l10.12-43c1.2-5.1,5-10.61,8.87-12.84Z"/><path class="cls-115" d="M350.45,172.27h0l8.49-36.3-3.19-1.85-8.56,36.28-25.91-14.93c-2.24-1.29-3.75-.22-4.07,2.33-.42,3.33,1.8,5,4.2,6.56L349.74,181c-.26-.16-1.17-.79-.6-3.34,0-.15,1.31-5.38,1.31-5.38"/><path class="cls-16" d="M346.13,175.53a1.35,1.35,0,0,1-.68-.18l-4.85-2.8a1.35,1.35,0,0,1-.6-.71l-4.16-11.39a1.36,1.36,0,0,1,2.55-.93l4,10.93,4.42,2.55a1.36,1.36,0,0,1-.68,2.53"/><path class="cls-116" d="M326.17,158v1.48c0,.6.5,1.23,1.45,1.68v-1.48c-.95-.45-1.45-1.08-1.45-1.68"/><path class="cls-117" d="M345.24,165.25v-1.48a1.35,1.35,0,0,1-.78,1.15v1.47a1.35,1.35,0,0,0,.78-1.14"/><polygon class="cls-117" points="327.63 159.71 327.63 161.18 339.46 166.76 339.46 165.29 327.63 159.71"/><polygon class="cls-117" points="343.73 165.33 343.74 166.81 344.45 166.39 344.45 164.92 343.73 165.33"/><path class="cls-117" d="M339.46,165.29v1.48a5,5,0,0,0,4.27,0v-1.48a5,5,0,0,1-4.27,0"/><path class="cls-24" d="M327,156.89c-1.27.73-1,2.06.67,2.82l11.84,5.58a5,5,0,0,0,4.27,0l.72-.41c1.07-.62,1-1.68-.07-2.48l-9.59-6.87a5.08,5.08,0,0,0-4.87-.39Z"/><path class="cls-118" d="M285.37,79.22l-12.25-7.07a2.8,2.8,0,0,0-2.8,0L249.2,84.34a2.8,2.8,0,0,0,0,4.86l12.4,7a2.8,2.8,0,0,0,2.77,0l21-12.11a2.8,2.8,0,0,0,0-4.85"/><path class="cls-104" d="M263,94.56a.82.82,0,0,0,.41-.11l21-12.11a.82.82,0,0,0,0-1.41l-12.25-7.07a.8.8,0,0,0-.81,0L250.2,86.06a.82.82,0,0,0,0,1.42l12.4,7a.81.81,0,0,0,.4.1"/><path class="cls-73" d="M202.69,201.87v6.84s3.72,3,7.26.39l-.06-2.46,2,.71a36.27,36.27,0,0,0,5-3.44l3.92-7.16a1.94,1.94,0,0,0-1.13-2.8l-.87-.27a2.75,2.75,0,0,0-2.74.67Z"/><path class="cls-119" d="M207.1,159.59a7.38,7.38,0,0,1,4.57,4.85,22,22,0,0,1,.77,4.79c.32,4.28,1.78,24.44,1.19,33.22,0,0-4,6-12,2.22.18-12.93-.07-24.11-.39-31.35-.25-5.67-.65-12.2,2.38-13.59a5.28,5.28,0,0,1,3.44-.14"/><path class="cls-9" d="M210.71,217.33l1.39-1a2.69,2.69,0,0,1,2.81-.21,4.47,4.47,0,0,1,2.46,3.48,2.59,2.59,0,0,1-1,2.4L215,223a3.46,3.46,0,0,0,.7-1.28,3.8,3.8,0,0,0-.61-3.13,3.69,3.69,0,0,0-4.39-1.25"/><path class="cls-10" d="M212.34,216.92a2.81,2.81,0,0,0-2.92,3.24,4,4,0,0,0,3.5,3.61,2.81,2.81,0,0,0,2.92-3.23,4,4,0,0,0-3.5-3.61"/><path class="cls-9" d="M212.44,218.13a1.82,1.82,0,0,0-1.89,2.09,2.55,2.55,0,0,0,2.26,2.33,1.81,1.81,0,0,0,1.89-2.09,2.55,2.55,0,0,0-2.26-2.33"/><path class="cls-9" d="M177,208.37a2.49,2.49,0,0,1,.92-1.28,3.61,3.61,0,0,1,4.57.49,2.72,2.72,0,0,1,.77,2.71l-.52,1.71a2.72,2.72,0,0,0-.77-2.7,3.61,3.61,0,0,0-4.57-.49,2.5,2.5,0,0,0-.92,1.28Z"/><path class="cls-10" d="M177.4,208.8a2.57,2.57,0,0,0-.16,4,3.61,3.61,0,0,0,4.57.49,2.57,2.57,0,0,0,.16-4,3.61,3.61,0,0,0-4.57-.49"/><path class="cls-9" d="M178.07,209.56a1.8,1.8,0,0,0-.11,2.79,2.53,2.53,0,0,0,3.2.34,1.8,1.8,0,0,0,.11-2.79,2.53,2.53,0,0,0-3.2-.34"/><path class="cls-11" d="M191.4,221.41l-2.5-1.29a.55.55,0,0,0-.41,0l2.5,1.29a.56.56,0,0,1,.41,0"/><path class="cls-12" d="M185.51,226.68,188,228c-.47-.24-.44-1.36.14-2.84.71-1.83,2-3.5,2.85-3.74l-2.5-1.29c-.86.24-2.14,1.91-2.85,3.74-.58,1.48-.61,2.6-.14,2.84"/><path class="cls-10" d="M191,221.39c-.86.24-2.14,1.92-2.85,3.74s-.59,3.1.27,2.86,2.14-1.92,2.85-3.74.59-3.1-.27-2.86"/><path class="cls-9" d="M190.54,222.82A3.94,3.94,0,0,0,188.9,225c-.41,1.05-.34,1.79.16,1.65a3.94,3.94,0,0,0,1.65-2.16c.41-1.05.34-1.79-.16-1.65"/><polygon class="cls-13" points="214.52 198.4 214.52 200.34 197.55 209.32 197.32 206.77 214.52 198.4"/><polygon class="cls-14" points="196.85 204.29 217.66 216.31 213.36 218.79 195.45 208.07 196.85 204.29"/><polygon class="cls-14" points="196.85 204.29 177.65 204.29 176.04 208.07 195.45 208.07 196.85 204.29"/><rect class="cls-15" x="176.04" y="208.07" width="19.42" height="1.25"/><polygon class="cls-14" points="198.12 207.72 189.1 223.71 185.27 221.69 194.38 206.56 198.12 207.72"/><polygon class="cls-14" points="196.85 204.29 211.02 196.11 214.52 198.4 200.12 206.18 196.85 204.29"/><polygon class="cls-13" points="217.66 216.31 217.66 217.97 213.38 220.59 213.36 218.79 217.66 216.31"/><polygon class="cls-13" points="213.36 218.79 196.87 208.92 196.87 210.81 213.38 220.59 213.36 218.79"/><polygon class="cls-13" points="196.87 210.81 189.1 225.47 189.1 223.72 196.87 208.92 196.87 210.81"/><polygon class="cls-15" points="189.1 225.47 189.1 223.72 185.27 221.69 185.27 223.23 189.1 225.47"/><path class="cls-99" d="M165.32,142.62l-3.16,1.83c1.11-.64,2.69-.5,4.54.57l3.16-1.83c-1.84-1.06-3.42-1.21-4.53-.57"/><path class="cls-17" d="M228.95,184.57,203.37,170a12.65,12.65,0,0,0-12.59,0l-23.56,13.6a3.55,3.55,0,0,0,0,6.13l26.37,15.65Z"/><path class="cls-120" d="M216.61,210.22v6.85s2.07,3.15,6.7,1l.34-1.91,2.07.45c1.3.28,2.9.23,6.43-2.39l4.75-3.75a2,2,0,0,0,.18-3.07l-.68-.62a2.8,2.8,0,0,0-2.81-.57Z"/><path class="cls-119" d="M221.11,166.88a7.51,7.51,0,0,1,4.64,4.93,22.39,22.39,0,0,1,.78,4.87c.33,4.35,1.8,24.85,1.21,33.76,0,0-4,6.09-12.15,2.26.19-13.14-.07-24.51-.4-31.87-.26-5.76-.66-12.4,2.42-13.82a5.37,5.37,0,0,1,3.49-.14"/><path class="cls-26" d="M181.37,193S197,205.67,213,187.83l8.76-9.07c1-1.1,4.11-4.36,4-7s-4.64-7.62-10.07-4l-17.32,11.87,13.76-9.43c2.71-4.27-.9-8.33-4.79-7.55-3.68.74-8.8,4.2-8.8,4.2L177.8,181.48s-1.21,9,3.57,11.55"/><path class="cls-121" d="M199.39,136.33s6.15,4.55,7.05,7c0,0-3.21,7.71,1.53,35.84.47,2.79-10.61,8.11-13.23,8.47-4.91.68-11.76,3.08-16.94-6.19,0,0,3.7-7.33.3-34.38a17.65,17.65,0,0,1,1.34-9.44c.82-1.82,2-3.46,3.52-3.92,4.28-1.27,15.65,2.11,16.44,2.59"/><path class="cls-93" d="M193.79,107.3s9.67-1.32,10.7,9.41c0,0,.81,6.81.05,11a3.78,3.78,0,0,1-3.13,3.11,3.2,3.2,0,0,0-3,3.61s-6.23,5.44-11.9,0c0,0,.33-4.18-1.9-5.43-1.78-1-3.08-4.74-3.65-6.69-1.85-6.38-.37-15.25,12.87-15"/><path class="cls-122" d="M186.29,133s4.42,1.93,6.74-.64a6,6,0,0,0,1.27-3.87c-.1-1.33-1.41-4.5.82-5.06a2.22,2.22,0,0,1,2.22,1.88.26.26,0,0,0,.32.19c.42-.1.89-4.1.89-4.58,0-1.08,0-3.65,4.81-5.47,1.68-.64,3.43-3.75,3.3-3.76-4.51-.31-6.6-4-10.68-5.13-3.68-1-7.14-.19-10.5,1.63a9.66,9.66,0,0,0-5,5.73c-.87,3-.35,9.34,1.4,11.92,1.6,2.36,4.54,4.2,4.38,7.16"/><path class="cls-123" d="M186.47,134.4,185.11,136a1.22,1.22,0,0,0-.07,1.51c1.43,2,5.91,6.39,14.55.25a.85.85,0,0,0,.22-1.16l-1.43-2.17s-6.62,4.65-11.91,0"/><path class="cls-93" d="M237.26,159.43a3,3,0,0,0-2.86-1.76s-1.49,0-2.61,0a9.78,9.78,0,0,1-2.8-.16c-1.37-.34-2.62.6-3.66,1.38a27.47,27.47,0,0,0-2.25,1.86,25.21,25.21,0,0,1,1.28,4.12,37.33,37.33,0,0,0,10.1-.9c.32-.08.78-.3.46-.55a5,5,0,0,0-1.9-.21,44.84,44.84,0,0,0,4-2.37,1.32,1.32,0,0,0,.41-.36,1,1,0,0,0-.12-1.08"/><path class="cls-124" d="M197.77,150.46c-.13-4.38-1.33-7.26,2.08-9.94.38-.3,6.82-3.94,9.61,11.9a79.6,79.6,0,0,0,2.81,10.85,1.15,1.15,0,0,0,.28.51,1.09,1.09,0,0,0,1,0c3.48-1,7-3.41,10.44-4.41a40.72,40.72,0,0,1,1.56,5.66.91.91,0,0,1,0,.68c-.1.18-.3.24-.47.33-4.06,2.34-13.89,10.64-18.51,7.78-4.09-2.54-8.75-20.93-8.83-23.4"/><polygon class="cls-113" points="180.65 153.08 183.81 151.24 169.85 143.19 166.69 145.02 180.65 153.08"/><path class="cls-114" d="M189.42,165.79l3.16-1.83c-1.19-5.05-5-10.51-8.78-12.71l-3.16,1.84c3.82,2.21,7.59,7.66,8.78,12.71"/><path class="cls-17" d="M166.69,145c-3.75-2.16-6.41-.53-6.24,3.83l3.94,35.56a12.38,12.38,0,0,0,6.05,10.15l26.33,15.79a1.81,1.81,0,0,0,2.68-2l-10-42.61c-1.19-5.05-5-10.51-8.78-12.71Z"/><path class="cls-115" d="M197.83,201.72h0l-8.4-35.94,3.16-1.83,8.47,35.91,25.64-14.78c2.21-1.28,3.71-.22,4,2.3.42,3.3-1.78,4.93-4.16,6.49l-28,16.48c.26-.15,1.16-.78.6-3.31,0-.15-1.3-5.33-1.3-5.33"/><path class="cls-16" d="M202.1,204.94a1.34,1.34,0,0,1-.67-2.51l4.38-2.53,4-10.82a1.34,1.34,0,1,1,2.52.92l-4.12,11.28a1.34,1.34,0,0,1-.59.7l-4.8,2.77a1.34,1.34,0,0,1-.67.18"/><path class="cls-116" d="M221.86,187.62v1.46c0,.59-.5,1.22-1.44,1.66v-1.46c.94-.44,1.44-1.07,1.44-1.66"/><path class="cls-117" d="M203,194.77v-1.46a1.33,1.33,0,0,0,.78,1.13v1.46a1.34,1.34,0,0,1-.78-1.13"/><polygon class="cls-117" points="220.42 189.29 220.42 190.75 208.7 196.27 208.71 194.81 220.42 189.29"/><polygon class="cls-117" points="204.47 194.85 204.47 196.31 203.76 195.91 203.76 194.44 204.47 194.85"/><path class="cls-117" d="M208.7,194.81v1.46a5,5,0,0,1-4.23,0v-1.46a5,5,0,0,0,4.23,0"/><path class="cls-24" d="M221.08,186.5c1.26.73.95,2-.66,2.79l-11.71,5.52a5,5,0,0,1-4.23,0l-.71-.41c-1.06-.61-1-1.66.07-2.45l9.5-6.8a5,5,0,0,1,4.82-.39Z"/><path class="cls-125" d="M330.9,99.14l-10.56-6a.86.86,0,0,0-.86,0l-16.59,9.71a.86.86,0,0,0,0,1.49l10.56,6a.85.85,0,0,0,.86,0l16.59-9.71a.86.86,0,0,0,0-1.49"/><path class="cls-126" d="M302.91,103.94l10.56,6a.86.86,0,0,0,.86,0l16.59-9.71a.84.84,0,0,0,.35-.4.85.85,0,0,1-.35,1.09l-16.59,9.71a.86.86,0,0,1-.86,0l-10.56-6a.85.85,0,0,1-.36-1.08.83.83,0,0,0,.35.4"/><polygon class="cls-7" points="330.96 98.39 330.99 99.97 313.99 110.13 313.99 108.49 330.96 98.39"/><path class="cls-125" d="M330.58,97.08l-10.31-6a.84.84,0,0,0-.84,0l-16.3,9.41a.84.84,0,0,0,0,1.45l10.31,6a.84.84,0,0,0,.84,0l16.31-9.41a.84.84,0,0,0,0-1.45"/><path class="cls-126" d="M303.12,101.62l10.31,6a.83.83,0,0,0,.84,0l16.31-9.41a.82.82,0,0,0,.34-.39.83.83,0,0,1-.34,1.06l-16.31,9.41a.84.84,0,0,1-.84,0l-10.31-6a.83.83,0,0,1-.34-1.06.82.82,0,0,0,.34.39"/><path class="cls-126" d="M303.13,103.76V103q0-.71,0-1.43a.89.89,0,0,1-.19-.18.66.66,0,0,1-.15-.5,2.19,2.19,0,0,0-.68.9,2.16,2.16,0,0,0,.47,2.43s0-.58.56-.5"/><path class="cls-7" d="M314,110.13v-1.64l-11-6.39a.66.66,0,0,0-.2.41,1.58,1.58,0,0,0,.3,1.24L314,110.13"/><path class="cls-122" d="M312.08,110.18a.33.33,0,0,0,.33-.33v-2.54L330.19,97a.33.33,0,1,0-.33-.57l-18,10.36a.33.33,0,0,0-.16.28v2.73a.33.33,0,0,0,.33.33"/><polygon class="cls-127" points="306.01 104.51 303.65 103.22 300.74 105 302.66 105.33 302.7 106.37 306.01 104.51"/><path class="cls-128" d="M236.94,116.87l-14-8.65a.71.71,0,0,0-.83.37.84.84,0,0,0,0,.71l13.53,8.41Z"/><path class="cls-129" d="M236.94,116.87l1.65,2.13a0,0,0,0,1,0,.06l-2.86-1.35s-.16-1.37,1.25-.84"/><path class="cls-130" d="M238.11,118.38l.48.62a0,0,0,0,1,0,.06l-.86-.4a.7.7,0,0,1,.42-.27"/><polygon class="cls-7" points="257.47 112.38 247.54 118.64 232.78 109.17 233.25 108.87 242.59 102.98 256.99 112.08 257.47 112.38"/><g class="cls-131"><g class="cls-132"><polygon class="cls-133" points="256.99 112.08 247.55 118.04 233.25 108.87 242.59 102.98 256.99 112.08"/></g></g><polygon class="cls-7" points="257.47 111.17 247.54 117.44 232.78 107.96 233.25 107.66 242.59 101.77 256.99 110.87 257.47 111.17"/><g class="cls-131"><g class="cls-134"><polygon class="cls-133" points="256.99 110.87 247.55 116.83 233.25 107.66 242.59 101.77 256.99 110.87"/></g></g><polygon class="cls-7" points="257.47 109.97 247.54 116.23 232.78 106.76 233.25 106.46 242.59 100.57 256.99 109.66 257.47 109.97"/><g class="cls-131"><g class="cls-135"><polygon class="cls-133" points="256.99 109.66 247.55 115.63 233.25 106.46 242.59 100.57 256.99 109.66"/></g></g><polygon class="cls-7" points="257.47 108.76 247.54 115.02 232.78 105.55 233.25 105.25 242.59 99.36 256.99 108.46 257.47 108.76"/><g class="cls-131"><g class="cls-136"><polygon class="cls-133" points="256.99 108.46 247.55 114.42 233.25 105.25 242.59 99.36 256.99 108.46"/></g></g><polygon class="cls-7" points="257.47 107.55 247.54 113.82 232.78 104.35 233.25 104.05 242.59 98.16 256.99 107.25 257.47 107.55"/><g class="cls-131"><g class="cls-137"><polygon class="cls-133" points="256.99 107.25 247.55 113.22 233.25 104.05 242.59 98.16 256.99 107.25"/></g></g><polygon class="cls-7" points="257.58 106.3 247.66 112.56 232.89 103.09 233.37 102.79 242.7 96.9 257.11 105.99 257.58 106.3"/><g class="cls-131"><g class="cls-138"><polygon class="cls-133" points="257.11 105.99 247.66 111.96 233.37 102.79 242.7 96.9 257.11 105.99"/></g></g><polygon class="cls-7" points="232.89 101.88 242.7 95.69 257.58 105.09 247.66 111.35 232.89 101.88"/><path class="cls-139" d="M256.7,128.49l-13.35-7.78a1.65,1.65,0,0,0-1.64,0l-22.09,12.41a.73.73,0,0,0-.05,1.25l12.29,8.33a2.07,2.07,0,0,0,2.19.08l22.66-13a.73.73,0,0,0,0-1.27"/><polygon class="cls-140" points="254.36 129.38 233.26 141.7 220.1 133.82 241.65 121.83 254.36 129.38"/><path class="cls-141" d="M244.21,124.58l2.27,1.36a1.57,1.57,0,0,1,.31-1.12,1.23,1.23,0,0,1,.47-.32l-1.12-.67a.22.22,0,0,1-.07-.3.22.22,0,0,1,.3-.07l3,1.84a.22.22,0,0,1,.1.13.22.22,0,0,1,0,.17.22.22,0,0,1-.19.1.24.24,0,0,1-.11,0l-1.53-.92a1,1,0,0,0-.62.31,1.35,1.35,0,0,0-.23,1.1l2.5,1.5a.17.17,0,0,1-.09.31l-.09,0L244,124.87a.17.17,0,0,1-.06-.23.17.17,0,0,1,.23-.06"/><path class="cls-142" d="M244.21,124.58l2.27,1.36a1.57,1.57,0,0,1,.31-1.12,1.23,1.23,0,0,1,.47-.32l-1.12-.67a.22.22,0,0,1-.07-.3.22.22,0,0,1,.3-.07l3,1.84a.22.22,0,0,1,.1.13.22.22,0,0,1,0,.17.22.22,0,0,1-.19.1.24.24,0,0,1-.11,0l-1.53-.92a1,1,0,0,0-.62.31,1.35,1.35,0,0,0-.23,1.1l2.5,1.5a.17.17,0,0,1-.09.31l-.09,0L244,124.87a.17.17,0,0,1-.06-.23A.17.17,0,0,1,244.21,124.58Z"/><path class="cls-143" d="M292.25,112.62l.89,8.64a1.71,1.71,0,0,0,.61,1.14,4.44,4.44,0,0,0,3.26,1.08,4.16,4.16,0,0,0,1.74-.59,1.85,1.85,0,0,0,.88-1.4l.9-8.79s-4.14,5.06-8.27-.08"/><path class="cls-144" d="M299.29,110.88c1.64.95,1.65,2.48,0,3.43a6.1,6.1,0,0,1-5.71.11c-1.64-.95-1.86-2.6-.23-3.54a6.53,6.53,0,0,1,5.93,0"/><path class="cls-143" d="M295.1,78.82l.89,8.64a1.7,1.7,0,0,0,.61,1.14,4.44,4.44,0,0,0,3.26,1.08,4.17,4.17,0,0,0,1.74-.59,1.85,1.85,0,0,0,.88-1.4l.9-8.79s-4.14,5.06-8.28-.08"/><path class="cls-144" d="M302.14,77.07c1.64.95,1.65,2.48,0,3.43a6.1,6.1,0,0,1-5.71.11c-1.64-.95-1.86-2.6-.23-3.54a6.53,6.53,0,0,1,5.93,0"/><path class="cls-9" d="M278.46,232.09l-1.41-1a2.76,2.76,0,0,0-2.87-.22,4.57,4.57,0,0,0-2.51,3.55,2.64,2.64,0,0,0,1.06,2.45l1.34,1a3.51,3.51,0,0,1-.72-1.31,3.88,3.88,0,0,1,.62-3.19,3.77,3.77,0,0,1,4.49-1.28"/><path class="cls-10" d="M276.8,231.67a2.87,2.87,0,0,1,3,3.31,4,4,0,0,1-3.57,3.68,2.87,2.87,0,0,1-3-3.3,4,4,0,0,1,3.57-3.69"/><path class="cls-9" d="M276.7,232.91a1.85,1.85,0,0,1,1.93,2.14,2.61,2.61,0,0,1-2.31,2.38,1.85,1.85,0,0,1-1.93-2.13,2.61,2.61,0,0,1,2.31-2.38"/><path class="cls-9" d="M277.31,213.44a2.55,2.55,0,0,1,1.59-.27,3.69,3.69,0,0,1,3,3.62,2.78,2.78,0,0,1-1.38,2.52l-1.6.87a2.78,2.78,0,0,0,1.38-2.52,3.69,3.69,0,0,0-3-3.63,2.55,2.55,0,0,0-1.59.27Z"/><path class="cls-10" d="M277.3,214a2.62,2.62,0,0,0-3,2.79,3.69,3.69,0,0,0,3,3.62,2.62,2.62,0,0,0,3-2.79,3.69,3.69,0,0,0-3-3.63"/><path class="cls-9" d="M277.23,215.08a1.84,1.84,0,0,0-2.08,2,2.58,2.58,0,0,0,2.09,2.54,1.84,1.84,0,0,0,2.08-2,2.58,2.58,0,0,0-2.09-2.54"/><path class="cls-9" d="M312.89,222.94a2.55,2.55,0,0,0-.94-1.31,3.69,3.69,0,0,0-4.66.5,2.78,2.78,0,0,0-.78,2.76l.53,1.75a2.78,2.78,0,0,1,.78-2.76,3.69,3.69,0,0,1,4.66-.5,2.55,2.55,0,0,1,.94,1.31Z"/><path class="cls-10" d="M312.48,223.38a2.62,2.62,0,0,1,.16,4.07,3.69,3.69,0,0,1-4.67.5,2.62,2.62,0,0,1-.16-4.07,3.69,3.69,0,0,1,4.66-.5"/><path class="cls-9" d="M311.8,224.16a1.84,1.84,0,0,1,.11,2.85,2.58,2.58,0,0,1-3.27.35,1.83,1.83,0,0,1-.11-2.85,2.58,2.58,0,0,1,3.27-.35"/><path class="cls-11" d="M298.19,236.26l2.55-1.32a.56.56,0,0,1,.42,0l-2.55,1.32a.57.57,0,0,0-.42,0"/><path class="cls-12" d="M304.2,241.64,301.65,243c.48-.25.45-1.39-.14-2.9-.73-1.86-2-3.57-2.91-3.82l2.55-1.32c.88.25,2.18,2,2.91,3.82.59,1.51.62,2.66.14,2.9"/><path class="cls-10" d="M298.6,236.24c.88.25,2.18,2,2.91,3.82s.6,3.17-.28,2.92-2.18-2-2.91-3.82-.6-3.17.28-2.92"/><path class="cls-9" d="M299.06,237.7a4,4,0,0,1,1.68,2.21c.42,1.08.35,1.83-.16,1.69a4,4,0,0,1-1.68-2.21c-.42-1.08-.35-1.83.16-1.69"/><polygon class="cls-13" points="274.58 212.76 274.58 214.74 291.91 223.91 292.15 221.3 274.58 212.76"/><polygon class="cls-14" points="292.62 218.78 271.37 231.04 275.76 233.58 294.05 222.63 292.62 218.78"/><polygon class="cls-14" points="292.62 218.78 312.23 218.78 313.88 222.63 294.05 222.63 292.62 218.78"/><rect class="cls-15" x="294.05" y="222.63" width="19.83" height="1.28"/><polygon class="cls-14" points="291.33 222.28 300.53 238.61 304.44 236.54 295.14 221.09 291.33 222.28"/><polygon class="cls-14" points="292.62 218.78 278.15 210.42 274.58 212.76 289.28 220.7 292.62 218.78"/><polygon class="cls-13" points="271.37 231.04 271.37 232.74 275.74 235.42 275.76 233.58 271.37 231.04"/><polygon class="cls-13" points="275.76 233.58 292.6 223.5 292.6 225.43 275.74 235.42 275.76 233.58"/><polygon class="cls-13" points="292.6 225.43 300.53 240.4 300.53 238.61 292.6 223.5 292.6 225.43"/><polygon class="cls-15" points="300.53 240.4 300.53 238.61 304.44 236.54 304.44 238.12 300.53 240.4"/><path class="cls-99" d="M324.82,155.8l3.22,1.87c-1.13-.66-2.75-.51-4.63.58l-3.22-1.87c1.88-1.09,3.5-1.24,4.63-.58"/><path class="cls-17" d="M259.84,198.64,286,183.74a12.91,12.91,0,0,1,12.85,0l24.06,13.89a3.63,3.63,0,0,1,0,6.26l-26.93,16Z"/><path class="cls-93" d="M271.09,141.77a5.83,5.83,0,0,0,2.36,2.61c1.13.75,2.7-.59,4-.85,0,0,1,3.72,1.85,4.05,3.09,1.14,9-.88,8.85-4.83a33.32,33.32,0,0,0-1-3.32,23.7,23.7,0,0,1-1.27-8.57,10.94,10.94,0,0,0-4.24-8.54c-2.83-2.13-11-3.86-12.66.7-.83,2.33-.62,6.22.39,9.28.51,1.55-.42,4.78,1.69,9.46"/><path class="cls-122" d="M270.82,118.73c2.19-1.66,5.11-2,7.82-1.66a12.93,12.93,0,0,1,8,3.55c3.09,3.23,3.55,8.16,3.82,12.67.12,2,.39,5-.92,6.27-.84.81-.88,1.39-1.7,2a8.71,8.71,0,0,1-7.2.89c-1.31-.36-2.4,1.17-2.37,2.56a4.33,4.33,0,0,1-.08,1c-.14.65-2,3.18-4,3.36-4.42.4-4.65-5.15-3.51-6.6.8-1,3.24-2.31,3.94-3.38,1.35-2-3.48-5.37.36-7a6.8,6.8,0,0,0-2.18-3c-1.48-.9-3.67-1.78-4.53-3.3-1.36-2.42.37-5.72,2.56-7.38"/><path d="M274.21,212.95l.12,7.84a.51.51,0,0,1-.15.37,5.87,5.87,0,0,1-5.94,1.24l-.7-1.68s-1.66-1.07-5.75-1.17a7.7,7.7,0,0,1-4.34-2.06l-3.69-4.66a3,3,0,0,1-.23-3.34l.12-.2a3,3,0,0,1,3.31-1.42l8.36,2.09Z"/><path class="cls-145" d="M269.62,215.68l.12,7.76a.8.8,0,0,1-.19.54c-.57.66-2.48,2.27-6.59.86v-1.39s-1.66-1.08-5.75-1.17a7.7,7.7,0,0,1-4.34-2.06l-3.69-4.66a3,3,0,0,1-.23-3.34l.12-.2a3,3,0,0,1,3.31-1.42l8.36,2.09Z"/><path class="cls-146" d="M269.33,219.18s-1.34,1.88-7.81.3a5.17,5.17,0,0,1-1.68-.75c-2-1.35-6.44-4.88-.86-6.11,0,0,11.36.08,10.35,6.57"/><path class="cls-147" d="M263.3,190.52q.23,10.24.45,20.51a2.78,2.78,0,0,0,.21,1.17,2.61,2.61,0,0,0,1,.91,25.74,25.74,0,0,0,7.81,3.17,3.49,3.49,0,0,0,1.43.11,2.77,2.77,0,0,0,2-2.07,25.22,25.22,0,0,0,.14-5c-.44-7-.62-11.12-1.15-16.7a53.26,53.26,0,0,0,6.14,4.6,45.25,45.25,0,0,0,5.22,3.07c4.92,1.68,10.09,3,15.27,2.63,2.41-.14,3.69-4.18,5.89-5.26,1.23-1.65.89-13.92.09-13.64-4.21,1.47-8.4,3.74-13,3.51a4.94,4.94,0,0,1-1.78-.35,6.85,6.85,0,0,1-1.63-1.19,35.66,35.66,0,0,0-13-7.28,33.75,33.75,0,0,0-6.44-1.33c-2.07-.22-4.33-.2-6,1.08s-2.35,3.72-2.56,5.95a51.71,51.71,0,0,0-.11,6.12"/><path class="cls-148" d="M257,194.06c.15,6.84-.91,14.9-.76,21.73,0,.4,2,2.18,2.4,2.42a25.68,25.68,0,0,0,7.83,3.18,4,4,0,0,0,1.42.11,2.77,2.77,0,0,0,2-2.09c.27-1-3.38-18.68-3.91-24.27,3.27,3,15.71,9.2,16.45,9.43,2,.6,4.44,1.8,6.47,2.14a25.51,25.51,0,0,0,6.6.38c5.17-.34,9.35.23,13.67-10.23a9.11,9.11,0,0,0,.28-4.58c-.29-1.56-.69-5.1-2.32-5.87-1.39-.68-4.28.69-5.64,1.17-4.21,1.47-8.4,3.74-13,3.51a4.7,4.7,0,0,1-1.78-.37,6.77,6.77,0,0,1-1.63-1.18,32.38,32.38,0,0,0-3.24-2.52h0c-.86-.59-1.75-1.16-2.67-1.67a35.27,35.27,0,0,0-13.56-4.4c-2.07-.23-4.33-.2-6,1.07s-2.35,3.74-2.56,6a55,55,0,0,0-.09,6.1"/><path class="cls-149" d="M277.45,160.77c.8,2.53,1,5.48-.45,7.72a7.91,7.91,0,0,0-1.28,2.21,4.76,4.76,0,0,0,.66,3c.84,1.81,1.4,3.4,2,5a27.88,27.88,0,0,0,2.07,4.4c3.09,5.3.8,9.84.86,14.12a8.6,8.6,0,0,0,3.39,6.84c4.57,3.92,13.53,3.24,15.76,2.52,1.46-.48,9.63-2.42,9.64-12.86,0-4.39-1.66-6-3.62-19.07-1.54-10.29-2.44-16.58-8.42-27.86-.66-1.24-2.25-3.21-3.68-3.63-1.9-.54-4.51.85-6.18,1.61a129.74,129.74,0,0,0-13.15,7,1.11,1.11,0,0,0-.59,1.62c.86,2.52,2.2,4.85,3,7.4"/><path class="cls-147" d="M280.46,198c0,2.22,1.48,5,3.88,7.21,2,.6,2.55,1.14,4.58,1.48a13.61,13.61,0,0,1-4.21-2.64,8.6,8.6,0,0,1-3.39-6.84c0-3.2,1.22-6.53.57-10.21h0c-.86-.59-1.75-1.16-2.67-1.67,3.75,2.52,1.18,8.81,1.24,12.69"/><path class="cls-150" d="M288.06,142.26c-.35,1.14-2.35,2.39-3.44,2.75a13.7,13.7,0,0,1-6.41,1c.9,1.49.25,3.6.39,3.65a14.47,14.47,0,0,0,8-.26,6.64,6.64,0,0,0,3.12-2.77,4.08,4.08,0,0,0,.34-2.16,8.08,8.08,0,0,0-2-2.23"/><path class="cls-151" d="M279.34,167.48a15.72,15.72,0,0,0-2.44-14.05,2.55,2.55,0,0,0-2.4-1.08c-2.26.64-6.73,20.43-6.73,20.43l-1-4.18c-.1-.42-5.7,1.94-5.59,2.1,0,0,.24,9.39,4.82,12.15a6.57,6.57,0,0,0,4.9-.1c5.14-2.08,7.48-12.09,8.45-15.27"/><path class="cls-151" d="M278.67,147.6a6.81,6.81,0,0,1-1.25,2.74c-.16.42,6,3,11.53-1.86.64-.56,2.68-2.49,2.39-5a4.07,4.07,0,0,1-2.77-.7,5.79,5.79,0,0,1-2.07,3,10.85,10.85,0,0,1-7.83,1.82"/><polygon class="cls-150" points="266.76 168.6 266.39 166.44 261.09 168.13 261.54 170.47 266.76 168.6"/><path class="cls-152" d="M258.29,155.57h0a.31.31,0,0,0,0,.11l1.38,9.34h5.74l1.58-9.45c0-.59-2-1.06-4.39-1.06s-4.32.47-4.33,1.05"/><path class="cls-153" d="M266.71,157.38a8.47,8.47,0,0,1-8.15,0l1.13,7.64h5.74Z"/><path class="cls-154" d="M258.58,157.69c0,.41,1.83.74,4.08.74s4.08-.33,4.08-.74-1.83-.74-4.08-.74-4.08.33-4.08.74"/><path class="cls-155" d="M258.43,155.57h0a.33.33,0,0,0,0,.11c.22.54,2,1,4.17,1s4.25-.47,4.25-1.06-1.93-1.06-4.25-1.06-4.18.47-4.19,1.05"/><g class="cls-50"><g class="cls-156"><path class="cls-157" d="M258.43,155.57h0a.33.33,0,0,0,0,.11c.22.54,2,1,4.17,1s4.25-.47,4.25-1.06-1.93-1.06-4.25-1.06S258.45,155,258.43,155.57Z"/></g></g><path class="cls-102" d="M266.39,166.44l1.19-5.17a3.3,3.3,0,0,0-.06-1.69L267,158a.68.68,0,0,0-1.07-.34l0,0a1.33,1.33,0,0,0-.52,1.05,5,5,0,0,1,.1,1.74,6.18,6.18,0,0,1-.43,1.5,12,12,0,0,1-6.54-4.58,6.07,6.07,0,0,0-1,2.38,4,4,0,0,0,.55,3.92l3,4.44Z"/><polygon class="cls-113" points="309.17 166.48 305.94 164.6 320.19 156.38 323.41 158.25 309.17 166.48"/><path class="cls-114" d="M300.2,179.46,297,177.59c1.21-5.16,5.06-10.73,9-13l3.22,1.87c-3.9,2.25-7.75,7.82-9,13"/><polygon class="cls-17" points="259.85 198.64 265.99 195.13 272.73 198.6 267.02 202.06 259.85 198.64"/><path class="cls-17" d="M323.41,158.25c3.83-2.21,6.55-.54,6.38,3.92l-4,36.31a12.64,12.64,0,0,1-6.18,10.36L292.71,225a1.85,1.85,0,0,1-2.74-2l10.23-43.51c1.21-5.16,5.06-10.73,9-13Z"/><path class="cls-115" d="M291.62,216.15h0l8.58-36.69L297,177.58l-8.65,36.67-26.18-15.1c-2.26-1.31-3.79-.23-4.12,2.35-.42,3.37,1.82,5,4.25,6.63L290.9,225c-.26-.16-1.18-.8-.61-3.38,0-.16,1.33-5.44,1.33-5.44"/><path class="cls-16" d="M287.26,219.44a1.37,1.37,0,0,1-.69-.18l-4.9-2.83a1.38,1.38,0,0,1-.6-.72l-4.21-11.52a1.37,1.37,0,1,1,2.58-.94l4,11,4.47,2.58a1.37,1.37,0,0,1-.69,2.56"/><path class="cls-116" d="M267.08,201.76v1.49c0,.6.51,1.25,1.47,1.7v-1.49c-1-.45-1.47-1.09-1.47-1.7"/><path class="cls-117" d="M286.36,209.06v-1.49a1.36,1.36,0,0,1-.79,1.16v1.49a1.36,1.36,0,0,0,.79-1.16"/><polygon class="cls-117" points="268.55 203.45 268.56 204.94 280.52 210.58 280.52 209.09 268.55 203.45"/><polygon class="cls-117" points="284.84 209.14 284.84 210.63 285.56 210.21 285.56 208.72 284.84 209.14"/><path class="cls-117" d="M280.52,209.09v1.49a5.09,5.09,0,0,0,4.32,0v-1.49a5.1,5.1,0,0,1-4.32,0"/><path class="cls-24" d="M267.88,200.6c-1.28.74-1,2.08.68,2.85l12,5.64a5.09,5.09,0,0,0,4.32,0l.72-.42c1.08-.62,1.05-1.7-.07-2.5l-9.7-6.95a5.13,5.13,0,0,0-4.92-.4Z"/><g class="cls-158"><path class="cls-159" d="M343.1,56.38c4.4-10.16,8-19.83,8.16-20.38l-.91-.92c-.06.17-7.15,19-12.75,30.27-.5,1-1,2-1.65,3a136.44,136.44,0,0,0-8.56,17.31c-.45,1.06-3.37,8.13-6.29,17.67l1,.45c2.68-8.75,6.52-17.92,6.55-18a110.45,110.45,0,0,1,6.87-13.89c.87-1.47,1.7-3,2.46-4.52,1.72-3.44,3.46-7.26,5.08-11"/><path class="cls-160" d="M344.14,56.83c4.4-10.16,8-19.83,8.16-20.38l-.91-.92c-.06.17-7.15,19-12.75,30.26-.5,1-1,2-1.65,3a136.24,136.24,0,0,0-8.55,17.3c-.45,1.06-3.37,8.14-6.29,17.68l1,.45c2.68-8.75,6.52-17.92,6.55-18a110.66,110.66,0,0,1,6.87-13.9c.87-1.48,1.7-3,2.46-4.52,1.72-3.44,3.46-7.26,5.08-11"/><path class="cls-161" d="M345.17,57.28c4.4-10.16,8.36-19.66,8.56-20.21L352.42,36c-.06.17-7.15,19-12.75,30.27-.5,1-1,2-1.65,3a136.21,136.21,0,0,0-8.56,17.31c-.45,1.06-3.37,8.13-6.29,17.67l1.56.37c2.68-8.75,6-17.84,6-17.9a110.61,110.61,0,0,1,6.87-13.89c.87-1.47,1.7-3,2.46-4.52,1.72-3.44,3.46-7.26,5.08-11"/><path class="cls-162" d="M346.3,57.77c4.4-10.16,8-19.83,8.16-20.38l-.91-.92c-.06.17-7.15,19-12.75,30.27-.5,1-1,2-1.65,3A136.07,136.07,0,0,0,330.6,87c-.45,1.06-3.37,8.14-6.29,17.67l1.09.31c2.68-8.75,6.46-17.78,6.49-17.84a110.75,110.75,0,0,1,6.87-13.9c.87-1.47,1.7-3,2.46-4.52,1.72-3.44,3.46-7.26,5.08-11"/><path class="cls-163" d="M347.23,58.17c4.4-10.16,8-19.83,8.16-20.38l-.91-.92c-.06.17-7.15,19-12.75,30.27-.5,1-1,2-1.65,3a136.55,136.55,0,0,0-8.56,17.31c-.45,1.06-3.37,8.14-6.29,17.67l1,.36c2.68-8.75,6.53-17.83,6.55-17.9a110.29,110.29,0,0,1,6.87-13.9c.87-1.48,1.7-3,2.46-4.52,1.72-3.44,3.46-7.26,5.08-11"/><path class="cls-164" d="M348.15,58.57c4.4-10.16,8-19.83,8.16-20.38l-.91-.92c-.06.17-7.15,19-12.75,30.27-.5,1-1,2-1.65,3a136.4,136.4,0,0,0-8.56,17.31c-.45,1.06-3.37,8.14-6.29,17.67l1,.61c2.68-8.75,6.61-18.08,6.63-18.15a110.29,110.29,0,0,1,6.87-13.9c.87-1.48,1.7-3,2.46-4.52,1.72-3.44,3.46-7.26,5.08-11"/></g><path class="cls-165" d="M339.94,24a15.76,15.76,0,0,1-1.81-5.6c-.28-2.43-.29-.12-1.64-3.11-.38-.84-1.08-1.88-.8,1.57-1.27.39-4.17-2.89-4.17-2.89s-2.61-.76-2.34,2.15A7.3,7.3,0,0,0,331.52,21c1,1.13,2.84,1.24,4.17,3.72,1.62,3,3.17,6.33,3.17,6.33l2.64-4.32Z"/><path class="cls-166" d="M358,21.25a14.23,14.23,0,0,0-7.48,6.9c-2.43,5.15-3.33,7-3.33,7l-7.22-11.7s-3.78,2.49-4.23,4.91c.67,2.57,1.64,1.49,1,6.16-.22,1.5,1.77,3,4.85,6.48a43.48,43.48,0,0,0,5.76,5.45c2.64,1.4,4,0,5.88-.61,2.4-.83,4.81-4.19,4.81-4.19Z"/><path class="cls-167" d="M355.84,22.75s-1.61.69-4.43,9.78c-2.28,7.37-1.58,12.71-2.28,19.05-.28,2.57-3.81,2.8-1.94,6.33,1.23,2.32-.65,4.11-.3,6.27,0,0,2.68,4.72,3.58,6,1.13,1.6,2.79,3.83,7.48,2.35,4.51-1.43,7.6-6.69,9-7,3.41-.86,4.9,6,4.9,6,.17-1.19,1.41-2.89.6-6.88-.75-3.67-2.17-10.11-1.87-13.28.35-3.65,7.83-13.36,7.83-15.41s0-4.4-4.75-6.9c-5.21-2.75-13.81-7.58-17.79-6.3"/><path class="cls-165" d="M360.27,4.23c4.86.83,4.66,7.48,4.41,11.83a26.08,26.08,0,0,1-4.45,4.07c-2.45,1.34-4.93,2.52-4.93,2.52s-3.44.49-4.5-.75c-1.23-1.43-2-5.31-2.08-8.22a31.37,31.37,0,0,1,.5-4.8c.52-3.5,4.05-5.86,11.06-4.66"/><path class="cls-165" d="M366.34,25.45v0s0,0,0,0"/><path class="cls-75" d="M364.05,17.52c-.2,3.65,2.17,7.71,2.28,7.91-.07,0-.54.53-3.5,5-5.39,8.11-6.83,6.12-6.83,6.12s1.27-6.68,1-8.89a31,31,0,0,0-1-5.33s1.75-.83,4.2-2.17c1.25-.69,3.94-4.8,3.82-2.61"/><path class="cls-166" d="M356.77,25.62a3.72,3.72,0,0,0-2.15,3c-.49,2.67-1.58,4.15-1.3,5a9.43,9.43,0,0,0,2.4-2s-.84,3.24-.1,4.45A16.4,16.4,0,0,1,357,40s.32-8.14.31-9.53a26,26,0,0,0-.56-4.84"/><path class="cls-168" d="M365.12,17.18c.67-2.06,2.86-3.82,2.42-7.86A9.48,9.48,0,0,0,364,2.57,12.3,12.3,0,0,0,358.2,0c-3.52-.26-7.61.74-8.85,1.83-1.46,1.27-1.16,3.89-.43,6.71.62,1,1.7,0,4,1.78a24.7,24.7,0,0,1,2.55,3.71s1.32-3.09,2.72-1.71a2.77,2.77,0,0,1,.18,3.46A10.05,10.05,0,0,0,364.48,21s.41-3.05.65-3.78"/><path class="cls-166" d="M363.57,23c.3-.47.94-1.5,2.25,0a6.85,6.85,0,0,1,1.6,2.67,40,40,0,0,1-3.25,4c-1.2,1.3-1.8,3.63-3.7,5.33A17.53,17.53,0,0,0,358,38.55L357,40s-.39-5.15.3-6.68,2.43-2.95,3.66-4.24,1.69-4.69,2.59-6.06"/><path class="cls-166" d="M364.92,61.83s-1.92,4.76-4.86,6.26a6.62,6.62,0,0,1-5.74,0,13.11,13.11,0,0,0,5.3-1.8,31.88,31.88,0,0,0,5.3-4.46"/><path class="cls-166" d="M360.72,62.85s-3.18,3.32-5.54,2.78-5.35-3.8-5.35-3.8,3.62,1.92,5.35,1.84,5.54-.82,5.54-.82"/><path class="cls-166" d="M350.48,51s1.55,3.06,2.79,5a11.17,11.17,0,0,0,3.64,3.15,4.12,4.12,0,0,1-4.51-1.94A17.51,17.51,0,0,1,350.48,51"/><path class="cls-168" d="M355.06,16c-.35,2,1.94,5,2.65,5.49-3,2.65-5.9,2.92-6.72,2.28-1.24-1-1.24-4.12-1.24-4.12s1.86.57,2.65,0,.89-6.7,2.31-7.41,1.08,1.18,1.08,1.18a7,7,0,0,0-.73,2.59"/><g class="cls-169"><path class="cls-159" d="M382.52,76.18c4.1,6.7,7.36,13.26,7.54,13.63l-1,1c-.06-.11-6.56-12.87-11.85-20a22.1,22.1,0,0,0-1.56-1.89,61.88,61.88,0,0,1-8.07-11.09,91.41,91.41,0,0,1-5.74-12.05l1.07-.66a100.58,100.58,0,0,0,6,12.22,50.22,50.22,0,0,0,6.48,8.91A33.46,33.46,0,0,1,377.76,69c1.63,2.2,3.25,4.69,4.76,7.16"/><path class="cls-160" d="M383.6,75.52c4.1,6.7,7.36,13.26,7.54,13.63l-1,1c-.06-.11-6.56-12.88-11.85-20a22,22,0,0,0-1.57-1.89,61.79,61.79,0,0,1-8.07-11.09A91.6,91.6,0,0,1,363,45.07l1.07-.66a100.63,100.63,0,0,0,6,12.21,50.24,50.24,0,0,0,6.48,8.91,33.56,33.56,0,0,1,2.34,2.83c1.63,2.2,3.25,4.69,4.76,7.16"/><path class="cls-161" d="M384.67,74.86c4.1,6.7,7.78,13,8,13.37l-1.38,1.25c-.06-.11-6.56-12.87-11.85-20a22.42,22.42,0,0,0-1.56-1.89,61.72,61.72,0,0,1-8.07-11.09A91.62,91.62,0,0,1,364,44.41l1.61-.75c2.4,6.09,5.44,12.27,5.46,12.31a50.15,50.15,0,0,0,6.48,8.9,33.84,33.84,0,0,1,2.34,2.83c1.63,2.2,3.25,4.69,4.76,7.16"/><path class="cls-162" d="M385.85,74.14c4.1,6.7,7.36,13.26,7.54,13.63l-1,1c-.06-.11-6.56-12.87-11.85-20A22.1,22.1,0,0,0,379,66.83a61.76,61.76,0,0,1-8.07-11.09,91.61,91.61,0,0,1-5.74-12.05l1.13-.57a99.93,99.93,0,0,0,5.94,12.12,50.23,50.23,0,0,0,6.48,8.91A33.62,33.62,0,0,1,381.09,67c1.63,2.2,3.25,4.69,4.76,7.16"/><path class="cls-163" d="M386.82,73.55c4.1,6.7,7.36,13.26,7.54,13.63l-1,1c-.06-.11-6.56-12.87-11.85-20A22.23,22.23,0,0,0,380,66.24a61.92,61.92,0,0,1-8.07-11.09,91.72,91.72,0,0,1-5.74-12.05l1.07-.59a96.54,96.54,0,0,0,6,12.15,50.05,50.05,0,0,0,6.48,8.91,33.73,33.73,0,0,1,2.34,2.83c1.63,2.2,3.25,4.69,4.76,7.16"/><path class="cls-164" d="M387.77,73c4.1,6.7,7.36,13.26,7.54,13.63l-1,1c-.06-.11-6.56-12.87-11.85-20a22.21,22.21,0,0,0-1.56-1.89,61.84,61.84,0,0,1-8.07-11.09,91.61,91.61,0,0,1-5.74-12.05l1-.76a100.92,100.92,0,0,0,6.07,12.32A50.05,50.05,0,0,0,380.67,63,33.56,33.56,0,0,1,383,65.81c1.63,2.2,3.25,4.69,4.76,7.16"/><path class="cls-159" d="M364.36,53.31c-.23,7.85-1.09,15.12-1.14,15.54l-1.35.3c0-.13,1.55-14.36,1-23.27a21.84,21.84,0,0,0-.28-2.43,61.91,61.91,0,0,1-.69-13.7,91.62,91.62,0,0,1,1.79-13.23l1.26,0a100.48,100.48,0,0,0-1.67,13.5,50.19,50.19,0,0,0,.55,11,33.61,33.61,0,0,1,.41,3.65c.16,2.73.15,5.7.07,8.6"/><path class="cls-160" d="M365.61,53.35c-.24,7.85-1.09,15.12-1.14,15.54l-1.35.3c0-.13,1.55-14.37,1-23.27a22,22,0,0,0-.28-2.44,61.82,61.82,0,0,1-.69-13.7A91.51,91.51,0,0,1,365,16.56l1.26,0a100.8,100.8,0,0,0-1.67,13.5,50.25,50.25,0,0,0,.55,11,33.72,33.72,0,0,1,.41,3.65c.16,2.73.15,5.7.07,8.6"/><path class="cls-161" d="M366.87,53.39c-.23,7.85-.6,15.14-.65,15.55l-1.84.29c0-.13,1.55-14.36,1-23.27a21.83,21.83,0,0,0-.28-2.43,61.81,61.81,0,0,1-.69-13.7,91.62,91.62,0,0,1,1.79-13.23l1.75.25c-1.33,6.41-2.16,13.24-2.16,13.29a50.19,50.19,0,0,0,.55,11,33.64,33.64,0,0,1,.41,3.65c.16,2.73.15,5.7.07,8.6"/><path class="cls-162" d="M368.25,53.43c-.24,7.85-1.09,15.12-1.14,15.54l-1.35.3c0-.13,1.55-14.36,1-23.27a22.11,22.11,0,0,0-.28-2.43,61.8,61.8,0,0,1-.69-13.7,91.57,91.57,0,0,1,1.79-13.23l1.26.14a99.83,99.83,0,0,0-1.66,13.4,50.21,50.21,0,0,0,.55,11,33.86,33.86,0,0,1,.41,3.65c.16,2.73.15,5.7.07,8.6"/><path class="cls-163" d="M369.39,53.46c-.23,7.85-1.09,15.12-1.14,15.54l-1.35.3c0-.13,1.55-14.36,1-23.27a22,22,0,0,0-.28-2.44A62,62,0,0,1,367,29.9a91.64,91.64,0,0,1,1.79-13.22l1.22.09a96.56,96.56,0,0,0-1.62,13.45,50.05,50.05,0,0,0,.55,11,33.46,33.46,0,0,1,.41,3.65c.16,2.73.15,5.7.07,8.6"/><path class="cls-164" d="M370.5,53.5c-.23,7.85-1.09,15.12-1.14,15.54l-1.35.3c0-.13,1.55-14.36,1-23.27a22.22,22.22,0,0,0-.28-2.44,61.75,61.75,0,0,1-.69-13.7,91.64,91.64,0,0,1,1.79-13.22l1.25-.1a100.74,100.74,0,0,0-1.66,13.63,50,50,0,0,0,.55,11,33.72,33.72,0,0,1,.41,3.65c.16,2.73.15,5.7.07,8.6"/></g></g></g></g></svg>