<svg xmlns="http://www.w3.org/2000/svg" xmlns:xlink="http://www.w3.org/1999/xlink" viewBox="0 0 326 504.76"><defs><style>.cls-1{fill:none;}.cls-2{isolation:isolate;}.cls-3{fill:#bb805a;}.cls-4{fill:#1f2833;}.cls-5{fill:#404d5c;}.cls-6{fill:#154a8e;}.cls-7{fill:#1d3b6d;}.cls-8{fill:#208dba;}.cls-9{fill:#27a8e0;}.cls-10{fill:#e79d6e;}.cls-11{fill:#333;}.cls-12{fill:#5cb8e0;}.cls-13{fill:#594030;}.cls-14{fill:#1f1611;}.cls-15{mix-blend-mode:multiply;}.cls-16{clip-path:url(#clip-path);}.cls-17{fill:#e0dad4;}.cls-18{clip-path:url(#clip-path-2);}.cls-19{fill:#8c5631;}.cls-20{fill:#1e8e45;}.cls-21{fill:#acb9cb;}.cls-22{fill:#a7724d;}.cls-23{fill:#1b403d;}.cls-24{fill:#6d7986;}.cls-25{fill:#8d99a7;}.cls-26{fill:#d88048;}.cls-27{fill:#f4b083;}.cls-28{fill:#374774;}.cls-29{fill:#3d507a;}.cls-30{fill:#36b24a;}.cls-31{fill:#dd9466;}.cls-32{fill:#2f190d;}.cls-33{fill:#d79166;}.cls-34{fill:#c7d0df;}.cls-35{fill:#728089;}.cls-36{opacity:0.5;mix-blend-mode:screen;}.cls-37{clip-path:url(#clip-path-3);}.cls-38{clip-path:url(#clip-path-4);}.cls-39{clip-path:url(#clip-path-5);}.cls-40{clip-path:url(#clip-path-6);}.cls-41{fill:#414f53;}.cls-42{fill:#5b686d;}.cls-43{fill:#283539;}.cls-44{clip-path:url(#clip-path-7);}.cls-45{clip-path:url(#clip-path-8);}.cls-46{clip-path:url(#clip-path-9);}.cls-47{clip-path:url(#clip-path-10);}.cls-48{clip-path:url(#clip-path-11);}.cls-49{clip-path:url(#clip-path-12);}.cls-50{clip-path:url(#clip-path-13);}.cls-51{clip-path:url(#clip-path-14);}.cls-52{fill:#d78d68;}.cls-53{fill:#f1a882;}</style><clipPath id="clip-path"><rect class="cls-1" x="69.15" y="350.65" width="177.81" height="68.82"/></clipPath><clipPath id="clip-path-2"><rect class="cls-1" y="430.76" width="167.07" height="74.02"/></clipPath><clipPath id="clip-path-3"><rect class="cls-1" x="13.61" y="207.11" width="13.18" height="200.89"/></clipPath><clipPath id="clip-path-4"><rect class="cls-1" x="14.2" y="207.67" width="12" height="199.77"/></clipPath><clipPath id="clip-path-5"><rect class="cls-1" x="14.79" y="208.27" width="10.82" height="198.57"/></clipPath><clipPath id="clip-path-6"><rect class="cls-1" x="15.16" y="208.65" width="10.08" height="197.82"/></clipPath><clipPath id="clip-path-7"><rect class="cls-1" x="26.25" y="338.53" width="3.55" height="143.72"/></clipPath><clipPath id="clip-path-8"><rect class="cls-1" x="26.84" y="339.09" width="2.36" height="142.61"/></clipPath><clipPath id="clip-path-9"><rect class="cls-1" x="27.43" y="339.69" width="1.18" height="141.4"/></clipPath><clipPath id="clip-path-10"><rect class="cls-1" x="27.8" y="340.06" width="0.45" height="140.66"/></clipPath><clipPath id="clip-path-11"><rect class="cls-1" x="29.83" y="221.69" width="13.19" height="189.79"/></clipPath><clipPath id="clip-path-12"><rect class="cls-1" x="30.42" y="222.3" width="12.01" height="188.58"/></clipPath><clipPath id="clip-path-13"><rect class="cls-1" x="31.01" y="222.9" width="10.83" height="187.42"/></clipPath><clipPath id="clip-path-14"><rect class="cls-1" x="31.38" y="223.23" width="10.09" height="186.73"/></clipPath></defs><title>Asset 3@2</title><g class="cls-2"><g id="Layer_2" data-name="Layer 2"><g id="Layer_1-2" data-name="Layer 1"><path class="cls-3" d="M238.26,174a112.53,112.53,0,0,0,5,11.1c2.41,4.38,8,9.31,9.31,12.35s1.16,14.5,1.34,16.38a28,28,0,0,1-.45,6.35c-.18.36-1.79.54-2.23-1a26.8,26.8,0,0,1-.54-5c-.18-2-1-7.25-1-7.25a60.32,60.32,0,0,0-.36,6.18c0,3.13-.45,4.83-1.07,5.64s-3,5.82-3.76,5.82-1.88-2.15-1.61-2.78,1.44-3,1.44-3l1.07-2.15-.09-2.15a23.18,23.18,0,0,1-2.51,5.46c-1.61,2.41-2.39,2.23-2.39,2.23a2.18,2.18,0,0,1-.74-3c.89-2.06,2.06-2.41,2.06-3.76s1-10.65,1-10.65a60.26,60.26,0,0,1-2.3,6.8c-.74,1.34-3.25,5.19-3.88,5s-.72-2.6,0-4.3,3-6.71,2.68-8.41-.8-4.11-.8-4.11-7-7.07-8.15-10-1.07-10.92-1.07-10.92Z"/><path class="cls-4" d="M205.23,363.75s4.47,7.16,11,10.11,11.91,3.58,14.32,7.34,2.06,9.75-.09,11.73-10.65,5.46-18.62,3.13-19.78-12.17-19.78-12.17l-3.4-.36s-9.39-5.82-10.2-7.88-1.16-8.68-1.16-8.68Z"/><path class="cls-5" d="M178.47,372.07c.8,2.06,10.2,7.88,10.2,7.88l3.4.36s11.81,9.85,19.78,12.18,16.47-1.17,18.62-3.13a6.39,6.39,0,0,0,1.63-3.74c.41,3-.22,6-1.63,7.32-2.15,2-10.65,5.46-18.62,3.13s-19.78-12.17-19.78-12.17l-3.4-.36s-9.4-5.82-10.2-7.88-1.16-8.68-1.16-8.68l.27,0a24.74,24.74,0,0,0,.89,5.13"/><path class="cls-6" d="M185.9,172.49s3.58,12.08,9.49,26.8,10,41.93,12,56.25-1.61,109.73-1.61,109.73-6.62,5.19-14,6.44-19.33-2.5-19.69-4.65.36-49.22,0-59.78.9-23.63.72-29.72-14.32-46.36-17.36-55.85-4.11-30.25-4.11-30.25Z"/><path class="cls-4" d="M110,345.57a40.48,40.48,0,0,0,5.74,9.4c3.92,4.83,10.46,8.5,13.23,15.75s1,12.17-2,13.61-15,2.33-21.48-1.52-12-10.11-13.25-14.14-4.92-10.11-4.92-10.11l-2.33.27s-6.8-8-7.61-12.26a16.43,16.43,0,0,1,.71-8.14Z"/><path class="cls-5" d="M78,338.88a15,15,0,0,0,.16,4.11c.8,4.3,7.61,12.26,7.61,12.26l2.33-.26s3.67,6.08,4.92,10.11,6.8,10.29,13.25,14.14,18.52,3,21.48,1.52a5.58,5.58,0,0,0,2.63-3c-.09,3.37-1.49,5.65-3.34,6.55-3,1.43-15,2.33-21.48-1.52s-12-10.11-13.25-14.14-4.92-10.11-4.92-10.11l-2.33.27s-6.8-8-7.61-12.26a16.38,16.38,0,0,1,.55-7.68"/><path class="cls-7" d="M107.5,176.06s-7.16,61.76-8.41,70.53-2.68,19-4.11,24.7-11.46,22.19-14.68,41-2,29.53-1.61,32.22,9.13,8.59,18.44,8.95S113,347,113.41,346.29s7.7-42.78,11.1-50.65,15.58-39.92,21.66-54.42,11.64-36.87,11.27-41.88-49.94-23.27-49.94-23.27"/><path class="cls-8" d="M176.71,48.89s6.45,0,14.08,7.91S200.34,84,204,94.86s24.94,58.35,28.28,64.56,8.12,15,8.12,15-4.89,1.19-7.16,3.82a42.16,42.16,0,0,1-5.61,5.14s-15.75-23-20.29-29.59-18.14-24.71-19.21-30.43S176.83,93,177.31,87.46s-6.69-30-.6-38.58"/><path class="cls-9" d="M141.12,52.5s-27.65,13-31.59,18.38,5.13,63,5.13,63l-7.16,37.35,1.67,16.71S120,214.43,152.25,205.6s35.33-30.79,35.33-30.79-2.63-22.19,0-37.95,7.88-34.84,5-49.41S185.9,55.7,176.12,52s-35,.48-35,.48"/><path class="cls-3" d="M139.45,46s-1.07,8.34-3.13,10.75a9.26,9.26,0,0,1-4.66,3s6.71,14.6,18.62,18.8,16.65-1.61,16.83-5.1a35.12,35.12,0,0,0-1.25-8.69L150.47,46Z"/><path class="cls-10" d="M176.77,18.28s3.67,10,4.3,12.8a21.15,21.15,0,0,1,0,6.62L180,43.07s-1.08,11.73-1.61,13.51.36,6.63-.72,9.13-6.89,3.67-10.11,3.32-8.15-3.94-12.17-5.46-7.88-5.73-8.86-9-2.15-9.06-3.67-10.84-6.26-7.33-7.51-11.09S134.53,16,140.52,8.52s16.29-6.17,21.66-4.11,14.32,12.71,14.68,13.24-.09.63-.09.63"/><path class="cls-11" d="M177.85,16.85a5.47,5.47,0,0,1-.45,4.74c-1.43,2.78-6.09,4.75-10,4.92s-8.5-1.61-10.65-.63-2.06,4.48-.18,7.07.45,3.85-1.52,5-2.95-.09-3.67,3.13-.18,4.92-1.43,5.28-4-4.56-4-4.56-4.52-3.47-6.52-2.41-3,2.5-3,4.29,2.33,5.19,2.33,5.19-4.65-2.15-5.46-6.89-.53-19.06,0-26.13,7.16-14.14,13-15.48S158.78,1.54,164,3.24s9.93,6.54,13.07,9,2.26,4.43.8,4.65"/><path class="cls-10" d="M146.7,45.84s-1.79-6.71-5.1-8.05-7.26.27-5.73,4.56a21.39,21.39,0,0,0,5.64,8.59c1.34,1.07,2.15,1.52,3.31.45s-.81-2.6,1.88-5.55"/><path class="cls-3" d="M114.6,216.52s2.21,6,4.17,7.64a36.4,36.4,0,0,1,8.06,8.53c2.92,4.42,5.6,14,4.47,15.1s-4.47-2-4.47-2-1.73-6-2.63-6.39-2.15.65-2.56,1.61-1.58,7.7,1.44,12.65,5.66,8.83,5.6,9.84-1.85,1.43-2.45,1.07a42.84,42.84,0,0,1-5.67-7.57c-1.31-2.45-3.94-8.65-3.94-8.65a6.48,6.48,0,0,0,.24,2.27,117.86,117.86,0,0,0,5,11.15c.72,1.13,2,2.16,1.85,2.93s-1.61,1.19-2.39,1.19-2.45-2.74-2.45-2.74a1.6,1.6,0,0,1-1.49-.13c-.78-.47-4.54-4.83-6.45-7a11.37,11.37,0,0,1-2.45-4.36,5.61,5.61,0,0,1-2.92-2.39c-1-1.79-1.67-5.67-2.27-10.56s-1.07-19.51-1.07-19.51Z"/><path class="cls-12" d="M109.53,70.88s-11.93,8.71-13.13,18-7.88,59.67-8.35,69,10.74,64.92,10.74,64.92l17-5.06s-3.12-28.94-3.47-33.84-1.67-17.9-1.19-22.43,6.57-22.79,9.07-31,11.34-17.66,9.55-34.36-11.58-27-20.17-25.18"/><path class="cls-13" d="M237.07,196.05l87.55,204.6a.72.72,0,0,0,1.32-.56L240.77,194.5a2,2,0,1,0-3.7,1.54Z"/><path class="cls-3" d="M241.43,195s-.64,9.29.11,10.69,4.21,4.93,5.18,2.1-.38-10.44-.38-10.44-2.79-3.45-4.91-2.35"/><path class="cls-14" d="M176.2,42.15c0,4,2.78,5.56,6.2,3.58A13.69,13.69,0,0,0,188.61,35c0-4-2.78-5.56-6.21-3.58a13.72,13.72,0,0,0-6.2,10.75"/><path class="cls-14" d="M159.88,51.58c0,4,2.78,5.56,6.2,3.58a13.7,13.7,0,0,0,6.2-10.75c0-4-2.78-5.56-6.2-3.58a13.7,13.7,0,0,0-6.2,10.75"/><polygon class="cls-14" points="181.62 31.92 165.06 41.42 165.06 42.77 183.21 32.53 181.62 31.92"/><path class="cls-14" d="M165.06,41.42a6.81,6.81,0,0,1-3.41,1.83c-2,.31-20.81-7.32-22.47-7.31s-2.66,2.32-2.66,2.32a5.68,5.68,0,0,1,3.69-.42c1.75.53,19.6,7.07,20.4,7.38a2.34,2.34,0,0,1,1.07.72s3.57-2.94,3.37-4.51"/><g class="cls-15"><g class="cls-16"><path class="cls-17" d="M247,385.08c0,19-39.81,34.41-88.9,34.41s-88.91-15.4-88.91-34.41,39.81-34.41,88.91-34.41,88.9,15.4,88.9,34.41"/></g></g><g class="cls-15"><g class="cls-18"><path class="cls-17" d="M167.07,467.76c0,20.43-37.4,37-83.53,37S0,488.19,0,467.76s37.4-37,83.54-37,83.53,16.57,83.53,37"/></g></g><path class="cls-19" d="M79.47,383.11l4.69,7.5-1.1,4.84L61.63,470s-1.73-32-5.44-53.3.65-32,.65-32"/><path class="cls-20" d="M49.7,244.66s-28.31,36.08-23.35,106c0,0,.39,16.86,24,10.66L61.4,261.13l-5.54-15.9Z"/><polygon class="cls-21" points="72.32 380.29 72.16 362.41 69.04 362.05 69.84 381.14 72.32 380.29"/><polygon class="cls-21" points="74.13 407.6 64.99 424.88 65.66 432.49 75.28 411.07 74.13 407.6"/><path class="cls-22" d="M78.16,472.61s4.87,9.64,5.54,10.73a58.2,58.2,0,0,1,4.58,12.92c.78,4.53-4.39,6.8-8.56,6.21s-10.46-3.4-12.4-5.91-3.13-3.94-4-9.9-2.52-17.79-2.51-19.9.8-2.85,3.73-3.3,4.17-.84,6.23.9,7.42,8.26,7.42,8.26"/><path class="cls-23" d="M68.86,468.91s4.94,5.13,6.32,8.93-2.24,8.36-5.74,7.7-7.43-7.22-8.21-11.65,1.85-7.63,7.63-5"/><path class="cls-24" d="M69.15,469.65s2.15,7.54,2.32,8.26c.07.35-.67,1-1.46,1.62a2.24,2.24,0,0,1-3.12-.41,24.94,24.94,0,0,1-3.36-5.2c-.75-2.15-.1-3.67,1.42-4.43s1.19-1.77,4.21.17"/><path class="cls-25" d="M80.78,369.43,70.54,476.52l-1.34.12a1,1,0,0,1-1.1-1.09L76.9,364.3Z"/><path class="cls-25" d="M66.38,365l1.1,105.95a1.58,1.58,0,0,1-1.21,1.56l-.58.14a1,1,0,0,1-1.22-.92l-5.3-113.42Z"/><path class="cls-26" d="M119.1,195.79s2.86,15.94,4.2,17.75,5.44,6.3,10.12,18.71,10.88,36.84,11.74,39.9,2.19,23.2,2.19,26.34-1.4,19.35-1.4,19.35-1.53.51-2-.57-1,.83-1.91.13-1.27-3.5-1.27-3.5-1.65.32-2-1,.19-4.46-.44-6.18a41,41,0,0,1-1.66-9.86c0-2.8-1.46-8.14-1.84-11.07s-1.46-4.14-1-6,3.25-5.48,3.25-5.48-19.6-31.37-21.83-37.35-3.95-10.63-3.95-10.63l-3.82-16.1-1-9.61Z"/><path class="cls-20" d="M100.49,162.47l2.39-1.1s9.92,1.7,13.83,7.7,4.58,15.54,4.3,19.55a78.2,78.2,0,0,0,0,8.68s-1.43,6.3-10.5,7-13.22-19.57-13.22-19.57Z"/><path class="cls-11" d="M94.4,446.39a17.48,17.48,0,0,0,4.78,4.33c2.48,1.27,7.19,3.56,9,8s2.48,7.76,1.34,10.19-2.87,4.45-8,3.43a19.19,19.19,0,0,1-11.2-6.55,112.87,112.87,0,0,0-10.12-10.43c-2-1.66-6.3-2.87-6.81-5.73s-.77-8.85-.77-8.85l11.33.83,8,3.62Z"/><path class="cls-27" d="M93.46,447,99,452s-1.6-1.08-4.59,0-3.62,4.39-4.57,5.15-7.32-5-8.47-6.81-2.48-3.88-2.29-5.47,12.64.6,14.38,2.16"/><path class="cls-28" d="M111.56,265.08a149.39,149.39,0,0,1,5.76,21.38c2.16,11.59-1.78,42.38-4.58,58.29s-7.63,28.64-8.4,39.07-9.93,62.56-9.93,62.56-2.14,3.25-11.81,1.46-9.45-4-9.45-4,.14-56,1-61.33,3.95-13,5.22-24.31S76,293.34,76,293.34l-1.53-19.73Z"/><path class="cls-29" d="M95.6,278.59s2.17,7.22-1.45,19.81S87.85,314.15,87.86,323s-.44,38.62-.44,38.62,1.75,14.7-5.7,18.51c-17.58,9-20.66-3.13-23.17-5.2s-3.2-17.66-3.65-18.39-7.58-23.75-8.27-36,1.65-39.8,5.08-47.13,3.73-7.11,6.54-10.61S95.6,278.59,95.6,278.59"/><path class="cls-30" d="M57.9,166.64a26.53,26.53,0,0,1-11.54,7c-7.35,2.19-17.08,3.44-22.72,8s-8.86,19.29-8.86,19.29-3.17,2.29.84,7.06,6.78,7.45,6.78,7.45S34.62,205.33,37.78,204s4.58,6.49,5.53,8.68,5.63,25.2,6.4,32-2.58,23.19-2.58,23.19S32.9,355.6,40.84,365.63c11.19,14.13,70.17,6.19,75.51,1.89,3.65-2.93,4.23-38.83,6.27-63.26,1-12.36-3.39-27.86-7.06-39.71-3.8-12.27-8-27.13-7.16-30,1.53-5.06,6.39-6.78,7.45-12.31s.47-14.13-2-19.19-4.39-12.79-4.39-16.51,3.34-17.64,1.43-22-23-4-23-4Z"/><path class="cls-26" d="M62.46,148.25s.19,8.6-.58,12.09-4,6.3-4,6.3.56,9,6,11.84,15,3.05,19.6.82,6.11-5.22,6.74-7.82-1-10.24-1-10.24Z"/><path class="cls-31" d="M97,138.57s-1-15.72-5-21.63-16.61-10.37-22.84-7.76-12.47,5.41-13.43,13.43a51.43,51.43,0,0,0,.07,14.57c.26,1.65,5.92,12,7.32,14.26s2.8,6.74,6,9.16,11,7.83,13,8.4,6.55-2,7.25-3.25,3.75-8.85,5-12.35S98.1,143.1,97,138.57"/><path class="cls-32" d="M96.43,132.75s-1.07-11.8-6.79-18.73-19.67-7.32-23.93-5.6-9.29,6.43-12.22,6.62-6.3-3.57-10-1a19.22,19.22,0,0,0-6.94,19.85c2.29,10,6.37,15.21,3.82,19.16S35.61,157,35.61,157,46,162.5,52,155.69s-2.1-19.66-2.1-27.93,3.31-9.48,3.56-6.37.38,10,1.27,13.56,3.82,5.34,7.19,6.56,8.27-.24,11.9-2.76.7-3.87,7.89-5.42,7.12.16,9.35-1.62,4.9-3.58,5.4,1"/><path class="cls-20" d="M116.35,220.16a19.33,19.33,0,0,1-9.79,8.27c-6.94,2.68-22.59,6.5-29.46,6.5s-14.76-3.44-17.31-5-1.4,3.69,1,6.24,9.13,4.33,13.35,4.33S92,233,97.29,232.89s8.2-.13,11.89,4.07,15-12.85,7.18-16.8"/><path class="cls-26" d="M68.47,464.38s4.94,5.13,6.32,8.93S72.55,481.67,69,481s-7.43-7.22-8.21-11.65,1.85-7.63,7.63-5"/><polygon class="cls-26" points="70.34 472.31 73.38 473 76.62 481.73 70.36 485.1 68.01 482.72 65.56 478.34 66.77 473.68 70.34 472.31"/><path class="cls-26" d="M57.64,465.76s7.07,19.63,14.34,26.4c0,0,11.05,4.8,10.14-3l-7.81-23Z"/><path class="cls-1" d="M60.84,469.36c.77,4.43,4.7,11,8.21,11.65s7.13-3.89,5.74-7.7-6.33-8.93-6.33-8.93a9.18,9.18,0,0,0-3.76-1c-3.12,0-4.44,2.63-3.87,5.95"/><path class="cls-33" d="M57,386.77s9.81,21.47,27.15,3.84c0,0-3.48,44.69-6.74,77,0,0-1.62,13.67-15.79,2.4Z"/><path class="cls-34" d="M54.48,376.39s2.07-6.58,6.44,2,20.92,3.74,20.8,1.67.31-4.63,2.27-1.45-3.07,16.6-10.36,13.6-17-10-17-10Z"/><path class="cls-33" d="M54.84,392.25s-4.52-8.29-1.38-15.38c2.41-5.42,4.72,9.83,13.15,10.43s17.16-1.15,16.49-8.84c-.39-4.4,7.6,3.25,3,15.7,0,0-11.2,20.07-31.25-1.9"/><path class="cls-35" d="M25,408.61a2.36,2.36,0,0,0,2.36-2.36v-25.3c0-7.81-2.23-17.53-4.39-26.93-1.91-8.33-3.72-16.19-3.72-21.66,0-32.92-1.52-122.73-1.53-123.53a2.36,2.36,0,0,0-2.36-2.32h0A2.36,2.36,0,0,0,13,208.91c0,.8,1.53,90.57,1.53,123.45,0,6,1.86,14.12,3.84,22.72,2.1,9.14,4.27,23.62,4.27,30.89v20.28A2.36,2.36,0,0,0,25,408.61"/><g class="cls-36"><g class="cls-37"><path class="cls-35" d="M25,408a1.77,1.77,0,0,0,1.77-1.77v-25.3c0-7.74-2.23-17.43-4.38-26.8-1.92-8.35-3.73-16.26-3.73-21.79,0-32.92-1.52-122.72-1.53-123.52a1.77,1.77,0,0,0-1.77-1.74h0a1.77,1.77,0,0,0-1.74,1.81c0,.8,1.53,90.57,1.53,123.45,0,5.94,1.85,14,3.82,22.58,2.1,9.18,4.29,23.69,4.29,31v20.28A1.77,1.77,0,0,0,25,408"/></g></g><g class="cls-36"><g class="cls-38"><path class="cls-35" d="M25,407.43a1.17,1.17,0,0,0,1.18-1.18v-25.3c0-7.67-2.22-17.33-4.36-26.66-1.93-8.39-3.75-16.32-3.75-21.92,0-32.91-1.51-122.71-1.53-123.51a1.18,1.18,0,0,0-1.18-1.16h0a1.18,1.18,0,0,0-1.16,1.2c0,.8,1.53,90.58,1.53,123.47,0,5.87,1.85,13.92,3.81,22.45,2.11,9.2,4.3,18.72,4.3,26.14v25.3A1.17,1.17,0,0,0,25,407.43"/></g></g><g class="cls-36"><g class="cls-39"><path class="cls-35" d="M25,406.84a.59.59,0,0,0,.59-.59v-25.3c0-7.61-2.21-17.23-4.35-26.53C19.33,346,17.5,338,17.5,332.36c0-32.9-1.51-122.7-1.53-123.5a.59.59,0,0,0-.59-.58h0a.59.59,0,0,0-.58.6c0,.8,1.53,90.59,1.53,123.48,0,5.8,1.84,13.82,3.79,22.32,2.12,9.24,4.32,18.79,4.32,26.27v25.3a.59.59,0,0,0,.59.59"/></g></g><g class="cls-36"><g class="cls-40"><path class="cls-35" d="M25,406.47a.22.22,0,0,0,.22-.22v-25.3c0-7.56-2.21-17.16-4.34-26.45C19,346,17.13,338.07,17.13,332.36c0-32.9-1.52-122.69-1.53-123.5a.24.24,0,0,0-.23-.22.23.23,0,0,0-.22.23c0,.8,1.54,90.59,1.54,123.49,0,5.76,1.84,13.76,3.78,22.23,2.13,9.26,4.33,18.84,4.33,26.35v25.3a.22.22,0,0,0,.22.22"/></g></g><path class="cls-41" d="M23.27,403.44a3.77,3.77,0,0,0,3.45,0,1.22,1.22,0,0,0,.71-1v5.05a1.21,1.21,0,0,1-.71,1,3.77,3.77,0,0,1-3.45,0,1.21,1.21,0,0,1-.72-1v-5.05a1.21,1.21,0,0,0,.72,1"/><path class="cls-41" d="M17,300.23a2,2,0,0,0,.34,1.24,26.8,26.8,0,0,0,3.6,3.86,28.27,28.27,0,0,0,4.41,3.18A27.2,27.2,0,0,0,35.46,312h-.07a1.9,1.9,0,0,0,1.26-.26,5.15,5.15,0,0,0,2.36-4,2,2,0,0,0-.37-1.27l0,0a26.59,26.59,0,0,0-3.6-3.85,28.48,28.48,0,0,0-4.41-3.19,27.37,27.37,0,0,0-10.09-3.47,1.92,1.92,0,0,0-1.18.29,5.1,5.1,0,0,0-2.36,4"/><path class="cls-42" d="M28,479.31a6.28,6.28,0,0,1,3.08.74,1.88,1.88,0,0,1,0,3.56,6.84,6.84,0,0,1-6.16,0,1.88,1.88,0,0,1,0-3.56,6.36,6.36,0,0,1,3.08-.73"/><path class="cls-41" d="M23.66,481.82a2.17,2.17,0,0,0,1.28,1.78,6.83,6.83,0,0,0,6.16,0,2.17,2.17,0,0,0,1.27-1.78,1.31,1.31,0,0,0,0-.13h0l1.11,7.86a2.71,2.71,0,0,1-1.59,2.23,7.94,7.94,0,0,1-3.87.92,7.91,7.91,0,0,1-3.86-.92,2.7,2.7,0,0,1-1.6-2.23Z"/><path class="cls-43" d="M24.16,491.77a7.86,7.86,0,0,0,3.86.92,7.88,7.88,0,0,0,3.86-.92,2.85,2.85,0,0,0,1.58-2h0v2.95a2.71,2.71,0,0,1-1.59,2.23,7.94,7.94,0,0,1-3.86.92,7.91,7.91,0,0,1-3.86-.92,2.73,2.73,0,0,1-1.6-2.23v-3.15a2.71,2.71,0,0,0,1.6,2.22"/><path class="cls-35" d="M28,482.86a2.36,2.36,0,0,0,2.36-2.36V340.29a2.36,2.36,0,1,0-4.72,0V480.5A2.36,2.36,0,0,0,28,482.86"/><g class="cls-36"><g class="cls-44"><path class="cls-35" d="M28,482.28a1.77,1.77,0,0,0,1.77-1.77V340.29a1.77,1.77,0,1,0-3.54,0V480.5A1.77,1.77,0,0,0,28,482.28"/></g></g><g class="cls-36"><g class="cls-45"><path class="cls-35" d="M28,481.69a1.18,1.18,0,0,0,1.18-1.18V340.29a1.18,1.18,0,0,0-2.36,0V480.5A1.18,1.18,0,0,0,28,481.69"/></g></g><g class="cls-36"><g class="cls-46"><path class="cls-35" d="M28,481.1a.59.59,0,0,0,.59-.59V340.29a.59.59,0,0,0-1.18,0V480.5a.59.59,0,0,0,.59.59"/></g></g><g class="cls-36"><g class="cls-47"><path class="cls-35" d="M28,480.72a.22.22,0,0,0,.22-.22V340.29a.22.22,0,0,0-.44,0V480.5a.22.22,0,0,0,.22.22"/></g></g><path class="cls-41" d="M26.3,403.44a3.77,3.77,0,0,0,3.45,0,1.22,1.22,0,0,0,.72-1v14.08a1.21,1.21,0,0,1-.72,1,3.8,3.8,0,0,1-3.45,0,1.2,1.2,0,0,1-.72-1V402.45a1.21,1.21,0,0,0,.72,1"/><path class="cls-35" d="M31.6,412.07A2.36,2.36,0,0,0,34,409.72V389.44c0-7.18,2.15-19.07,4.23-25.71,2-6.4,3.89-12.44,3.89-18.53,0-32.87,1.52-120.89,1.53-121.67a2.36,2.36,0,0,0-2.31-2.41h0a2.36,2.36,0,0,0-2.36,2.32c0,.78-1.54,88.84-1.54,121.76,0,5.37-1.78,11.08-3.67,17.12-2.18,7-4.43,19.23-4.44,27.13v20.28a2.36,2.36,0,0,0,2.36,2.36"/><g class="cls-36"><g class="cls-48"><path class="cls-35" d="M31.6,411.49a1.77,1.77,0,0,0,1.77-1.77V389.44c0-7.27,2.16-19.21,4.25-25.89,2-6.35,3.85-12.34,3.85-18.35,0-32.88,1.53-120.9,1.54-121.69a1.77,1.77,0,1,0-3.54-.07c0,.79-1.54,88.84-1.54,121.76,0,5.47-1.79,11.21-3.7,17.29-2.17,6.94-4.41,19.14-4.41,27v20.28a1.77,1.77,0,0,0,1.77,1.77"/></g></g><g class="cls-36"><g class="cls-49"><path class="cls-35" d="M31.6,410.9a1.17,1.17,0,0,0,1.18-1.18V389.44c0-7.36,2.18-19.34,4.28-26.07,2-6.31,3.83-12.26,3.83-18.18,0-32.88,1.52-120.91,1.54-121.69a1.18,1.18,0,1,0-2.36,0c0,.79-1.54,88.84-1.54,121.74,0,5.55-1.81,11.34-3.72,17.47-2.15,6.9-4.38,19.05-4.38,26.78v20.28a1.17,1.17,0,0,0,1.18,1.18"/></g></g><g class="cls-36"><g class="cls-50"><path class="cls-35" d="M31.6,410.31a.59.59,0,0,0,.59-.59V389.44c0-7.45,2.19-19.48,4.3-26.25,2-6.26,3.81-12.18,3.81-18,0-32.89,1.52-120.93,1.54-121.71a.59.59,0,0,0-.58-.6.57.57,0,0,0-.6.58c0,.79-1.53,88.83-1.53,121.73,0,5.64-1.83,11.48-3.76,17.65-2.14,6.86-4.36,19-4.36,26.6v20.28a.59.59,0,0,0,.59.59"/></g></g><g class="cls-36"><g class="cls-51"><path class="cls-35" d="M31.6,409.94a.22.22,0,0,0,.22-.22V389.44c0-7.51,2.2-19.56,4.32-26.35,1.94-6.24,3.78-12.12,3.78-17.89,0-32.9,1.52-120.93,1.54-121.72a.23.23,0,0,0-.22-.22h0a.22.22,0,0,0-.22.22c0,.78-1.54,88.82-1.54,121.72,0,5.7-1.83,11.56-3.77,17.76-2.13,6.83-4.34,18.91-4.34,26.49v20.28a.22.22,0,0,0,.22.22"/></g></g><path class="cls-41" d="M29.87,406.67a3.8,3.8,0,0,0,3.45,0,1.21,1.21,0,0,0,.72-1v5.05a1.21,1.21,0,0,1-.72,1,3.81,3.81,0,0,1-3.45,0,1.2,1.2,0,0,1-.72-1v-5.05a1.2,1.2,0,0,0,.72,1"/><path class="cls-41" d="M7.89,197.06h0c.56-2,3.77-2.1,4.92-2.14,2-.07,4.13,2.47,6.12,4.56s5.9,5.19,12.61,9.24c6.71,3.71,10.62,5.11,12.61,5.32s4.12,0,6.12,2.51c1.3,1.63,1.35,7.24-1.13,9.73-1.18,1.18-4,3.34-7.09,3.21v0a6.87,6.87,0,0,1-3.85-.93l-22.56-13c-8-5.08-9.3-16.94-7.75-18.44"/><path class="cls-42" d="M45.66,218.52c-2-2.51-4.13-2.3-6.12-2.51s-5.9-1.62-12.61-5.32c-6.71-4-10.62-7.16-12.61-9.24s-4.13-4.76-6.12-4.55a.5.5,0,0,0-.31.16h0c.55-2,3.77-2.1,4.92-2.14,2-.06,4.13,2.47,6.12,4.55s5.9,5.2,12.6,9.24c6.71,3.71,10.62,5.11,12.61,5.32s4.13,0,6.12,2.51c1.3,1.63,1.34,7.24-1.13,9.73-1.18,1.18-4,3.34-7.09,3.21v0c4.85-.52,5.23-8.87,3.6-10.93"/><path class="cls-52" d="M31,297.95l4.21-.86s1.2,5.06,1.84,7.26-1.22,5.32-2.17,5.67-.79-.35-1.24-.06a7.86,7.86,0,0,0-1.33,1.95c-.24.41-5,.75-6.46.79S23.07,302,23.24,302s7.79-4,7.79-4"/><path class="cls-53" d="M5.34,238.18c2.51-10.58,8.15-24.86,14-41.17S30,177.66,36.8,182.17s3.91,13.65.76,21-16.68,36.06-16.68,36.06,1.85,12.06,2.23,17.4.14,20.5.14,20.5l.63,8.22c.26,1.48,1.43,5.51,3.05,6.92s7.73,3.58,8.3,4.83-.63,4.42-1,4.53-3.87,1-5,3.76-1.5,3-1.4,4.71,0,2.15-.69,2.41-6,.77-8.84-1.63S17,301.52,16.22,297c-.42-2.58-2.11-10.29-3.5-16.46A68.27,68.27,0,0,1,9,267.63c-1.77-8.47-4.36-26.27-3.61-29.45"/><path class="cls-30" d="M17.36,192.64,9.25,225s13.83-3.52,15.44,6l17.14-18.54,6.36-27c-.46-4.95-14.32-7.55-19-5.76l-5.59,1.84Z"/></g></g></g></svg>