<svg xmlns="http://www.w3.org/2000/svg" xmlns:xlink="http://www.w3.org/1999/xlink" viewBox="0 0 540.05 494.83"><defs><style>.cls-1{fill:none;}.cls-2{isolation:isolate;}.cls-3{mix-blend-mode:multiply;}.cls-4{clip-path:url(#clip-path);}.cls-5{fill:#e0dad4;}.cls-6{clip-path:url(#clip-path-2);}.cls-7{fill:#be1f5c;}.cls-8{fill:#e77a26;}.cls-9{fill:#f9a320;}.cls-10{fill:#2b8742;}.cls-11{fill:#27a8e0;}.cls-12{fill:#154a8e;}.cls-13{fill:#2d2d2d;}.cls-14{fill:#951a48;}.cls-15{fill:#ad6e47;}.cls-16{fill:#94d1ef;}.cls-17{fill:#b5dff6;}.cls-18{fill:#bb805a;}.cls-19{fill:#1b1c1c;}</style><clipPath id="clip-path"><rect class="cls-1" x="320.29" y="437.9" width="136.52" height="52.81"/></clipPath><clipPath id="clip-path-2"><rect class="cls-1" x="166.44" y="406.73" width="128.25" height="56.81"/></clipPath></defs><title>Asset 4@2</title><g class="cls-2"><g id="Layer_2" data-name="Layer 2"><g id="Layer_1-2" data-name="Layer 1"><g class="cls-3"><g class="cls-4"><path class="cls-5" d="M320.29,464.3c0,14.59,30.56,26.42,68.25,26.42s68.25-11.83,68.25-26.42-30.56-26.42-68.25-26.42-68.25,11.83-68.25,26.42"/></g></g><g class="cls-3"><g class="cls-6"><path class="cls-5" d="M166.44,435.13c0,15.69,28.71,28.41,64.12,28.41s64.13-12.72,64.13-28.41-28.71-28.4-64.13-28.4-64.12,12.72-64.12,28.4"/></g></g><path class="cls-7" d="M325.64,192.46C341.7,155.36,354.7,120,355.44,118l-3.31-3.36c-.23.61-26.1,69.53-46.57,110.52-1.83,3.65-3.79,7.24-6,11a498.36,498.36,0,0,0-31.25,63.2c-1.62,3.87-12.3,29.7-23,64.54l3.78,1.63c9.78-31.94,23.82-65.43,23.92-65.67a404.33,404.33,0,0,1,25.08-50.74c3.18-5.38,6.21-10.94,9-16.51,6.28-12.58,12.62-26.5,18.54-40.19"/><path class="cls-8" d="M329.41,194.09c16.06-37.09,29.06-72.42,29.8-74.43l-3.31-3.36c-.22.61-26.11,69.55-46.57,110.52-1.83,3.64-3.79,7.24-6,11A497.28,497.28,0,0,0,272.07,301c-1.63,3.88-12.3,29.72-23,64.54l3.77,1.63c9.78-31.94,23.82-65.43,23.92-65.66a403.25,403.25,0,0,1,25.09-50.75c3.18-5.38,6.21-10.94,9-16.51,6.29-12.58,12.62-26.5,18.54-40.19"/><path class="cls-9" d="M333.18,195.72c16.06-37.1,30.53-71.79,31.27-73.8l-4.79-4c-.22.61-26.1,69.53-46.57,110.52-1.83,3.65-3.79,7.25-6,11a497,497,0,0,0-31.24,63.2c-1.63,3.88-12.3,29.71-23,64.54l5.68,1.35c9.79-31.94,21.91-65.15,22-65.38a403.57,403.57,0,0,1,25.08-50.74c3.18-5.37,6.2-10.93,9-16.51,6.28-12.57,12.62-26.5,18.54-40.18"/><path class="cls-10" d="M337.32,197.51c16.06-37.09,29.06-72.43,29.8-74.43l-3.31-3.36c-.22.61-26.1,69.53-46.57,110.52-1.83,3.65-3.79,7.24-6,11A497.43,497.43,0,0,0,280,304.44c-1.63,3.88-12.3,29.71-23,64.54l4,1.14c9.78-31.94,23.6-64.93,23.7-65.16a403.09,403.09,0,0,1,25.09-50.75c3.18-5.38,6.2-10.94,9-16.51,6.28-12.58,12.62-26.5,18.54-40.19"/><path class="cls-11" d="M340.72,199c16.06-37.1,29.07-72.43,29.81-74.43l-3.31-3.36c-.23.61-26.1,69.53-46.58,110.52-1.82,3.64-3.79,7.25-6,11a498.78,498.78,0,0,0-31.24,63.19c-1.63,3.88-12.3,29.71-23,64.54l3.76,1.33c9.79-31.94,23.84-65.13,23.94-65.35a403.11,403.11,0,0,1,25.08-50.75c3.18-5.38,6.21-10.94,9-16.51,6.28-12.58,12.62-26.5,18.54-40.19"/><path class="cls-12" d="M344.07,200.43c16.06-37.1,29.06-72.43,29.8-74.43l-3.31-3.36c-.23.61-26.1,69.53-46.57,110.52-1.82,3.64-3.79,7.25-6,11a497.08,497.08,0,0,0-31.24,63.19c-1.63,3.88-12.3,29.71-23,64.54l3.47,2.24c9.78-31.94,24.12-66,24.22-66.27a402.3,402.3,0,0,1,25.09-50.74c3.18-5.39,6.21-10.95,9-16.51,6.29-12.58,12.62-26.5,18.54-40.19"/><path class="cls-1" d="M334.14,153.37s-22.4,84.73-42.27,89.12l18.51,15.71s21.46-14.37,45.69-94.83L342.8,141.8Z"/><path class="cls-13" d="M348.27,435.69s-12.43-3.7-24.64-6.32-19.51-6.71-22.44.15,4.92,15.17,15.23,24.43,19.33,5.95,22.64,7.87c4.39,5.84,14.95,6.17,20.1,2.18,2.46-1.91,3.89-2.91,4-11.74.09-5.22.3-10,.3-10Z"/><path class="cls-14" d="M339.91,206.3s-6.6,42.21-8,60.67-6.42,43.61-5.61,50.8c.68,6.11-.77,74.19-1.14,94.86-.07,3.66,2.29,6.09,2.42,6.75,1.3,6.72-3.42,5.8-3.77,8.4-.72,5.37,2.54,9.84,12,12.9,14,4.55,30.05,4.13,30.05,4.13S374,399.58,368,342.61c-2.71-26,14.07-94.59,12.6-100.65s-40.72-35.66-40.72-35.66"/><path class="cls-13" d="M445.07,409.65c5.76,2.6,15,10.24,18.55,16,.91,10.23-6.57,18.77-6.57,18.77a101,101,0,0,1,0,22.5c-.61,4.82-7,14.73-11.48,20.37-6.07,7.66-10.74,10-12.63,4.58-1.31-3.72-2.94-27.53-5.11-39.64a183.16,183.16,0,0,0-5-21.1Z"/><path class="cls-7" d="M410.33,199.77s13,27.13,13.48,45.2,4.28,45.58.89,55.38a120.43,120.43,0,0,0-6,27.66s9.59-.25,6.33,7,5.1,17.38,13.24,34.63,17,42.72,17,42.72a46.64,46.64,0,0,1-7,22.59c-8.12,12.81-22.78,19-22.78,19s-13-33.59-23.43-56.57c-11.41-25.22-23.56-42.1-25.65-54.39-2.35-13.79-6.08-48.1-9-76.44-17.94-9.42-15.11-54.27-15.11-54.27Z"/><path class="cls-15" d="M307.4,71.57a57.42,57.42,0,0,1-6.61-20.46c-1-8.88-1.07-.43-6-11.35-1.38-3.07-4-6.86-2.92,5.74C287.23,46.93,276.67,35,276.67,35s-9.52-2.78-8.53,7.86c.55,5.92,2,10.44,8.52,17.61C280.41,64.53,287,65,291.88,74c5.89,11,11.58,23.1,11.58,23.1l9.65-15.77Z"/><path class="cls-16" d="M373.18,61.41s-18.42,6.36-27.31,25.18-12.18,25.53-12.18,25.53L307.33,69.41s-13.8,9.1-15.46,17.93c2.45,9.37,6,5.46,3.53,22.49-.8,5.48,6.47,11.06,17.7,23.65,6.79,7.61,18.23,18.41,21,19.91,9.63,5.11,14.67.11,21.46-2.22,8.77-3,17.58-15.29,17.58-15.29Z"/><path class="cls-17" d="M405,77.36s17.65,1.3,25.87,16.12c3.06,5.5,8.42,7.14,11.6,9.68,10.33,8.27,25.36,16.3,35.51,28.31,13.15,15.56,30.21,24.36,34.59,38,1.39,4.33-1.9,8.54-5.79,18.31-3.48,8.79-7.58,10.46-17.17,9.95-8.76-.47-9.69-17.76-31-31.1-15-9.38-42.87-24.55-49.44-27.57s-19.18-2.37-17-23.33S405,77.36,405,77.36"/><path class="cls-17" d="M365.47,66.88s-5.88,2.52-16.17,35.73C341,129.52,343.53,149,341,172.19c-1,9.37-13.9,10.22-7.09,23.13,4.47,8.46-2.38,15-1.09,22.89,0,0,9.78,17.23,13.07,21.88,4.14,5.84,10.21,14,27.31,8.58,16.48-5.21,27.75-24.44,32.73-25.69,12.46-3.12,17.9,22,17.9,22,.62-4.34,5.16-10.56,2.19-25.11-2.74-13.42-7.94-36.93-6.85-48.51,1.27-13.33,7.67-49.85,7.67-57.34s9-8.36-5.89-23.82-41-28-55.47-23.3"/><path class="cls-15" d="M381.37,14.84c15.58,2.66,15,24,14.15,38-3.18,3.45-10.25,10.87-14.27,13.07-7.88,4.31-15.84,8.1-15.84,8.1-.37.13-11,1.58-14.46-2.41-3.94-4.59-6.57-17-6.68-26.37-.06-4.25.61-8.75,1.6-15.39,1.67-11.24,13-18.81,35.5-15"/><path class="cls-15" d="M400.84,83l0-.07c.06,0,0,.07,0,.07"/><path class="cls-18" d="M393.49,57.5c-.64,11.72,7,24.75,7.31,25.4-.22.07-1.73,1.69-11.23,16-17.31,26-21.91,19.65-21.91,19.65s4.07-21.46,3.2-28.56a99.16,99.16,0,0,0-3.11-17.12s5.61-2.66,13.5-7c4-2.2,12.63-15.41,12.25-8.38"/><path class="cls-16" d="M368.84,77.36s-6.21,2.06-7.86,11c-1.78,9.73-5.76,15.16-4.74,18.42,4.37-2.19,8.77-7.47,8.77-7.47s-3.08,11.85-.38,16.25c3,4.93,5.13,14.25,5.13,14.25S370.92,100.1,370.9,95a95,95,0,0,0-2.05-17.67"/><path class="cls-19" d="M396.93,56.41c2.16-6.61,9.19-12.26,7.77-25.24s-8.16-18.93-11.45-21.66-11.61-7.6-18.54-8.11c-11.29-.84-24.43,2.38-28.42,5.87-4.68,4.08-3.74,12.49-1.39,21.54,2,3.09,5.46,0,12.72,5.71,2.29,1.8,8.2,11.9,8.2,11.9s4.24-9.91,8.74-5.49c3.35,3.29,2.45,7.83.59,11.12,7.49,13.9,19.72,16.49,19.72,16.49s1.31-9.8,2.07-12.12"/><path class="cls-15" d="M507.14,179.2c5.14-3,22.95,9.49,29,13.49s4,6.32,1.28,10.18c-.69,1,.42,3.58-.55,4.93-1.4,1.94-2.78.92-3.65,5.53-.44,2.31-3.47,0-5.3,4.15-1.92,4.38-7.86,2-11.33-1.28-2.2-2.09-11.1-10.58-15.7-16.42-2.64-3.35-4.2-7.63-4.2-10.42,0-7.67,10.47-10.15,10.47-10.15"/><path class="cls-16" d="M514.93,180.22s-6.21-7.3-9.31-9.86c-4.39.37-7.47,2.08-11.87,8.37-4,5.68-6,9-2,13.18a83,83,0,0,0,9.13,7.87s2.78-12.41,14.06-19.55"/><path class="cls-16" d="M455.22,155.56S444.7,144.28,434,139.68a123.15,123.15,0,0,0-17.16-6.21s8.35,7.57,15.61,11.69c7.6,4.31,22.74,10.41,22.74,10.41"/><path class="cls-16" d="M429.54,125.32c8.91,1.71,20.2,13.08,20.2,13.08s-14.15-5.75-19.54-7.76c-6.52-2.42-18.05-3.42-18.05-3.42s4.72-4.35,17.39-1.91"/><path class="cls-16" d="M393.67,67.83c1.11-1.71,3.43-5.49,8.21,0,5,5.69,5.85,9.76,5.85,9.76a145.25,145.25,0,0,1-11.88,14.67c-4.4,4.74-6.57,13.27-13.51,19.48-3.53,3.16-5.73,7.6-9.17,12.84l-3.43,5.24s-1.43-18.82,1.11-24.38S379.72,94.68,384.24,90s6.18-17.12,9.44-22.14"/><path class="cls-16" d="M398.6,209.59s-7,17.38-17.75,22.86-21,0-21,0a47.91,47.91,0,0,0,19.35-6.58c9.5-5.84,19.35-16.28,19.35-16.28"/><path class="cls-16" d="M383.3,213.32s-11.6,12.11-20.24,10.14-19.53-13.88-19.53-13.88,13.2,7,19.53,6.71,20.24-3,20.24-3"/><path class="cls-16" d="M345.87,170.15s5.65,11.17,10.21,18.1,13.28,11.52,13.28,11.52-10.72,2.84-16.48-7.08-7-22.54-7-22.54"/><path class="cls-19" d="M364.62,52.53c-1.13,6.46,6.24,16,8.53,17.62-9.66,8.52-19,9.36-21.59,7.3-4-3.11-4-13.23-4-13.23s6,1.83,8.51,0,2.86-21.51,7.41-23.79S367,44.21,367,44.21s-1.12,1.38-2.34,8.32"/><path class="cls-8" d="M312.73,103.09c5-3.15,15.73,9.51,11.13,14.1s-12.27-.55-12.53-5-2.65-6.6,1.4-9.15"/><path class="cls-15" d="M308.17,110.32c2.46-1.56,14.16-11,19.1-14.91,8.1-6.46,17.51,5.63,23.26,8.25s8.82,12.45,7.47,19.79-8.72,4.83-11.09,2.24c-4.57-5-3.16-9.27-8.77-13.35-7.53-5.48-8.32-3.13-13,.74-1.5,1.26-5.8,4.49-9.52,8.18-1.19-5.33-7.25-5.41-7.48-10.93"/><path class="cls-13" d="M183.13,354.67c-.23,3.33-3.17,12.85,2.16,17.38,11.18,9.49,12.46,17.69,4.88,21.2-17.07,7.9-28.57-7.63-30.58-15.05s0-29.88,0-29.88Z"/><path class="cls-19" d="M248.63,191.39s5.5,37.11-6.36,69-33.1,48-41.82,66.74-15.77,42-15.77,42-11.79,5.38-22.64,1.66-11-14.8-11-14.8,7.49-43.09,15.16-57.3c11.45-21.21,26.3-32.15,27.65-42.36s1.42-55.34,1.42-55.34Z"/><path class="cls-13" d="M231.66,402.12s-8.23,4.58-11.36,11.37.48,15.7.48,15.7-.18,3,5.13,5.85c4.26,2.33,10.42,2.47,10.42,2.47s8.29,9.39,17.3,14.16c10.43,5.54,15.12,4.66,23.85.85,6.61-2.88,6.51-9.86,3.55-13.65-8.08-10.34-19.6-17-28.58-25.12-4.78-4.34-20.79-11.63-20.79-11.63"/><path class="cls-19" d="M166,173.55s-2.72,19,0,46.21,26.3,82.27,27.65,97.86,5.33,57.66,11.75,79.21,11.3,26.92,11.3,26.92,16.54,12.13,29.34,6c14.18-6.79,14.86-19.41,14.86-19.41s-21.36-79.25-30.49-118.13-20.55-102-20.55-102Z"/><path class="cls-18" d="M46.22,47.49S29,42.67,23.84,36.6,13.86,19.51,11.05,18C6.58,15.5-2.1,18.7,1.44,30.53s8,15.51,8.66,19S6.58,52.81,2.74,55.9-.11,61,1,62.56s3.68-.86,7-1.82c1.85-.53,8.89,1,15.1-.48s13.84,1.93,18,1.92,5.11-14.7,5.11-14.7"/><path class="cls-8" d="M43.42,42.93s-10.93-1.55-11.73-1.44S25.2,48.67,26.6,55.21L28,61.74,42,64.9Z"/><path class="cls-9" d="M40.27,41.49c10.06-4.15,25.69.21,40.5,2.44,17,2.56,36.34,6.21,45.05,6.62,16.32.76,19.43,5.88,27.19,5.46s22.53-10,38.06-3.14a150.46,150.46,0,0,1,14.57,7.75S240.57,66.56,248.57,74c5.36,5,12.23,21.13,18.08,29.08,14.14,19.19,34.74,29.28,34,44.39-.45,8.72-16.85,20.1-22.16,19.26-7.07-1.11-8.56,2.81-18.66-9-4.68-5.48-9.56-16.89-13.59-23.38-.21,10-1.47,16.42-.68,27.23,1.4,19.06,6.29,33.48,0,38-18.62,13.31-59.66,9.61-75.6-8.17-10.52-11.74-2.77-19.86-4.52-29.82-1.89-10.75-3-23.33-3.85-32.73-1.55-18.08-6.86-25.1-10.1-27.25-8.36-5.55-46.54-16.06-58.54-20.08-13.59-4.54-37.85-5-53-13.11C28.42,62.25,29.35,46,40.27,41.49"/><path class="cls-15" d="M226.91,64.6s.31,11.93,0,20.66c-3,7-4.38,18.41-14.13,26.31C204,98.83,200.22,82.42,195.23,72.69c7-13.4,5.56-31.2,5.56-31.2Z"/><path class="cls-8" d="M231,62.55s7.73,11.17,9.91,15.9c2.86,6.2.38,12.69.38,12.69a17.94,17.94,0,0,0-8.84-2c-4.54.4-11.34,18.68-13,19.49a4.7,4.7,0,0,1-3.56,0S227.37,79.57,225.11,70,231,62.55,231,62.55"/><path class="cls-8" d="M203.86,58.81s0,12.66,0,19.87c0,6.78,2.55,19.5,4.48,25.4-9.16-4.41-11.82-11.88-12.27-24.64-.06-1.67,1-7.67-3.2-7.1a35.63,35.63,0,0,0-8.19,2.25s2.27-12.52,8.19-17.54,10.43-5.57,10.43-5.57Z"/><path class="cls-18" d="M201.43,55.66c5,10.19,18,16.88,23.91,18.4,8.32,2.13,19-15.19,17.86-32-.29-4.47-.31-12.32-2.52-16.35C230.62,7.4,207.45,13.4,200.77,21c-8.71,9.88-5,23.2.66,34.67"/><path class="cls-19" d="M242.79,22.8s-2.67,8.72-11.33,10.57c-9.2,2-21.55-3.8-21.55-3.8s-4.4,6.86-3.75,10.16c-5.46-1.57-8.08,6.26-8.08,6.26s-6.31-7.39-3.6-19.93c1.24-5.76,3.67-14.07,12-17.27a88.08,88.08,0,0,1,9.78-2.6A22.71,22.71,0,0,0,226.91,0s1.08,2.28.75,7.66a64.2,64.2,0,0,0,8.3-7s1.79,5.7,1,9.43A13.56,13.56,0,0,1,243.68,8s.47,11.05-.89,14.79"/><path class="cls-8" d="M178,135.36s7.91,18.59,13.17,29.87S210,191.39,210,191.39s-18.09-5.85-26.36-23.15A60.19,60.19,0,0,1,178,135.36"/><path class="cls-8" d="M196.52,134.35s17.31,22.63,23.75,34.08a139.33,139.33,0,0,1,10.29,24A114.41,114.41,0,0,1,208,164.13c-9.91-17.52-11.47-29.79-11.47-29.79"/><path class="cls-8" d="M154.07,104.09s-2.85-15-8.2-22.56-10.15-9.85-10.15-9.85,3.21,10,5.83,14,3.35,5.46,3.35,5.46-4.38-5.28-14.82-5.46a70.15,70.15,0,0,0-17.8,1.82s37,12.34,41.79,16.59"/><path class="cls-9" d="M269,135.36c3.08-4.28,26.88-19.59,35.71-26.34,1.88-1.44,5-3.38,8-5.92.09,4.94,3.43,14.92,11.13,14.1-2.72,2.74-4.83,3.41-7.45,6.45-.66,9.29-3.74,16-11.92,24.57-3.3,3.45-10.27,12.07-18.45,16.08-3.72,1.83-9.07,2.86-15.57,0-5.9-2.59-.72-20.7-2-26.34a3.22,3.22,0,0,1,.54-2.61"/><path class="cls-8" d="M284,123.66c-.35.25-5.42,2-11.48,9.53s-10.2,10.37-10.2,10.37a55,55,0,0,1,7.86-14.28c5-6.15,13.82-5.62,13.82-5.62"/><path class="cls-8" d="M277,121.55a13.2,13.2,0,0,0-7.13,0,53.53,53.53,0,0,0-10,4,15.81,15.81,0,0,0,9,0,40.4,40.4,0,0,0,8.13-4"/><path class="cls-8" d="M247.46,99.94s4.54,12.14,4.2,21.32-1.76,20-1.76,20l-3.71-6.93s.05-8.33,0-19,1.26-15.41,1.26-15.41"/><path class="cls-8" d="M316.41,123.65s-3,1.31-8.24-3c-4-3.32-4.2-7-4.2-7s-4.44,5.28,2.45,11.57c5.08,4.63,9.32,4,9.32,4Z"/><path class="cls-7" d="M464.08,272.53C479,297,491,320.94,491.63,322.3l-3.52,3.63c-.2-.42-24-47-43.29-73.21a81.24,81.24,0,0,0-5.71-6.88,225.62,225.62,0,0,1-29.47-40.5,335.13,335.13,0,0,1-20.95-44l3.92-2.4c8.75,22.24,21.79,44.45,21.89,44.6A182.92,182.92,0,0,0,438.15,236a121,121,0,0,1,8.54,10.34c5.94,8,11.87,17.12,17.39,26.14"/><path class="cls-8" d="M468,270.13c15,24.45,26.87,48.41,27.55,49.77L492,323.53c-.21-.42-24-47-43.29-73.21a83,83,0,0,0-5.72-6.89,225.3,225.3,0,0,1-29.47-40.49,335.79,335.79,0,0,1-21-44l3.92-2.4c8.75,22.24,21.79,44.45,21.88,44.6a182.51,182.51,0,0,0,23.66,32.52A122.56,122.56,0,0,1,450.62,244c5.94,8,11.86,17.12,17.38,26.14"/><path class="cls-9" d="M471.92,267.73c15,24.45,28.41,47.47,29.08,48.83l-5.05,4.56c-.21-.42-24-47-43.29-73.21a82.22,82.22,0,0,0-5.71-6.88,225.3,225.3,0,0,1-29.47-40.5,335.22,335.22,0,0,1-20.95-44l5.86-2.74c8.75,22.24,19.85,44.79,19.94,44.95A182.86,182.86,0,0,0,446,231.25a121.93,121.93,0,0,1,8.54,10.34c5.94,8,11.86,17.12,17.38,26.14"/><path class="cls-10" d="M476.23,265.1c15,24.45,26.87,48.41,27.55,49.76l-3.52,3.63c-.21-.42-24-47-43.29-73.21a81.24,81.24,0,0,0-5.71-6.88,225.53,225.53,0,0,1-29.47-40.5,335,335,0,0,1-20.95-44l4.12-2.07c8.75,22.24,21.59,44.12,21.68,44.27a183,183,0,0,0,23.66,32.52A122.56,122.56,0,0,1,458.84,239c5.94,8,11.87,17.13,17.39,26.14"/><path class="cls-11" d="M479.76,262.94c15,24.45,26.88,48.41,27.55,49.77l-3.52,3.63c-.21-.42-24-47-43.29-73.21a81.89,81.89,0,0,0-5.72-6.89,226,226,0,0,1-29.47-40.49,334.41,334.41,0,0,1-20.95-44l3.9-2.16c8.75,22.24,21.81,44.21,21.9,44.36a182.8,182.8,0,0,0,23.66,32.52,122.56,122.56,0,0,1,8.54,10.34c5.94,8,11.86,17.12,17.38,26.14"/><path class="cls-12" d="M483.24,260.81c15,24.45,26.87,48.41,27.55,49.77l-3.52,3.63c-.21-.42-24-47-43.29-73.21a82.84,82.84,0,0,0-5.72-6.89,225.7,225.7,0,0,1-29.47-40.49,335.5,335.5,0,0,1-20.95-44l3.64-2.79c8.75,22.24,22.08,44.84,22.16,45a182.59,182.59,0,0,0,23.66,32.52,122.56,122.56,0,0,1,8.54,10.34c5.94,8,11.87,17.12,17.39,26.14"/><path class="cls-7" d="M397.74,189c-.85,28.66-4,55.23-4.17,56.74l-4.93,1.11c.06-.46,5.67-52.45,3.82-85a80.91,80.91,0,0,0-1-8.89,225.72,225.72,0,0,1-2.51-50,334.47,334.47,0,0,1,6.54-48.3l4.59.14C395.23,78.24,394,104,394,104.15a183.6,183.6,0,0,0,2,40.16,120.79,120.79,0,0,1,1.5,13.33c.57,10,.57,20.83.25,31.39"/><path class="cls-8" d="M402.33,189.17c-.85,28.66-4,55.23-4.17,56.74L393.23,247c.06-.46,5.67-52.47,3.82-85a81.31,81.31,0,0,0-1-8.89,225.29,225.29,0,0,1-2.51-50,334.32,334.32,0,0,1,6.54-48.3l4.59.14c-4.84,23.41-6.08,49.13-6.09,49.31a183.7,183.7,0,0,0,2,40.16,121.06,121.06,0,0,1,1.5,13.33c.57,10,.56,20.83.25,31.39"/><path class="cls-9" d="M406.92,189.31c-.85,28.66-2.2,55.28-2.38,56.79l-6.72,1.06c.06-.46,5.67-52.45,3.82-85a80.91,80.91,0,0,0-1-8.89,225.18,225.18,0,0,1-2.51-50A334.47,334.47,0,0,1,404.67,55l6.41.91c-4.85,23.41-7.9,48.35-7.9,48.54a183.62,183.62,0,0,0,2,40.16,122,122,0,0,1,1.5,13.33c.57,10,.56,20.83.25,31.39"/><path class="cls-10" d="M412,189.46c-.85,28.65-4,55.22-4.17,56.73l-4.93,1.11c.06-.46,5.67-52.45,3.82-85a80,80,0,0,0-1-8.89,225.25,225.25,0,0,1-2.5-50,334.28,334.28,0,0,1,6.54-48.29l4.58.52c-4.84,23.41-6.07,48.75-6.08,48.93a183.91,183.91,0,0,0,2,40.16,123.34,123.34,0,0,1,1.5,13.33c.57,10,.56,20.83.25,31.39"/><path class="cls-11" d="M416.11,189.58c-.85,28.66-4,55.23-4.17,56.74L407,247.42c.06-.46,5.67-52.45,3.82-85a81.31,81.31,0,0,0-1-8.89,225.6,225.6,0,0,1-2.51-50,334.29,334.29,0,0,1,6.54-48.3l4.44.33c-4.85,23.4-5.93,48.94-5.94,49.11a183,183,0,0,0,2,40.16,122.31,122.31,0,0,1,1.5,13.33c.57,10,.56,20.83.25,31.39"/><path class="cls-12" d="M420.19,189.7c-.85,28.66-4,55.23-4.17,56.74l-4.93,1.11c.06-.46,5.67-52.45,3.82-85a80,80,0,0,0-1-8.89,225.63,225.63,0,0,1-2.51-50,334.29,334.29,0,0,1,6.54-48.3L422.5,55c-4.84,23.41-6.06,49.61-6.06,49.79a183,183,0,0,0,2,40.16,123.58,123.58,0,0,1,1.5,13.33c.57,10,.56,20.83.25,31.39"/><path class="cls-1" d="M393.67,67.83l-1.07,91.1s-7.92,26.91,43.44,81.94c0,0,18.22,11.46,16.34,28.4s19.28-4.88,19.28-4.88l7.28-6.19L445.46,213a64.41,64.41,0,0,1-13.88-24.53C425,167,413.95,126.89,416.87,111.57c0,0,9.58-45.74-13.67-45.75a27.28,27.28,0,0,0-9.53,2"/></g></g></g></svg>