<svg xmlns="http://www.w3.org/2000/svg" viewBox="0 0 334.57 498.11"><defs><style>.cls-1{fill:#1c3c50;}.cls-1,.cls-10,.cls-11,.cls-12,.cls-2,.cls-3,.cls-4,.cls-5,.cls-6,.cls-7,.cls-8,.cls-9{fill-rule:evenodd;}.cls-2{fill:#305a75;}.cls-3{fill:#25475d;}.cls-4{fill:#9d9c9c;}.cls-5{fill:#bcc7c9;}.cls-6{fill:#bebdbd;}.cls-7{fill:#fbb016;}.cls-8{fill:#fdbe35;}.cls-9{fill:#d6d1d0;}.cls-10{fill:#e03c28;}.cls-11{fill:#f05f51;}.cls-12{fill:#f38076;}</style></defs><title>Asset 9@2</title><g id="Layer_2" data-name="Layer 2"><g id="Layer_1-2" data-name="Layer 1"><polygon class="cls-1" points="287.68 285.65 240.43 312.94 240.05 313.18 239.69 313.45 239.34 313.75 239 314.09 238.68 314.45 238.39 314.83 238.1 315.25 237.84 315.67 237.61 316.11 237.39 316.54 237.22 317.01 237.06 317.45 236.95 317.91 236.85 318.37 236.79 318.81 236.77 319.26 236.77 333.85 236.78 334.24 236.83 334.61 236.93 334.95 237.04 335.25 237.19 335.54 237.35 335.77 237.54 335.98 237.76 336.15 237.84 336.21 280.99 361.11 281.08 361.17 280.99 361.11 280.77 360.94 280.58 360.74 280.42 360.5 280.28 360.22 280.16 359.93 280.08 359.57 280.02 359.21 280.01 358.82 280.01 344.23 280.04 343.79 280.09 343.33 280.19 342.89 280.3 342.42 280.45 341.96 280.64 341.51 280.84 341.07 281.08 340.63 281.34 340.22 281.63 339.8 281.92 339.41 282.24 339.06 282.57 338.72 282.93 338.41 283.3 338.14 283.67 337.9 330.92 310.63 331.28 310.43 331.66 310.28 332 310.19 332.34 310.13 332.65 310.12 332.96 310.17 333.24 310.24 333.5 310.36 290.28 285.4 290.01 285.27 289.73 285.2 289.43 285.16 289.09 285.18 288.77 285.21 288.41 285.32 288.06 285.47 287.68 285.65"/><path class="cls-2" d="M330.92,310.63,283.68,337.9a7.45,7.45,0,0,0-2.59,2.73,7.56,7.56,0,0,0-1.07,3.61v14.58a2.63,2.63,0,0,0,1,2.3l.1.05a2.58,2.58,0,0,0,2.59-.26l47.24-27.27a7.72,7.72,0,0,0,2.58-2.74,7.47,7.47,0,0,0,1.07-3.59V312.73a2.54,2.54,0,0,0-1.07-2.36h0a2.56,2.56,0,0,0-2.58.26"/><polygon class="cls-3" points="237.5 316.33 280.73 341.3 280.85 341.07 281.08 340.63 281.35 340.21 281.63 339.8 281.92 339.41 282.24 339.05 282.57 338.72 282.93 338.41 283.3 338.14 283.67 337.91 330.92 310.63 331.28 310.43 331.66 310.27 332 310.19 332.34 310.13 332.67 310.12 332.96 310.16 333.24 310.24 333.51 310.38 290.28 285.42 290 285.28 289.73 285.19 289.43 285.16 289.11 285.17 288.77 285.21 288.43 285.32 288.06 285.46 287.68 285.65 240.43 312.94 240.05 313.18 239.69 313.45 239.34 313.75 239.02 314.09 238.68 314.45 238.39 314.84 238.1 315.25 237.84 315.66 237.61 316.11 237.5 316.33"/><polygon class="cls-4" points="301.74 47.61 287.32 39.29 286.99 39.13 286.6 39.02 286.2 38.97 285.78 38.98 285.31 39.05 284.85 39.19 284.37 39.38 283.85 39.63 272.65 46.12 272.14 46.44 271.66 46.8 271.19 47.21 270.74 47.67 270.31 48.15 269.91 48.66 269.52 49.2 269.17 49.78 268.87 50.35 268.59 50.96 268.32 51.56 268.13 52.17 267.97 52.8 267.84 53.4 267.77 54 267.75 54.6 267.75 311.91 282.14 320.24 282.14 62.93 282.19 62.33 282.26 61.73 282.38 61.11 282.54 60.49 282.75 59.88 282.99 59.28 283.27 58.68 283.59 58.09 283.94 57.53 284.31 56.98 284.71 56.48 285.14 55.98 285.59 55.54 286.07 55.12 286.56 54.77 287.06 54.45 298.28 47.96 298.78 47.71 299.26 47.5 299.73 47.38 300.19 47.31 300.62 47.29 301.02 47.35 301.39 47.46 301.74 47.61"/><path class="cls-5" d="M303.17,168.44V50.8a3.45,3.45,0,0,0-1.43-3.17h0a3.45,3.45,0,0,0-3.46.35l-11.22,6.48a10,10,0,0,0-3.46,3.65,10.13,10.13,0,0,0-1.44,4.83V320.24l21-12.13Z"/><polygon class="cls-6" points="270.4 48.04 284.8 56.37 285.14 55.98 285.6 55.53 286.06 55.12 286.56 54.75 287.06 54.44 298.28 47.96 298.77 47.7 299.26 47.51 299.73 47.37 300.19 47.31 300.62 47.3 301.01 47.34 301.39 47.45 301.74 47.62 287.32 39.28 286.99 39.13 286.6 39.02 286.2 38.97 285.77 38.98 285.31 39.05 284.85 39.18 284.36 39.39 283.86 39.64 272.65 46.12 272.14 46.44 271.66 46.8 271.19 47.21 270.74 47.67 270.4 48.04"/><polygon class="cls-7" points="61.26 200.16 52.55 195.14 270.75 69.16 279.46 74.18 61.26 200.16"/><polygon class="cls-8" points="61.26 200.16 279.46 74.18 279.46 158.83 61.26 284.81 61.26 200.16"/><path class="cls-2" d="M61.26,271.56l61.83-107.1L88.24,184.57a6.94,6.94,0,0,1-.59,1.34l-26.4,45.75Z"/><polygon class="cls-2" points="178.76 216.97 252.08 89.99 217.86 109.73 144.54 236.72 178.76 216.97"/><polygon class="cls-2" points="241.2 180.92 279.46 114.64 279.46 75.13 206.97 200.68 241.2 180.92"/><polygon class="cls-1" points="88.25 184.57 79.54 179.54 114.37 159.44 123.08 164.46 88.25 184.57"/><polygon class="cls-1" points="217.86 109.74 209.15 104.72 243.37 84.95 252.08 89.99 217.86 109.74"/><polygon class="cls-9" points="61.26 284.81 52.55 279.79 52.55 195.14 61.26 200.16 61.26 284.81"/><polygon class="cls-2" points="114.27 254.2 187.59 127.23 153.35 146.98 80.03 273.96 114.27 254.2"/><polygon class="cls-1" points="153.36 146.98 144.65 141.96 178.87 122.2 187.59 127.23 153.36 146.98"/><polygon class="cls-1" points="287.71 32.45 285.38 31.12 285.31 31.09 285.27 31.07 285.2 31.06 285.13 31.06 285.04 31.07 284.98 31.09 284.9 31.13 284.82 31.17 283.01 32.21 282.93 32.26 282.84 32.31 282.78 32.38 282.7 32.47 282.63 32.55 282.56 32.62 282.51 32.72 282.44 32.8 282.4 32.88 282.35 32.99 282.3 33.09 282.28 33.18 282.26 33.29 282.22 33.39 282.21 33.47 282.21 33.58 282.21 47.81 284.54 49.17 284.54 34.91 284.54 34.83 284.56 34.73 284.58 34.62 284.6 34.54 284.64 34.43 284.67 34.33 284.73 34.24 284.77 34.14 284.83 34.05 284.89 33.96 284.96 33.88 285.02 33.79 285.1 33.72 285.17 33.66 285.25 33.62 285.33 33.55 287.15 32.51 287.23 32.47 287.3 32.43 287.37 32.4 287.45 32.4 287.52 32.4 287.58 32.4 287.63 32.42 287.71 32.45"/><path class="cls-2" d="M287.94,35V33a.64.64,0,0,0-.22-.53.57.57,0,0,0-.56.05l-1.82,1.06a1.67,1.67,0,0,0-.56.59,1.75,1.75,0,0,0-.23.77V49.17l3.4-2Z"/><path class="cls-10" d="M284.06,39a19.49,19.49,0,1,0-19.5-19.5A19.49,19.49,0,0,0,284.06,39"/><polygon class="cls-1" points="50.9 422.37 3.65 449.63 3.29 449.88 2.91 450.14 2.56 450.45 2.23 450.78 1.91 451.15 1.6 451.54 1.32 451.95 1.07 452.37 0.83 452.81 0.61 453.25 0.44 453.7 0.29 454.15 0.16 454.61 0.08 455.06 0.02 455.53 0 455.97 0 470.55 0.01 470.94 0.06 471.31 0.15 471.65 0.26 471.95 0.4 472.24 0.57 472.47 0.76 472.68 0.97 472.85 1.07 472.9 44.22 497.8 44.31 497.86 44.22 497.8 44 497.64 43.8 497.44 43.65 497.2 43.49 496.93 43.39 496.63 43.29 496.27 43.25 495.92 43.24 495.52 43.24 480.93 43.25 480.49 43.31 480.03 43.41 479.58 43.52 479.12 43.69 478.66 43.85 478.21 44.06 477.76 44.31 477.32 44.56 476.91 44.84 476.5 45.15 476.12 45.47 475.75 45.8 475.42 46.16 475.11 46.51 474.84 46.89 474.6 94.14 447.32 94.51 447.13 94.87 446.98 95.23 446.89 95.57 446.83 95.88 446.82 96.18 446.87 96.46 446.94 96.73 447.07 53.49 422.1 53.23 421.98 52.96 421.9 52.65 421.86 52.33 421.87 51.99 421.93 51.64 422.01 51.27 422.16 50.9 422.37"/><path class="cls-2" d="M94.14,447.33,46.89,474.6a8,8,0,0,0-3.66,6.33v14.58a2.64,2.64,0,0,0,1,2.29l.1.06a2.53,2.53,0,0,0,2.58-.26l47.25-27.28a7.51,7.51,0,0,0,2.58-2.73A7.42,7.42,0,0,0,97.8,464V449.43a2.56,2.56,0,0,0-1.08-2.36h0a2.6,2.6,0,0,0-2.59.27"/><polygon class="cls-3" points="1.35 451.91 44.59 476.87 44.85 476.51 45.15 476.12 45.48 475.74 45.79 475.42 46.15 475.11 46.51 474.84 46.88 474.61 94.14 447.33 94.51 447.13 94.87 446.97 95.22 446.89 95.57 446.83 95.89 446.83 96.19 446.87 96.46 446.94 96.73 447.06 53.49 422.1 53.23 421.98 52.94 421.89 52.64 421.86 52.33 421.87 51.99 421.92 51.65 422.01 51.27 422.16 50.9 422.37 3.65 449.63 3.29 449.88 2.91 450.14 2.57 450.45 2.23 450.78 1.91 451.16 1.6 451.54 1.35 451.91"/><polygon class="cls-4" points="64.96 184.31 50.55 175.99 50.2 175.82 49.83 175.72 49.41 175.67 48.99 175.68 48.55 175.74 48.06 175.88 47.58 176.08 47.08 176.33 35.86 182.82 35.37 183.13 34.87 183.5 34.41 183.91 33.95 184.37 33.52 184.85 33.13 185.37 32.75 185.9 32.4 186.48 32.09 187.05 31.8 187.65 31.56 188.26 31.35 188.87 31.19 189.5 31.06 190.1 30.98 190.7 30.96 191.29 30.96 448.61 45.37 456.93 45.37 199.63 45.41 199.02 45.47 198.42 45.61 197.81 45.76 197.19 45.97 196.57 46.22 195.98 46.49 195.38 46.81 194.79 47.15 194.23 47.54 193.68 47.94 193.18 48.37 192.68 48.83 192.24 49.3 191.82 49.78 191.46 50.28 191.14 61.49 184.66 61.99 184.41 62.49 184.2 62.95 184.07 63.41 184.01 63.83 183.99 64.24 184.05 64.61 184.16 64.96 184.31"/><path class="cls-5" d="M66.4,305.14V187.49A3.43,3.43,0,0,0,65,184.32h0a3.48,3.48,0,0,0-3.47.34l-11.21,6.48a10.09,10.09,0,0,0-3.48,3.65,10.23,10.23,0,0,0-1.43,4.84V456.93l21-12.13Z"/><polygon class="cls-6" points="32.02 187.19 46.43 195.5 46.5 195.38 46.81 194.79 47.15 194.22 47.54 193.68 47.95 193.18 48.37 192.69 48.83 192.24 49.29 191.83 49.77 191.46 50.28 191.14 61.49 184.66 61.99 184.41 62.48 184.21 62.95 184.07 63.41 184 63.83 183.99 64.24 184.05 64.62 184.15 64.95 184.31 50.55 175.99 50.21 175.82 49.83 175.72 49.41 175.67 48.99 175.68 48.54 175.75 48.06 175.88 47.58 176.08 47.09 176.33 35.86 182.81 35.37 183.13 34.87 183.5 34.41 183.92 33.95 184.36 33.53 184.84 33.13 185.35 32.75 185.91 32.41 186.48 32.09 187.05 32.02 187.19"/><polygon class="cls-1" points="51.09 169.6 48.76 168.27 48.69 168.24 48.64 168.23 48.57 168.21 48.51 168.21 48.42 168.23 48.36 168.25 48.28 168.28 48.2 168.32 46.38 169.36 46.3 169.42 46.22 169.48 46.15 169.55 46.08 169.61 46.01 169.69 45.93 169.78 45.89 169.86 45.82 169.95 45.78 170.05 45.72 170.15 45.68 170.24 45.66 170.33 45.63 170.44 45.6 170.53 45.59 170.64 45.59 170.74 45.59 184.97 47.92 186.32 47.92 172.07 47.92 171.98 47.93 171.89 47.96 171.78 47.98 171.69 48.01 171.59 48.05 171.48 48.11 171.39 48.14 171.3 48.21 171.2 48.27 171.13 48.34 171.03 48.4 170.96 48.48 170.88 48.55 170.82 48.63 170.76 48.7 170.71 50.52 169.67 50.6 169.61 50.69 169.59 50.75 169.57 50.83 169.56 50.9 169.56 50.96 169.56 51.02 169.57 51.09 169.6"/><path class="cls-2" d="M51.31,172.15v-2a.57.57,0,0,0-.22-.51h0a.55.55,0,0,0-.56.07l-1.82,1a1.63,1.63,0,0,0-.56.59,1.73,1.73,0,0,0-.22.77v14.25l3.39-2Z"/><path class="cls-10" d="M47.44,176.14a19.49,19.49,0,1,0-19.5-19.5,19.49,19.49,0,0,0,19.5,19.5"/><path class="cls-11" d="M49.63,172.36a16.74,16.74,0,1,0-16.74-16.75,16.74,16.74,0,0,0,16.74,16.75"/><path class="cls-12" d="M62.41,146.6c-4.43-5.83-11.24-4-11.24,3.15a7.64,7.64,0,0,0,7.63,7.63c6.91,0,6.73-6.71,3.61-10.79"/></g></g></svg>