<svg xmlns="http://www.w3.org/2000/svg" viewBox="0 0 403.23 500.83"><defs><style>.cls-1{fill:#748c92;}.cls-1,.cls-10,.cls-11,.cls-12,.cls-2,.cls-3,.cls-4,.cls-5,.cls-6,.cls-7,.cls-8,.cls-9{fill-rule:evenodd;}.cls-2{fill:#e4e9ea;}.cls-3{fill:#f7b019;}.cls-4{fill:#e59f24;}.cls-5{fill:#fdbe35;}.cls-6{fill:#405257;}.cls-7{fill:#9baeb1;}.cls-8{fill:#283539;}.cls-9{fill:#0090b5;}.cls-10{fill:#007997;}.cls-11{fill:#0099c1;}.cls-12{fill:#bcc7c9;}</style></defs><title>Asset 10@2</title><g id="Layer_2" data-name="Layer 2"><g id="Layer_1-2" data-name="Layer 1"><polygon class="cls-1" points="400.35 309.62 197.98 192.78 197.28 192.45 196.53 192.23 195.72 192.13 194.87 192.15 193.96 192.28 193.03 192.55 192.06 192.93 191.06 193.46 9.78 298.1 8.77 298.75 7.82 299.47 6.87 300.3 5.97 301.2 5.12 302.17 4.31 303.21 3.56 304.29 2.86 305.42 205.23 422.25 205.93 421.13 206.68 420.04 207.49 419.01 208.33 418.05 209.25 417.14 210.18 416.32 211.15 415.59 212.15 414.95 393.42 310.29 394.43 309.78 395.39 309.38 396.33 309.12 397.23 308.99 398.09 308.97 398.89 309.08 399.65 309.28 400.35 309.62"/><path class="cls-2" d="M403.23,315.94c0-3.11-1.11-5.3-2.88-6.32s-4.22-.89-6.92.67L212.15,414.95a19.85,19.85,0,0,0-6.91,7.3l0,0a20.09,20.09,0,0,0-2.87,9.65v61.94c0,3.12,1.11,5.31,2.89,6.32s4.21.88,6.91-.68L393.43,394.85a20.1,20.1,0,0,0,6.92-7.31v0a20,20,0,0,0,2.88-9.65Z"/><polygon class="cls-3" points="395.06 345.01 392.28 343.4 374.8 353.49 377.58 355.11 395.06 345.01"/><polygon class="cls-4" points="377.58 355.11 374.8 353.5 374.8 373.69 377.58 375.3 377.58 355.11"/><polygon class="cls-5" points="377.58 375.31 395.06 365.21 395.06 345.01 377.58 355.11 377.58 375.31"/><path class="cls-6" d="M222.55,454.06c-1.36.79-2.45.16-2.45-1.42a5.38,5.38,0,0,1,2.45-4.23l104.21-60.17c1.35-.78,2.45-.15,2.45,1.42a5.47,5.47,0,0,1-2.45,4.24Z"/><polygon class="cls-7" points="205.24 422.25 2.86 305.42 2.85 305.43 2.23 306.6 1.67 307.8 1.16 309.01 0.76 310.23 0.44 311.46 0.19 312.69 0.04 313.89 0 315.08 0 377.01 0.04 378.13 0.19 379.17 0.44 380.11 0.76 380.96 1.16 381.72 1.67 382.36 2.23 382.91 2.86 383.35 205.24 500.17 204.6 499.74 204.03 499.2 203.54 498.56 203.13 497.8 202.81 496.95 202.57 496.01 202.4 494.98 202.34 493.85 202.34 431.92 202.4 430.73 202.55 429.52 202.79 428.3 203.13 427.07 203.54 425.85 204.03 424.62 204.59 423.44 205.22 422.26 205.24 422.25"/><path class="cls-8" d="M321.85,391.08l4.91-2.83c1.35-.78,2.45-.15,2.45,1.42a5.47,5.47,0,0,1-2.45,4.24Z"/><polygon class="cls-9" points="369.85 359.57 367.06 357.97 349.58 368.06 352.36 369.67 369.85 359.57"/><polygon class="cls-10" points="352.36 369.66 349.58 368.07 349.58 388.26 352.36 389.86 352.36 369.66"/><polygon class="cls-11" points="352.36 389.86 369.85 379.77 369.85 359.57 352.36 369.66 352.36 389.86"/><polygon class="cls-1" points="400.35 214.49 197.98 97.67 197.28 97.34 196.53 97.11 195.72 97.02 194.87 97.02 193.96 97.17 193.03 97.41 192.06 97.82 191.06 98.33 9.78 202.98 8.77 203.63 7.82 204.36 6.87 205.18 5.97 206.09 5.12 207.05 4.31 208.08 3.56 209.17 2.86 210.31 205.23 327.14 205.93 326 206.68 324.92 207.49 323.89 208.33 322.92 209.25 322.01 210.18 321.19 211.15 320.47 212.15 319.84 393.42 215.17 394.43 214.65 395.39 214.26 396.33 213.99 397.23 213.87 398.09 213.85 398.89 213.95 399.65 214.16 400.35 214.49"/><path class="cls-2" d="M403.23,220.83c0-3.11-1.11-5.31-2.88-6.34s-4.22-.88-6.92.68L212.15,319.83a19.79,19.79,0,0,0-6.91,7.3l0,0a20.06,20.06,0,0,0-2.87,9.64v61.94c0,3.13,1.11,5.3,2.89,6.33s4.21.88,6.91-.68L393.43,299.72a20,20,0,0,0,6.92-7.3v0a20,20,0,0,0,2.88-9.64Z"/><polygon class="cls-3" points="395.06 249.89 392.28 248.28 374.8 258.38 377.58 259.99 395.06 249.89"/><polygon class="cls-4" points="377.58 259.99 374.8 258.39 374.8 278.57 377.58 280.18 377.58 259.99"/><polygon class="cls-5" points="377.58 280.18 395.06 270.09 395.06 249.89 377.58 259.99 377.58 280.18"/><path class="cls-6" d="M222.55,358.94c-1.36.78-2.45.16-2.45-1.42a5.45,5.45,0,0,1,2.45-4.24L326.76,293.1c1.35-.76,2.45-.13,2.45,1.42a5.41,5.41,0,0,1-2.45,4.24Z"/><polygon class="cls-7" points="205.24 327.13 2.86 210.31 2.85 210.32 2.23 211.47 1.67 212.66 1.16 213.88 0.76 215.12 0.44 216.34 0.19 217.57 0.04 218.78 0 219.97 0 281.9 0.04 283.01 0.19 284.04 0.44 284.99 0.76 285.84 1.16 286.6 1.67 287.25 2.23 287.78 2.86 288.22 205.24 405.06 204.6 404.63 204.03 404.07 203.54 403.43 203.13 402.68 202.81 401.84 202.57 400.89 202.4 399.87 202.34 398.73 202.34 336.79 202.4 335.6 202.55 334.41 202.79 333.17 203.13 331.95 203.54 330.73 204.03 329.51 204.59 328.32 205.22 327.15 205.24 327.13"/><path class="cls-8" d="M321.85,296l4.91-2.85c1.35-.76,2.45-.13,2.45,1.42a5.41,5.41,0,0,1-2.45,4.24Z"/><polygon class="cls-9" points="369.85 264.45 367.06 262.84 349.58 272.93 352.36 274.55 369.85 264.45"/><polygon class="cls-10" points="352.36 274.55 349.58 272.93 349.58 293.12 352.36 294.73 352.36 274.55"/><polygon class="cls-11" points="352.36 294.74 369.85 284.64 369.85 264.44 352.36 274.55 352.36 294.74"/><polygon class="cls-12" points="400.35 117.47 197.98 0.64 197.28 0.31 196.53 0.09 195.72 0 194.87 0.01 193.96 0.14 193.03 0.4 192.06 0.78 191.06 1.31 9.78 105.97 8.77 106.62 7.82 107.33 6.87 108.15 5.97 109.05 5.12 110.04 4.31 111.08 3.56 112.14 2.86 113.27 205.23 230.12 205.93 228.99 206.68 227.9 207.49 226.87 208.33 225.9 209.25 224.99 210.18 224.17 211.15 223.44 212.15 222.8 393.42 118.15 394.43 117.63 395.39 117.25 396.33 116.98 397.23 116.84 398.09 116.82 398.89 116.93 399.65 117.15 400.35 117.47"/><path class="cls-2" d="M403.23,123.81c0-3.13-1.11-5.32-2.88-6.34s-4.22-.88-6.92.68L212.15,222.8a19.9,19.9,0,0,0-6.91,7.31l0,0a20.06,20.06,0,0,0-2.87,9.64v61.94c0,3.12,1.11,5.3,2.89,6.32s4.21.89,6.91-.67L393.43,202.71a20.07,20.07,0,0,0,6.92-7.3h0a20,20,0,0,0,2.88-9.65Z"/><polygon class="cls-3" points="395.06 152.86 392.28 151.27 374.8 161.35 377.58 162.97 395.06 152.86"/><polygon class="cls-4" points="377.58 162.96 374.8 161.35 374.8 181.56 377.58 183.16 377.58 162.96"/><polygon class="cls-5" points="377.58 183.16 395.06 173.05 395.06 152.88 377.58 162.97 377.58 183.16"/><path class="cls-6" d="M222.55,261.92c-1.36.78-2.45.15-2.45-1.41a5.38,5.38,0,0,1,2.45-4.24L326.76,196.1c1.35-.77,2.45-.14,2.45,1.42a5.43,5.43,0,0,1-2.45,4.24Z"/><polygon class="cls-7" points="205.24 230.12 2.86 113.28 2.85 113.29 2.23 114.46 1.67 115.66 1.16 116.87 0.76 118.11 0.44 119.31 0.19 120.55 0.04 121.75 0 122.94 0 184.87 0.04 186 0.19 187.04 0.44 187.98 0.76 188.84 1.16 189.59 1.67 190.22 2.23 190.77 2.86 191.21 205.24 308.04 204.6 307.6 204.03 307.05 203.54 306.41 203.13 305.66 202.81 304.82 202.57 303.88 202.4 302.83 202.34 301.71 202.34 239.78 202.4 238.59 202.55 237.39 202.79 236.15 203.13 234.93 203.54 233.72 204.03 232.49 204.59 231.3 205.22 230.13 205.24 230.12"/><path class="cls-8" d="M321.85,198.93l4.91-2.83c1.35-.78,2.45-.14,2.45,1.42a5.43,5.43,0,0,1-2.45,4.24Z"/><polygon class="cls-9" points="369.85 167.43 367.06 165.82 349.58 175.92 352.36 177.54 369.85 167.43"/><polygon class="cls-10" points="352.36 177.53 349.58 175.92 349.58 196.12 352.36 197.73 352.36 177.53"/><polygon class="cls-11" points="352.36 197.73 369.85 187.62 369.85 167.43 352.36 177.53 352.36 197.73"/></g></g></svg>