<svg xmlns="http://www.w3.org/2000/svg" viewBox="0 0 418 505.37"><defs><style>.cls-1{fill:#25475d;}.cls-1,.cls-2,.cls-3,.cls-4,.cls-5,.cls-6,.cls-7{fill-rule:evenodd;}.cls-2{fill:#1c3c50;}.cls-3{fill:#e4e9ea;}.cls-4{fill:#ef5041;}.cls-5{fill:#305a75;}.cls-6{fill:#c22b26;}.cls-7{fill:#dd3826;}</style></defs><title>Asset 8@2</title><g id="Layer_2" data-name="Layer 2"><g id="Layer_1-2" data-name="Layer 1"><polygon class="cls-1" points="28.66 503.9 6.51 491.11 3.79 488.89 1.74 485.72 0.46 481.66 0 476.77 0 186.86 0.46 181.44 1.74 175.9 3.79 170.37 6.51 165.02 9.78 159.99 13.55 155.44 17.71 151.55 22.17 148.46 30.04 143.91 37.93 139.36 45.8 134.82 53.67 130.27 61.54 125.73 69.41 121.18 77.3 116.63 85.16 112.07 93.04 107.53 100.93 102.98 108.79 98.43 116.67 93.89 124.54 89.34 132.41 84.81 140.29 80.25 148.17 75.7 156.05 71.16 163.92 66.61 171.8 62.06 179.67 57.52 187.54 52.97 195.41 48.41 203.29 43.88 211.18 39.33 219.05 34.78 226.92 30.23 234.79 25.68 242.68 21.15 250.54 16.6 258.42 12.05 266.3 7.51 274.16 2.96 278.63 0.91 282.79 0 286.56 0.19 289.83 1.42 311.98 14.21 308.7 12.97 304.94 12.79 300.77 13.69 296.32 15.74 288.45 20.29 280.58 24.83 272.7 29.39 264.83 33.93 256.94 38.48 249.07 43.03 241.2 47.57 233.32 52.11 225.45 56.67 217.57 61.2 209.71 65.76 201.82 70.3 193.94 74.85 186.07 79.4 178.19 83.95 170.32 88.49 162.44 93.04 154.57 97.58 146.7 102.13 138.81 106.67 130.95 111.22 123.06 115.77 115.19 120.32 107.32 124.86 99.45 129.41 91.58 133.97 83.69 138.51 75.82 143.05 67.95 147.6 60.08 152.15 52.19 156.69 44.31 161.25 39.87 164.34 35.71 168.23 31.93 172.78 28.66 177.8 25.94 183.16 23.89 188.69 22.6 194.23 22.15 199.63 22.15 489.56 22.6 494.44 23.89 498.51 25.94 501.68 28.66 503.9"/><polygon class="cls-2" points="47.52 466.61 25.38 453.82 39.98 445.39 47.2 441.23 54.41 437.06 61.63 432.9 68.83 428.73 76.04 424.57 83.24 420.4 90.47 416.25 97.68 412.08 104.89 407.91 112.11 403.76 119.32 399.59 126.53 395.42 133.74 391.26 140.95 387.09 148.17 382.92 155.37 378.76 162.59 374.6 169.8 370.43 177.01 366.28 184.23 362.11 191.43 357.94 198.65 353.78 205.88 349.62 213.07 345.44 220.3 341.29 227.5 337.13 234.72 332.96 241.94 328.8 249.14 324.63 256.36 320.46 263.57 316.31 264.24 315.82 264.89 315.23 265.46 314.52 265.96 313.76 266.38 312.93 266.71 312.08 266.91 311.23 266.97 310.38 266.97 302.09 266.97 293.79 266.97 285.5 266.97 277.2 266.97 268.91 266.97 260.62 266.97 252.33 266.97 244.04 266.97 235.74 266.97 227.43 266.97 219.14 266.97 210.84 266.97 202.55 266.97 194.25 266.97 185.97 266.97 177.67 266.97 169.38 266.97 161.09 266.97 152.79 266.97 144.48 266.97 136.2 266.97 127.89 266.97 119.6 266.97 111.31 266.97 103.02 266.97 94.72 266.97 86.43 266.97 78.14 266.97 69.84 266.97 61.55 266.97 53.25 266.97 44.96 266.91 44.2 266.71 43.57 266.38 43.09 265.97 42.74 288.12 55.53 288.55 55.89 288.86 56.36 289.06 56.99 289.13 57.74 289.13 66.03 289.13 74.33 289.13 82.62 289.13 90.92 289.13 99.21 289.13 107.5 289.13 115.8 289.13 124.09 289.13 132.39 289.13 140.68 289.13 148.98 289.13 157.27 289.13 165.57 289.13 173.87 289.13 182.16 289.13 190.46 289.13 198.75 289.13 207.05 289.13 215.34 289.13 223.64 289.13 231.94 289.13 240.23 289.13 248.53 289.13 256.82 289.13 265.12 289.13 273.41 289.13 281.7 289.13 290 289.13 298.3 289.13 306.59 289.13 314.88 289.13 323.17 289.06 324.02 288.86 324.86 288.55 325.73 288.12 326.55 287.61 327.31 287.03 328.02 286.4 328.61 285.72 329.1 278.5 333.25 271.3 337.42 264.08 341.59 256.87 345.74 249.66 349.91 242.43 354.08 235.24 358.24 228.01 362.4 220.79 366.57 213.59 370.73 206.37 374.9 199.16 379.06 191.95 383.21 184.75 387.39 177.53 391.55 170.32 395.71 163.11 399.88 155.9 404.05 148.68 408.2 141.47 412.37 134.26 416.53 127.04 420.69 119.83 424.86 112.62 429.02 105.4 433.19 98.2 437.36 90.98 441.53 83.78 445.68 76.56 449.85 69.34 454.02 62.14 458.17 47.52 466.61"/><path class="cls-3" d="M281.59,53.38c0-2.17-1.52-3.05-3.4-2Q162.79,118,47.39,184.67a7.65,7.65,0,0,0-3.4,5.91V456c0,2.16,1.54,3,3.4,2l230.8-133.24a7.58,7.58,0,0,0,3.4-5.91Z"/><path class="cls-4" d="M58.92,303.25l32.26-18.59,25.18-100.5c1.76-7,7.41-13.5,12.59-14.46,3.59-.67,6,1.46,6.62,5.11l27.2,122.51L186.54,175.8c1.34-6.93,6.76-13.77,12.07-15.29,3.58-1,6.2.63,7.13,3.9l16.79,42.31,40.69-23.56v22.91l-47.39,27.42c-4.07,2.45-8,1.82-9.47-2L198,210.38l-26.1,133.49h0a23.18,23.18,0,0,1-7.44,12.65c-5.34,4.49-10.65,3.65-11.86-1.81l-28.66-129-16.18,64.58h0c-1.33,5.29-5,10.68-9.38,13.2L58.92,326.15Z"/><path class="cls-5" d="M44.31,161.24l252-145.5c12.2-7,22.17-1.3,22.17,12.8V318.47c0,14.08-10,31.35-22.17,38.39q-126,72.79-252,145.51c-12.19,7-22.16,1.3-22.16-12.8V199.63c0-14.08,9.95-31.34,22.16-38.39M289.13,57.74c0-2.17-1.55-3.05-3.42-2L54.92,189a7.64,7.64,0,0,0-3.41,5.92V460.37c0,2.16,1.54,3.05,3.41,2Q170.3,395.72,285.72,329.1a7.63,7.63,0,0,0,3.42-5.93Z"/><polygon class="cls-6" points="402.02 232.66 362.76 210 359.47 208.77 355.98 208.04 352.3 207.79 348.49 207.99 344.54 208.67 340.49 209.8 336.41 211.36 332.27 213.35 328.12 215.75 323.97 218.56 319.87 221.73 315.86 225.3 311.92 229.22 308.12 233.5 304.47 238.12 300.99 243.06 297.74 248.33 294.7 253.89 291.93 259.74 289.45 265.88 287.27 272.29 285.46 278.94 284.01 285.84 323.26 308.5 324.71 301.6 326.54 294.95 328.7 288.54 331.18 282.41 333.95 276.55 336.98 270.97 340.25 265.72 343.72 260.77 347.37 256.16 351.17 251.89 355.1 247.96 359.12 244.39 363.21 241.21 367.36 238.41 371.5 236.01 375.65 234.02 379.76 232.47 383.8 231.34 387.73 230.66 391.56 230.44 395.23 230.69 398.73 231.43 402.02 232.66"/><polygon class="cls-7" points="309.53 286.83 270.29 264.16 267.02 262.68 263.55 261.74 259.91 261.33 256.09 261.45 252.18 262.06 248.15 263.14 244.04 264.69 239.91 266.67 235.76 269.07 231.61 271.86 227.51 275.03 223.47 278.56 219.53 282.44 215.71 286.63 212.04 291.13 208.55 295.9 205.26 300.94 202.19 306.23 199.39 311.73 196.88 317.44 194.66 323.34 192.79 329.39 191.29 335.58 190.19 341.91 189.51 348.34 189.27 354.86 189.47 359.06 190.01 363.04 190.89 366.79 192.1 370.31 193.6 373.64 195.41 376.76 197.47 379.68 199.78 382.43 202.36 385 205.11 387.4 208.08 389.63 211.22 391.71 214.53 393.67 253.76 416.34 250.46 414.39 247.32 412.3 244.36 410.06 241.59 407.66 239.04 405.09 236.72 402.36 234.66 399.42 232.86 396.31 231.34 392.99 230.13 389.45 229.25 385.7 228.71 381.73 228.53 377.51 228.75 371 229.44 364.57 230.55 358.25 232.06 352.05 233.9 345.99 236.12 340.1 238.63 334.4 241.43 328.88 244.5 323.61 247.8 318.58 251.29 313.79 254.97 309.29 258.78 305.11 262.72 301.23 266.76 297.7 270.87 294.52 275.01 291.72 279.16 289.34 283.3 287.35 287.41 285.82 291.42 284.73 295.35 284.1 299.15 284 302.81 284.4 306.29 285.34 309.53 286.83"/><path class="cls-4" d="M323.27,437.52C353.72,393.18,418,314.31,418,268.12c0-69.9-81.33-34.49-94.73,40.38-13.41-59.38-94.74-.88-94.74,69,0,46.18,64.27,50.86,94.74,60"/><polygon class="cls-2" points="26.02 183.02 3.86 170.23 3.79 170.37 1.74 175.9 0.46 181.44 0 186.86 0 476.78 0.46 481.66 1.74 485.72 3.79 488.88 6.49 491.11 28.65 503.9 25.94 501.67 23.89 498.51 22.6 494.44 22.14 489.56 22.14 199.63 22.6 194.23 23.89 188.69 25.94 183.16 26.02 183.02"/></g></g></svg>