<svg xmlns="http://www.w3.org/2000/svg" viewBox="0 0 492.14 425.08"><defs><style>.cls-1{fill:#fff;}</style></defs><title>Asset 1@2</title><g id="Layer_2" data-name="Layer 2"><g id="Layer_1-2" data-name="Layer 1"><path class="cls-1" d="M105.43,308.34l2.44,48q-19.95,8.94-44.36,8.94Q0,365.32,0,309.15V63.29H63.51V286.77q0,14.25,5.49,19.74T84.67,312q8.14,0,20.76-3.67"/><path class="cls-1" d="M332.95,363.18l-2.65-1.61,21.11-34.85-22-26.72a1.55,1.55,0,0,1,1-2.53l112.31-11.25a201,201,0,0,0,14.09-73.53l-41.44-35.8-19,13.67,31.79,34.58a1.55,1.55,0,0,1,.32,1.59,1.58,1.58,0,0,1-1.28,1l-99.14,11.7a1.55,1.55,0,0,1-1.08-2.79l64.73-46.56L361,156.73l-54.18-30a1.54,1.54,0,0,1-.73-1.78L324,62.28a1.55,1.55,0,0,1,1-1,1.53,1.53,0,0,1,1.42.23l68.3,51.35,49.45,12.09-.74,3-49.75-12.16a1.72,1.72,0,0,1-.57-.27L326.34,65.29l-16.89,59.28,53.32,29.58a2,2,0,0,1,.4.3l31.09,33.83,20.3-14.6a1.59,1.59,0,0,1,1.92.07l42.9,37.06a1.54,1.54,0,0,1,.54,1.17,203.87,203.87,0,0,1-14.67,76.26,1.55,1.55,0,0,1-1.29,1L333.61,300.27l19.5,23.65,15.58-25.7a1.55,1.55,0,0,1,2.87.84l-1.39,46.15a1.55,1.55,0,0,1-2.75.93L353.5,329.26Zm22.26-36.74,12,14.54,1.09-36.14Zm38.63-134.06-60.17,43.28L423.85,225Z"/><path class="cls-1" d="M255.06,416.83a204.24,204.24,0,0,1-72.32-13.12,1.54,1.54,0,0,1-1-1.28L176.39,354,69.08,293.45a1.59,1.59,0,0,1-.78-1.19,1.54,1.54,0,0,1,.5-1.31l53.51-48.26,2.07,2.31L72.47,291.8,178.6,351.71a1.52,1.52,0,0,1,.77,1.17l5.36,48.26a201.3,201.3,0,0,0,69.75,12.59l31.23-27.34-26.91-25.56a1.55,1.55,0,0,1,1.76-2.51l76.81,38.29,29.9-52.22a1.53,1.53,0,0,1,1.9-.68l27.42,10.83,11.74-78.21,3.07.46-12,80.13a1.54,1.54,0,0,1-.75,1.11,1.59,1.59,0,0,1-1.35.09l-28-11-30,52.33a1.55,1.55,0,0,1-2,.61l-68.87-34.32,20.64,19.6a1.56,1.56,0,0,1,0,2.29l-32.95,28.84a1.57,1.57,0,0,1-1,.38"/><path class="cls-1" d="M182.52,403.28a1.52,1.52,0,0,1-1.32-.74,1.54,1.54,0,0,1,.05-1.71l44.52-62.27-76.33-9.43.38-3.08,78.91,9.75a1.59,1.59,0,0,1,1.22.92,1.57,1.57,0,0,1-.15,1.53l-43.92,61.43L287.8,384.91a1.35,1.35,0,0,1,.58,0l48.45,11.55a201.26,201.26,0,0,0,59.33-40.29L368.77,237.89a1.55,1.55,0,0,1,2.59-1.45l34.45,33.95-29.45-75.57,2.88-1.12L411.33,276a1.55,1.55,0,0,1-2.53,1.67L373,242.39l26.38,114a1.56,1.56,0,0,1-.42,1.46,204.45,204.45,0,0,1-61.35,41.74,1.72,1.72,0,0,1-1,.09L287.94,388l-105.2,15.23a.79.79,0,0,1-.22,0"/><path class="cls-1" d="M111.18,356.64,77.44,252.36a1.51,1.51,0,0,1,.09-1.19l22.83-43.94,32.15-58.84L145,103.74l-33.9-35.35a1.56,1.56,0,0,1,0-2.18,204.34,204.34,0,0,1,62.23-42.14,1.55,1.55,0,0,1,1.68.3l38,35.72L251,37.83a1.54,1.54,0,0,1,1.64,0l33.46,22,38.06,1.27,6.61-37.51a1.54,1.54,0,0,1,1.2-1.25,1.53,1.53,0,0,1,1.6.65l61.72,90.37-2.55,1.74L333.17,27.89,327,63a1.52,1.52,0,0,1-1.57,1.27l-39.85-1.33a1.55,1.55,0,0,1-.8-.26L251.76,41l-38.1,22.36a1.54,1.54,0,0,1-1.84-.21L173.66,27.32a201.3,201.3,0,0,0-59.27,40l33.45,34.87a1.53,1.53,0,0,1,.38,1.49l-12.78,45.67a1.86,1.86,0,0,1-.13.33l-32.23,59L80.58,252l33.54,103.66Z"/><path class="cls-1" d="M218.71,385.82a1.31,1.31,0,0,1-.39-.05L111,357.36a1.43,1.43,0,0,1-.69-.4,204.15,204.15,0,0,1-42.92-62.68A1.54,1.54,0,0,1,69,292.11l52.28,5L77.81,253l-27.33-40.1a1.58,1.58,0,0,1,.09-1.88l38.85-46,12.7-52.4a1.55,1.55,0,0,1,1.16-1.14l42.85-9.6L212,60.7l1.65,2.62-66.13,41.29a1.51,1.51,0,0,1-.48.2l-42.17,9.46L92.35,166.09a1.52,1.52,0,0,1-.32.63L53.7,212.08,80.19,251l44.42,45.07,31,28.35,38-9.9,7.52-16.41a1.55,1.55,0,0,1,2.7-.23l8,11.88,47.94-12.51a1.54,1.54,0,0,1,1.58,2.47l-31.59,38.59a1.35,1.35,0,0,1-1.27.57,1.54,1.54,0,0,1-1.21-.69l-16.8-24.89-14.69,3.83-14.22,31,4.84,4.43,73.6,5.57a1.55,1.55,0,0,1,.83,2.77L229.17,385.5l-1.9-2.44L255.75,361l-65.66-5,29.66,27.15a1.54,1.54,0,0,1-1,2.68M116.06,355.48l97,25.69-27.92-25.55-7.79-.6a1.55,1.55,0,0,1-1.21-.75,1.58,1.58,0,0,1-.08-1.44l1.79-3.9-23-21.08L150.33,329Zm-44.73-60a201.18,201.18,0,0,0,40.18,58.31l9.57-53.58ZM124.26,300l-9.38,52.51,33.81-26.11a1.26,1.26,0,0,1,.55-.27l2.79-.74Zm55.49,52.14,1.64.13-1.18-1.1Zm-21.43-25.18L179.15,346l12.75-27.82Zm55.32-14.44,15,22.25,27.27-33.28Zm-10.88-10.58-5.32,11.61,11.18-2.92Z"/><path class="cls-1" d="M122.71,245.24,51.13,213.41a1.57,1.57,0,0,1-.92-1.42,203.71,203.71,0,0,1,14-74.49,1.51,1.51,0,0,1,1.68-1l42.27,6.74,37.47-41a1.54,1.54,0,0,1,1.86-.33l32.14,16.86L164.27,64.63l-59.65,49.53a1.55,1.55,0,0,1-2.5-1.52l9.52-44,3,.66-8.57,39.56,58-48.17a1.54,1.54,0,0,1,1.45-.3,1.55,1.55,0,0,1,1,1.07l17,59.92a1.55,1.55,0,0,1-2.21,1.79l-34.27-18-35.28,38.64,22.41,3.58a1.55,1.55,0,0,1,1.17.9l17.68,40a1.56,1.56,0,0,1-.88,2.08l-49.91,18.93a1.52,1.52,0,0,1-1.29-.08,1.57,1.57,0,0,1-.77-1l-9.58-44.89A1.54,1.54,0,0,1,91,162l14.62-16-39-6.23A200.91,200.91,0,0,0,53.31,211L124,242.42ZM93.83,163.53l9,42.32,46.7-17.7-16.68-37.78-23.58-3.77Z"/><path class="cls-1" d="M377.81,195.8a1.55,1.55,0,0,1-.61-.12L335,177.79l1.2-2.84,40.37,17.12L396.44,75.66l-64.57,98.45a1.56,1.56,0,0,1-1.71.64,1.53,1.53,0,0,1-1.13-1.43l-5-107.24L262,123l-2.09-2.29,64.51-59.17a1.54,1.54,0,0,1,1.65-.29,1.52,1.52,0,0,1,.95,1.36L331.9,168.4l66-100.64a1.55,1.55,0,0,1,1.86-.6,1.58,1.58,0,0,1,1,1.71L379.33,194.52a1.48,1.48,0,0,1-.78,1.09,1.46,1.46,0,0,1-.74.19"/><path class="cls-1" d="M204.92,238.55l-2.34-2,55.84-64.29,47.42-47.31-21.69-63a1.53,1.53,0,0,1,.49-1.71l44.63-35.85a200.56,200.56,0,0,0-73.47-14.09L214.08,63a1.54,1.54,0,0,1-1.22.6l-46.74-.1-18,40.46-2.84-1.26L163.7,61.28a1.55,1.55,0,0,1,1.41-.91l47,.09L253.85,7.72a1.54,1.54,0,0,1,1.21-.59A203.67,203.67,0,0,1,332.9,22.44a1.5,1.5,0,0,1,.94,1.2,1.53,1.53,0,0,1-.57,1.43L287.44,61.91l21.65,62.92a1.53,1.53,0,0,1-.37,1.6l-48,47.92Z"/><path class="cls-1" d="M415.47,176.47h0l-84.89-1.68a1.52,1.52,0,0,1-.89-.3L260,123.12l1.84-2.49,69.23,51.08,82.17,1.63-19.75-55.9-30.27,39a1.55,1.55,0,0,1-2.74-.67l-10-53.85L324.19,63.57a1.55,1.55,0,0,1-.06-1.66,1.58,1.58,0,0,1,1.49-.75L401,68.41l-.3,3.09-72.09-6.94,24.66,35.89a1.61,1.61,0,0,1,.25.6l9.39,50.76,29.88-38.52a1.56,1.56,0,0,1,2.69.43l21.44,60.7a1.54,1.54,0,0,1-1.46,2.06"/><polygon class="cls-1" points="416.79 175.73 414.14 174.14 440.4 130.52 443.07 132.12 416.79 175.73"/><path class="cls-1" d="M440.32,131.93A201.27,201.27,0,0,0,398.11,69.7l2.2-2.18a204.13,204.13,0,0,1,42.85,63.19Z"/><path class="cls-1" d="M334.53,365.29h-77.9V300.07h-136V243.71l.29-.61L210.94,58.24H292L208.35,234.6H257l-.43-63.51h77.92V234.6h38.62v65.47H334.53Zm-72.09-5.82h66.28V294.26h38.61V240.42H328.72V176.91H262.46l.42,63.51H199.16L282.83,64.05H214.58L126.41,245v49.21h136Z"/><path class="cls-1" d="M222.38,62a9.52,9.52,0,1,1-9.51-9.52A9.52,9.52,0,0,1,222.38,62"/><path class="cls-1" d="M191.59,121.84a9.52,9.52,0,1,1-9.51-9.52,9.52,9.52,0,0,1,9.51,9.52"/><path class="cls-1" d="M156.25,103.3a9.52,9.52,0,1,1-9.51-9.52,9.51,9.51,0,0,1,9.51,9.52"/><path class="cls-1" d="M122.67,69a9.52,9.52,0,1,1-9.51-9.52A9.52,9.52,0,0,1,122.67,69"/><path class="cls-1" d="M113.15,113a9.52,9.52,0,1,1-9.51-9.51,9.52,9.52,0,0,1,9.51,9.51"/><path class="cls-1" d="M77.53,138.29A9.52,9.52,0,1,1,68,128.77a9.52,9.52,0,0,1,9.51,9.52"/><path class="cls-1" d="M143.47,149a9.52,9.52,0,1,1-9.51-9.51,9.52,9.52,0,0,1,9.51,9.51"/><path class="cls-1" d="M161.15,189a9.52,9.52,0,1,1-9.51-9.52,9.52,9.52,0,0,1,9.51,9.52"/><path class="cls-1" d="M101.09,165.64a9.52,9.52,0,1,1-9.51-9.52,9.51,9.51,0,0,1,9.51,9.52"/><path class="cls-1" d="M63.23,212.35a9.52,9.52,0,1,1-9.51-9.52,9.51,9.51,0,0,1,9.51,9.52"/><path class="cls-1" d="M111.24,207.94a9.52,9.52,0,1,1-9.51-9.51,9.52,9.52,0,0,1,9.51,9.51"/><path class="cls-1" d="M132.85,243.83a9.52,9.52,0,1,1-9.51-9.51,9.52,9.52,0,0,1,9.51,9.51"/><path class="cls-1" d="M88.42,251.88a9.52,9.52,0,1,1-9.51-9.51,9.51,9.51,0,0,1,9.51,9.51"/><path class="cls-1" d="M80,294.22a9.52,9.52,0,1,1-9.51-9.52A9.52,9.52,0,0,1,80,294.22"/><path class="cls-1" d="M158.72,330.42a9.51,9.51,0,1,1-6.24-11.92,9.51,9.51,0,0,1,6.24,11.92"/><path class="cls-1" d="M132.41,298.78a9.52,9.52,0,1,1-9.51-9.51,9.52,9.52,0,0,1,9.51,9.51"/><path class="cls-1" d="M122.16,356.15a9.52,9.52,0,1,1-9.51-9.51,9.52,9.52,0,0,1,9.51,9.51"/><path class="cls-1" d="M189.4,355a9.52,9.52,0,1,1-9.51-9.52A9.52,9.52,0,0,1,189.4,355"/><path class="cls-1" d="M212,298.76a9.52,9.52,0,1,1-9.51-9.52,9.51,9.51,0,0,1,9.51,9.52"/><path class="cls-1" d="M269.64,298.76a9.52,9.52,0,1,1-9.51-9.52,9.51,9.51,0,0,1,9.51,9.52"/><path class="cls-1" d="M238.06,337.34a9.52,9.52,0,1,1-9.51-9.51,9.52,9.52,0,0,1,9.51,9.51"/><path class="cls-1" d="M237.74,384.28a9.52,9.52,0,1,1-9.51-9.51,9.52,9.52,0,0,1,9.51,9.51"/><path class="cls-1" d="M192,401.73a9.52,9.52,0,1,1-9.51-9.51,9.52,9.52,0,0,1,9.51,9.51"/><path class="cls-1" d="M269.39,359.72a9.51,9.51,0,1,1-9.51-9.52,9.51,9.51,0,0,1,9.51,9.52"/><path class="cls-1" d="M266.57,415.56a9.52,9.52,0,1,1-9.51-9.51,9.52,9.52,0,0,1,9.51,9.51"/><path class="cls-1" d="M301,387a9.52,9.52,0,1,1-9.51-9.52A9.51,9.51,0,0,1,301,387"/><path class="cls-1" d="M347.51,398.65a9.52,9.52,0,1,1-9.51-9.51,9.52,9.52,0,0,1,9.51,9.51"/><path class="cls-1" d="M340.34,360a9.52,9.52,0,1,1-9.51-9.51,9.52,9.52,0,0,1,9.51,9.51"/><path class="cls-1" d="M340.09,299a9.52,9.52,0,1,1-9.51-9.51,9.52,9.52,0,0,1,9.51,9.51"/><path class="cls-1" d="M379.53,299A9.52,9.52,0,1,1,370,289.5a9.52,9.52,0,0,1,9.51,9.51"/><path class="cls-1" d="M378.14,345.16a9.52,9.52,0,1,1-9.51-9.51,9.52,9.52,0,0,1,9.51,9.51"/><path class="cls-1" d="M410,356.13a9.52,9.52,0,1,1-9.51-9.51,9.52,9.52,0,0,1,9.51,9.51"/><path class="cls-1" d="M455.35,286.72a9.52,9.52,0,1,1-9.51-9.51,9.52,9.52,0,0,1,9.51,9.51"/><path class="cls-1" d="M419.4,276.57a9.51,9.51,0,1,1-9.51-9.51,9.52,9.52,0,0,1,9.51,9.51"/><path class="cls-1" d="M340.34,237.54a9.52,9.52,0,1,1-9.51-9.51,9.52,9.52,0,0,1,9.51,9.51"/><path class="cls-1" d="M269.37,237.54a9.52,9.52,0,1,1-9.51-9.51,9.52,9.52,0,0,1,9.51,9.51"/><path class="cls-1" d="M213.27,237.54a9.52,9.52,0,1,1-9.51-9.51,9.52,9.52,0,0,1,9.51,9.51"/><path class="cls-1" d="M379.79,237.54a9.52,9.52,0,1,1-9.51-9.51,9.52,9.52,0,0,1,9.51,9.51"/><path class="cls-1" d="M436.55,226.2a9.52,9.52,0,1,1-9.51-9.52,9.52,9.52,0,0,1,9.51,9.52"/><path class="cls-1" d="M469.18,212.44a9.52,9.52,0,1,1-9.51-9.51,9.52,9.52,0,0,1,9.51,9.51"/><path class="cls-1" d="M387.32,194.25a9.52,9.52,0,1,1-9.51-9.51,9.52,9.52,0,0,1,9.51,9.51"/><path class="cls-1" d="M425,174.93a9.52,9.52,0,1,1-9.51-9.51,9.52,9.52,0,0,1,9.51,9.51"/><path class="cls-1" d="M452.53,131.24a9.52,9.52,0,1,1-9.51-9.52,9.51,9.51,0,0,1,9.51,9.52"/><path class="cls-1" d="M340.09,173.25a9.52,9.52,0,1,1-9.51-9.51,9.52,9.52,0,0,1,9.51,9.51"/><path class="cls-1" d="M269.11,173.25a9.52,9.52,0,1,1-9.51-9.51,9.52,9.52,0,0,1,9.51,9.51"/><path class="cls-1" d="M270.46,121.87a9.52,9.52,0,1,1-9.51-9.51,9.52,9.52,0,0,1,9.51,9.51"/><path class="cls-1" d="M295.14,61.37a9.52,9.52,0,1,1-9.51-9.51,9.52,9.52,0,0,1,9.51,9.51"/><path class="cls-1" d="M261.32,39.17a9.52,9.52,0,1,1-9.51-9.52,9.52,9.52,0,0,1,9.51,9.52"/><path class="cls-1" d="M340.76,23.52A9.52,9.52,0,1,1,331.25,14a9.52,9.52,0,0,1,9.51,9.51"/><path class="cls-1" d="M374.22,155.7a9.52,9.52,0,1,1-9.51-9.51,9.52,9.52,0,0,1,9.51,9.51"/><path class="cls-1" d="M403.54,114.25a9.52,9.52,0,1,1-9.51-9.52,9.52,9.52,0,0,1,9.51,9.52"/><path class="cls-1" d="M410,68.74a9.52,9.52,0,1,1-9.51-9.51A9.52,9.52,0,0,1,410,68.74"/><path class="cls-1" d="M361.53,101.33A9.51,9.51,0,1,1,352,91.82a9.52,9.52,0,0,1,9.51,9.51"/><path class="cls-1" d="M317.14,125.33a9.52,9.52,0,1,1-9.51-9.52,9.51,9.51,0,0,1,9.51,9.52"/><path class="cls-1" d="M335,62.7a9.51,9.51,0,1,1-9.51-9.51A9.52,9.52,0,0,1,335,62.7"/><path class="cls-1" d="M266.16,9.52A9.52,9.52,0,1,1,256.65,0a9.51,9.51,0,0,1,9.51,9.52"/><path class="cls-1" d="M185,26.49A9.52,9.52,0,1,1,175.5,17,9.52,9.52,0,0,1,185,26.49"/><path class="cls-1" d="M174.62,61.91a9.51,9.51,0,1,1-9.51-9.51,9.52,9.52,0,0,1,9.51,9.51"/><path class="cls-1" d="M398.11,69.7A200.84,200.84,0,0,0,331.72,25.3l1.18-2.87a204.3,204.3,0,0,1,67.41,45.08Z"/><path class="cls-1" d="M182.07,405.5A269.48,269.48,0,0,1,111.4,359l2.1-2.28a266.33,266.33,0,0,0,69.85,46Z"/><rect class="cls-1" x="424.97" y="146.33" width="63.09" height="214.51"/><path class="cls-1" d="M492.14,87.72q0,15.07-8.75,24.23t-26.66,9.15q-35.43,0-35.42-33.38,0-33,35.42-33t35.41,33"/><polyline class="cls-1" points="0 309.15 0 63.29 63.5 63.29 63.5 286.77"/></g></g></svg>