<svg xmlns="http://www.w3.org/2000/svg" xmlns:xlink="http://www.w3.org/1999/xlink" viewBox="0 0 442.28 503.51"><defs><style>.cls-1{fill:none;}.cls-2{isolation:isolate;}.cls-3{mix-blend-mode:multiply;}.cls-4{clip-path:url(#clip-path);}.cls-5{fill:#e0dad4;}.cls-6{clip-path:url(#clip-path-2);}.cls-7{fill:#936647;}.cls-8{fill:#333;}.cls-9{fill:#27a8e0;}.cls-10{fill:#bb805a;}.cls-11{fill:#e1dfdf;}.cls-12{fill:#efeeee;}.cls-13{fill:#cdcdcd;}.cls-14{fill:#f9a320;}.cls-15{fill:#bcbdbf;}.cls-16{fill:#010101;}.cls-17{fill:#e09025;}.cls-18{fill:#79b943;}.cls-19{fill:#6fa943;}.cls-20{fill:#d99368;}.cls-21{fill:#951a48;}.cls-22{fill:#659840;}.cls-23{fill:#b81e59;}.cls-24{fill:#4d4e4e;}.cls-25{fill:#6d6e71;}.cls-26{fill:#547b38;}.cls-27{fill:#78b843;}.cls-28{fill:#ec1775;}.cls-29{fill:#fcd519;}.cls-30{fill:#bc774a;}.cls-31{opacity:0.15;}.cls-32{clip-path:url(#clip-path-3);}.cls-33{fill:#901a1d;}.cls-34{opacity:0.2;}.cls-35{clip-path:url(#clip-path-4);}.cls-36{fill:#db1373;}.cls-37{fill:#3d96d2;}.cls-38{fill:#51afe2;}.cls-39{fill:#424143;}.cls-40{fill:#082633;}</style><clipPath id="clip-path"><rect class="cls-1" x="40.51" y="384.8" width="241.16" height="103.39"/></clipPath><clipPath id="clip-path-2"><rect class="cls-1" x="281.67" y="429.21" width="160.61" height="74.27"/></clipPath><clipPath id="clip-path-3"><rect class="cls-1" x="253.5" y="114.43" width="37.04" height="160.46"/></clipPath><clipPath id="clip-path-4"><rect class="cls-1" x="256.05" y="110.36" width="21.05" height="66.17"/></clipPath></defs><title>Asset 6@2</title><g class="cls-2"><g id="Layer_2" data-name="Layer 2"><g id="Layer_1-2" data-name="Layer 1"><g class="cls-3"><g class="cls-4"><path class="cls-5" d="M281.67,436.48c0,28.56-54,51.71-120.58,51.71S40.51,465,40.51,436.48s54-51.71,120.58-51.71,120.58,23.15,120.58,51.71"/></g></g><g class="cls-3"><g class="cls-6"><path class="cls-5" d="M442.28,466.36c0,20.52-36,37.15-80.3,37.15s-80.3-16.63-80.3-37.15,36-37.15,80.3-37.15,80.3,16.64,80.3,37.15"/></g></g><path class="cls-7" d="M80,405.7s.44,9.84,2,15.94,5.09,17,3.28,24-13.3,9.73-16.76,8.49-8.3-5.46-9.64-9.57-3.14-19.41-3.17-23.27,7.4-22,7.4-22,6.44,1,16.84,6.39"/><path class="cls-8" d="M63.16,399.31c-.29,2.83-5.4,16.28-5.37,19,0,3.86,1.83,19.17,3.17,23.27s6.18,8.33,9.64,9.57c2.71,1,10.37-.52,14.42-4.57-2.54,6.28-13.15,8.74-16.44,7.55-3.46-1.23-8.3-5.46-9.64-9.57s-3.14-19.41-3.17-23.27,1-12.7,1-12.7,5.28-8.7,6.43-9.3"/><path class="cls-7" d="M127.7,388.91a34.45,34.45,0,0,0,5.8,6.09c3.55,2.91,18.47,11.41,20.24,14.74s1.6,8.47-3.73,11.45-13.4.71-18.72-2.84-17-7-21.92-8.5-7.1-1.29-7.9-5.6S106,387.17,106,387.17Z"/><path class="cls-8" d="M104.94,388.36l.36-.09c0,1.45-3.43,10.07-3.13,11.68.8,4.31,2.93,4.09,7.9,5.6s16.6,4.95,21.92,8.5,13.4,5.81,18.73,2.84a9.23,9.23,0,0,0,4-4c.32,2.91-.84,6.17-4.68,8.32-5.33,3-13.4.71-18.72-2.84s-17-7-21.93-8.5-7.1-1.3-7.9-5.6,3.48-15.9,3.48-15.9"/><path class="cls-8" d="M146.82,408.71s-8.77,5.16-23.07,1.39l-8.27-1.92s24.28,1.79,27.87-1.61l-6.61-9.26s11.52,7.49,10.08,11.41"/><path class="cls-8" d="M76.77,442.31a59.5,59.5,0,0,1-19.3-14L57.24,422s10.1,13.75,19.4,15.64a47.76,47.76,0,0,0,5.41-16l1.82,6.79S80.1,442,76.77,442.31"/><path class="cls-9" d="M5.23,129.25c17.34-35.28,59.11-68.6,113.11-72,0,0,29.79-4.57,47.89,16.88,0,0,8,.07,15.35,11a34.11,34.11,0,0,1,5.19,22.93s-3.39,7.27-10.64-5.49S164.37,84,153.34,86.67s-15.1,9.51-15.1,9.51S106.76,189.94,79.73,226.6c-32.62,44.22-98.74-48-74.5-97.35"/><polygon class="cls-7" points="62.84 413.69 62.74 365.53 82.44 361.17 80.31 408.95 62.84 413.69"/><path class="cls-7" d="M163.14,105.24c2.37,2.26,6.79,4.47,8.89-2.16s4.46-18.75,5.61-19.9,5.42-3.67,4.13-5.28c-1.14-1.43-2.24-1.05-2.24-1.05s.82-3.11-2.4-3.44c0,0,1.25-2-2.77-3.37,0,0,1.24-2.67-2.76-3.3s-11.33,5.32-11.81,8.62-1,13.85-1.28,16.37c-.46,4.11,1.74,10.75,4.63,13.51"/><path class="cls-10" d="M181.36,79.93c-.29-1-1.74-2.66-3-2.4a2.54,2.54,0,0,0-2.58-3.28s1.32-2.36-2.82-3.51c0,0-.25-3.73-6.91,1-3.88,2.74-4,4.73-4.41,12,0,0,2.92-7.35,3.45-8s4.2-2.44,3.53,1.48S164.32,88,167.26,91.47c1.23,1.43,4.78,3.42,7,3.19,1.34-5.44,2.59-10.73,3.33-11.47a43.09,43.09,0,0,0,3.73-3.25"/><path class="cls-7" d="M109.49,65.27s-7.21,13-4.34,22,20.36,57.26,21.66,66.56c3.13,22.34,13.22,20.31,21.67,14A41,41,0,0,0,163.6,144l11-48.48s-9.12-.7-12.77,2.63c-5.85,5.34-13.18,47.65-14.66,43.3s-1.48-17.72-2.69-26.31,2.85-20.95-5.88-35.45-22-19.73-29.12-14.44"/><path class="cls-11" d="M56.58,362s-1.64,32-1.28,35.38c1.48,13.61,7.87-22.12,26.14-23.47.83-.06,1-12.75,1-12.75Z"/><path class="cls-12" d="M98.3,197.84s-4.53,59-4.53,80.63c0,41.66-2.73,70-5.48,79.87-2.08,7.49-4.11,9.74-16,11-4.93.5-19.69-.6-18.85-8.54.43-4-4.34-9.85-5.06-21.19-.51-8.08-.94-19.83,3.2-67.73,0,0,1.39-23.39-2-69.23C46.37,159,96.7,172.49,98.3,197.84"/><path class="cls-11" d="M86.17,317.53c4-40.18-11.82-144-11.82-144s23.75,101,11.82,144"/><path class="cls-11" d="M71.79,206.29C71.35,306.33,58,337.38,58,337.38s10.26-55.12,13.79-131.08"/><path class="cls-11" d="M52.14,315.88c12.59-35.27,8.72-93,8.72-93s-1.22,56.72-8.72,93"/><path class="cls-11" d="M92.13,329.42s-2.36,14.95-6.26,21.88S73,364.41,73,364.41s15.48-5,17.37-17.49,1.74-17.49,1.74-17.49"/><path class="cls-13" d="M102.18,377.4s2,9,2.63,11.91c.32,1.44,13.54,1.63,20.4-.45,1.5-.46,1.6-12.29,1.6-12.29Z"/><path class="cls-11" d="M137.14,209.4s5.05,64.82,4.87,81.28c-.91,83.08-12.23,75.31-11.17,85.52.5,4.89-7.16,6.66-19.08,6.66-5.62,0-15.72-.2-15.72-4.68s-4-63.74-1.37-79.71c0,0-7.51-40.3-12.69-84.85-5.06-43.48,53.37-29.58,55.16-4.23"/><path class="cls-13" d="M139.29,341.58s-3.64,15-8,21.88-14.46,13.11-14.46,13.11,15.37-3.87,18.85-16.09a103.2,103.2,0,0,0,3.64-18.89"/><path class="cls-13" d="M120.31,343c14.17-35.27,9.81-93,9.81-93s-1.38,56.73-9.81,93"/><path class="cls-14" d="M143.65,307.32c.09,12.21-53,32.46-64.66,33.14-32.37,1.89-32.4-5.53-33.94-11.33l3.86-48.34c1-13.73-3.77-126.71-6.14-140.27C38.1,113.81,36.64,96,41.68,93.06,45,91.15,53.77,86,61.9,81.31c4.54-2.6,9.19-5.27,13.27-7.62,7.5-4.34,29.16-7.13,30-7.46,9.51-3.72,16.39-5.39,23.91,1.37,4.79,4.28,3,26.22,3.68,56.64.7,32.91,10.72,165.68,10.86,183.09"/><path class="cls-7" d="M72.37,65.54c.11,3.28.3,12.55-2.86,13.13,0,0,32.43,50.35,42.34,49.86,4.88-.24,12-60-21.24-63.82,0,0-7.94-6.39-12.38-4.5,0,0-6,1.85-5.85,5.34"/><path class="cls-15" d="M104.65,13.1c6.5,4.4,9.6,12.46,9.49,16.43L112,57.72c-1.5,12.06-5.1,21.54-16.15,21.21,0,0-29.15-2.26-33.79-26.13L59.45,40.16c-4.28-26.65,11.76-35,26.71-33.72,11.86,1,18.49,6.66,18.49,6.66"/><path class="cls-10" d="M59.45,40.16,62,52.81A28.46,28.46,0,0,0,74,71c9.83,7,21.86,7.92,21.86,7.92a13.52,13.52,0,0,0,7.1-1.55c5.65-3.14,7.93-10.69,9-19.67l2.19-28.2c.11-4-3-12-9.5-16.42,0,0-6.62-5.63-18.49-6.67-15-1.31-31,7.08-26.71,33.72"/><path class="cls-16" d="M76.57,62.71l2.84.25s3.16-10.19,1.82-14.47-4.76-17.2,4.41-16.7,19,1.93,28.32-4.29c0,0,5.46-9,1.19-16.62-1.09-1.93-.07-3.23-3.87-3.73S107.84,5,105.23,3.7s-7.75-1.31-9.69-.86S91.06,2,89.27.75,84.21-.16,81,1.55s-3.83-.19-6,.39-4.92,1.73-6,3.78-3.19,2-5.39,3.07-6.13,3-6.14,7.42-4.16,6.92-5.06,9.47-.84,3.62.64,7,.89,4.08-.21,8.14.07,4.94,2.28,7.75-.67,4.4,2.51,6.54,2.73,3.62,2.92,5,3.2,4.07,7.45,4.75c0,0-7.82-8.23-4-13.59s10-2,11.17,2.22a38.78,38.78,0,0,1,1.49,9.22"/><path class="cls-10" d="M47.33,239.24s2.22,6.07,4.21,7.69a36.93,36.93,0,0,1,8.12,8.6c2.94,4.45,5.65,14.12,4.51,15.21s-4.51-2-4.51-2-1.74-6-2.65-6.43-2.17.66-2.58,1.63-1.59,7.76,1.46,12.74,5.7,8.9,5.64,9.92-1.86,1.44-2.47,1.08a43.11,43.11,0,0,1-5.71-7.63c-1.32-2.47-4-8.72-4-8.72a6.47,6.47,0,0,0,.24,2.29,118.9,118.9,0,0,0,5,11.24c.72,1.14,2,2.18,1.86,3s-1.62,1.2-2.4,1.2-2.46-2.76-2.46-2.76a1.62,1.62,0,0,1-1.5-.12c-.78-.48-4.57-4.87-6.49-7a11.39,11.39,0,0,1-2.47-4.39,5.66,5.66,0,0,1-2.94-2.4c-1-1.81-1.69-5.71-2.29-10.64S34.88,242,34.88,242Z"/><path class="cls-10" d="M42.22,92.5s-12,8.77-13.22,18.15-7.94,60.11-8.42,69.49,14.79,65.4,14.79,65.4l13.12-5.1s-3.14-29.17-3.5-34.1-1.68-18-1.2-22.61,6.61-23,9.14-31.26,11.42-17.79,9.62-34.63S50.87,90.7,42.22,92.5"/><path class="cls-17" d="M47.68,203.1c3.78.55,7.62,1.09,11.4.55s7.56-2.32,9.64-5.52a2.93,2.93,0,0,1,.9-1,.84.84,0,0,1,1.18.3,1.22,1.22,0,0,1,0,.48c-.52,8-1.07,16.16-3.64,23.78a7.85,7.85,0,0,1-.9,2,8.77,8.77,0,0,1-1.84,1.78L49.61,237.1c-1-11.2-1.43-22.46-1.37-33.7"/><path class="cls-17" d="M127.48,147.49c-1.63-.77-3.53,0-5.16.73A152.75,152.75,0,0,0,108,155.84c1.15,5.91,2.47,12.14,6.53,16.59a1.69,1.69,0,0,0,.89.61,1.63,1.63,0,0,0,1.29-.57c1.72-1.61,2.62-3.9,3.6-6a55.19,55.19,0,0,1,4.64-8.19,30.1,30.1,0,0,0,3.22-5.25,7.51,7.51,0,0,0,.2-6"/><path class="cls-17" d="M105.44,298.91l13.29-13.08c.67-.66,1.68-1.36,2.46-.84a2.06,2.06,0,0,1,.68,1.14,66.73,66.73,0,0,1,2.73,12,3.44,3.44,0,0,1-.31,2.49c-.64.88-1.89,1-3,1a38.9,38.9,0,0,1-17-4.42"/><path class="cls-13" d="M141,329.42s-17.2,4.56-20.7,25.86,5.23,9.13,5.23,9.13l8.86-12.53Z"/><polygon class="cls-9" points="158.17 66.69 181.57 85.14 174.6 95.53 159.79 75.37 158.17 66.69"/><path class="cls-18" d="M284.37,121.64S296,159.18,295,207.12c-.73,35.16,3.9,75,4.7,82.18,1.5,13.35,3.56,24.51,1.12,27.07s-6.54,1.28-8.61,3.84-1.87,5.3-4.49,7.5-.94,8.6-4.49,9.7-4.12-3.47-7.3-6.59-3.93-4.76-3.18-9.69-1.31-11.34-2.06-19.94-4.11-27.23-2.06-33-1.87-71.63-1.87-71.63l1.12-35.12Z"/><path class="cls-19" d="M286.49,273.08s-3.4,14,8.63,45.49a10.74,10.74,0,0,0-2.89,1.64s-11.24-26-5.74-47.13"/><path class="cls-19" d="M277.23,314.24s2.89,16.87,1.6,20.49l-1.2-1.87a108.77,108.77,0,0,0-.4-18.62"/><path class="cls-19" d="M287.74,327.71s-2.57-3.53-3.37-14.9c0,0-.44,14.92,2.6,15.84Z"/><path class="cls-19" d="M289,238.05s6.15,27.62,9.56,42.15l1.19,9.09s-9.17-26.48-10.74-51.24"/><path class="cls-20" d="M187.77,207.9c3.33-1.34,8.77-1.81,8.22,5.82s-3,21-2.33,22.65,4.06,6,2.09,7.08c-1.75,1-2.72.16-2.72.16s-.43,3.53-3.85,2.55c0,0,.47,2.57-4.21,2.33,0,0,.18,3.25-4.16,2.27s-9.44-10.05-8.59-13.64,4.6-14.58,5.34-17.27c1.2-4.39,6.15-10.3,10.23-12"/><path class="cls-20" d="M196.14,241.22c-.7.92-2.86,2-4,1.25a2.8,2.8,0,0,1-4,2.31s.4,2.95-4.31,2.46c0,0-1.77,3.71-6.68-3.8-2.86-4.37-2.19-6.46.36-14.09,0,0,0,8.71.29,9.57s3.31,4.2,4.22-.07,0-12.85,4.37-15.16c1.84-1,6.28-1.56,8.51-.41-.83,6.11-1.7,12-1.25,13.1s2,3.16,2.5,4.84"/><path class="cls-21" d="M205.11,99.14l-7.63,64.44s-17.37,42.4-20.09,49c-4.61,11.12,18,22.09,22.61,7.5,4-12.42,18.21-45.63,19.31-50.9s15.52-59.21,17.11-67.57c2.3-12.11-3.79-18.25-9.51-20.51-8.55-3.38-20.36,8.28-21.79,18.08"/><path class="cls-22" d="M221.87,22.85C211.95,25.12,203.67,33.4,202,58.43c-1.21,18.21-11.2,62.65-3.51,80.91,9.31-3.1,30.2-33.12,30-34.36s4.76-43.65,4.76-43.65Z"/><path class="cls-18" d="M221.87,22.85C211.95,25.12,203.67,33.4,202,58.43c-1,15.64-11.6,63.61-3.51,80.91l4.37-21.4c-1.2-13-1.42-70.73,19.13-94.64Z"/><path class="cls-23" d="M284.37,310.43a25.2,25.2,0,0,1-9.65,2.92,23.2,23.2,0,0,1-11.14-1.8v-25.4H272Z"/><polygon class="cls-24" points="227.48 418.16 222.19 415.09 226.71 410.49 227.48 418.16"/><path class="cls-24" d="M207.87,409a33.35,33.35,0,0,1-8.63,9.52c-6.06,4.81-5.61,9.36-3,10.87s9.59,1.25,19-4.14c8.12-4.66-4.73,2.39-4.73,2.39l17-9.51,6.46-6.95c0-11.33-3-6.9-3-10.81,0-5.26-1.39-6.59-4.69-8.29-7.2-3.71-15.7,12.62-18.39,16.91"/><path class="cls-20" d="M216.4,394.85s-3.72,6.46-10.63,16.93c-4,6.08,5.56,9.12,10.6,3.64,4.13-4.49,14.31-16.45,14.31-18.23a10.26,10.26,0,0,0-.62-3.89,8.43,8.43,0,0,0-7.36-4.39c-4.33,0-6.31,5.93-6.31,5.93"/><polygon class="cls-25" points="250.48 431.51 245.19 428.44 249.71 423.84 250.48 431.51"/><path class="cls-24" d="M230.87,422.38a33.15,33.15,0,0,1-8.63,9.52c-6.06,4.81-5.61,9.35-3,10.87s9.58,1.25,19-4.14h0l12.26-7.13,7.68-7.26c0-11.33-4.22-6.58-4.21-10.5,0-5.26-1.39-6.58-4.69-8.28-7.2-3.72-15.7,12.61-18.39,16.91"/><path class="cls-20" d="M239.39,408.2s-3.73,6.46-10.62,16.93c-4,6.08,5.56,9.11,10.6,3.63,4.13-4.49,14.31-16.45,14.31-18.22a10.18,10.18,0,0,0-.62-3.89,8.42,8.42,0,0,0-7.36-4.38c-4.33,0-6.31,5.93-6.31,5.93"/><path class="cls-20" d="M200.26,218.3c-.14,58.42,6.08,70.38,9.5,87.75,7.43,37.78,6.64,85.73,6.63,90.33,0,5.67,13.49,3.45,13.5-1.37s11.69-47.34,2-88.94c0,0,5.93-28.78,6.05-76.93.07-31.11-37.69-27.89-37.73-10.84"/><path class="cls-10" d="M223.61,231.86c-.14,58.42,6.08,70.37,9.5,87.74,7.43,37.78,6.54,84.93,6.53,89.53,0,5.68,13.54,4.87,13.56.05,0-7.69,11.31-49.77,2.09-89.56,0,0,12.15-44.69,12.27-92.82.05-23.29-43.92-12-44,5.07"/><path class="cls-26" d="M233.95,378.92s-1.65,8.45-2.21,11.23c-.26,1.36-11.34,1.53-17.09-.43-1.27-.43-1.34-11.59-1.34-11.59Z"/><path class="cls-22" d="M258.16,392.36s-2.42,9.39-2.84,12.56c-.2,1.45-14.1.56-16.87-1.33-.64-.44-.94-12-.94-12Z"/><path class="cls-22" d="M203.57,220.5s-4.23,61.12-4.08,76.65c.76,78.33,10.25,71,9.37,80.63-.42,4.62,6,6.28,16,6.28,4.71,0,13.17-.18,13.17-4.41s3.36-60.1,1.15-75.16c0,0,6.29-38,10.64-80,4.24-41-44.72-27.89-46.22-4"/><path class="cls-27" d="M222.55,237.57s4.27,55.64,4.27,76c0,39.28,2.57,66,5.17,75.31,2,7.06,3.88,9.17,15.09,10.33,4.66.48,18.57-.57,17.78-8.05-.4-3.82,4.09-9.29,4.76-20,.48-7.61.88-18.69-3-63.87,0,0-1.31-22,1.88-65.28,3-41.1-44.42-28.39-45.93-4.48"/><path class="cls-19" d="M234,350.42c-3.8-37.88,11.15-135.81,11.15-135.81S222.74,309.86,234,350.42"/><path class="cls-19" d="M247.55,245.54c.42,94.32,13,123.6,13,123.6s-9.68-52-13-123.6"/><path class="cls-19" d="M266.08,348.88c-11.87-33.26-8.23-87.66-8.23-87.66s1.15,53.49,8.23,87.66"/><path class="cls-19" d="M228.37,361.64s2.23,14.09,5.91,20.63,12.11,12.36,12.11,12.36-14.6-4.74-16.37-16.49-1.64-16.5-1.64-16.5"/><path class="cls-26" d="M201.77,345.14s3,14.09,6.73,20.63,12.11,12.37,12.11,12.37-12.88-3.65-15.79-15.18a107.69,107.69,0,0,1-3-17.81"/><path class="cls-26" d="M217.68,346.47c-11.87-33.26-8.22-87.66-8.22-87.66s1.15,53.49,8.22,87.66"/><path class="cls-28" d="M256.83,98,238.94,87.89c-8-3.66-24.87,13-27.58,18.45,0,0-11.86,13.71-11.88,22.24,0,15.5,7.91,33.11,6.89,47.33-.84,11.7-16.52,80.2-11.32,116.05.32,2.18,19,22.54,51.2,21.35,4.95-.18,13.88-71.89,14.7-67,5.32,31.6,7.39,59.46,10.08,62.7,3.33,4,13.33,1.43,13.33,1.43-5.39-7.79-11.44-71.32-11.39-93.61,0,0-8-37.34-7-40.64,0,0,7.57-36.4,9.76-48.75,2-11.49,1.52-16.91-18.92-29.4"/><path class="cls-29" d="M256,245.06l4.72,1.17c-1.85,3.57-9.77,66.91-14.42,67.09C214,314.5,195.38,294.14,195.06,292c-.41-2.83-.69-5.85-.86-9,7,6.07,26.17,20.93,46,21.64Z"/><path class="cls-30" d="M242.13,74.13h0c-16.39,0-14.37,17.63-18.68,26.51-1.34,2.75-1.15,6.38,1.42,7.88,6.35,3.68,16.77,3.71,23.14.06,2.66-1.53,7.38-6.61,9-9.73.43-.86-2.8-3.82-3.64-12.16-.79-7.78-3.38-12.54-11.2-12.56"/><g class="cls-31"><g class="cls-32"><path d="M278.08,120.71c-3.92-13.71-23.21-2.6-22.21,10.92.52,7.1,11.17,48.09,10.6,52.62s-5,44.6-6.7,57.91a3.79,3.79,0,0,0,.2,1.69,50.87,50.87,0,0,0-3.66,12.06c-2,10.28-2.31,12.48-2.77,15.44s5.25,3.21,7.94,3.54a3.57,3.57,0,0,0,3.71-1.88,4.44,4.44,0,0,0,4.25-.88,6.22,6.22,0,0,0,3.46-1.36,4.83,4.83,0,0,0,4-3.07c.84-1.81,1.23-11.51,1.6-18.7a4.66,4.66,0,0,0,3.22-2.67c2-6.19,8.36-62.18,8.78-65.5s-9.34-49.2-12.46-60.1"/></g></g><path class="cls-20" d="M217.69,28.68C211,33.19,207.84,41.46,208,45.52l2.22,28.91c1.55,12.37,5.23,22.09,16.57,21.75,0,0,29.89-2.32,34.64-26.79l2.64-13C268.43,29.1,252,20.5,236.65,21.85c-12.17,1.06-19,6.83-19,6.83"/><path d="M269.6,47.13c-2.75-24.68-28.53-34-51-20.55-15.07,9.07-9.82,30.18-9.82,30.18.8-11.45,6-17.67,14.31-20.69,16.75,12,22.49,22,28.07,53.75,2.31-17.43,21-19.65,18.4-42.7"/><path class="cls-22" d="M284.37,127.32c2.86-9.38-11.27-23.66-14.17-25.45-5.93-3.66-8.07-7.58-7.2-14.5.32-2.55,1.95-7.94,3.79-10.5,7.88-11,10.38-27.17,1.36-43.61-10-18.2-49.92-25.46-58.57,3.19,7.3-8.89,28-7.29,33,9.42a138.11,138.11,0,0,1,5.15,28.59c2.13,26.64,3.84,32.12-8.57,55.79-9,17.1-16.19,8.77-28.14,20.45-1.47,4.35,8.58,15.46,8.58,15.46,4.34,3.92,25.52-2.54,31.74-18.51,17.71-45.48,18.89-40,33-20.33"/><path class="cls-18" d="M247.45,39.36c-1.45-4.59-2.89-9.49-6.63-12.51-4.3-3.46-13.21-6.38-19.26-5.89-4.88,2.64-14.63,9.47-12,15.49,7.31-8.88,28-7.29,33,9.42a138,138,0,0,1,5.15,28.58c2.13,26.64-.56,64.68-27.16,67.36-16.22,1.63-18.83-14.52,4.43-45.62a12.73,12.73,0,0,1-5.09-1.35S202,106,198.91,119.51c-6.61,28.8,1.34,48.81,17.22,48.8,48,0,42.55-93.44,31.32-128.94"/><path class="cls-33" d="M225.34,50c0,.4-.57.79-1.38.88s-1.49-.17-1.54-.57.58-.8,1.38-.89,1.49.17,1.54.58"/><path class="cls-20" d="M270.26,238.8s-2.18,5.95-4.12,7.53a35.84,35.84,0,0,0-7.94,8.41c-2.88,4.35-5.53,13.82-4.41,14.88s4.41-1.94,4.41-1.94,1.7-5.88,2.59-6.29,2.12.65,2.53,1.58-5.69,5.2-5.69,5.2,4,6.87,4.73,7.35c.92.58,9.61,4.4,11.49,2.28a11.15,11.15,0,0,0,2.41-4.29,5.58,5.58,0,0,0,2.89-2.36c1-1.76,1.65-5.59,2.23-10.41s1.06-19.23,1.06-19.23Z"/><g class="cls-34"><g class="cls-35"><path d="M275.74,127.41c-2.19,12.35-9.75,48.76-9.75,48.76a1.29,1.29,0,0,0-.05.36c-2.92-16-9.38-41.28-9.79-43.94-.51-3.56.39-20.58,11.32-22.2,2.63-.38,8.17,1.5,9.08,3,1.27,3.59,0,9.26-.82,14"/></g></g><path class="cls-36" d="M268.09,110.51c10.65-1.58,16.25,14.56,18.41,24.63,2.51,11.67,7,45.68,6,54s-5.93,48.62-7.83,62.46c-1.31,9.57-25.77,8.88-24.64,1.09s9.13-59.8,9.32-67.13-11.88-49.13-12.41-52.71.24-20.68,11.16-22.3"/><path class="cls-23" d="M257.4,158S251,169.21,233,166.13c0,0,3,5,15.16,2.95,5.3-.91,9.18-6.63,9.26-11.1"/><path class="cls-36" d="M249.38,191.91c.26,3.86.48,7.93-1.29,11.36s-6.29,5.76-9.62,3.79c-3.65-2.16-3.3-8-.4-11.08s7.31-4.17,11.45-5.09"/><path class="cls-36" d="M221.76,246.38a157.57,157.57,0,0,0-.19-19c-.21-3-.7-6.35-3.11-8.15-3.14-2.34-8-.43-9.9,3s-1.36,7.7-.11,11.41a31.7,31.7,0,0,0,9,13.58c1.1,1,2.47,1.92,3.91,1.65s2.3-2.49,1-3.22"/><path class="cls-22" d="M245.13,347.6A111.13,111.13,0,0,1,253.55,364c1.49,3.6,2.65,8.16.06,11.07-2.87,3.24-8.65,1.78-11.15-1.74s-2.63-8.16-2.47-12.48c.18-4.69,1.36-10.41,5.85-11.77"/><path class="cls-10" d="M320,347.75c-.19,4.63-7.3,25.57-6,40,1.08,11.94,10.25,15.2,20.49,14.89,19-.56,48.92,5.51,48.92,5.51,1.82-1.28.78-12.42-.46-15.51-.75-1.87-8-2.93-8.87-3.25-1.72-.6-18.56-18.49-34.28-8.42-1,.67,13.16-32.24,13.38-33.35.13-.57-8.88-27-9.3-28.84-2.1-9.66-14.57,13.47-14.57,13.47Z"/><path class="cls-37" d="M350.38,318.66s5.51,9,3.42,14.53c-3.12,8.28-4,36.68-4,36.68s-12.35,7.6-30.77-1.79c-5.39-2.75-9.72-7.71-9.5-8.92,1.61-9.2,5.93-30.52,14.47-46.72,3.5-6.64,26.42,6.22,26.42,6.22"/><path class="cls-7" d="M347.68,337.68s-3.08,4.32-1.57,9.25c.25.85-1.32,52.74-1.57,55.15-.75,7.13-.25,12.33,1.83,24.51,3.44,20.21,4.37,57.14,4.37,57.14,0,.83,1,2.65,5.21,2.79,6.42.21,9.34-5.42,9.38-6.5,0,0,13.65-44,3.12-64.36-.73-1.43,6.07-27.85,8-62.81.83-15.23-13.71-26.32-22.08-30-4.33-1.87-.53,10.31-.53,10.31Z"/><path class="cls-38" d="M336.22,326.51l8.24,56.71s3.17,2.16,11.21,0c22.72-6.15,29.69-13.11,29.69-13.11a82.83,82.83,0,0,1-5.21-21.49c-1.12-11.74-.8-17.93-9.51-27.14-7.25-7.67-22.39-12.09-22.39-12.09Z"/><path class="cls-7" d="M349.71,474.76c-.53-.36-1.21-1.12-1.5,1-.56,3.74-1,3.82-2.56,5.65-2.68,3.2-13.91,7.8-16.12,9.82a6,6,0,0,0-2,4,7.86,7.86,0,0,0,.92,3.48c1.38,1.38,4.5,1.85,6.7,1.85,4.27,0,14.09-2.81,14.09-2.81,1-.78,23-11.36,23-11.36s.51-5.23-3.65-11.06c0,0-2.2-1.88-3,.51-2.38,7.42-10.68,4.76-10.68,4.76s1.55-5.18-.49-4.82-2.61.41-4.71-1"/><path class="cls-39" d="M327.47,495c.46,1.81,4.3,4.3,7.53,4.81,7.52,1.16,23.09-6.34,29.85-9.85,1.93-1,4.34-2.58,4.7-5.61.82-7.1.95-5.82.95-5.82a16.43,16.43,0,0,1,1.79,6s.51,3.93-1.31,5a69.76,69.76,0,0,1-12.16,5.17c-5.7,1.95-13.63,7.53-22.56,7.12-2.2-.11-7.07-1.51-8.49-3.64a8,8,0,0,1-.3-3.25"/><path class="cls-10" d="M270.81,280.41c3.8,1.59,9.67,5.78,13,8.21,11.85,8.62,28,22.89,38,9.13a37.85,37.85,0,0,0,6.29-15.34c2.67-16.46,4.54-53,4.54-53,.22-2-3-9.21-12.78-7.18-11.32,2.33-18.28,10.53-17.58,24.12,1.58,30.89,1.58,33.91,1.35,36.54-.46,5.38-31.88-16.55-31.88-16.55s-6.52,11.73-.9,14.08"/><path class="cls-17" d="M298.53,249.56s8.33-24.08,12.75-30.18,14-11.4,23.94-7.73c7.73,2.87,8.48,9.8,7.13,13.23-3.33,8.32-16.51,36-16.51,36a85.18,85.18,0,0,1-11.68-2.63c-13.54-3.74-15.64-8.7-15.64-8.7"/><path class="cls-14" d="M381.5,333.22s-9.33-18.53-8.41-34.48c1.63-28.18,14.92-51.76,9.58-60.84-1.41-2.37-22.1-18.89-30.56-23.31-5.47-2.85-18.61-4.8-24.58-1.4-5.43,3.1-8.8,10.16-11.07,22.45-1.65,9-5.34,15.86-.73,67.76.58,6.43,0,8.61-1.83,12.59-1.34,3,6.17,10.48,22.25,15.64,22.91,7.37,44.19,3.19,45.35,1.58"/><path class="cls-7" d="M333,228.42c2.12,4.31,9,3.71,13.42,1.31a16.83,16.83,0,0,0,8.71-12.49l2.76-19.92-23.79,5.8.3,14.2s-3.19,7.48-1.4,11.1"/><path class="cls-10" d="M338.68,178.92h0l16,3-5.11,28.89c-.59,1.92-.83,3.74-1.48,5.35a8.19,8.19,0,0,1-4.41,4.59,36.35,36.35,0,0,1-7.28,2.65c-2.23.52-4.62,1.8-9.77.61-5-1.14-5.91-5.88-6.12-8.69-.37-5.47-.48-33.15-.48-33.15l2.76-9.2Z"/><path class="cls-40" d="M326,169.44c-3.55,2.09-6.7,4.79-6.85,8.73-.12,2.67.2,3.68,5.52,3.9,5.9.27,8.66,10,8.67,10s1.49-8.21,1.3-8.48,2.47,8,2.47,8a33.27,33.27,0,0,0,2.23-3.4c1.61-3.26,7.17,2.13,7.55,8.23,0,0,0,7.07,1.48,7.32s1.37-.43,2-1.77c0,0,1.31-5.1,5.22-2.42,2.62,1.77-.57,8.36-3.21,8.2l3.31,5.32a14,14,0,0,1,2.06-5.37c1.81-2.4,2.8-4.6,3.91-6.3,5.67-8.66,5.19-18.37.47-25.37-1.47-2.17-8.28-8.25-8.06-9.43a10,10,0,0,1-3.73.22c-6.33-1.33-3-3.63-3-3.63-1.56-.59-6.32,1.94-6.65,2.13-2.64,1.4-2.2-1.56-2.2-1.56-2.32.63-12.49,5.71-12.49,5.71"/><path class="cls-7" d="M355.25,197.45c-4.13-.75-5.55,4.35-5.55,4.35l-1.32,7.11a2.48,2.48,0,0,0,1.38,2.42c2.25.92,3.65-.94,5.12-3,.1-.12,2-3.21,2.17-3.39,1.67-2.62,2.12-6.73-1.8-7.49"/><path class="cls-7" d="M393.18,342.34c.31,3.38-5.52,3.56-8.42,3.66-1,0,5.39,9.42-2.23,8.44A22.5,22.5,0,0,1,378,347.7c-.1-.29-.65-1.83,1-4.2,4.46-6.3,6.87-6.66,9.77-6.74s4.07,2.24,4.37,5.58"/><path class="cls-10" d="M386.81,336.11l-3.21,2.27s1.3,13-.82,12.73l-2.69-.41s-5.21-.6,1.66,7.07a5.86,5.86,0,0,0,4.52,1.7c3.09-.18,7.49-1.85,8.06-2,3.53-1.07,3.9-5.69,3.9-5.69l.34-13.25c.09-4.93-11.76-2.39-11.76-2.39"/><path class="cls-10" d="M392.36,344.84c6-.71,5.88-1.69,6.33-3.83,1.94-9.07,4.25-29.55,4.86-45.74a37.56,37.56,0,0,0-3-15.6c-6.48-14.62-20.24-44.49-20.24-44.49-.88-1.72-7.13-5.84-13.75.84-7.65,7.73-8.85,17.93-1.25,28.49,17.28,24,15.65,25.28,16.45,27.67,1.19,3.57,4.6,47.62,4.6,47.62s.39,5.69,6.06,5"/><path class="cls-17" d="M375.63,282s-11.45-17.51-14.23-24.17-2.37-17.15,5.41-23.33c6.06-4.83,12-1.95,14.11.89,5.1,6.92,17.71,34.46,17.71,34.46s-1.58,3.31-8.65,6.81c-9.39,4.65-14.35,5.35-14.35,5.35"/><path class="cls-10" d="M372.17,406.72c-.58.28-1.58.46.06,1.78,2.92,2.39,2.76,2.83,3.55,5.09,1.38,3.94-.42,15.95.19,18.87a6,6,0,0,0,2.39,3.76,7.94,7.94,0,0,0,3.46,1c1.9-.48,3.9-2.92,5-4.81,2.22-3.65,4.8-13.54,4.8-13.54-.15-1.27,2-25.55,2-25.55s-4.23-3.12-11.37-2.52c0,0-2.74.93-1.08,2.81,5.15,5.84-1.38,11.61-1.38,11.61s-3.65-4-4.39-2-1,2.45-3.25,3.54"/><path class="cls-39" d="M378.2,436.21c1.78.54,5.9-1.49,8-4,4.85-5.87,6.38-23.08,6.82-30.68.14-2.16,0-5-2.41-6.9-5.68-4.35-4.52-3.8-4.52-3.8a16.37,16.37,0,0,1,6.11,1.56s3.64,1.57,3.66,3.71A69.63,69.63,0,0,1,394,409.18c-1.24,5.89-.51,15.56-5.44,23-1.22,1.83-4.92,5.29-7.47,5.43a8.13,8.13,0,0,1-2.94-1.41"/><path class="cls-39" d="M339,490.21s15.15-2.22,16.32,4.37l3.5.24s-2.41-8.89-17.08-5.37c-.87.21-1.79.46-2.75.76"/><path class="cls-39" d="M342.65,483.77s-2.55,3.36-.92,5.68l-2.75.76a4.47,4.47,0,0,1,.8-4.75Z"/><path class="cls-39" d="M380.48,426a23,23,0,0,1,11.16-5.72l.84-3.91s-12.42,3.63-12,9.63"/><path class="cls-39" d="M376.24,421.79a4.45,4.45,0,0,1,5,1.34l-.79,2.85s-2-3.92-4.34-2.24Z"/><path class="cls-17" d="M323,300.92q0-7.21,0-14.43a4.44,4.44,0,0,1,.74-2.95c1-1.13,2.82-1,4.16-.3,4.81,2.39,5.83,8.87,5,14.18a3.14,3.14,0,0,1-.47,1.44,2.92,2.92,0,0,1-1.54.92,12.71,12.71,0,0,1-9-.57"/><path class="cls-17" d="M342.43,258.6c-1.1-1.22-3.2-1-4.46,0a7,7,0,0,0-2,4.37,17.09,17.09,0,0,0,8.47,17.12,2,2,0,0,0,1.56.34c.69-.23.94-1.06,1.07-1.79a29.07,29.07,0,0,0-5.29-22.18"/><polygon class="cls-38" points="362.06 357.3 366.25 390.73 367.64 388.01 363.73 354.51 362.06 357.3"/><path class="cls-20" d="M264.8,254.95s-1.28,1.33,1,4.79,3.67,3.5,3.3,5.36-6.62,7-6.62,7-3,4.26-4.83,1.56-3.14-2.9-2.13-5S260.22,257.15,261,256a3.68,3.68,0,0,1,3.81-1.09"/></g></g></g></svg>