<svg xmlns="http://www.w3.org/2000/svg" xmlns:xlink="http://www.w3.org/1999/xlink" viewBox="0 0 311.58 504.5"><defs><style>.cls-1{fill:none;}.cls-2{isolation:isolate;}.cls-3{mix-blend-mode:multiply;}.cls-4{clip-path:url(#clip-path);}.cls-5{fill:#e0dad4;}.cls-6{clip-path:url(#clip-path-2);}.cls-7{fill:#bb805a;}.cls-8{fill:#e79d6e;}.cls-9{fill:#6d6e71;}.cls-10{fill:#424143;}.cls-11{fill:#f9a320;}.cls-12{fill:#9a1c1f;}.cls-13{fill:#ea116e;}.cls-14{fill:#0e0e0e;}.cls-15{fill:#423136;}.cls-16{fill:#e1dfdf;}.cls-17{fill:#efeeee;}.cls-18{fill:#d48c28;}.cls-19{fill:#4d4e4e;}.cls-20{fill:#4c5d80;}.cls-21{fill:#563425;}.cls-22{fill:#774631;}</style><clipPath id="clip-path"><rect class="cls-1" y="394.1" width="166.76" height="71.5"/></clipPath><clipPath id="clip-path-2"><rect class="cls-1" x="126.93" y="419.94" width="166.76" height="71.5"/></clipPath></defs><title>Asset 1@2</title><g class="cls-2"><g id="Layer_2" data-name="Layer 2"><g id="Layer_1-2" data-name="Layer 1"><g class="cls-3"><g class="cls-4"><path class="cls-5" d="M166.76,429.84c0,19.75-37.33,35.76-83.38,35.76S0,449.58,0,429.84s37.33-35.76,83.38-35.76,83.38,16,83.38,35.76"/></g></g><g class="cls-3"><g class="cls-6"><path class="cls-5" d="M293.69,455.68c0,19.75-37.33,35.75-83.38,35.75s-83.38-16-83.38-35.75,37.33-35.76,83.38-35.76,83.38,16,83.38,35.76"/></g></g><path class="cls-7" d="M107.25,119.56l8.13,60.39s13.12,47,15.8,53.47c4.53,11-9.88,16.76-14.45,2.33-3.89-12.29-17.9-45.16-19-50.37S78.6,126.81,77,118.55c-2.25-12,2.89-13.21,8.56-15.43,8.45-3.32,20.27,6.76,21.66,16.44"/><path class="cls-7" d="M123.94,224.69c-3.3-1.34-8.67-1.81-8.14,5.74s3,20.77,2.26,22.4-4,5.88-2.08,7c1.73,1,2.68.17,2.68.17s.41,3.48,3.81,2.52c0,0-.47,2.54,4.16,2.31,0,0-.19,3.21,4.11,2.25s9.36-9.91,8.53-13.45-4.52-14.43-5.23-17.1c-1.17-4.35-6.06-10.2-10.09-11.84"/><path class="cls-8" d="M115.58,257.6c.69.91,2.82,2,4,1.24a2.77,2.77,0,0,0,3.92,2.29s-.4,2.91,4.25,2.44c0,0,1.75,3.67,6.62-3.74,2.83-4.32,2.18-6.39-.32-13.93,0,0,0,8.62-.31,9.46s-3.29,4.14-4.17-.09.05-12.7-4.29-15c-1.82-1-6.21-1.56-8.41-.42.81,6,1.65,11.91,1.2,13s-1.95,3.12-2.48,4.78"/><path class="cls-8" d="M107.25,234.46c0,57.76-6.18,69.56-9.6,86.73-7.44,37.33-6.77,84.73-6.77,89.28,0,5.61-13.34,3.38-13.34-1.38s-11.45-46.82-1.81-87.94c0,0-5.8-28.47-5.8-76.07,0-30.76,37.33-27.48,37.33-10.62"/><path class="cls-8" d="M84.13,247.8c0,57.76-6.19,69.56-9.61,86.73-7.43,37.33-6.67,83.95-6.67,88.5,0,5.61-13.41,4.78-13.41,0S43,375.61,52.6,334.49c0,0-11.91-44.21-11.91-91.8,0-23,43.44-11.74,43.44,5.12"/><path class="cls-7" d="M98.39,109.2c-7.43-6.66-14.64-7-23.23-1.94-5.11,3-7.17,4.13-14,8.05L40.89,127c-7,4-4.5,19.54-.27,43.73,2.15,12.28,10.07,38.16,9.16,50.59l-9.45,17.28c-1.23,3.72-4,15.69,25.13,18.9,9.73,1.07,42.69-11.75,42.6-22.81-.06-6.79-2.44-12.31-2.44-18.66,0-20.22,7.84-53.54,7.84-64.1,0-14.66-11.73-39.77-15.07-42.78"/><path class="cls-8" d="M82.48,175.92s7.22,16.43,24.25,24.12c2.16-18.65,6.73-40,6.73-48.05,0-14.66-11.73-39.78-15.07-42.78-7.43-6.66-14.64-7-23.23-1.94-5.11,3-7.17,4.13-14,8.05L40.88,127c-7,4-4.5,19.54-.27,43.73,1.72,9.84,7.16,28.44,8.77,41.83,10.66-6.46,31.71-21.07,33.09-36.68"/><path class="cls-7" d="M73.89,97c7.72.51,16.61,5.12,16.1,12.84-.67,10.2-1.39,7.51-1.52,11.74,0,1.12,2.44,4.47-2.62,7.34s-18.4.2-24.43-3.82c-2.51-1.68-7.12-5.15-6.1-6.67.73-1.09,5.49-4.23,7.73-13.16C64.92,97.82,73.89,97,73.89,97"/><polygon class="cls-9" points="79.86 431.98 85.1 428.96 80.64 424.39 79.86 431.98"/><path class="cls-10" d="M99.27,423a32.77,32.77,0,0,0,8.51,9.43c6,4.77,5.52,9.27,2.94,10.76s-9.48,1.22-18.75-4.14c-8-4.63-11.32-14.66-11.32-14.66L79.86,432l-3.38-1.86v-15.7c0-5.2,1.39-6.5,4.66-8.18,7.13-3.65,15.48,12.51,18.13,16.76"/><path class="cls-8" d="M90.87,409s3.66,6.39,10.46,16.77c3.94,6-5.52,9-10.49,3.56-4.07-4.45-14.11-16.29-14.11-18a10.18,10.18,0,0,1,.62-3.85,8.34,8.34,0,0,1,7.3-4.32c4.28,0,6.22,5.88,6.22,5.88"/><polygon class="cls-9" points="57.09 445.13 62.33 442.1 57.87 437.54 57.09 445.13"/><path class="cls-10" d="M76.5,436.15A32.77,32.77,0,0,0,85,445.58c6,4.77,5.52,9.27,2.94,10.75s-9.48,1.22-18.75-4.13c-8-4.63-11.32-14.66-11.32-14.66l-.78,7.59-3.38-1.86V427.56c0-5.2,1.38-6.5,4.66-8.18,7.13-3.65,15.48,12.51,18.13,16.77"/><path class="cls-8" d="M68.1,422.11s3.67,6.39,10.46,16.76c3.94,6-5.52,9-10.49,3.56C64,438,54,426.15,54,424.39a10.13,10.13,0,0,1,.62-3.84,8.33,8.33,0,0,1,7.29-4.32c4.28,0,6.22,5.88,6.22,5.88"/><path class="cls-11" d="M51.76,212.77c-1,0-14.32,18.56-14.32,41.29,0,18.94,3.24,136.35,7.37,183.36,1.05,12,16.53,13.21,24.52,8.6S99.58,429.61,101,427.77c2.3-3.1,15.59-188.28,6.15-226.49,0,0-9.71,14.82-34.41,14.82-15.24,0-20.92-3.33-20.92-3.33"/><path class="cls-12" d="M53.37,175.24s6.29,11.1,24.14,8.06c0,0-3,5-15,2.92-5.24-.9-9.07-6.56-9.15-11"/><path class="cls-7" d="M79.86,290.6a3.83,3.83,0,0,1-.08-.78,3.89,3.89,0,0,0,.08.79Z"/><path class="cls-7" d="M80.07,291.28h0a3.07,3.07,0,0,1-.14-.42,3.21,3.21,0,0,0,.14.43"/><path class="cls-7" d="M80.28,291.61l-.08-.12Z"/><path class="cls-7" d="M39.54,253.57c-3.13-.86-9.5,2.27-8.95,7.5s.85,22.42,2,24.88a4.78,4.78,0,0,0,4,3A6.07,6.07,0,0,0,40,290.32a4.37,4.37,0,0,0,4.2.87,3.54,3.54,0,0,0,3.67,1.87c2.65-.33,8.3-.58,7.85-3.5s-4.05-1.07-5.06-1.69-.86-4-1.58-9.73c0,0,2.3,9.56,5.13,8.78,3.41-.94.78-2.47-1.24-12.62s-4.88-18.36-13.45-20.74"/><path class="cls-7" d="M38.09,144c2.13,12.22,7.21,47.48,7.21,47.48a34.71,34.71,0,0,0,1.86,5.87c2.93-15.8,9.87-45.56,10.28-48.18.51-3.52-.34-20.35-11.14-22-2.6-.39-8.09,1.47-9,3-1.26,3.55-.05,9.15.78,13.84"/><path class="cls-7" d="M45.7,127.31c-10.52-1.59-16.1,14.36-18.26,24.31-2.51,11.54-4.93,47.83-3.94,56s5.76,48.08,7.59,61.77c1.27,9.47,17.8,6.7,16.71-1s-6.41-58-6.59-65.23,14.95-50.24,15.47-53.77-.2-20.45-11-22.08"/><path class="cls-13" d="M25.45,192.69l73.4-12c10.52-2.79,16-16.49,22.69-29.33l5.82-10.61c-3.78-27.79-4.44-41.54-38.78-29.2l-33.27,6.89C15.83,138.8,19.92,154.74,19,186.72Z"/><path class="cls-11" d="M88.95,146.21c-19,7.81-50.55,6.25-65.11-1.36,7.66-20.12,29.77-28.52,29.77-28.52s17.08,14.13,29.79,8.4c8.55-3.85,5.2-13.17,5.2-13.17s5.5-5.8,18-5.46a14,14,0,0,1,7.17,2.46c-2.65,10.72-9.59,31.39-24.84,37.65"/><path class="cls-11" d="M63.16,168.67c6.17.66,25-.38,42.54-14.95,9.78-8.11,15.37-22.76,18.41-34.16a67.26,67.26,0,0,1,4.76,8.4s.52,27.74-1.51,33.79c-2.21,6.61-4.12,7.79-7.8,19s-6.94,11.56-19.15,18.71-45.69,21.2-57.2,11.43S13.66,197,13.66,197c1.2-4.81,4.35-38.09,6.26-42.25,11.28,6.56,29.89,12.51,43.24,13.93"/><path class="cls-8" d="M96.47,49.17c6.58,4.46,9.73,12.63,9.62,16.64l-2.2,28.59c-1.53,12.22-8.32,21.38-19.53,21a86.78,86.78,0,0,1-26-13.89c-4.08-3.16-7.5-3-10.51-8.52l-.69-11.53c-4.35-27,15.4-40.42,30.56-39.1,12,1.06,18.75,6.76,18.75,6.76"/><path class="cls-14" d="M105.67,71.21s-.9-9.71-8.46-11.93-11.65-.83-11.65-.83S85.64,65,77.31,71s-13.46,19-13.49,23.7H61.66s-.66-6.81-2.11-7.94c-2-1.54-7.57-4.11-9.56-.9-2.31,3.72-.56,5.89-.56,5.89s4.49,6.85,8.95,9.79c0,0-6.49,1-13.26-11.26,0,0-17.64-3.36-18.24-21.39s8.52-35.27,28.66-27.21a32.64,32.64,0,0,1,16.25-3.49c8,.61,39.88,10.15,33.91,33"/><path class="cls-15" d="M73.65,38.38a12.71,12.71,0,0,1,4.93-9.86s-4.25,2.13-6.82,9.69Z"/><path class="cls-15" d="M78.59,28.53s-2.12-5.78,5.3-4.66c0,0,.75,3.61-5.3,4.66"/><path class="cls-15" d="M75.05,31.83s.75-4.41,0-6.75c0,0,2.78-3.28-1.4-6,0,0-3.18,3.4.81,6.09a18,18,0,0,1-.1,8.23Z"/><path class="cls-15" d="M71.14,13.79s6.09-.9,1.55-6.88c0,0-3.53,1.07-1.55,6.88"/><path class="cls-15" d="M69.93,18.48s3.51-2.77,5.91-3.27c0,0,1.55-4,5.91-1.62,0,0-1.47,4.42-5.74,2.2a18,18,0,0,0-7.18,4Z"/><path class="cls-15" d="M47,7.65s3.66-5-3.77-6c0,0-1.74,3.25,3.77,6"/><path class="cls-15" d="M49.43,11.81s.51-4.44,1.86-6.49c0,0-1.75-3.93,3-5.32,0,0,2.09,4.16-2.49,5.61a18,18,0,0,0-2.22,7.93Z"/><path class="cls-15" d="M44.58,35.74s-1.89-5.86,5.48-4.43c0,0,.6,3.64-5.48,4.43"/><path class="cls-15" d="M59.46,19.75s-1.89-5.87,5.48-4.43c0,0,.6,3.64-5.48,4.43"/><path class="cls-15" d="M30.46,33.59s2-5.82,7-.27c0,0-1.7,3.28-7,.27"/><path class="cls-15" d="M54.45,27.11s.94-4.37.32-6.74c0,0,2.92-3.17-1.16-6,0,0-3.32,3.27.56,6.12a18,18,0,0,1-.44,8.22Z"/><path class="cls-15" d="M54.07,36.19s1.33-4.26,3-6c0,0-1-4.19,4-4.67,0,0,1.27,4.48-3.5,5.05a18,18,0,0,0-3.66,7.38Z"/><path class="cls-15" d="M36,25.09s-5.94-1.63-.7-7c0,0,3.37,1.48.7,7"/><path class="cls-15" d="M36.58,29.88s-3.14-3.18-5.46-4c0,0-1.06-4.17-5.67-2.32,0,0,.92,4.56,5.43,2.88a18,18,0,0,1,6.64,4.87Z"/><path class="cls-15" d="M50,32.67s-.56-4.43-1.93-6.47c0,0,1.7-4-3.09-5.28,0,0-2,4.18,2.56,5.58a17.93,17.93,0,0,1,2.31,7.9Z"/><path class="cls-15" d="M50.31,22.87s-.8-4.4-2.27-6.36c0,0,1.49-4-3.37-5.11,0,0-1.82,4.29,2.86,5.44a17.92,17.92,0,0,1,2.73,7.77Z"/><path class="cls-15" d="M31.53,23.48s-1-4.36-.37-6.74c0,0-2.94-3.15,1.12-6,0,0,3.34,3.25-.52,6.12a18,18,0,0,0,.5,8.22Z"/><path class="cls-15" d="M41.94,43.61s-1-4.36-.37-6.74c0,0-2.94-3.15,1.12-6,0,0,3.34,3.25-.52,6.12a18,18,0,0,0,.49,8.22Z"/><path class="cls-15" d="M19,36.68s-3.74-4.89-6.76,2c0,0,2.64,2.56,6.76-2"/><path class="cls-15" d="M10.06,32.27s2-2.56,3.56,1.1c0,0-1.42,1.33-3.56-1.1"/><path class="cls-15" d="M23.66,35.46s-4.12-1.73-5.73-3.58c0,0-4.27.59-4.27-4.38,0,0,4.57-.86,4.7,3.95a18,18,0,0,0,7,4.32Z"/><path class="cls-13" d="M68.24,37.06a3.71,3.71,0,1,0,4.68-2.37,3.71,3.71,0,0,0-4.68,2.37"/><path class="cls-15" d="M60.46,39.69S40.61,61.43,45.1,90.3l-2.52-.72S37.7,64.66,55.52,41.71Z"/><path class="cls-15" d="M65.58,38.48S67,20.66,71.93,13c0,0-11.38,14.5-9.81,26.23Z"/><path class="cls-15" d="M55.52,41.71s3.24-26.65,8.89-36c0,0-8.68,5-11.41,35.77Z"/><path class="cls-15" d="M51.33,43.48s.07-29.56-3.11-41.11c0,0,.37,44.09,1.37,48.48Z"/><path class="cls-15" d="M47.29,55.63s-6.76-36.37-25-41.53c0,0,20.63,19.14,23.45,45.37Z"/><path class="cls-15" d="M44.08,64.94S31.45,28.21,13,33c0,0,20.78,9.15,30.5,34.2Z"/><path class="cls-15" d="M42.68,75.51s-15.22-28.41-35-24.94c0,0,23.6,6.48,35,27.82Z"/><path class="cls-13" d="M50.32,25.73A2.91,2.91,0,1,0,54,23.87a2.9,2.9,0,0,0-3.68,1.86"/><path class="cls-13" d="M25.4,53.36a2.92,2.92,0,1,0,3.68-1.86,2.91,2.91,0,0,0-3.68,1.86"/><path class="cls-13" d="M65.45,25.19a2.92,2.92,0,1,0,3.68-1.86,2.91,2.91,0,0,0-3.68,1.86"/><path class="cls-13" d="M59.43,7.67A2.92,2.92,0,1,0,63.11,5.8a2.91,2.91,0,0,0-3.68,1.86"/><path class="cls-13" d="M46.35,7.28A3.71,3.71,0,1,0,51,4.92a3.71,3.71,0,0,0-4.68,2.36"/><path class="cls-13" d="M32.63,66.53a3.71,3.71,0,1,0-4.29-3,3.71,3.71,0,0,0,4.29,3"/><path class="cls-13" d="M35.11,24.75a3.71,3.71,0,1,0,4.68-2.37,3.71,3.71,0,0,0-4.68,2.37"/><path class="cls-13" d="M26.78,39.87a3.71,3.71,0,1,0,4.68-2.37,3.71,3.71,0,0,0-4.68,2.37"/><path class="cls-13" d="M41,40.36A3.71,3.71,0,1,0,45.72,38,3.71,3.71,0,0,0,41,40.36"/><path class="cls-14" d="M94.09,62.39a.85.85,0,0,0,1.1.41.83.83,0,0,0,.26-1.13.85.85,0,0,0-1.1-.41.82.82,0,0,0-.27,1.13"/><path class="cls-14" d="M93.07,60.5a.85.85,0,0,0,1.1.42.82.82,0,0,0,.26-1.13.84.84,0,0,0-1.1-.41.82.82,0,0,0-.27,1.13"/><path class="cls-14" d="M92.09,58.7a.84.84,0,0,0,1.1.41A.81.81,0,0,0,93.45,58a.84.84,0,0,0-1.1-.41.82.82,0,0,0-.27,1.13"/><path class="cls-14" d="M91,56.76a.84.84,0,0,0,1.1.41A.82.82,0,0,0,92.4,56a.84.84,0,0,0-1.1-.41A.81.81,0,0,0,91,56.76"/><path class="cls-14" d="M93.27,65.3a.84.84,0,0,0,1.1.41.82.82,0,0,0,.27-1.13.84.84,0,0,0-1.1-.41.82.82,0,0,0-.27,1.13"/><path class="cls-14" d="M92.21,63.35a.84.84,0,0,0,1.1.41.82.82,0,0,0,.27-1.13.84.84,0,0,0-1.1-.41.81.81,0,0,0-.26,1.13"/><path class="cls-14" d="M91.19,61.47a.85.85,0,0,0,1.1.41.83.83,0,0,0,.26-1.13.85.85,0,0,0-1.1-.41.82.82,0,0,0-.27,1.13"/><path class="cls-14" d="M90.21,59.66a.84.84,0,0,0,1.1.42.82.82,0,0,0,.27-1.13.84.84,0,0,0-1.1-.41.82.82,0,0,0-.27,1.13"/><path class="cls-14" d="M89.15,57.72a.84.84,0,0,0,1.1.41A.81.81,0,0,0,90.52,57a.84.84,0,0,0-1.1-.41.82.82,0,0,0-.27,1.13"/><path class="cls-14" d="M92.45,68.22a.84.84,0,0,0,1.1.41.81.81,0,0,0,.26-1.13.84.84,0,0,0-1.1-.41.82.82,0,0,0-.27,1.13"/><path class="cls-14" d="M91.39,66.26a.84.84,0,0,0,1.1.41.82.82,0,0,0,.27-1.13.84.84,0,0,0-1.1-.41.81.81,0,0,0-.26,1.13"/><path class="cls-14" d="M90.33,64.32a.84.84,0,0,0,1.1.41.81.81,0,0,0,.26-1.13.84.84,0,0,0-1.1-.41.82.82,0,0,0-.27,1.13"/><path class="cls-14" d="M89.31,62.43a.84.84,0,0,0,1.1.41.82.82,0,0,0,.27-1.13.85.85,0,0,0-1.1-.42.82.82,0,0,0-.26,1.13"/><path class="cls-14" d="M88.33,60.63a.85.85,0,0,0,1.1.41.82.82,0,0,0,.26-1.13.84.84,0,0,0-1.1-.41.82.82,0,0,0-.27,1.13"/><path class="cls-14" d="M87.27,58.68a.85.85,0,0,0,1.1.42A.83.83,0,0,0,88.64,58a.84.84,0,0,0-1.1-.41.82.82,0,0,0-.27,1.13"/><path class="cls-14" d="M90.57,69.18a.85.85,0,0,0,1.1.41.82.82,0,0,0,.27-1.13.84.84,0,0,0-1.1-.41.82.82,0,0,0-.27,1.13"/><path class="cls-14" d="M89.51,67.22a.85.85,0,0,0,1.1.42.82.82,0,0,0,.26-1.13.84.84,0,0,0-1.1-.41.82.82,0,0,0-.27,1.13"/><path class="cls-14" d="M88.45,65.28a.84.84,0,0,0,1.1.42.82.82,0,0,0,.27-1.13.84.84,0,0,0-1.1-.41.82.82,0,0,0-.27,1.13"/><path class="cls-14" d="M87.42,63.39a.84.84,0,0,0,1.1.41.81.81,0,0,0,.26-1.13.84.84,0,0,0-1.1-.41.82.82,0,0,0-.27,1.13"/><path class="cls-14" d="M86.45,61.59a.85.85,0,0,0,1.1.41.82.82,0,0,0,.26-1.13.84.84,0,0,0-1.1-.42.82.82,0,0,0-.27,1.13"/><path class="cls-14" d="M85.39,59.65a.84.84,0,0,0,1.1.41.82.82,0,0,0,.27-1.13.85.85,0,0,0-1.1-.41.82.82,0,0,0-.26,1.13"/><path class="cls-14" d="M88.69,70.14a.84.84,0,0,0,1.1.41.82.82,0,0,0,.27-1.13A.85.85,0,0,0,89,69a.82.82,0,0,0-.26,1.13"/><path class="cls-14" d="M92.21,72.43a.84.84,0,0,0,1.1.41.81.81,0,0,0,.26-1.13.84.84,0,0,0-1.1-.41.82.82,0,0,0-.27,1.13"/><path class="cls-14" d="M90.33,73.39a.84.84,0,0,0,1.1.41.82.82,0,0,0,.27-1.13.85.85,0,0,0-1.1-.41.82.82,0,0,0-.26,1.13"/><path class="cls-14" d="M93.74,75.45a.84.84,0,0,0,1.1.42.82.82,0,0,0,.27-1.13.85.85,0,0,0-1.1-.41.82.82,0,0,0-.26,1.13"/><path class="cls-14" d="M91.85,76.42a.85.85,0,0,0,1.1.41.82.82,0,0,0,.26-1.13.84.84,0,0,0-1.1-.41.82.82,0,0,0-.27,1.13"/><path class="cls-14" d="M87.63,68.18a.84.84,0,0,0,1.1.41A.82.82,0,0,0,89,67.46a.85.85,0,0,0-1.1-.41.82.82,0,0,0-.27,1.13"/><path class="cls-14" d="M86.57,66.24a.84.84,0,0,0,1.1.41.82.82,0,0,0,.27-1.13.85.85,0,0,0-1.1-.41.82.82,0,0,0-.26,1.13"/><path class="cls-14" d="M85.55,64.35a.84.84,0,0,0,1.1.42.82.82,0,0,0,.27-1.13.84.84,0,0,0-1.1-.41.82.82,0,0,0-.27,1.13"/><path class="cls-14" d="M84.57,62.55a.84.84,0,0,0,1.1.41.82.82,0,0,0,.27-1.13.84.84,0,0,0-1.1-.41.82.82,0,0,0-.26,1.13"/><path class="cls-14" d="M83.51,60.61a.84.84,0,0,0,1.1.41.81.81,0,0,0,.26-1.13.84.84,0,0,0-1.1-.41.82.82,0,0,0-.27,1.13"/><path class="cls-14" d="M86.81,71.1a.84.84,0,0,0,1.1.41.81.81,0,0,0,.26-1.13.84.84,0,0,0-1.1-.41.82.82,0,0,0-.27,1.13"/><path class="cls-14" d="M85.74,69.14a.84.84,0,0,0,1.1.41.81.81,0,0,0,.26-1.13A.84.84,0,0,0,86,68a.82.82,0,0,0-.27,1.13"/><path class="cls-14" d="M84.69,67.2a.84.84,0,0,0,1.1.41.81.81,0,0,0,.26-1.13.84.84,0,0,0-1.1-.41.82.82,0,0,0-.27,1.13"/><path class="cls-14" d="M83.67,65.31a.84.84,0,0,0,1.1.41A.82.82,0,0,0,85,64.59a.85.85,0,0,0-1.1-.41.82.82,0,0,0-.26,1.13"/><path class="cls-14" d="M82.69,63.51a.85.85,0,0,0,1.1.42.82.82,0,0,0,.26-1.13.84.84,0,0,0-1.1-.41.82.82,0,0,0-.27,1.13"/><path class="cls-14" d="M81.63,61.57a.84.84,0,0,0,1.1.41A.82.82,0,0,0,83,60.85a.84.84,0,0,0-1.1-.41.82.82,0,0,0-.27,1.13"/><path class="cls-14" d="M83.87,70.1a.84.84,0,0,0,1.1.41.81.81,0,0,0,.26-1.13.84.84,0,0,0-1.1-.41.82.82,0,0,0-.27,1.13"/><path class="cls-14" d="M82.81,68.16a.84.84,0,0,0,1.1.41.82.82,0,0,0,.27-1.13.84.84,0,0,0-1.1-.41.82.82,0,0,0-.27,1.13"/><path class="cls-14" d="M81.78,66.28a.85.85,0,0,0,1.1.41.81.81,0,0,0,.26-1.13.84.84,0,0,0-1.1-.42.82.82,0,0,0-.27,1.13"/><path class="cls-14" d="M80.81,64.48a.85.85,0,0,0,1.1.41.82.82,0,0,0,.26-1.13.84.84,0,0,0-1.1-.41.82.82,0,0,0-.27,1.13"/><path class="cls-14" d="M79.75,62.53a.84.84,0,0,0,1.1.42.82.82,0,0,0,.27-1.13A.85.85,0,0,0,80,61.4a.82.82,0,0,0-.26,1.13"/><path class="cls-14" d="M80.93,69.12a.84.84,0,0,0,1.1.42.82.82,0,0,0,.27-1.13.85.85,0,0,0-1.1-.41.82.82,0,0,0-.26,1.13"/><path class="cls-14" d="M79.91,67.24a.84.84,0,0,0,1.1.41.82.82,0,0,0,.27-1.13.84.84,0,0,0-1.1-.41.82.82,0,0,0-.27,1.13"/><path class="cls-14" d="M78.93,65.44a.84.84,0,0,0,1.1.41.82.82,0,0,0,.27-1.13.85.85,0,0,0-1.1-.42.83.83,0,0,0-.26,1.13"/><path class="cls-14" d="M77.87,63.5a.85.85,0,0,0,1.1.41.82.82,0,0,0,.26-1.13.85.85,0,0,0-1.1-.41.82.82,0,0,0-.27,1.13"/><path class="cls-16" d="M22.18,248c.82,2.43,3.1,4.15,6.41,4.85.32.07.63.11.94.15a15.91,15.91,0,0,0,3.86.16A22.7,22.7,0,0,0,46.22,248a16.66,16.66,0,0,0,1.33-1.32c2.24-2.55,3-5.29,2.2-7.73s-2.25-4.6-5.56-5.29c-.35-.07.1,0-.24,0,.15,1,1.07,13.86,1.24,14.84,2.29.49,3.79,1.52,4.29,3s-.09,3.24-1.66,5a2.31,2.31,0,0,1-.37.36c-3.73,3.86-10.73,6.08-16,5h-.06c-2.29-.49-3.82-1.55-4.32-3s.09-3.24,1.66-5A10.45,10.45,0,0,1,30,252.65c-.22-1.06-2.69-13.75-2.85-14.79a16,16,0,0,0-2.74,2.44c-2.24,2.53-3,5.26-2.2,7.7"/><polygon class="cls-16" points="22.18 247.99 27.11 258.82 36.5 261.94 46.22 254.97 49.48 251.44 50.03 241.43 45.19 248.47 42.64 254.19 37.45 256.44 30.55 255.29 29.96 252.65 25.37 248 22.18 247.99"/><path class="cls-8" d="M152.75,433.56c4.72-4.3,16-9.37,21.72-13.34a15.72,15.72,0,0,0,6.58-12c2.21-31.72-3.73-96.56-4.71-172,0,0,1.6-16.11,6.07-21.28,7.47-8.62,21.52,12.14,31.86,9.74,13.82-3.21,46.3,3.25,48,18.63,2.91,26.36,1,47.37.56,94.84,5.15,26.46,4.53,34.47,4,58.93-.44,20.85-3.11,32.63-1,53.75.6,4.94,1.28,8-2.56,12.85-1,1.19-7.12,8.78-13.75,17.15-13.89,17.51-32.35,7.44-32.35,1,0-7.71,19.65-22.72,21.78-27.6a31.45,31.45,0,0,0,1.71-5.3c0-20-11.75-108.7-24.78-166.32-1.42,6.58-2.45,31.69-2.74,35.72,5.86,23.12-3.14,40.51-7.4,84.7-.26,2.64.15,5.8-.07,8.64,1.57,7.93.84,11.58-2,14.39-1.83,1.8-3.48,2.17-6.53,3.67-11.06,5.79-21.27,16.3-30.35,19.42-6.9,2.38-23.67-6.87-14.1-15.6"/><path class="cls-17" d="M237.17,222s-13.37,70.8-13.37,91.17c0,39.22-11.45,62.3-14,71.62-2,7-3.88,9.17-15.07,10.31-4.65.48-18.55-.56-17.75-8,.41-3.81-4.08-9.28-4.76-20-.48-7.61-.88-18.68,3-63.79,0,0,1.31-22-1.88-65.19-3-41.05,44.62-6.92,63.85-16.12"/><path class="cls-16" d="M207.77,346.38c3.79-37.83-9.67-125.17-9.67-125.17s20.91,84.65,9.67,125.17"/><path class="cls-16" d="M194.23,241.63c-.42,94.2-13,123.44-13,123.44s9.67-51.91,13-123.44"/><path class="cls-16" d="M175.72,344.84c11.86-33.21,8.21-87.55,8.21-87.55s-1.15,53.42-8.21,87.55"/><path class="cls-16" d="M213.38,357.59s-2.22,14.07-5.9,20.6-12.09,12.35-12.09,12.35,14.59-4.73,16.36-16.47,1.64-16.47,1.64-16.47"/><path class="cls-17" d="M267.17,232.77s-3.92,64.78,0,87.72c7.56,44.2,1.86,71.45,1.07,82.52-.59,8.37-2.1,11.17-13,14.92-4.54,1.56-18.59,3.44-19.23-5.16-.34-4.39-5.86-9.55-8.59-21.43-1.94-8.46-4.47-20.84-9.28-72.53,0,0,12.48-31.73-14.43-73-15.46-23.75,57.39-39.58,63.48-13"/><path class="cls-16" d="M258.84,360.15c-3.51-43.46-35.69-136.2-35.69-136.2s39.07,88.09,35.69,136.2"/><path class="cls-16" d="M225.18,245.11C242.91,351.33,236,387,236,387s-.36-60.59-10.84-141.91"/><path class="cls-16" d="M226.62,365.44c5.41-40-8.68-100.43-8.68-100.43s9.14,60.44,8.68,100.43"/><path class="cls-16" d="M266.6,371.53s.49,16.35-1.91,24.51S255,412.6,255,412.6s13.62-8.54,13.12-22.15-1.54-18.92-1.54-18.92"/><path class="cls-17" d="M174.08,204.44s34.44,29.75,91.16,6.33v17.12s-75.73,19.42-91.33-10Z"/><path class="cls-8" d="M179.91,181.91a88.44,88.44,0,0,1-2.18,12.78l-.08.26c-1.32,4.7-3.48,9.14-5.35,13.66-1.71,4.08-3.25,8.21-4.75,12.34-2.68,7.27-5.38,14.68-6.67,22.39-.21,1.27-.42,2.57-.55,3.92a38.48,38.48,0,0,0-.13,7.56c.34,3.43-1.3,5.3-2.16,8.57-1.12,4.44,1,9,1.59,13.56a19.14,19.14,0,0,1-.5,7.59,5.47,5.47,0,0,1-1,2.36c0,.06-.06.08-.08.13a2.91,2.91,0,0,1-2.34,1.19,1.09,1.09,0,0,1-.49-.11c-.29,0-.57-.08-.88-.08-.68,0-1.27.42-1.92.45-1.46.07-2.44-1.38-3.17-2.59a68.17,68.17,0,0,0-4.1-5.75,21.23,21.23,0,0,1-3-4.37c-1.82-3.89-1.09-8.46.37-12.52,1.37-3.71,2.91-7.4,4.1-11.19a28.14,28.14,0,0,0,1-5.14c.18-1.58.31-3.22.52-4.81,0-.44.11-.86.16-1.3q2-13.21,4-26.49c.93-6.13,1.92-12.28,2.89-18.42.91-5.74,1.82-11.48,2.6-17.25.36-2.65.93-7.53,3.35-9.22,1.64-1.2,3.92-.83,5.93-.39,2.75.63,5.53,1.22,8.31,1.82,1.8.39,4.1,0,4.83,2,.81,2.26,0,6.68-.31,9"/><path class="cls-7" d="M153.18,254a3.16,3.16,0,0,1,1.51.83,3.64,3.64,0,0,1,.84,1.84,8.65,8.65,0,0,1-.45,5c-1.12,2.76-3.61,4.8-4.76,7.55a27.62,27.62,0,0,0-1.12,4.26,8.42,8.42,0,0,1-1.88,3.94c-.85.87-3.61,2.2-4.34.56-.67-1.49.25-3.22,1-4.47a17.07,17.07,0,0,0,2.36-7c.23-2.44-.2-4.91.34-7.34a7.83,7.83,0,0,1,1.73-3.66,4.83,4.83,0,0,1,2.18-1.38,4.76,4.76,0,0,1,2.59-.08"/><path class="cls-8" d="M185.05,91.18c-.42.08-1.37,2.16-1.61,2.55a18.06,18.06,0,0,0-1.46,2.8c-.8,2-.65,3.74-.62,5.83.13,5-.34,9.89-.6,14.83s-.39,9.63-.37,14.44c0,7.14.32,14.26.76,21.38.31,5.35.73,10.75.13,16.1a52.09,52.09,0,0,1-1.74,7.9c-.55,2.24-.47,4.58-1.12,6.88-.16.57-.31,1.3-.44,2.05-.49,2.41-1,5.43-2.23,6.88-1.69,2.08-6.06,2.13-8.36,1.64a9.18,9.18,0,0,1-1.87-.57,16.72,16.72,0,0,1-6.26-4.29c-1.95-2-2.83-3.74-3-5.85a12.43,12.43,0,0,1,.23-3.43c.68-3.74,1.32-7.51,2-11.27a139.92,139.92,0,0,1,2.8-13.9A141.69,141.69,0,0,0,165.88,135c.93-6.72,1.22-13.51,2.28-20.18,1.64-9.82,5.53-21.92,16.88-23.64"/><path class="cls-7" d="M181.29,169.1a51.5,51.5,0,0,1-1.74,7.9c-.55,2.24-.47,4.57-1.11,6.88-.16.58-.31,1.3-.45,2.05a12.36,12.36,0,0,0,1-.7,8.43,8.43,0,0,0-.46,1.82c-.24.7-.52,1.4-.78,2.11a15.24,15.24,0,0,0-.91,4c-.26,2.7-.7,5.45-1.19,8.1a113.23,113.23,0,0,1-5.12,17.46c-3,8.13-6.34,16.11-8.76,24.42-.41,1.46-.62,2.81-1.92,3.69a8.27,8.27,0,0,1-4.18,1.32h-.13c.68-4.94,1.77-9.81,2.8-14.68q4.21-19.67,7.15-39.61c.23-1.66.47-3.35.7-5,.47-3.32.88-6.67,1.29-10,1.12-9.17,2-18.33,2.73-27.56.18-2.36.31-5.14.75-7.9.73-4.36,2.28-8.62,6.16-10.73a8,8,0,0,1,3.25-1.06c0,7.15.31,14.26.75,21.38.31,5.35.73,10.75.13,16.1"/><path class="cls-11" d="M283.68,121.46c-1.17,1.79-.78,2.89-.78,5-.06,2-.11,3.95-.29,6-.39,4-1,8-1.66,12-.55,3.51-1.62,9.33-3,16.34-4.44,23.07-12.13,59.48-16.1,72.5-.26.8-.49,1.53-.7,2.13a14.21,14.21,0,0,1-.91,2.19c-1.92,3.35-5.9,4.8-9.35,5.95-2.13.67-4.26,1.32-6.44,1.9-11,2.94-22.57,4.26-33.79,2.36a48.75,48.75,0,0,1-7.84-2l-.21-.08c-.83-.26-1.67-.57-2.52-.89-1.09-.42-2.21-.83-3.32-1.27-1.3-.49-2.62-1-3.95-1.56-5.12-2-10-4.91-13.43-9.33-2.26-3-4.68-7.17-5.15-10.88-.15-1.24-.28-2.54-.36-3.84a5.89,5.89,0,0,1,0-.68c-.16-2.57-.16-5.25-.24-7.79q-.9-41.88-1.79-83.79a127.33,127.33,0,0,1,.6-16.94c.65-5,1.27-10.62,5.35-14.08a20.59,20.59,0,0,1,4.05-2.46c.68-.31,1.35-.63,2.05-.91a59.15,59.15,0,0,1,6.18-2.18,3.68,3.68,0,0,1,.55-.18h0c1.37-.42,2.78-.81,4.18-1.14l1.4-.37c1.46-.34,2.94-.68,4.42-1l.36-.08c6.65-1.35,13.43-2.28,20.14-3.45,3.22-.6,7-1.8,10.34-1.32a39.26,39.26,0,0,1,8.83,2.75c1.64.65,3.22,1.38,4.78,2.15l1.24.62c4.6,2.34,8.94,5.09,13.35,7.79,1.22.73,2.44,1.48,3.69,2.21A131,131,0,0,1,279,107.75a17.25,17.25,0,0,1,4.65,4.86,8.83,8.83,0,0,1,.08,8.86"/><path class="cls-15" d="M219.17,118.48c-18.54,1.7-28.87-15.57-18.12-32.7.9-1.44,0,2.34,1.14.88-.7-1.79-15.26-.91-16.06.72-10.64,21.35.61,46.14,7.08,52.19l.36.34c12.31,11.28,32.3,11.76,46.92,2.16,11.77-7.73,17.87-16.58,24.44-27a24.27,24.27,0,0,1,10.8-10c2-.95-14.44-17.43-25.87-19.26-1.9-.3-6.14-2.14-6.73.2,2.62.89,2.92,7.43,2.38,9.33-.71,2.5-8.85,21.52-26.35,23.13"/><path class="cls-15" d="M194.78,136c-.82,9.08,6.14,19.18,15.54,22.57s17.7-1.21,18.52-10.3-6.14-19.18-15.55-22.57S195.6,126.93,194.78,136"/><path class="cls-18" d="M278,160.77c-4.44,23.07-12.13,59.48-16.1,72.5-.26.8-.5,1.53-.7,2.13a15.26,15.26,0,0,1-.91,2.19c-1.93,3.35-5.9,4.8-9.35,5.95-2.13.67-4.26,1.32-6.44,1.9-.83-36.42,2.75-73,11.72-108.29,1.64-6.39,6.54-24.68,14.7-12.6,1.92,2.83,2.72,6.26,3.4,9.63a212.42,212.42,0,0,1,3.69,26.6"/><path class="cls-7" d="M242.74,83.56a50.07,50.07,0,0,1-1.69,10.11,21.77,21.77,0,0,1-4.45,8.71A28,28,0,0,1,226.16,110a25.11,25.11,0,0,1-12.83,2.12l-.28-.05a16.2,16.2,0,0,1-10.88-6.21,8.38,8.38,0,0,1-1.53-3.3c-.68-3.47,1.22-7.06,1.89-10.4a38,38,0,0,0,.75-8.86c0,1.29,5.84.4,6.55.15a31.29,31.29,0,0,0,5.71-2.83c4.1-2.44,7.66-7.19,10.57-10.9,5.63-7.23,10.09-15.29,14.49-23.34.12,2.32.2,4.61.32,6.93.24,5.38.49,10.79.73,16.18.23,4.77,1.21,9.32,1.08,14.11"/><path class="cls-19" d="M209.65,89.53c-.07.55-.3,1-.51.94s-.31-.5-.24-1.05.3-1,.51-.94.32.51.24,1.06"/><path class="cls-19" d="M210,87.08c-.07.55-.3,1-.51.94s-.31-.5-.24-1.05.3-1,.51-.94.32.51.24,1.06"/><path class="cls-19" d="M210.28,84.74c-.07.55-.3,1-.51.94s-.31-.5-.24-1.05.3-1,.51-.94.32.51.24,1.06"/><path class="cls-19" d="M210.61,82.22c-.07.55-.3,1-.51.94s-.31-.5-.24-1.05.3-1,.51-.94.32.51.24,1.06"/><path class="cls-19" d="M210.35,92.18c-.08.55-.3,1-.51.94s-.32-.5-.24-1.05.3-1,.51-.94.31.51.24,1.06"/><path class="cls-19" d="M210.68,89.66c-.07.55-.3,1-.51.94s-.31-.5-.24-1.05.3-1,.51-.94.32.51.24,1.06"/><path class="cls-19" d="M211,87.21c-.07.55-.3,1-.51.94s-.31-.5-.24-1.05.3-1,.51-.94.32.51.24,1.06"/><path class="cls-19" d="M211.31,84.88c-.07.55-.3,1-.51.94s-.31-.5-.24-1.05.3-1,.51-.94.32.51.24,1.06"/><path class="cls-19" d="M211.64,82.36c-.08.55-.3,1-.51.94s-.32-.5-.24-1.05.3-1,.51-.94.31.51.24,1.06"/><path class="cls-19" d="M211,94.86c-.07.55-.3,1-.51.94s-.31-.5-.24-1.05.3-1,.51-.94.32.51.24,1.06"/><path class="cls-19" d="M211.37,92.31c-.07.55-.3,1-.51.94s-.31-.5-.24-1.05.3-1,.51-.94.32.51.24,1.06"/><path class="cls-19" d="M211.71,89.8c-.07.55-.3,1-.51.94s-.31-.5-.24-1.05.3-1,.51-.94.32.51.24,1.06"/><path class="cls-19" d="M212,87.35c-.07.55-.3,1-.51.94s-.31-.5-.24-1.05.3-1,.51-.94.32.51.24,1.06"/><path class="cls-19" d="M212.33,85c-.07.55-.3,1-.51.94s-.31-.5-.24-1.05.3-1,.51-.94.32.51.24,1.06"/><path class="cls-19" d="M212.66,82.49c-.08.55-.3,1-.51.94s-.32-.5-.24-1.05.3-1,.51-.94.31.51.24,1.06"/><path class="cls-19" d="M212.07,95c-.07.55-.3,1-.51.94s-.31-.5-.24-1.05.3-1,.51-.94.32.51.24,1.06"/><path class="cls-19" d="M212.4,92.45c-.07.55-.3,1-.51.94s-.31-.5-.24-1.05.3-1,.51-.94.32.51.24,1.06"/><path class="cls-19" d="M212.73,89.93c-.08.55-.3,1-.51.94s-.32-.5-.24-1.05.3-1,.51-.94.32.51.24,1.06"/><path class="cls-19" d="M213.05,87.48c-.08.55-.3,1-.51.94s-.32-.5-.24-1.05.3-1,.51-.94.32.51.24,1.06"/><path class="cls-19" d="M213.36,85.14c-.08.55-.3,1-.51.94s-.32-.5-.24-1.05.3-1,.51-.94.31.51.24,1.06"/><path class="cls-19" d="M213.69,82.62c-.08.55-.3,1-.51.94s-.32-.5-.24-1.05.3-1,.51-.94.31.51.24,1.06"/><path class="cls-19" d="M213.09,95.12c-.07.55-.3,1-.51.94s-.31-.5-.24-1.05.3-1,.51-.94.32.51.24,1.06"/><path class="cls-19" d="M211.58,99.15c-.07.55-.3,1-.51.94s-.31-.51-.24-1.05.3-1,.51-.95.32.51.24,1.06"/><path class="cls-19" d="M212.6,99.28c-.07.55-.3,1-.51.94s-.31-.51-.24-1.05.3-1,.51-.95.32.51.24,1.06"/><path class="cls-19" d="M211.12,103c-.07.55-.3,1-.51.94s-.31-.51-.24-1.05.3-1,.51-.95.32.51.24,1.06"/><path class="cls-19" d="M212.15,103.15c-.08.55-.3,1-.51.94s-.31-.51-.24-1.05.3-1,.51-.95.32.51.24,1.06"/><path class="cls-19" d="M213.43,92.58c-.07.55-.3,1-.51.94s-.31-.5-.24-1.05.3-1,.51-.94.32.51.24,1.06"/><path class="cls-19" d="M213.76,90.06c-.08.55-.3,1-.51.94s-.32-.5-.24-1.05.3-1,.51-.94.31.51.24,1.06"/><path class="cls-19" d="M214.08,87.61c-.08.55-.3,1-.51.94s-.32-.5-.24-1.05.3-1,.51-.94.31.51.24,1.06"/><path class="cls-19" d="M214.39,85.27c-.08.55-.3,1-.51.94s-.32-.5-.24-1.05.3-1,.51-.94.31.51.24,1.06"/><path class="cls-19" d="M214.72,82.75c-.08.55-.3,1-.51.94s-.32-.5-.24-1.05.3-1,.51-.94.31.51.24,1.06"/><path class="cls-19" d="M214.12,95.25c-.08.55-.3,1-.51.94s-.32-.5-.24-1.05.3-1,.51-.94.31.51.24,1.06"/><path class="cls-19" d="M214.45,92.71c-.08.55-.3,1-.51.94s-.32-.5-.24-1.05.3-1,.51-.94.32.51.24,1.06"/><path class="cls-19" d="M214.79,90.19c-.08.55-.3,1-.51.94s-.32-.5-.24-1.05.3-1,.51-.94.31.51.24,1.06"/><path class="cls-19" d="M215.11,87.74c-.08.55-.3,1-.51.94s-.32-.5-.24-1.05.3-1,.51-.94.31.51.24,1.06"/><path class="cls-19" d="M215.41,85.4c-.08.55-.3,1-.51.94s-.32-.5-.24-1.05.3-1,.51-.94.31.51.24,1.06"/><path class="cls-19" d="M215.74,82.89c-.07.55-.3,1-.51.94s-.31-.5-.24-1.05.3-1,.51-.94.32.51.24,1.06"/><path class="cls-19" d="M215.48,92.84c-.08.55-.3,1-.51.94s-.32-.5-.24-1.05.3-1,.51-.94.31.51.24,1.06"/><path class="cls-19" d="M215.81,90.32c-.08.55-.3,1-.51.94s-.32-.5-.24-1.05.3-1,.51-.94.31.51.24,1.06"/><path class="cls-19" d="M216.13,87.87c-.08.55-.3,1-.51.94s-.32-.5-.24-1.05.3-1,.51-.94.31.51.24,1.06"/><path class="cls-19" d="M216.44,85.54c-.07.55-.3,1-.5.94s-.32-.5-.24-1.05.3-1,.5-.94.32.51.24,1.06"/><path class="cls-19" d="M216.77,83c-.07.55-.3,1-.51.94s-.31-.5-.24-1.05.3-1,.51-.94.32.51.24,1.06"/><path class="cls-19" d="M216.84,90.46c-.07.55-.3,1-.51.94s-.31-.5-.24-1.05.3-1,.51-.94.32.51.24,1.06"/><path class="cls-19" d="M217.16,88c-.07.55-.3,1-.51.94s-.31-.5-.24-1.05.3-1,.51-.94.32.51.24,1.06"/><path class="cls-19" d="M217.46,85.67c-.07.55-.3,1-.51.94s-.31-.5-.24-1.05.3-1,.51-.94.32.51.24,1.06"/><path class="cls-19" d="M217.79,83.15c-.07.55-.3,1-.51.94S217,83.59,217,83s.3-1,.51-.94.32.51.24,1.06"/><path class="cls-8" d="M242.74,83.56a50.07,50.07,0,0,1-1.69,10.11,21.77,21.77,0,0,1-4.45,8.71A28,28,0,0,1,226.16,110a25.11,25.11,0,0,1-12.83,2.12l-.28-.05c4.52-4.2,9.14-8.27,13-13.1a39.82,39.82,0,0,0,4.17-6.47,30.09,30.09,0,0,0,3.32-11.58c.32-4.15-.68-8.58-1-12.77-.33-4,.39-9.19,3.3-12.23a9.2,9.2,0,0,1,5.17-2.61c.24,5.38.49,10.79.73,16.18.23,4.77,1.21,9.32,1.08,14.11"/><path class="cls-8" d="M240.66,61.93a6.54,6.54,0,0,1-3,1.72c-.63,0-2.24-.5-2.29-1.3a30.9,30.9,0,0,1-.63,9,7.88,7.88,0,0,1-.85,2.52,9.07,9.07,0,0,1-2.26,2.41,80.5,80.5,0,0,1-8.41,6.31,63.52,63.52,0,0,1-5.95,3.3,42.71,42.71,0,0,1-6.88,2.83,1,1,0,0,0-.26.08c-.75.19-1.51.29-2.23.44l-1.9.24-1.06.08a13,13,0,0,1-2,.07c-5.19-.28-7.45-3.86-8.73-8.43-.42-1.49-.8-2.94-1.2-4.42-.36-1.22-.7-2.44-1-3.68-.18-.55-.31-1.15-.47-1.72-1.4-5-2.81-10.14-2.86-15.27a25.36,25.36,0,0,1,.18-3.43c.11-.86.24-1.74.29-2.59a6.65,6.65,0,0,0-.36-2.78,2.53,2.53,0,0,0-.49-.78A2.33,2.33,0,0,1,187.7,45c-.06-1.19-.11-2.42-.11-3.64l0-.39c-.08-2.7-.13-5.43-.24-8.13,0-1-.05-2-.1-3V29.6A6.73,6.73,0,0,1,189,24.4a28.34,28.34,0,0,1,4.78-4,45.25,45.25,0,0,1,5.85-3.09,42.5,42.5,0,0,1,9.3-3.07,27.9,27.9,0,0,1,17.87,3,36.63,36.63,0,0,1,4.6,3.06c1,.76,1.9,1.51,2.83,2.29a12.17,12.17,0,0,1,3.33,3.72,12.85,12.85,0,0,1,1.06,4.85c.18,2-.57,3.87,1.64,5.07a14.11,14.11,0,0,0,4,1,4.89,4.89,0,0,1,3.48,2,5.9,5.9,0,0,1,.55,1.76c0,.21.05.42.08.62a22.36,22.36,0,0,1-7.72,20.37"/><path class="cls-20" d="M251.66,49.59a8.69,8.69,0,0,1-3.94,6.79c-2.17,1.25-3.93.25-3.93-2.25a8.67,8.67,0,0,1,3.93-6.79c2.17-1.25,3.94-.25,3.94,2.24"/><path class="cls-8" d="M277,108s11.34,10.49,12.47,21.69,21.67,60.19,22.13,71.4-31.36,53.43-31.36,53.43l-6.49-12.38s8.46-20.78,10.91-25.81,4.33-6.67,4.59-10.12c.42-5.46-10.06-19.77-12.44-29.68s-20.68-18.12-19-38.23,11-32.46,19.16-30.31"/><path class="cls-15" d="M199.3,39.63c-3.89-1.66-4.48-3.19-4.36-6.73.3-8.9,2.27-17.82,10.49-21,15.77-6,42.24,1.66,35.75,27.35a15.21,15.21,0,0,1-5.92,2.79,55,55,0,0,1-36-2.46"/><path class="cls-19" d="M194.79,50.89c-.07.52-.31.92-.53.89s-.35-.46-.27-1,.31-.91.53-.89.34.46.27,1"/><path class="cls-19" d="M195.11,48.6c-.07.52-.31.91-.53.89s-.34-.47-.27-1,.31-.91.53-.89.34.46.27,1"/><path class="cls-19" d="M195.41,46.42c-.08.52-.31.92-.53.89s-.35-.46-.28-1,.31-.91.53-.89.35.46.28,1"/><path class="cls-19" d="M195.74,44.06c-.08.52-.31.92-.53.89s-.35-.46-.28-1,.31-.91.53-.89.35.46.28,1"/><path class="cls-19" d="M195.57,53.33c-.07.52-.31.92-.53.89s-.35-.46-.28-1,.31-.91.53-.89.35.46.27,1"/><path class="cls-19" d="M195.9,51c-.07.52-.31.92-.53.89s-.34-.46-.27-1,.31-.91.53-.89.35.46.27,1"/><path class="cls-19" d="M196.21,48.69c-.07.52-.31.92-.53.89s-.35-.46-.27-1,.31-.91.53-.89.34.46.27,1"/><path class="cls-19" d="M196.52,46.51c-.07.52-.31.92-.53.89s-.34-.46-.27-1,.31-.91.53-.89.34.46.27,1"/><path class="cls-19" d="M196.84,44.16c-.07.52-.31.92-.53.89s-.34-.46-.27-1,.31-.91.53-.89.34.46.27,1"/><path class="cls-19" d="M196.35,55.8c-.08.52-.31.92-.53.89s-.35-.46-.27-1,.31-.91.53-.89.35.46.28,1"/><path class="cls-19" d="M196.67,53.43c-.07.52-.31.92-.53.89s-.34-.46-.27-1,.31-.91.53-.89.34.46.27,1"/><path class="cls-19" d="M197,51.08c-.07.52-.31.92-.53.89s-.34-.46-.27-1,.31-.91.53-.89.34.46.27,1"/><path class="cls-19" d="M197.32,48.79c-.07.52-.31.92-.53.89s-.34-.46-.27-1,.31-.91.53-.89.35.46.27,1"/><path class="cls-19" d="M197.62,46.6c-.07.52-.31.92-.53.89s-.35-.46-.27-1,.31-.91.53-.89.35.46.28,1"/><path class="cls-19" d="M197.95,44.25c-.07.52-.31.92-.53.89s-.35-.46-.27-1,.31-.91.53-.89.35.46.28,1"/><path class="cls-19" d="M197.45,55.9c-.07.52-.31.91-.53.89s-.34-.47-.27-1,.31-.91.53-.89.34.46.27,1"/><path class="cls-19" d="M197.78,53.52c-.08.52-.31.92-.53.89s-.35-.46-.28-1,.31-.91.53-.89.35.46.28,1"/><path class="cls-19" d="M198.1,51.17c-.08.52-.31.92-.53.89s-.35-.46-.28-1,.31-.91.53-.89.35.46.28,1"/><path class="cls-19" d="M198.42,48.88c-.07.52-.31.92-.53.89s-.34-.46-.27-1,.31-.91.53-.89.34.46.27,1"/><path class="cls-19" d="M198.72,46.7c-.07.52-.31.91-.53.89s-.34-.47-.27-1,.31-.91.53-.89.34.46.27,1"/><path class="cls-19" d="M199,44.34c-.07.52-.31.92-.53.89s-.34-.46-.27-1,.31-.91.53-.89.34.46.27,1"/><path class="cls-19" d="M198.55,56c-.07.52-.31.92-.53.89s-.35-.46-.27-1,.31-.91.53-.89.34.46.27,1"/><path class="cls-19" d="M197,59.79c-.07.52-.31.92-.53.89s-.35-.47-.27-1,.31-.91.53-.89.35.46.28,1"/><path class="cls-19" d="M198.07,59.88c-.07.52-.31.92-.53.89s-.34-.46-.27-1,.31-.91.53-.89.34.46.27,1"/><path class="cls-19" d="M196.52,63.4c-.07.52-.31.91-.53.89s-.35-.46-.27-1,.31-.91.53-.89.34.46.27,1"/><path class="cls-19" d="M197.63,63.5c-.07.52-.31.91-.53.89s-.34-.47-.27-1,.31-.91.53-.89.35.46.27,1"/><path class="cls-19" d="M198.88,53.62c-.07.52-.31.91-.53.89s-.34-.47-.27-1,.31-.91.53-.89.34.46.27,1"/><path class="cls-19" d="M199.21,51.26c-.07.52-.31.92-.53.89s-.34-.46-.27-1,.31-.91.53-.89.34.46.27,1"/><path class="cls-19" d="M199.52,49c-.07.52-.31.92-.53.89s-.35-.46-.28-1,.31-.91.53-.89.35.46.27,1"/><path class="cls-19" d="M199.83,46.79c-.07.52-.31.92-.53.89s-.34-.46-.27-1,.31-.91.53-.89.34.46.27,1"/><path class="cls-19" d="M200.15,44.44c-.07.52-.31.92-.53.89s-.34-.46-.27-1,.31-.91.53-.89.34.46.27,1"/><path class="cls-19" d="M199.66,56.09c-.07.52-.31.92-.53.89s-.34-.46-.27-1,.31-.91.53-.89.35.46.27,1"/><path class="cls-19" d="M200,53.71c-.07.52-.31.92-.53.89s-.35-.46-.27-1,.31-.91.53-.89.35.46.28,1"/><path class="cls-19" d="M200.31,51.36c-.07.52-.31.91-.53.89s-.35-.47-.27-1,.31-.91.53-.89.35.46.28,1"/><path class="cls-19" d="M200.63,49.07c-.07.52-.31.92-.53.89s-.34-.46-.27-1,.31-.91.53-.89.34.46.27,1"/><path class="cls-19" d="M200.93,46.89c-.07.52-.31.92-.53.89s-.35-.46-.28-1,.31-.91.53-.89.35.46.27,1"/><path class="cls-19" d="M201.26,44.53c-.07.52-.31.91-.53.89s-.35-.47-.28-1,.31-.91.53-.89.35.46.27,1"/><path class="cls-19" d="M201.09,53.8c-.07.52-.31.92-.53.89s-.34-.46-.27-1,.31-.91.53-.89.34.46.27,1"/><path class="cls-19" d="M201.42,51.45c-.07.52-.31.92-.53.89s-.34-.46-.27-1,.31-.91.53-.89.34.46.27,1"/><path class="cls-19" d="M201.73,49.16c-.08.52-.31.91-.53.89s-.35-.47-.28-1,.31-.91.53-.89.35.46.28,1"/><path class="cls-19" d="M202,47c-.07.52-.31.92-.53.89s-.34-.46-.27-1,.31-.91.53-.89.34.46.27,1"/><path class="cls-19" d="M202.36,44.63c-.07.52-.31.92-.53.89s-.34-.46-.27-1,.31-.91.53-.89.34.46.27,1"/><path class="cls-19" d="M202.52,51.55c-.07.52-.31.92-.53.89s-.34-.46-.27-1,.31-.91.53-.89.34.46.27,1"/><path class="cls-19" d="M202.84,49.26c-.07.52-.31.92-.53.89s-.34-.46-.27-1,.31-.91.53-.89.34.46.27,1"/><path class="cls-19" d="M203.14,47.07c-.08.52-.31.92-.53.89s-.35-.46-.28-1,.31-.91.53-.89.35.46.28,1"/><path class="cls-19" d="M203.47,44.72c-.08.52-.31.92-.53.89s-.35-.46-.28-1,.31-.91.53-.89.35.46.28,1"/><path class="cls-16" d="M201.93,12.37s60.82-19.08,45.8,37.37Z"/><path class="cls-17" d="M188.69,22c1.91-3.18,7.1-7.84,11-9a18.78,18.78,0,0,1,15,2.06c3.9,2.36,11.17,5.79,15,11.94,1.69,2.7,7.5,8.18,10.54,9.15,14.74,4.69,3.59,25.45,3.58,25.77-.07,1.92-17.78-14.8-19.69-14.7-7.88.43-20.88-4.1-22.36-4.81-6.86-3.31-11.21,2-12.37,7.25-3.57-3.12-4.31-9.29-4.24-14.54a26,26,0,0,1,3.5-13.1"/><path class="cls-16" d="M187.57,41s6-19.5,53,5.34l-19-11.78S191,20.11,187.57,41"/><path class="cls-21" d="M255.64,504.5l7.9-.26L252,153.87c-2.06-4.21-6.1-4-7.9.26Z"/><path class="cls-22" d="M263.55,504.24,252,153.87c-1.67-3.28-4-3-4-3Z"/><path class="cls-8" d="M275.38,241.73s-6.58,2.82-9.33,2.48a40.15,40.15,0,0,0-12.87.1c-5.77,1-15.65,6.17-15.73,7.88s4.86,2,4.86,2,6.19-3.15,7.18-2.76,1,2.19.52,3.24-8.52-.57-8.52-.57-2.87,8.44-2.71,9.42c.18,1.17,3.33,11.06,6.48,10.94a12.91,12.91,0,0,0,5.37-1.36,6,6,0,0,0,4.08.5c2.21-.55,5.9-3,10.38-6.19S282,253.55,282,253.55Z"/></g></g></g></svg>