<svg xmlns="http://www.w3.org/2000/svg" xmlns:xlink="http://www.w3.org/1999/xlink" viewBox="0 0 282 496.5"><defs><style>.cls-1{fill:none;}.cls-2{isolation:isolate;}.cls-3{mix-blend-mode:multiply;}.cls-4{clip-path:url(#clip-path);}.cls-5{fill:#e0dad4;}.cls-6{clip-path:url(#clip-path-2);}.cls-7{fill:#936546;}.cls-8{fill:#333;}.cls-9{fill:#1f1e1b;}.cls-10,.cls-12,.cls-13,.cls-14,.cls-15,.cls-16,.cls-18,.cls-31,.cls-34,.cls-36,.cls-49,.cls-50,.cls-51,.cls-52,.cls-53,.cls-54,.cls-55,.cls-56,.cls-57,.cls-58,.cls-59,.cls-60,.cls-9{fill-rule:evenodd;}.cls-10{fill:#2d2c2c;}.cls-11,.cls-12{fill:#353434;}.cls-13{fill:#bb7d52;}.cls-14{fill:#b2764e;}.cls-15{fill:#48ad53;}.cls-16{fill:#f2f9fc;}.cls-17{clip-path:url(#clip-path-3);}.cls-18{fill:#28b3bf;}.cls-19{clip-path:url(#clip-path-4);}.cls-20{clip-path:url(#clip-path-5);}.cls-21{clip-path:url(#clip-path-6);}.cls-22{clip-path:url(#clip-path-7);}.cls-23{clip-path:url(#clip-path-8);}.cls-24{clip-path:url(#clip-path-9);}.cls-25{clip-path:url(#clip-path-10);}.cls-26{clip-path:url(#clip-path-11);}.cls-27{clip-path:url(#clip-path-12);}.cls-28{clip-path:url(#clip-path-13);}.cls-29{clip-path:url(#clip-path-14);}.cls-30{clip-path:url(#clip-path-15);}.cls-31{fill:#05808d;}.cls-32{opacity:0.3;}.cls-33{clip-path:url(#clip-path-16);}.cls-34{fill:#002930;}.cls-35{clip-path:url(#clip-path-17);}.cls-36{fill:#22160d;}.cls-37{opacity:0.39;}.cls-38{clip-path:url(#clip-path-18);}.cls-39{clip-path:url(#clip-path-19);}.cls-40{clip-path:url(#clip-path-20);}.cls-41{clip-path:url(#clip-path-21);}.cls-42{clip-path:url(#clip-path-22);}.cls-43{clip-path:url(#clip-path-23);}.cls-44{clip-path:url(#clip-path-24);}.cls-45{clip-path:url(#clip-path-25);}.cls-46{clip-path:url(#clip-path-26);}.cls-47{clip-path:url(#clip-path-27);}.cls-48{clip-path:url(#clip-path-28);}.cls-49{fill:#a41e22;}.cls-50{fill:#2662aa;}.cls-51{fill:#1d4b84;}.cls-52{fill:#e31a70;}.cls-53{fill:#af1e56;}.cls-54{fill:#941b4a;}.cls-55{fill:#c1e3f3;}.cls-56{fill:#331f12;}.cls-57{fill:#d89368;}.cls-58{fill:#492d17;}.cls-59{fill:#8e99a4;}.cls-60{fill:#3b9045;}</style><clipPath id="clip-path"><rect class="cls-1" x="12.15" y="431.65" width="128.31" height="56.85"/></clipPath><clipPath id="clip-path-2"><rect class="cls-1" x="133.32" y="425.44" width="128.31" height="56.8"/></clipPath><clipPath id="clip-path-3"><rect class="cls-1" x="12.99" y="81.89" width="47.35" height="31.95"/></clipPath><clipPath id="clip-path-4"><rect class="cls-1" x="11.48" y="73.07" width="90.89" height="56.9"/></clipPath><clipPath id="clip-path-5"><rect class="cls-1" x="14.82" y="84.34" width="93.18" height="58.88"/></clipPath><clipPath id="clip-path-6"><rect class="cls-1" x="20.45" y="98.54" width="90.62" height="57.94"/></clipPath><clipPath id="clip-path-7"><rect class="cls-1" x="25.73" y="114.2" width="86.13" height="56.33"/></clipPath><clipPath id="clip-path-8"><rect class="cls-1" x="29.49" y="129.97" width="82.27" height="54.34"/></clipPath><clipPath id="clip-path-9"><rect class="cls-1" x="31.1" y="145.37" width="80.6" height="54.24"/></clipPath><clipPath id="clip-path-10"><rect class="cls-1" x="25.83" y="161.92" width="85.98" height="57.32"/></clipPath><clipPath id="clip-path-11"><rect class="cls-1" x="15.18" y="178.62" width="96.73" height="63.17"/></clipPath><clipPath id="clip-path-12"><rect class="cls-1" x="17.37" y="194.07" width="95.32" height="61.44"/></clipPath><clipPath id="clip-path-13"><rect class="cls-1" x="24.94" y="209.58" width="89.01" height="55.07"/></clipPath><clipPath id="clip-path-14"><rect class="cls-1" x="41.28" y="225.45" width="73.55" height="43.85"/></clipPath><clipPath id="clip-path-15"><rect class="cls-1" x="106.8" y="246.59" width="0.21" height="0.21"/></clipPath><clipPath id="clip-path-16"><rect class="cls-1" x="87.22" y="70.98" width="19.79" height="37.69"/></clipPath><clipPath id="clip-path-17"><rect class="cls-1" x="45.56" y="79.54" width="31.22" height="55.96"/></clipPath><clipPath id="clip-path-18"><rect class="cls-1" x="11.79" y="79.65" width="42.81" height="187.98"/></clipPath><clipPath id="clip-path-19"><rect class="cls-1" x="0.67" y="98.44" width="27.72" height="93.86"/></clipPath><clipPath id="clip-path-20"><rect class="cls-1" x="1.56" y="117.54" width="6.63" height="74.18"/></clipPath><clipPath id="clip-path-21"><rect class="cls-1" x="19.67" y="98.44" width="6.73" height="93.13"/></clipPath><clipPath id="clip-path-22"><rect class="cls-1" x="37.05" y="108.36" width="3.5" height="43.48"/></clipPath><clipPath id="clip-path-23"><rect class="cls-1" x="11.11" y="98.44" width="18.85" height="12.16"/></clipPath><clipPath id="clip-path-24"><rect class="cls-1" x="4.58" y="105.23" width="33.62" height="25.37"/></clipPath><clipPath id="clip-path-25"><rect class="cls-1" x="1.87" y="119.22" width="38.63" height="29.55"/></clipPath><clipPath id="clip-path-26"><rect class="cls-1" x="0.77" y="135.87" width="39.41" height="30.22"/></clipPath><clipPath id="clip-path-27"><rect class="cls-1" x="0.67" y="153.62" width="35.97" height="28.19"/></clipPath><clipPath id="clip-path-28"><rect class="cls-1" x="2.34" y="171.16" width="30.59" height="20.88"/></clipPath></defs><title>Asset 7@2</title><g class="cls-2"><g id="Layer_2" data-name="Layer 2"><g id="Layer_1-2" data-name="Layer 1"><g class="cls-3"><g class="cls-4"><path class="cls-5" d="M140.49,460.08c0,15.7-28.73,28.42-64.17,28.42s-64.17-12.73-64.17-28.42,28.73-28.42,64.17-28.42,64.17,12.72,64.17,28.42"/></g></g><g class="cls-3"><g class="cls-6"><path class="cls-5" d="M261.63,453.84c0,15.7-28.73,28.42-64.17,28.42s-64.17-12.73-64.17-28.42,28.73-28.42,64.17-28.42,64.17,12.72,64.17,28.42"/></g></g><path class="cls-7" d="M105.45,420.76a37.8,37.8,0,0,0,5.35,7.4c3.4,3.64,18.22,14.94,19.64,18.78s.5,9.35-5.66,11.78S110.25,457.54,105,453s-17.23-10-22.35-12.31-7.45-2.42-7.69-7.16,7.35-17.73,7.35-17.73Z"/><path class="cls-8" d="M81,416.88l.4,0c-.24,1.55-5.14,10.34-5.06,12.11.24,4.75,2.56,4.82,7.69,7.16s17.14,7.72,22.36,12.31,13.58,8.19,19.74,5.76a9.94,9.94,0,0,0,4.85-3.74c-.08,3.17-1.8,6.52-6.23,8.27-6.16,2.43-14.52-1.17-19.74-5.76s-17.23-10-22.36-12.31-7.45-2.42-7.69-7.16,6-16.6,6-16.6"/><path class="cls-8" d="M123.16,444.83s-10.19,4.28-25-1.85l-8.63-3.25s25.87,5.43,30.22,2.29L114,431.09s11.31,9.72,9.19,13.73"/><path class="cls-7" d="M56.26,442.55S58.37,453,61.12,459.3s8.3,17.43,7.53,25.21S56,497.17,52.1,496.42s-9.81-4.47-11.93-8.65-6.62-20.3-7.29-24.44,4.26-24.82,4.26-24.82,7.08,0,19.12,4"/><path class="cls-8" d="M37.13,438.51c.16,3.09-3.07,18.37-2.59,21.28.68,4.13,5.17,20.25,7.29,24.43s8,7.9,11.94,8.65c3.07.59,11-2.28,14.7-7.31-1.67,7.16-12.64,11.57-16.38,10.86-3.92-.75-9.81-4.47-11.93-8.65s-6.62-20.3-7.29-24.44-1.08-13.78-1.08-13.78,4.21-10.22,5.34-11"/><path class="cls-8" d="M58.92,482.35a64.59,64.59,0,0,1-23-11.75l-1.32-6.81S47.69,476.86,58,477.33a51.9,51.9,0,0,0,3.13-18l3.08,7s-1.77,15.14-5.29,16.08"/><polygon class="cls-7" points="39.19 453.98 31.03 402.34 51.42 394.37 57.14 445.99 39.19 453.98"/><path class="cls-9" d="M68.36,269l6.74,50.73s-5,18.88-1.31,58.95l.79,43.5s11.2,14.71,29-2.11c0,0,2.78-93.56,2.52-98.34s5-101.21-1.56-119.84c0,0-50,6.74-36.19,67.13"/><path class="cls-10" d="M91,219.41s15.58-22.68,16.66-17.16c2,10.08,6.59,25.1,1.09,97.16-1.52,19.94-4.93,107-4.93,120.37,0,0-7.39,8.32-17.52,8.32,0,0,2-75.8,5.36-100.2s-8.23-69.5-.67-108.49"/><path class="cls-9" d="M38.87,211.69s-15.05,13.08-10.73,62.24l4.78,62A200.54,200.54,0,0,0,28,388.23l2.24,58.9s11.76,10.61,28-1.1c0,0,5.83-97.86,5.83-102.89s8.82-71.27,11-84.5,2.43-22.44,16.61-42.85Z"/><path class="cls-10" d="M41.21,451.53s-.4-73.44,7.87-111c0,0-7.38-106.87,4.58-114.07,0,0,14.65,7.09,37.87-8.48,0,0,11.94-1.81,3.53,10.24,0,0-8.66,16.9-20.39,25.32,0,0-9.89,83.63-10.37,86.62S58.23,446,58.23,446a17.06,17.06,0,0,1-17,5.5"/><path class="cls-11" d="M91.84,227.63l.64,5.54L74.66,260.7S64.3,325.06,64.3,340.12,59.5,446,59.5,446s-6.67,5.56-10.95,5.56c0,0,3.75-97.35,3.75-107.69s-1.19-88.09,3.47-107c0,0,33.8-9.57,39-15.73Z"/><path class="cls-12" d="M91.65,224.52s4.86,78.85,4.86,90.89-7,112.39-7,112.39A30.71,30.71,0,0,0,97,426c5.54-1.94,6.82-3.54,6.82-3.54l3.71-106.93s8.07-68.14,1.15-108.41Z"/><path class="cls-13" d="M155.81,206.31c-1.27.72-8.69,4.66-9.53,3.8C139.55,203.2,131,198.7,129,189.81c-10.73-10.23-27.56-20.79-29.79-32.65-1.08-5.74,2.18-21.69,11.31-27.61,6.63,9.55,16.87,29.59,23.2,40.73,1.83,3.2,3.31,6.1,5.29,7.23s6.11,2.31,9.33,4.19c4,2.34,6.79,4.06,7.91,5.9.66,1.09.78,4.15.71,6.66-.14,5.17-.33,10.84-1.18,12"/><path class="cls-14" d="M143.09,207.09c-6-5.36-12.37-9.74-14.08-17.27-10.73-10.23-27.57-20.78-29.79-32.65-.7-3.72.5-8.15,3.92-12.42,6.8,10.42,25,39.76,32.56,43a5.15,5.15,0,0,0,6.46-2.37c1.75,3,3,6.11,6.82,6.72l.58,3.77c-2.56,2.9-9.8,1.59-9.38,5.47-1.36,1.76,1.95,2.27,2.91,5.76"/><path class="cls-14" d="M157,194.46a43.47,43.47,0,0,1-.28,6.86,21.14,21.14,0,0,1-1.13,5.77c-1.29,3.11-4.65,4.86-6.47,5.89-.89.51-3.36,1.33-7.89-1.11-1.47-3.62-2.79-7.49-1.93-9,.58-1,.79-1.88,2.57-2,1.55-.09,5.64-.11,8.59-.49l5.17-4.16Z"/><path class="cls-13" d="M137.06,192.23a23.51,23.51,0,0,0,2.43,4.64c2.32,3.06,7.6,1.44,5.94-2.76a21.69,21.69,0,0,0-3.19-5.07,10.34,10.34,0,0,0-1.86-6.45c-2.28-2.9-6-2.79-7.59-.07-1.93,3.29-.06,8.89,4.28,9.71"/><path class="cls-15" d="M111.84,128.29l7,12c-3.7,2.12-6.7,6.11-10.45,15.48l-5.22-2.91c-13.77-10.48,7.54-21.84,8.71-24.57"/><path class="cls-16" d="M30.77,91.24c3.74-2,10.77-6.08,18.79-10.39,13.26-7.14,43.43-18,53.14-2.77,6.26,9.82,9.33,27.75,9.16,39.18-.42,28.86-7.44,51.79-8.52,76.2-.71,16.14,1.12,23,4.55,34.32-20.17,25.78-72.17,32.06-81.45,17,6.38-18.17,7.72-39.47,4.31-58C25.56,158.73,12.44,134,13.16,112.54c.35-10.69,9.64-17.13,17.61-21.3"/><path class="cls-15" d="M92.91,71.25a16,16,0,0,1,9.79,6.82c6.26,9.82,9.33,27.75,9.16,39.18-.32,21.91-.09,44.37,0,67,.11,18.38,3.28,36.07,2.95,54.38a56.36,56.36,0,0,1-8.06,8.19c-12.65-39.79,4.74-113.85-4.66-137.7a22.15,22.15,0,0,0-6.29-8.45l.39-20.9Zm-62.14,20c3.74-2,10.77-6.08,18.79-10.39.95-.52,2-1,3.12-1.59l.22.87,6.58,4.65c5.28,9.89,14.36,18.94,16.91,29.31,1.13,4.57.51,6.52-.28,11l-4,22.34c-4.57,25.42-6.33,33.35-5.06,50,2.42,31.7-2.07,46.41-12.79,71.9-16.81.69-31.44-7.8-35.53-14.42-1.31-5.39-2.48-10.68-3.53-15.93l6.19-4.09c4.09-17.33,10.33-29,10.37-43,0-5.36-2.23-14.36-4-20.85-4.66-17.47-13-30.9-16.29-43.63.49-4.81,1.05-9.75,1.69-14.86,1.32-10.61,9.64-17.13,17.61-21.3"/><path class="cls-15" d="M114.86,238.6l0-4.14c-.16-16.86-2.86-33.26-3-50.25-.14-22.59-.36-45.06,0-67a95.67,95.67,0,0,0-2.78-22.83l-.61,150.89a52.62,52.62,0,0,0,6.38-6.71m-103-109.77,0-5.38c-.14,1.33-.28,2.64-.42,3.94.13.48.26,1,.4,1.44M29.45,263.71l.24-57.39C28,213,25.5,219.73,23.25,227.62l-.14,32a39,39,0,0,0,6.34,4.1m.35-84.55.35-87.59a49.22,49.22,0,0,0-6.37,4l-.26,62.53A127.68,127.68,0,0,1,27.76,171c.66,2.46,1.39,5.28,2,8.13M46.66,269l.76-187C45.18,83.22,43,84.41,41,85.53l-.74,182.28A49.9,49.9,0,0,0,46.66,269m17.75-28.26L65,93.55a92.73,92.73,0,0,1-5.53-8.78l-.78-.56L58,260.11a156.51,156.51,0,0,0,6.44-19.39m12.14-126,0,8.08a17.54,17.54,0,0,0,0-8.08m24.52-7.9.12-30.77a15.78,15.78,0,0,0-6.33-4.21l0,4.29,1.39,3.58-.39,20.9a24.53,24.53,0,0,1,5.22,6.21"/><g class="cls-3"><g class="cls-17"><path class="cls-18" d="M13,113.83,60.34,86.32c-.3-.52-.58-1-.87-1.55l-4.11-2.91L15.49,105a22,22,0,0,0-2.34,7.51c0,.43-.1.86-.16,1.29"/></g></g><g class="cls-3"><g class="cls-19"><path class="cls-18" d="M12.21,130,67.86,97.65c-1.21-1.75-2.44-3.49-3.63-5.24L12,122.79q-.26,2.33-.49,4.61.34,1.29.74,2.59m84-48.82,6.18-3.59a14.89,14.89,0,0,0-4.91-4.5l-3.12,1.82,1.88,4.83Z"/></g></g><g class="cls-3"><g class="cls-20"><path class="cls-18" d="M17.28,143.2l57.63-33.49A46.26,46.26,0,0,0,72,104l-57.2,33.24q1.16,2.9,2.46,5.91M95.91,97.52l12.11-7c-.63-2.13-1.34-4.18-2.13-6.11L96,90.09Z"/></g></g><g class="cls-3"><g class="cls-21"><path class="cls-18" d="M22.89,156.51,76,125.66l.11-.61c.55-3.06,1-4.94.88-7.32L20.46,150.58c.82,1.93,1.64,3.9,2.44,5.94m79.66-46.29,8.55-5c-.29-2.21-.65-4.46-1.1-6.71L99.58,104.6a18.76,18.76,0,0,1,2.55,4.49c.15.37.29.75.42,1.13"/></g></g><g class="cls-3"><g class="cls-22"><path class="cls-18" d="M27.61,170.52l45-26.16,1.48-8.21L25.72,164.26c.67,2,1.31,4.11,1.89,6.25m77.29-44.92,6.9-4c0-1.45,0-2.89.06-4.33,0-1,0-2,0-3l-7.51,4.36c.27,2.18.46,4.52.57,7"/></g></g><g class="cls-3"><g class="cls-23"><path class="cls-18" d="M30.87,184.32l38.61-22.44c.44-2.51.93-5.23,1.47-8.2l-41.47,24.1c.52,2.18,1,4.42,1.39,6.54m74-43,6.79-3.95q0-3.7,0-7.37l-6.68,3.88c0,2.39-.06,4.88-.14,7.43"/></g></g><g class="cls-3"><g class="cls-24"><path class="cls-18" d="M31.09,199.58l36-20.89c.23-2.51.55-5.1,1-7.92l-36.3,21.1v0a50.59,50.59,0,0,1-.63,7.7m73.06-42.46,7.57-4.4q0-3.67,0-7.33l-7.13,4.14c-.13,2.48-.27,5-.42,7.59"/></g></g><g class="cls-3"><g class="cls-25"><path class="cls-18" d="M25.81,219.22l41.07-23.86c-.17-2.56-.25-4.92-.26-7.2l-38,22.09c-.85,2.9-1.81,5.87-2.8,9m77.3-44.92,8.7-5.05q0-3.67,0-7.32l-8.19,4.76c-.16,2.52-.31,5.06-.46,7.62"/></g></g><g class="cls-3"><g class="cls-26"><path class="cls-18" d="M15.75,241.81l51.9-30.16c0-2.32-.08-4.72-.19-7.24l-45,26.16c-.37,1.38-.73,2.8-1.07,4.25l-6.19,4.09c.19,1,.39,1.92.59,2.89m86.51-50.28,9.67-5.62c0-.57,0-1.14,0-1.7l0-5.62-9.29,5.4c-.12,2.51-.23,5-.32,7.53"/></g></g><g class="cls-3"><g class="cls-27"><path class="cls-18" d="M19.15,255.53,66.8,227.84c.3-2.5.52-5.06.67-7.74l-50.1,29.11c.43,1.87.87,3.74,1.33,5.64.14.22.29.45.45.68M102,207.39l10.71-6.22c-.18-2.35-.34-4.71-.47-7.08L102,200q-.06,3.71,0,7.37"/></g></g><g class="cls-3"><g class="cls-28"><path class="cls-18" d="M31.32,264.63,62.86,246.3c.88-2.9,1.63-5.77,2.28-8.67L24.94,261a42,42,0,0,0,6.37,3.65m71.29-41.43,11.37-6.6q-.28-3.51-.59-7l-11.2,6.51q.14,3.61.42,7.1"/></g></g><g class="cls-3"><g class="cls-29"><path class="cls-18" d="M51.77,269.31,55,267.43c1.4-3.35,2.69-6.53,3.86-9.59L41.29,268a49.27,49.27,0,0,0,10.48,1.26m52.91-30.75,10.16-5.91c0-2.41-.14-4.8-.27-7.19l-11,6.42c.32,2.29.7,4.52,1.14,6.69"/></g></g><g class="cls-3"><g class="cls-30"><polygon class="cls-18" points="107.01 246.6 106.78 246.74 106.79 246.79 107.01 246.6"/></g></g><path class="cls-31" d="M88.54,86c2.23,2.5,2.79,9.46,3.95,15.61,6,.67,5.35,1.31,9.59,7.09-1.07-4.92-2.2-7.11-4.08-11.82Z"/><g class="cls-32"><g class="cls-33"><path class="cls-34" d="M88.54,86c2.23,2.5,2.79,9.46,3.95,15.61,6,.67,5.35,1.31,9.59,7.09-1.07-4.92-2.2-7.11-4.08-11.82,3-3.39,5.11-3.47,9-5.76C103.79,78.43,95.49,72.48,89.44,71c-2.8,8-2.76,7.45-.91,15"/></g></g><path class="cls-15" d="M85.86,81c4.09,6.33,5.07,11.42,6.6,20.63,3-5.84,8-10.12,12.57-11.24-3.28-8.73-10.39-17.19-15.93-18.54C88,74.63,86.38,78,85.86,81"/><path class="cls-14" d="M87.53,78.14c.57-3.51,2.59-7.22,3.44-9L67.83,50.36l-5.91-.88c1.95,12.39-4.67,22.27-9.39,31.72,3,9.92,21.85,47.62,29.52,48,8.45.39,21.72,1.58,8.16-39.83-.63-2.05-3.87-6.08-2.68-11.21"/><path class="cls-14" d="M53.61,83.92c11.66-5.4,19.85-3,34-6.1.63-3.17,1.42-4.88,3.61-8.76L70.07,49.83l-8.33-.93c2,12.39-4.49,22.86-9.21,32.31a18.21,18.21,0,0,0,1.08,2.71"/><path class="cls-31" d="M75.58,105.88c2.89,3.54,1.5,16.45,0,19.33.2-4.94-4.55-5.33-5.67-6L59,108.33l9-6.72c2.41,1.34,5,2.73,7.57,4.28"/><g class="cls-32"><g class="cls-35"><path class="cls-34" d="M71,107.24c2.89,3.54,7,11.83,5.48,14.71-.29,6.86-2.69,5.26-4.38,6-4.35,2.18-3.26,1.09-5.44,7.62-10.77-9.2-23.44-39-20.67-49.89.37-1.43.57-3.14,2.13-4,2.55-1.44,5.7-2.81,5.61-1.63-.87,11.5,5,20,17.28,27.26"/></g></g><path class="cls-13" d="M87.14,71C83.76,69.59,76,68,72.91,66.48c-6.71-3.29-7.05-10.24-10.33-18.63-6.25-3-8.68-5.78-9.82-9.25-2.69-8.22.49-18.18,6-24.3,4.85-5.36,11.11-7.74,18.68-7.45,14.71.56,22.46,10.22,25.41,22.32A8.52,8.52,0,0,1,103,32.3c-.33,2.6-1.19,3.88-1.44,5.65-.44,3.17.5,3.51,1.12,5.3.78,2.26.43,7.71-.09,11.75-.36,2.75-1.31,13.31-3.58,14.71a29.36,29.36,0,0,1-4.51,1.8c-1.53.61-3.07.82-7.39-.47"/><path class="cls-14" d="M87.14,71C83.76,69.59,76,68,72.91,66.48c-6.71-3.29-7.05-10.24-10.33-18.63-6.25-3-8.68-5.78-9.82-9.25-2.69-8.22.49-18.18,6-24.3C63.65,9,69.91,6.57,77.48,6.86c12.78.49,20.3,7.84,24,17.7-.55,1.34-12.65,7.32-23.49,7.13-.93,4.88,1.37,9,1.58,11.41,0,.6-1.55,3.44.18,5.7.47.62,1.76,1.29,1.56,2.41C80,58.7,88.08,68.77,91.93,72A19.1,19.1,0,0,1,87.14,71"/><path class="cls-36" d="M51.94,14.87c-7.36,19.87-.52,29.3,12.07,40.7,2.26-3.38,1.45-6.26,2.19-11.39.75,1.62,1.61,3.29,2.49,5l1.89-1c-.19-1.6,2.67-6.48,4.12-11.74,1.7-6.14,4.46-12.5,6-13.3,0,0-25.8-2.76-28.81-8.28"/><path class="cls-14" d="M63.09,40.19c-5.77-1.46-5.29,5-4.1,8.9.81,2.66,3,2.28,4,4.34,1.17,2.46,3.24,3.49,4.92,3.31,3.41-.37.89-5.28.32-7.27.14-3.33-1.48-8.35-5.15-9.28"/><path class="cls-36" d="M52,15.49c0-5.34,4-12.33,10.36-13a4.49,4.49,0,0,0-2.06,1.32A35.57,35.57,0,0,1,92.7,5.39c5.84,3.56,9.28,8.71,8,14-1.11,4.5-8.44,7-15.7,7.63-9.65.84-29-2.77-33-11.57"/><path class="cls-36" d="M57.89,5.65C62.17,2.07,69.56-.09,75.13,0c4.72.08,10.44,1.43,13.59,2.07A15.28,15.28,0,0,1,86,2.39a23.9,23.9,0,0,1,6.81,2.7A56.9,56.9,0,0,0,76.25,3.57c.46.31,1.11.63,2.15,1.24-8.64-1.49-14.32-1.62-20.51.83"/><path class="cls-36" d="M73,25.23C76.65,33,82.8,36.74,94.51,37.42,90.34,33.92,86.66,31.71,84.26,27c5.47,4.72,9.93,2.93,16.06,12.38-2.34-6-2.55-7.22-6.39-12.52,6.21,5.91,8.68,5.19,9.48,15,2.81-10.74,5-22.72-3.34-29-1.87-1.41-3-4.06-5.56-5.26Z"/><g class="cls-37"><g class="cls-38"><path class="cls-34" d="M30.77,91.24c3.74-2,10.77-6.08,18.79-10.39.73-.39,1.52-.79,2.36-1.18l.46.2c-3.33,5.06-12,10.36-21.38,17.91,5.1,4.84,9.31,12.14,11.39,21.27,4.38,19.27,11.18,44.65,12,62.19,1.48,30.52-7.93,72.43-14.77,86.41-3.1-.69-18.12-6.32-20.91-12.73-1.36-5.23-2.58-10.56-3.65-15.93l6.26-4.14c4.09-17.33,10.33-29,10.37-43,0-5.36-2.23-14.36-4-20.85-4.52-17-12.5-30.13-16-42.52.69-6.62,1.26-12.08,1.39-16,.35-10.69,9.64-17.13,17.61-21.3"/></g></g><path class="cls-15" d="M55.73,74.86a23.06,23.06,0,0,0-1.28,3c-2.05,7.33,30.68,21.72,22,44.56-3.26-5.44-1.09-1.09-10.88,10.87C58.89,122,46,90.88,49.7,81.27c.89-2.33,3.41-4.7,6-6.41"/><path class="cls-14" d="M38.75,290.57l-8.45-8.69c6.1-6.92,6.42-10.58,9.47-9.72,5.14,1.46,9.55,4.37,10,6.44.85,3.67-10.19,13.26-11.06,12"/><path class="cls-13" d="M20.93,277.57c2.43,7.14,15.34,12.16,18.92,13.72,1.12.44,9-5.37,10.82-10.89-2.23,1.39-5,.09-5.3-.51-.5-.11-3.22,3-4.72,3.46-.61-3.25-.17-8-.29-10.83s2.12,0,2.45,1.11c.74,2.43,1.82,5.59,3.12,6.78s5.09.7,3.64-4.84c-1.63-6.36-2.23-12.45-7.16-16.45-1.86-1.52-3.62-3-5.26-7.74-3.49-22.61-3.85-43.06-9.84-65.24,3.89-14.39,5.1-28.64,8.27-41C39,131.88,41.65,106.89,28.5,102c-19.26-7.21-20.32,75.26-21,85.28,1.94,11.92,14.9,41.43,18.15,63.66,2.15,14.68-4.75,26.62-4.73,26.66"/><path class="cls-13" d="M39.85,291.29c1.12.44,9-5.37,10.82-10.89-.17-3.07-1.53-3.42-6.41.24l-3.61,2.71Z"/><path class="cls-14" d="M16.16,105.7C4.68,122.2,4,159.38,2.1,188c3.58,22,11.64,40.39,16.88,61.73,1.41,5.72-.83,22.59.79,27.24,1.53,4.4,6.18,7,11.18,10-2.3-11.3-.54-24.2-3-37.07-4-20.84-10.38-41.49-14.2-62.65,5.12-28.31,6.72-61.54,17.6-86.7-8-5.63-12.45,1.2-15.19,5.15"/><path class="cls-15" d="M29.41,185.76c3.9-14.39,6.08-28.25,9.24-40.6C41.86,132.63,42,107.26,31,100.3c-7.75-5.17-14.25,1.51-16.94,5.4C2.55,122.2-.27,157.45.93,186.08c1.27,9.07,24.67,7.57,28.48-.32"/><g class="cls-32"><g class="cls-39"><path class="cls-34" d="M28.37,99c-6.58-2.34-11.94,3.29-14.34,6.73C2.55,122.2-.26,157.45.93,186.08c.61,4.3,6.17,6.22,12.27,6.22-.36-1.68-.69-3.36-1-5,.67-30,3.42-70,16.17-88.28"/></g></g><g class="cls-3"><g class="cls-40"><path class="cls-18" d="M7.88,191.75l.3-74.2c-3.33,9.29-5.39,20.82-6.49,32.92l-.15,37.41c1.09,1.94,3.44,3.21,6.34,3.87"/></g></g><g class="cls-3"><g class="cls-41"><path class="cls-18" d="M26,189.18l.37-90.69A9.93,9.93,0,0,0,20,99.92l-.38,91.67A21.09,21.09,0,0,0,26,189.18"/></g></g><g class="cls-3"><g class="cls-42"><path class="cls-18" d="M37.22,108.34l-.17,43.52q.76-3.42,1.6-6.7c2.42-9.44,3.11-26.16-1.42-36.82"/></g></g><g class="cls-3"><g class="cls-43"><path class="cls-18" d="M11.12,110.62,30,99.68c-7.29-4-13.34,2.31-15.92,6a40.36,40.36,0,0,0-2.91,4.92"/></g></g><g class="cls-3"><g class="cls-44"><path class="cls-18" d="M4.58,130.6,38.22,111a26.86,26.86,0,0,0-2.6-5.84L6.73,122c-.81,2.72-1.52,5.61-2.16,8.6"/></g></g><g class="cls-3"><g class="cls-45"><path class="cls-18" d="M1.86,148.74l38.67-22.47a68.22,68.22,0,0,0-.53-7L2.8,140.84c-.37,2.59-.68,5.23-.94,7.9"/></g></g><g class="cls-3"><g class="cls-46"><path class="cls-18" d="M.78,166.11l38.17-22.18a66.07,66.07,0,0,0,1.24-8.08L1.1,158.58c-.15,2.51-.25,5-.32,7.53"/></g></g><g class="cls-3"><g class="cls-47"><path class="cls-18" d="M.78,181.8,34.87,162c.6-2.85,1.19-5.64,1.79-8.38l-36,20.91c0,2.45,0,4.89.11,7.29"/></g></g><g class="cls-3"><g class="cls-48"><path class="cls-18" d="M9.62,192.06,31,179.65c.69-2.86,1.34-5.69,1.95-8.48L2.33,189c1.55,1.67,4.21,2.68,7.29,3.11"/></g></g><path class="cls-15" d="M0,181.86c7.93,5.9,26.85,3.25,30.66-1.35L30.07,188l1.77,10.45c-8.61,5.78-20.6,6.72-28.35,4.65-1.27-1-3.71-11-3.48-21.19"/><path class="cls-9" d="M63.37,246.47s39.16-15.23,39.16-22.84l1,9.51S82,253.75,60.7,252.83l1.58-4.68.5-1.58Z"/><path class="cls-9" d="M55.76,74.61S66.63,101.8,89.47,87.66l1.09,2.18S68.34,103.38,55,76.48c0,0-.31-1.87.78-1.87"/><path class="cls-7" d="M233.89,434.43a8.39,8.39,0,0,1-4.74,4.2,25.67,25.67,0,0,1-6.35,1.29c-.41,0-1,0-1.1-.37-.09-.23,0-.53-.09-.79s-.75-.32-1.16-.19a20.54,20.54,0,0,0-6.93,3.85c-1.29,1.1-2.45,2.33-3.74,3.38a26.45,26.45,0,0,1-4.46,2.8,28.74,28.74,0,0,1-7.87,2.8,14,14,0,0,1-4.09.26,14.46,14.46,0,0,1-3.68-1.25,5.44,5.44,0,0,1-1.29-.83c-2.84-2.23-3.65-6.6-2.17-10,1.23-2.76,4-5,6.44-6.58a40.38,40.38,0,0,1,7.42-3.62,54.89,54.89,0,0,0,5.21-2.39,20.19,20.19,0,0,0,2.18-1.34,12.24,12.24,0,0,0,1.85-1.55,18.28,18.28,0,0,0,3.23-4.49,9.14,9.14,0,0,0,.9-2.94c.17-1,.39-2.09,1.29-2.61a3.05,3.05,0,0,1,1.64-.28,79.44,79.44,0,0,1,10.57.77,1.94,1.94,0,0,1,.71.21c.49.37.45,1.1.47,1.71.08,2.58,2.28,4.52,3.76,6.65a13.83,13.83,0,0,1,2.58,7.51,8.45,8.45,0,0,1-.58,3.79"/><path class="cls-8" d="M233.89,434.43a8.39,8.39,0,0,1-4.74,4.2,25.67,25.67,0,0,1-6.35,1.29c-.41,0-1,0-1.1-.37-.09-.23,0-.53-.09-.79s-.75-.32-1.16-.19a20.54,20.54,0,0,0-6.93,3.85c-1.29,1.1-2.45,2.33-3.74,3.38a26.45,26.45,0,0,1-4.46,2.8,28.74,28.74,0,0,1-7.87,2.8,14,14,0,0,1-4.09.26c-1.19-.17-7-2.69-8.44-5.51a6.18,6.18,0,0,1,1.41-7c1.4,1.4-5.67,6.13,7,8.44,11.07,2,20.27-12.88,31.33-15-.58.1-2-.71-2.58-.91-.9-.34-1.81-.66-2.7-1a32.92,32.92,0,0,1-8.7-4.82,4.4,4.4,0,0,1-1.4-1.64,18.28,18.28,0,0,0,3.23-4.49,9.14,9.14,0,0,0,.9-2.94c.17-1,.39-2.09,1.29-2.61a3.05,3.05,0,0,1,1.64-.28,79.44,79.44,0,0,1,10.57.77,1.94,1.94,0,0,1,.71.21c.49.37.45,1.1.47,1.71.08,2.58,2.28,4.52,3.76,6.65a13.83,13.83,0,0,1,2.58,7.51,8.45,8.45,0,0,1-.58,3.79"/><path class="cls-7" d="M264.9,374.23a13.32,13.32,0,0,1,1.35,3.86,34.72,34.72,0,0,1,.67,5.23c0,.35,0,.81-.39.88s-.52-.18-.79-.23c-.74-.22-.42,1.38-.31,1.69.64,2,1.43,3.74,1.9,5.77,1.42,6.24,2.49,13,0,18.86a23.9,23.9,0,0,1-5.94,7.83,15.68,15.68,0,0,1-3.8,2.8,10.16,10.16,0,0,1-1.16.49,5.92,5.92,0,0,1-5.68-.83c-1.49-1.27-2-3.35-2.32-5.29-.5-2.81-.82-5.65-1.11-8.5a146.58,146.58,0,0,0-2-15.4,46.1,46.1,0,0,0-1.3-4.85c-.26-.83-.55-1.66-.87-2.45a15.82,15.82,0,0,1-1.51-4.69c0-.6,0-1.21-.12-1.81-.16-1.2.17-1.29,1-2.13a33.16,33.16,0,0,0,7-9.85.72.72,0,0,1,.42-.47.64.64,0,0,1,.39.13c2.82,1.52,5.62,3.07,8.44,4.59,2.3,1.27,4.8,1.94,6.23,4.36"/><path class="cls-8" d="M264.9,374.23a13.32,13.32,0,0,1,1.35,3.86,34.72,34.72,0,0,1,.67,5.23c0,.35,0,.81-.39.88s-.52-.18-.79-.23c-.74-.22-.42,1.38-.31,1.69.64,2,1.43,3.74,1.9,5.77,1.42,6.24,2.49,13,0,18.86a23.9,23.9,0,0,1-5.94,7.83,15.68,15.68,0,0,1-3.8,2.8c.39-.19.85-1.1,1.12-1.45l1.24-1.57a24.88,24.88,0,0,0,3.8-6.79,28.81,28.81,0,0,0,1.86-7.42,24.72,24.72,0,0,0-.24-5.15,59.84,59.84,0,0,0-4.37-15.89,21.57,21.57,0,0,0-3-5c-1.31-1.62-2.92-2.82-4.32-4.34a21,21,0,0,1-6.5,11.39c-.2.18-3.07,2.38-3.24,1.86-.26-.83-.55-1.66-.87-2.45a15.82,15.82,0,0,1-1.51-4.69c0-.6,0-1.21-.12-1.81-.16-1.2.17-1.29,1-2.13a33.16,33.16,0,0,0,7-9.85.72.72,0,0,1,.42-.47.64.64,0,0,1,.39.13c2.82,1.52,5.62,3.07,8.44,4.59,2.3,1.27,4.8,1.94,6.23,4.36"/><path class="cls-8" d="M248,413s11.63-15.78,18.65-12.11l-.11-7.41S262.91,380.8,247,404.34c0,0-1,7.2,1,8.66"/><path class="cls-8" d="M200.4,449l12.8-8.88s-2-7.82-18.29-8.38c0,0-9.35,3.64-8.7,7.91,0,0,10.18,2,14.18,9.36"/><path class="cls-49" d="M250,245.45l-7-13.73L247,211l6.91-.26c3.91,5.56,8.56,11.92,7.85,17.45-.89,6.93-4.58,19.61-11.7,17.26"/><path class="cls-50" d="M203.37,285.28c5.65,9.16,8.94,9.06,16.84,20.72,9.58,14.15,25.33,40.13,34.47,56.45,1.4,4.39-6.44,21.65-18.35,19.6-8.7-14-40.92-63.24-52.83-76.81-7.32-7.13-10.85-14.15-9.83-21.52,1-8.36,16.6-17.4,29.71,1.56"/><path class="cls-50" d="M203.37,285.28c5.65,9.16,8.94,9.06,16.84,20.72,9.58,14.15,25.33,40.13,34.47,56.45.84,2.64-1.66,9.93-6.38,14.89-5.37-9.59-19-33.36-31.64-51.87-11.8-17.32-26-31.83-26.73-34.25-1.35-4.7-.75-9.49,1.25-16.28,4,1.38,8.2,4.56,12.19,10.34"/><path class="cls-50" d="M224.53,195.36c.47,10.64,13.78,14.11,6.6,30.13S207.61,271.25,202,287c-2.7,17.28-25,12.55-28,2.87-1.14-10.16.74-14.58,2-24.19,2.86-21.73,7.1-50.06,12.21-68.9,1.26-8,1.44-10.29,3.9-16.56Z"/><path class="cls-50" d="M224.53,195.36c.47,10.64,13.78,14.11,6.6,30.13S207.61,271.25,202,287c-.87,5.58-3.79,8.86-7.43,10.43-2.68-3.18-4.44-5.36-4.67-6.18-2.9-10.09,13.17-36.36,22.72-66.38-8.4-11.68-23.87-30.44-22.89-37.21a24.38,24.38,0,0,1,1.92-6.93Z"/><path class="cls-50" d="M245.56,186.43c2,8.85,10.18,14.65,12.76,30.42,1.62,9.95,1,20.66-6,40.23-3.18,9-7.41,23.27-9.46,31.38-6.09,24-1.18,22.59,1.12,42.89,2.13,18.78-6.19,65.56-10.52,87.22-2.17,6.72-19.44,7.93-23.36.77.46-21.85,5.64-57.12,5.07-79.37-.37-14.27.09-14.95-3.35-29.36a42.37,42.37,0,0,1-.74-18.54l7.68-63.14c-9.37-11.68-19.82-23.74-27.14-37.66l1.25-6.63Z"/><path class="cls-50" d="M252.62,200.3a48.69,48.69,0,0,1,5.7,16.55c1.57,10,1,20.66-6,40.23-3.18,9-7.41,23.27-9.45,31.38-6.09,24-1.18,22.59,1.12,42.88,2.13,18.79-6.2,65.56-10.52,87.23-1.25,3.87-7.52,5.91-13.36,5.58,1.51-10.33,3.85-24.28,4.28-26.83,5.61-32.84,8.34-53.39,2.24-80.74-.81-5-1.78-7.66-.81-12.66,3.52-18.31,22.17-72.79,18-87.11-11.33.09-32.18-2-46.57-22.74,26.13,13.5,41.8,11.79,55.36,6.23"/><path class="cls-51" d="M241.88,221.88c-1.67,7.21-18.33,78-20.73,79.92-2,1.66-7.38,3.85-9-3.18-.89-3.91,2.55-22.81,2.72-24.12,1.69-12.57,5.45-40.75,5.91-44.35,7.09-4.26,12.37-7.29,21.06-8.26"/><path class="cls-51" d="M213.5,311.77c4.52,2.58,5.25,3.47,10.34,4.6,9.09,27.59-.56,69.13-5.13,105.33-3.47-.52-5.49-1.91-6.78-3.95,2.25-24.79,5-56.27,5.2-80.74.1-13.41-.16-13.57-3.63-25.25"/><path class="cls-51" d="M207.82,225.1c-3.6,6.14-22,62.73-22.9,64-2.11,3.24-10,4.36-10.22-7.2-.05-2.51,14-76,15.34-80.57,4.65,5.11,11.94,15.47,17.78,23.74"/><path class="cls-51" d="M182.37,302.67c4.42.57,6-3.41,8-4,7.69,6.25,15.58,15.71,21.61,23.43,1.58,3.83,2.45,14.83,1.62,22-3.64-5-8.1-11.38-10.57-14.84-9.79-13.74-11.75-18.2-20.68-26.59"/><path class="cls-15" d="M247.91,95s17.51,104,13.91,142.82l8.57-6.09S265.7,93.18,247.91,95"/><path class="cls-49" d="M157.08,165.05c.74,5.28,7.65,10.6,10.63,8.8a2.33,2.33,0,0,0,1-1.32c1.32-4.71-4.69-13.36-10.51-10.82-1,.45-1.29,2.33-1.15,3.34"/><path class="cls-14" d="M174,140.22c-6.44,9-12.73,18.45-19,26.87-2.31,3.11-4.7,6.2-7.2,9.17-4.23,5-7.38,7.69-11.16,12l-2.86,11.35,1.89,9.23c.13,1.49,3.32,4.52,5.12,4.63,4.05.25,5.53.11,5.95-.54,2.07-3.22-2.32-8.17-1.21-14.09,3.37-2.88,7.17-4.48,8.5-8.53,1.28-3.88,1.68-6.15,2.76-8,4-4.48,12.48-9.79,18-14.64s10.81-9.68,16.33-15.09Z"/><path class="cls-13" d="M182.09,146.42c-8.23,11.5-16.51,18-24.56,26.58-1,1.08-3.5,3.84-4.74,4.45a2.71,2.71,0,0,1-2.17.19c2.41,7.53-9.43,13.28-13,20.49,1,3.61.7,6.36,1.05,9.45.64,2.7,3.47,2.46,2.29,5.71,2.45.33,5.14.44,5.47-.07,2.07-3.22-2.07-8.48-.94-14.39,3.38-2.88,7.42-4.24,8.55-8.36,1.37-5,1.61-6.87,3.85-9.26,4.3-4.24,11.88-9.08,17-13.55,5.45-4.77,10.81-9.68,16.33-15.08Z"/><path class="cls-14" d="M152.47,180.44c1,5.25-3,5.35-7.19,9a18.41,18.41,0,0,1-2.2,4.65c.37,5.83,0,8.2-2.89,8.12-.41-1.9-1.28-5.63-1.48-7.29,1.57-9-1.09-7.34,7.91-16.26a3.41,3.41,0,0,1,5.84,1.76"/><path class="cls-52" d="M174,140.22c-5.6,7.84-11.67,14.91-16.22,21.81,5.89-1.25,10.6,7,10.58,11.18,10.18-9,18.46-15.92,22.8-20.61,9.09-16.86,20.22-33.21,24.5-45.28,5-14.22,4.85-25.1.84-26.35-7-2.14-8.14-5.22-13.16-.19-11.54,11.56-21.69,44.72-29.33,59.44"/><path class="cls-53" d="M165.45,165.78c1.86,2.14,2.55,4.54,2.95,7.47,13.81-11.46,19.86-16.18,23.67-21,9.09-16.87,19.35-32.87,23.62-44.93,5-14.23,4.86-25.11.84-26.35a21.36,21.36,0,0,0-4.75-1c-4.75-1.79-5.54-2.53-8.78,1.36-6.47,7.76-12.19,20-15.24,33-2.67,11.33,4.33,17-5.67,33.5a14.56,14.56,0,0,0-10.13-4c4.18,2.46,5.47,3.79,7.87,7.72-7.23,8.74-5.57,5.71-14.38,14.2"/><path class="cls-54" d="M166.56,150.1c-3,3.88-6.31,8.24-8.75,11.92,5.89-1.25,10.6,7,10.58,11.19,2.39-2.11,4.9-3.95,7.05-5.83-.41-4.48-4.07-11.46-8.88-17.28"/><path class="cls-52" d="M245.48,158.19c-11,26,7.66,44.72,7.78,45.33,14.31,68.54-60.2,26.24-70,9.54,1.19-8.37,10-40,11.2-45.92,1.69-8.44-1.83-15.54-.91-25.29.24-2.62.5-5.26.76-7.89.89-8.92,1.87-17.81,2.88-25.61,1.3-10,2.5-18.61,3.8-22.65a12.28,12.28,0,0,1,2-4c2.66-3.8,7.44-5.73,15.76-2.24,11.52,4.83,28.76,12.21,38.46,22.52,4.45,2.71,7.69,5.93,8.1,11.76.9,13.11-14.85,32.76-19.81,44.46"/><path class="cls-53" d="M247.49,157.44c-1.6,3.17-2,6.43-3,9.58-3.81,13.07,3.59,24.28,9.64,35.53-4.55,5.36-8.5,6.86-14.42,7.95-1.75-5.33-3.78-10.29-5.45-15.07-3.79-10.84-2.11-17.69-1.64-26.74a11.14,11.14,0,0,0-3.26-8.5c-1.38-1.52-5.2-2.66-8.45-3.87-10.27-3.84-12.59-9.68-17.84-12.24-3.33-1.61-6.39-3-9.38-4.4,0-10.78,4.76-21.57,8.15-31.68l41.77,16.06a43.06,43.06,0,0,1,12.06-23c5.15,2.89,9,6.15,9.49,12.57.89,13.11-12,32.41-17.72,43.76"/><path class="cls-52" d="M206.86,137.6c4,2,7.84,7.92,14.09,11.34a15.47,15.47,0,0,0,19.25-3.76,36.23,36.23,0,0,0,2.17-9.93c.57-12.74,2.33-19.58,9.56-29.82-4.52-2.48-9.14-5.11-11.65-7.81L211.68,82l-9.12,2.4c-3,8.6-4.49,13.13-10.16,21.42A19.94,19.94,0,0,0,189.19,122c2.1,9,10.47,11.95,17.68,15.61"/><path class="cls-55" d="M245.34,117.25c3.17,1.6,10.76,19.47,13.71,15.33,6.71-9.39,10.22-21.11.45-29.7-10.44-9.2-27.39-17.82-40.85-23.47-6.26-2.63-10.52-2.18-13.38-.18l5,2,29.64,13.38c4.43,3.67,7.55,7.52,12,11.31-2.83,4-4.93,6.49-6.59,11.3"/><path class="cls-52" d="M247.58,157.49c4.93-11.71,19.6-30.86,18.36-43.93-.92-9.93-14.37-18.78-27.19-25.21l.09,2.11-9.67,16.27-10,3.32a234.46,234.46,0,0,1,1.18,23.61c0,10.95-7.4,16.13-7.55,27.29-.14,9.68-.43,31.74,1.09,51.75.25,3.16,2.73,19.67,11.19,27.4,14.84,4.58,31.08-.43,30.36-21.2-.07-2.12,3.75,5.57,6.2,9.27,4.24-34.31-26.54-41.09-14.09-70.65m-64,55.61c.36-8.72,2.71-21.49,3.43-25.38,2-10.61,4.73-14.23,6.08-20.93,1.69-8.43,0-15.4.22-25.2.07-2.92.86-8.92,1.12-11.56.89-8.92,1.79-13.88,2.79-21.67,1.3-10,2.51-18.62,3.81-22.65a12.19,12.19,0,0,1,2-4c2.66-3.79,7.44-5.73,15.75-2.24l4.39,1.83-6.36.61c-8,13.34-11.85,22.8-14.43,31.92-3.22,11.39-4.06,22.24-3.63,39.42.46,18.61-9.29,41.06-14.9,60.28-.08-.13-.14-.27-.21-.41"/><path class="cls-53" d="M193.45,139.44c.23-2.88.7-6.7.94-8.91l4.58,3c-.19,2.62-.3,5.37-.35,8.31Z"/><path class="cls-53" d="M247.58,157.49c4.93-11.71,19.6-30.86,18.37-43.93-.46-4.9-4-9.53-8.94-13.75-2,2.17-4.41,4.76-5.14,5.7-7.25,10.3-8.94,17.08-9.5,29.73a35.92,35.92,0,0,1-2.17,9.94c-6.47,7.7-15.9,6.88-23.13,1.13l-2.79,6.58,0,.06c3.88,2.58,13.34,5.27,15.14,7.25a11.13,11.13,0,0,1,3.26,8.49c-.47,9.05-2.16,15.9,1.63,26.75,4.15,11.89,10.56,25,9.06,44.78,7.73-2.41,12.54-9,12.11-21.35-.07-2.12,3.84,5.73,6.29,9.44C266,194,235.13,187,247.58,157.49"/><path class="cls-13" d="M239.85,89.92c1.33,11.62-21.22,15.81-24.84,8.39-.39-8.07-.91-13.88-5.44-22.65l21.54-8.5,5.46-2.38c-2.79,11.39-.64,15.36,3.28,25.14"/><path class="cls-14" d="M239.85,89.7a1.53,1.53,0,0,1,0,.39c-10-10.76-20.28-6.64-27.91-9.19-.24-.54-.93-2.13-1.13-2.58-.67-1.9-.92-1.63-1.82-4.09l22.28-8.72,5.46-2.38c-2.79,11.4-.81,16.78,3.1,26.57"/><path class="cls-52" d="M217.08,146.33c1.72-3.77,3.32-7.61,3.31-12.69A234.75,234.75,0,0,0,219.2,110l10-3.31L239.48,95l.8,2.56c2.51,2.71,7.13,5.34,11.65,7.82-7.23,10.24-9,17.08-9.56,29.81a35.93,35.93,0,0,1-2.17,9.94A15.47,15.47,0,0,1,221,148.94a27,27,0,0,1-3.87-2.6m-14.75-32.52A95,95,0,0,0,199,133.64c-4.65-2.59-8.72-5.89-10.07-11.69a19.93,19.93,0,0,1,3.21-16.16c5.67-8.28,7.49-12.77,10.47-21.37L211.68,82l.46,6.7c-7.15,12.2-7.38,16.49-9.81,25.1"/><path class="cls-56" d="M209.73,77.53c-11.43,8.79-15,29.67-11.61,47.72,1.27-11.62,6.05-29.67,16.24-35.56-1.63-2.92-.18-3.28-2.64-9.39-.17,0-1.82-2.78-2-2.78"/><path class="cls-36" d="M198.3,124.12c2.66-10.74,5.78-28.18,14.75-36-.15-3-1.57-5.47-2-8.13-11.4,15-13.34,34.3-12.75,44.13"/><path class="cls-36" d="M209.21,58.89l10.32-3.59V38.52L214.81,25.4c-13.88,4.86-12.95,30.63-5.6,33.49"/><path class="cls-56" d="M238.06,80.71c9.76-3.74,16.64-20.22,16.5-31.11A41.32,41.32,0,0,0,251,34c-3-6.38-9.34-10.84-19.73-11.08-3.11-.07,5.78,2.65,1.76,4.32L235.88,55c-1.09,13-2.08,13.41,2.19,25.74"/><path class="cls-14" d="M214.66,80c12.51-2.24,17.17-7.19,22.48-18.28,5.76-2.22,8.54-4.54,9.78-7.54,2.94-7.14.78-16.2-3.75-22-4-5.08-9.37-7.61-16.12-7.86-13.11-.48-19.61,6.5-23,17.08-.66,2-.51,6.74-.36,9,.24,3.74-1.2,2.41-1.86,6a62.17,62.17,0,0,0,.36,14c.46,3.8-.17,7.44,1.5,8.43s5.29,2.22,11,1.21"/><path class="cls-13" d="M214.66,80c12.53-2.24,17.17-7.19,22.48-18.28,5.76-2.22,8.54-4.54,9.78-7.54,2.94-7.14.78-16.2-3.75-22-4-5.08-9.37-7.61-16.12-7.86-8.22-.3-15.68,3.93-19.36,9.13,1.14,7.65,10.09,17.1,13.95,20,2.43,1.81,3.17,2.49,3.15,4.59,0,4.41-5,3.62-5.52,5.59s4.53,3.41,2.24,8.7c-.64,1.48-5.48,6.43-7.62,7.85.25,0,.51-.08.77-.13"/><path class="cls-56" d="M207.5,31.42c9.34,24,29.62,28.64,29.41,33.8-.16,4,8.07-2.4,10.19-5.87a25.52,25.52,0,0,0-3.95-30.9c-10.4-10.14-29.51-6.94-35.65,3"/><path class="cls-36" d="M235.71,72.57c12-5.86,18.69-16.11,18.24-27.15,0,.24-.08.47-.13.71-.78-3.6-2-8.66-5.36-10.82,2.18,3.38,4.28,10.53,3.06,15.84-.27-5.53-1.77-8.08-4.91-13.39a40.6,40.6,0,0,1,2.18,13.72c-.79-4.1-3.91-10.51-6.23-12.13a19.63,19.63,0,0,1,2.57,15.85c-.16-5.22-3.05-12.51-6.67-14.65,1.66,2.39,3.7,8,3.12,11.25-1.83-4.36-1.77-5.24-5.63-9.62a26.87,26.87,0,0,1,2.63,9.89c-1.6-3-2.81-5.72-5-9.07.79,2.26,2.68,9.73,2.24,12-.61-1.41-6.78-7.55-9.47-10,2.47,4.64,5.31,9.61,8.08,11.94.33.79-11.17-5.31-23.42-19.52C216.77,49,226.71,53.92,235.29,62l-.39,4.7a15.3,15.3,0,0,0,.81,5.9"/><path class="cls-13" d="M239.81,54.11c5.18-1.18,4.61,4.6,3.47,8-.78,2.34-2.75,2-3.67,3.79-1.09,2.18-3,3-4.46,2.84-3-.4-.67-4.73-.13-6.48,0-3,1.5-7.41,4.79-8.16"/><path class="cls-57" d="M236.94,60.72c1.32-2.26,2.11-5.26,5.47-4.54-3-.07-3.93,2.55-5.47,4.54"/><path class="cls-36" d="M254.4,47.78c1.57,7.16-2.14,24.93-17,35.7-1-1.22-2.41-8.72-2-11.79,14.42-10.52,10.83-5.95,19-23.91"/><path class="cls-58" d="M208.39,32.37c1.47-6.58,12.17-11.27,23.74-9.44,5.4.39,13.07,2.67,16.35,7.69-5-3.81-9.47-5.5-15.91-6.47,3.67,1,11.61,4.35,14.51,10.4A24.38,24.38,0,0,0,232,25.64c5.77,2.44,7,4.22,10.23,8.48-3.87-3.27-7.87-6.23-12.55-7.56,4.17,2.42,5.71,4.18,8,8.79-4.67-4.49-4.83-6.08-11.2-7.87,2,1.7,6.54,5.82,8.57,9.53a77.05,77.05,0,0,0-11.67-8c2.56,2.59,5.67,6.07,7.13,8.74-3.31-2.8-6-5.39-11.1-7.78,4.36,4,7.39,7,10.4,12.15a91.7,91.7,0,0,0-12.19-10.45c2.69,3.95,4.6,6.23,7.34,10.19-3.71-2.51-8.62-7.33-11.93-10.84,2.35,3.46,9.44,13.29,12.42,16.61-3.55-2.71-12-12.07-14.43-15.3.86,3.72,3.55,7.74,6.69,11.06-3.95-2.67-6.83-6.75-9.27-11.06"/><path class="cls-15" d="M248.27,93.59s-21.9,9.89-20,114.77c0,0,.94,68.37,6.56,83.35,0,0-22.48,5.62-25.29-14,0,0-.37-20.34.69-47.78,1.88-48.89,8.28-120.33,29.27-139.53,0,0,7.28-2,8.79,3.23"/><path class="cls-15" d="M209.51,228s21.54,22.48,60.87,3.75c0,0,23.41,33.72,3.75,49.64,0,0-46.76,31.84-63.19,0Z"/><path class="cls-52" d="M264.7,109.23c6.12,10.32,10.23,32.63,12.09,47.55.95,7.59,1.14,13.57-4.52,16.41-5.37,2.69-11.4-2.18-13.66-7.9-2.68-6.78.24-9.67-8-31.81-4.22-11.35-1.93-21,3.69-25.52,3.26-2.61,7.4-3.78,10.4,1.28"/><path class="cls-53" d="M264.7,109.23c6.12,10.32,10.23,32.63,12.09,47.55.95,7.59,1.14,13.57-4.52,16.41-3.77,1.88-7.87.05-10.75-3.19a66,66,0,0,0,6.53-2.51c1.87-.84,3-.92,2.11-5.34-4.19-19.68-7.91-36.52-14.59-55.1,3-1.91,6.51-2.24,9.14,2.18"/><path class="cls-59" d="M228.89,183l1.75-3.79-1-6.8c-3.3-2-5.8-2.66-7.19-2.09a3.18,3.18,0,0,0-.36.13c-4.49,2.48.59,15.21,6.79,12.56"/><path class="cls-14" d="M276.34,168.6a7.71,7.71,0,0,1-3.14,3.76c-1.59,1.08-3.93,1.55-6.33,2.54-9.3,3.85-24.05,5.19-38.5,7-5-4.94-7-8.33-6.59-11.12,10.21-.56,26.86-6.86,38.86-10a26.26,26.26,0,0,1,4.54-.79c4.89,1.59,13.52,2.56,11.16,8.66"/><path class="cls-13" d="M276.34,168.6a7.71,7.71,0,0,1-3.14,3.76c-1.59,1.08-3.93,1.55-6.33,2.54-9.3,3.85-24.05,5.19-38.5,7a19.72,19.72,0,0,0,0-4.14c12.6-4,27.24-4.92,39.71-9.94,1.87-.76,3-.83,2.11-4.79l-.43-1.8c4.24,1.22,8.34,2.94,6.62,7.38"/><path class="cls-13" d="M215.5,189.61a31.68,31.68,0,0,1-9.07-2.66c-1.74-.82-2.29-13.12-2.08-13.16,2.19.38,7,1.58,9.36,1.87,9.45-3,11.25-3.51,14.59-2.46,1.67.52,3,2.25,7.32,2.63l-3.7,5.64c-5.3,1.33-10.64,6.49-16.42,8.14"/><path class="cls-14" d="M213.85,176.95a31.42,31.42,0,0,1-9.08-2.66c-1.74-.81,2.1-1.28,3.16-1.1,2.19.39,4,.87,6.34,1.17,2.85-.9,9.11-2.89,11.89-4l2.34.19a145.52,145.52,0,0,1-14.65,6.4"/><path class="cls-14" d="M211,173.1c-.48,3.38,4.68,1.77,6,1.18,1.12-.09,9.11-2.35,7.55-2.83-1.36-.51-3.45-1.66-6.24-.91-1.71.45-1.76,1.1-3.62,1.7a19.39,19.39,0,0,1-3.66.87"/><path class="cls-52" d="M276.34,168.37a8.45,8.45,0,0,1-3.14,4.19c-1.59,1.2-3.93,1.72-6.33,2.84-6.4,3-15.44,4.62-25.26,6,1.37-5.57-.61-12.79-5.64-14.65,8.76-2.42,16.58-4.81,24.67-7.18a25,25,0,0,1,4.54-.88c4.89,1.77,13.52,2.86,11.16,9.66"/><path class="cls-53" d="M276.48,168.5a8.55,8.55,0,0,1-3.27,4.06c-1.59,1.21-3.93,1.73-6.33,2.84-6.45,3-15.54,4.62-25.33,6a8.27,8.27,0,0,0-.41-6.35c9.1-2.08,18.5-3.8,26.91-7.57,1.87-.84,3-.92,2.11-5.35l-.43-2c4.24,1.37,8.47,3.42,6.76,8.37"/><path class="cls-54" d="M257.14,178.63c-4.7,1.14-10,2-15.53,2.78,1.38-5.57-.61-12.79-5.64-14.64,2.74-.76,4.52-1.25,7.1-2,5.41,2,11.63,7.55,14.06,13.86"/><path class="cls-53" d="M254.2,180.32a42.08,42.08,0,0,1-12.65,1c0-6.27-3.12-13-6.26-14.19.94-1.26,3.28-2.09,5.67-2.84,6.55,5.12,10.91,9.81,13.24,16"/><path class="cls-52" d="M271,164.63c-1.35-6.11-10.84-7.81-13.45-8-3.36-.3-3.85,2.2-2.48,2.59s1,.47,1.57.79a10.17,10.17,0,0,0-2.35-.66c-2-.11-3,2.29-2.28,2.79s10.3-1.69,16.15,5.83l2.5-.94Z"/><path class="cls-53" d="M272.16,167.76c-1.25-8.14-10.27-9.76-15.33-8.92,8.72.29,12,3.93,14.19,8.61a17.74,17.74,0,0,0-17-7.13c8.76.92,10.26,2,16.22,8.57,1.18.31,2-.33,1.88-1.14"/><path class="cls-53" d="M267.71,165.28c-6-3.43-13.81-3.82-17-2.62,6.31.81,9.59.38,17,2.62"/><path class="cls-60" d="M240.93,257.4s17.69,12.49,34.6-2.08c0,0,10.73,29.46-13.11,25.55,0,0-20-.65-21.49-23.47"/></g></g></g></svg>